<svg id="Layer_1" data-name="Layer 1" xmlns="http://www.w3.org/2000/svg" viewBox="0 0 64 64"><defs><style>.cls-1,.cls-2{fill:none;stroke:#000;stroke-width:4px;}.cls-1{stroke-linecap:round;stroke-linejoin:round;}.cls-2{stroke-miterlimit:10;}</style></defs><title>1</title><rect class="cls-1" x="24" y="6.32" width="16" height="54" transform="translate(-14.19 32.39) rotate(-45)"/><polygon class="cls-1" points="31.8 44.44 22.61 53.63 9.37 55.95 11.69 42.7 20.88 33.51 31.8 44.44"/><path class="cls-1" d="M43.12,33.12,51.21,25l2.49-2.49c2.75-2.75,2.53-7.42-.49-10.44s-7.69-3.23-10.43-.48L40.29,14.1,32.2,22.2Z"/><line class="cls-2" x1="24.22" y1="52.41" x2="13.62" y2="41.8"/><line class="cls-2" x1="51.09" y1="25.54" x2="40.49" y2="14.93"/><rect x="18.87" y="13.44" width="5" height="2.93" transform="translate(-4.28 19.48) rotate(-45)"/><rect x="23.02" y="17.59" width="5" height="2.93" transform="translate(-6 23.63) rotate(-45)"/><rect x="27.17" y="21.74" width="5" height="2.93" transform="translate(-7.72 27.77) rotate(-45)"/><rect x="31.31" y="25.89" width="5" height="2.93" transform="translate(-9.44 31.92) rotate(-45)"/><rect x="35.46" y="30.04" width="5" height="2.93" transform="translate(-11.16 36.07) rotate(-45)"/><rect x="39.61" y="34.18" width="5" height="2.93" transform="translate(-12.87 40.22) rotate(-45)"/><rect x="43.76" y="38.33" width="5" height="2.93" transform="translate(-14.59 44.37) rotate(-45)"/><rect x="47.91" y="42.48" width="5" height="2.93" transform="translate(-16.31 48.52) rotate(-45)"/></svg>