<svg id="Layer_1" data-name="Layer 1" xmlns="http://www.w3.org/2000/svg" viewBox="0 0 64 64"><defs><style>.cls-1{fill:none;stroke:#000;stroke-linecap:round;stroke-linejoin:round;stroke-width:4px;}</style></defs><title>11</title><path class="cls-1" d="M57,32A25,25,0,0,0,7,32Z"/><path class="cls-1" d="M46,32a14,14,0,0,1-28,0"/><path class="cls-1" d="M38,32a6,6,0,0,1-12,0"/><line class="cls-1" x1="45.7" y1="34.88" x2="51.42" y2="32"/><line class="cls-1" x1="43.68" y1="39.71" x2="50.06" y2="39.13"/><line class="cls-1" x1="40.03" y1="43.47" x2="46.18" y2="45.27"/><line class="cls-1" x1="35.26" y1="45.62" x2="40.31" y2="49.55"/><line class="cls-1" x1="30.03" y1="45.86" x2="33.29" y2="51.37"/><line class="cls-1" x1="25.08" y1="44.17" x2="26.08" y2="50.49"/><line class="cls-1" x1="21.09" y1="40.78" x2="19.7" y2="47.03"/><line class="cls-1" x1="18.63" y1="36.16" x2="15.04" y2="41.46"/><line class="cls-1" x1="18" y1="32" x2="12.75" y2="34.57"/><line class="cls-1" x1="11" y1="57" x2="53" y2="57"/></svg>