<svg id="Layer_1" data-name="Layer 1" xmlns="http://www.w3.org/2000/svg" viewBox="0 0 64 64"><defs><style>.cls-1{fill:none;stroke:#000;stroke-linecap:round;stroke-linejoin:round;stroke-width:4px;}</style></defs><title>12</title><path class="cls-1" d="M7,31.5H7V7.5H47v31H37a4,4,0,0,0-4,4h0a2,2,0,0,1-2,2H14v-6A7,7,0,0,0,7,31.5Z"/><rect class="cls-1" x="16" y="14.5" width="24" height="8" rx="4"/><polyline class="cls-1" points="14 57.5 15 55.5 13 53.5 15 50.5 13 48.5 14 46.5"/><polyline class="cls-1" points="14 44.5 7 44.5 7 31.5"/><path class="cls-1" d="M47,7.5h3a3,3,0,0,1,3,3v0a3,3,0,0,1-3,3H47a0,0,0,0,1,0,0v-6A0,0,0,0,1,47,7.5Z"/><path class="cls-1" d="M53,10.5a4,4,0,0,0,4-4"/><line class="cls-1" x1="7" y1="53.5" x2="49" y2="53.5"/></svg>