<svg id="Layer_1" data-name="Layer 1" xmlns="http://www.w3.org/2000/svg" viewBox="0 0 64 64"><defs><style>.cls-1{fill:none;stroke:#000;stroke-linecap:round;stroke-linejoin:round;stroke-width:4px;}</style></defs><title>14</title><rect class="cls-1" x="28.81" y="5.32" width="7" height="14" transform="translate(18.18 -19.24) rotate(45)"/><path class="cls-1" d="M52.46,22.58,44,14.09,34.08,24l8.48,8.48,7.78-2.12S55.29,34.6,55.29,41C55.29,41,59.53,29.65,52.46,22.58Z"/><polygon class="cls-1" points="39.73 9.85 39.73 14.09 43.98 14.09 34.08 23.99 33.37 20.45 29.83 19.75 39.73 9.85"/><path class="cls-1" d="M19.47,22.08h8a0,0,0,0,1,0,0v38a4,4,0,0,1-4,4h0a4,4,0,0,1-4-4v-38A0,0,0,0,1,19.47,22.08Z" transform="translate(37.34 -3.98) rotate(45)"/></svg>