<svg id="Layer_1" data-name="Layer 1" xmlns="http://www.w3.org/2000/svg" viewBox="0 0 64 64"><defs><style>.cls-1{fill:none;stroke:#000;stroke-linecap:round;stroke-linejoin:round;stroke-width:4px;}</style></defs><title>15</title><rect class="cls-1" x="10.81" y="7" width="38.56" height="15.25" rx="4"/><line class="cls-1" x1="10.39" y1="14.63" x2="7" y2="14.63"/><path class="cls-1" d="M49.37,14.63h4.24A3.39,3.39,0,0,1,57,18v9.32a3.39,3.39,0,0,1-3.39,3.39H29.88v6.78"/><path class="cls-1" d="M26.49,37.51h6.78a0,0,0,0,1,0,0v16.1A3.39,3.39,0,0,1,29.88,57h0a3.39,3.39,0,0,1-3.39-3.39V37.51A0,0,0,0,1,26.49,37.51Z"/></svg>