<svg id="Layer_1" data-name="Layer 1" xmlns="http://www.w3.org/2000/svg" viewBox="0 0 64 64"><defs><style>.cls-1{fill:none;stroke:#000;stroke-linecap:round;stroke-linejoin:round;stroke-width:4px;}</style></defs><title>17</title><path class="cls-1" d="M40.52,3a18.08,18.08,0,1,0,18,18.07"/><ellipse class="cls-1" cx="40.52" cy="21.07" rx="11.36" ry="11.42"/><ellipse cx="40.52" cy="21.07" rx="1.89" ry="1.9"/><path class="cls-1" d="M22.54,26.46l-11,11.1a3.81,3.81,0,0,0,0,5.38l7.42,7.46a3.77,3.77,0,0,0,5.36,0L34.84,39.77"/><path class="cls-1" d="M11.43,43l-3.8,3.81a4.73,4.73,0,0,0,0,6.65h0a4.66,4.66,0,0,0,6.62,0l3.55-3.57"/><path class="cls-1" d="M6.61,55.32a3.81,3.81,0,0,0,0,5.38"/><line class="cls-1" x1="15.5" y1="31.9" x2="14.5" y2="30.89"/></svg>