<svg id="Layer_1" data-name="Layer 1" xmlns="http://www.w3.org/2000/svg" viewBox="0 0 64 64"><defs><style>.cls-1{fill:none;stroke:#000;stroke-linecap:round;stroke-linejoin:round;stroke-width:4px;}</style></defs><title>2</title><path class="cls-1" d="M52.64,55.48a5,5,0,0,1-3.08,4.65,4.87,4.87,0,0,1-6.38-2.78L33,31.48v0A14.27,14.27,0,0,1,19.3,22.37,14.6,14.6,0,0,1,27.2,3.5l2.33,5.89A5,5,0,0,1,29,14.23a4.55,4.55,0,0,0-.32,5A4.43,4.43,0,0,0,33,21.42s0,0,0,0a3.83,3.83,0,0,0,1.2-.29,4.88,4.88,0,0,1,6.35,2.79L42,27.59l10.29,26A5.05,5.05,0,0,1,52.64,55.48Z"/><path class="cls-1" d="M32.94,31.45v0a12.87,12.87,0,0,1-1.39,0L20.8,57.17a4.89,4.89,0,0,1-6.45,2.64,5,5,0,0,1-3-4.6,5.24,5.24,0,0,1,.39-2L22.6,27.37A14.19,14.19,0,0,0,32.94,31.45Z"/><path class="cls-1" d="M45.38,22.71A13.84,13.84,0,0,1,42,27.59l-1.45-3.68a4.88,4.88,0,0,0-6.35-2.79,3.83,3.83,0,0,1-1.2.29,4.31,4.31,0,0,0,3.06-2.08,4.56,4.56,0,0,0-.22-5,5,5,0,0,1-.42-4.86l2.45-5.83A14.59,14.59,0,0,1,45.38,22.71Z"/></svg>