<svg id="Layer_1" data-name="Layer 1" xmlns="http://www.w3.org/2000/svg" viewBox="0 0 64 64"><defs><style>.cls-1{fill:none;stroke:#000;stroke-linecap:round;stroke-linejoin:round;stroke-width:4px;}</style></defs><title>20</title><path class="cls-1" d="M39.22,30.44l15-11.91a6.24,6.24,0,0,0,.53-9.3h0a6.24,6.24,0,0,0-9.3.53l-11.91,15-4.24-4.24a4,4,0,0,0-5.66,0l-2.12,2.12,19.8,19.8,2.12-2.12a4,4,0,0,0,0-5.66Z"/><rect class="cls-1" x="10.37" y="29.63" width="28" height="20" transform="translate(13.58 84.89) rotate(-135)"/><line class="cls-1" x1="21.54" y1="50.94" x2="26.49" y2="46"/><line class="cls-1" x1="17.3" y1="46.7" x2="25.78" y2="38.22"/><line class="cls-1" x1="13.06" y1="42.46" x2="18" y2="37.51"/></svg>