<?xml version="1.0" encoding="UTF-8"?>
<!DOCTYPE svg PUBLIC "-//W3C//DTD SVG 1.1//EN" "http://www.w3.org/Graphics/SVG/1.1/DTD/svg11.dtd">
<!-- Creator: CorelDRAW -->
<svg xmlns="http://www.w3.org/2000/svg" xml:space="preserve" width="6.82666in" height="6.82666in" style="shape-rendering:geometricPrecision; text-rendering:geometricPrecision; image-rendering:optimizeQuality; fill-rule:evenodd; clip-rule:evenodd"
viewBox="0 0 6.82666 6.82666"
 xmlns:xlink="http://www.w3.org/1999/xlink">
 <defs>
  <style type="text/css">
   <![CDATA[
    .fil0 {fill:none}
    .fil1 {fill:#212121;fill-rule:nonzero}
   ]]>
  </style>
 </defs>
 <g id="Layer_x0020_1">
  <metadata id="CorelCorpID_0Corel-Layer"/>
  <g id="_269575232">
   <rect id="_269575760" class="fil0" width="6.82666" height="6.82666"/>
   <path id="_269574872" class="fil1" d="M2.45489 2.55333l0.853335 0c0.0589094,0 0.106669,0.0477598 0.106669,0.106669l0 3.18836c0,0.0589094 -0.0477598,0.106669 -0.106669,0.106669l-0.853335 0c-0.0589094,0 -0.106669,-0.0477598 -0.106669,-0.106669l0 -3.18836c0,-0.0589094 0.0477598,-0.106669 0.106669,-0.106669zm0.746665 0.213339l-0.639996 0 0 2.97502 0.639996 0 0 -2.97502z"/>
   <path id="_269574656" class="fil1" d="M1.91302 5.76708c-0.0586811,0.00298819 -0.103823,0.0529882 -0.100835,0.111669 0.00298819,0.0586811 0.0529882,0.103823 0.111669,0.100835l0.145252 -0.00772835 -0.00541732 -0.106252 0.00566929 0.106516c0.0236772,-0.00125984 0.0451299,-0.0101535 0.062122,-0.0241614l0.373937 -0.253374c0.0485551,-0.0329055 0.0612402,-0.0989449 0.0283346,-0.1475 -0.0329055,-0.0485551 -0.0989449,-0.0612402 -0.1475,-0.0283346l-0.357398 0.242169 -0.115835 0.00616142z"/>
   <path id="_269574728" class="fil1" d="M3.83925 5.97958c0.0586811,0.00298819 0.108681,-0.0421535 0.111669,-0.100835 0.00298819,-0.0586811 -0.0421535,-0.108681 -0.100835,-0.111669l-0.115835 -0.00616142 -0.357398 -0.242169c-0.0485551,-0.0329055 -0.114594,-0.0202205 -0.1475,0.0283346 -0.0329055,0.0485551 -0.0202205,0.114594 0.0283346,0.1475l0.373937 0.253374c0.0169921,0.0140079 0.0384449,0.0229016 0.062122,0.0241614l0.00566929 -0.106516 -0.00541732 0.106252 0.145252 0.00772835z"/>
   <path id="_269575328" class="fil1" d="M2.98822 1.28854c0,-0.0589094 -0.0477598,-0.106669 -0.106669,-0.106669 -0.0589094,0 -0.106669,0.0477598 -0.106669,0.106669l0 1.37146c0,0.0589094 0.0477598,0.106669 0.106669,0.106669 0.0589094,0 0.106669,-0.0477598 0.106669,-0.106669l0 -1.37146z"/>
   <path id="_269575064" class="fil1" d="M2.03231 0.846661l0.0897323 0c0.0244921,0 0.0470551,0.00825984 0.0650591,0.0221417 0.00815354,0.00522835 0.017185,0.00948031 0.0269016,0.0125591 0.0105551,0.00334252 0.0219055,0.00515354 0.0337756,0.00515354l1.27165 0c0.0118701,0 0.0232244,-0.00181102 0.0337795,-0.00515354 0.0112559,-0.00356693 0.0215906,-0.00870866 0.0307047,-0.0151142l0.061252 0.0870827 -0.0613504 -0.0872598c0.0188937,-0.0132835 0.0406063,-0.0195709 0.062063,-0.0194094l0.0890118 0c0.0589094,0 0.106669,0.0477598 0.106669,0.106669l0 0.341016c0,0.0589094 -0.0477598,0.106669 -0.106669,0.106669l-0.0897244 0c-0.0244921,0 -0.0470551,-0.00825984 -0.0650591,-0.0221417 -0.00814961,-0.00522835 -0.0171811,-0.00948031 -0.0268976,-0.0125591 -0.0105551,-0.00334252 -0.0219094,-0.00515354 -0.0337795,-0.00515354l-1.27165 0c-0.0118701,0 -0.0232205,0.00181102 -0.0337756,0.00515354 -0.0112559,0.00356693 -0.0215945,0.00870866 -0.0307087,0.0151142l-0.061252 -0.0870827 0.0613425 0.0872638c-0.0188937,0.0132835 -0.0406063,0.0195669 -0.0620669,0.0194055l-0.0890079 0c-0.0589094,0 -0.106669,-0.0477598 -0.106669,-0.106669l0 -0.341016c0,-0.0589094 0.0477598,-0.106669 0.106669,-0.106669zm0.117528 0.238031c-0.00364567,-0.00115354 -0.00726378,-0.00237402 -0.0108583,-0.00366142l0 0.0856142c0.00359449,-0.0012874 0.0072126,-0.00250787 0.0108583,-0.00366142 0.0310591,-0.00983858 0.0639724,-0.0151614 0.0979409,-0.0151614l1.27165 0c0.0339646,0 0.0668858,0.00532283 0.0979449,0.0151614 0.00364173,0.00115354 0.00725591,0.00237795 0.0108465,0.00365748l0 -0.0856063c-0.00359055,0.00128346 -0.00720472,0.00250394 -0.0108465,0.00365748 -0.0310591,0.00983858 -0.0639803,0.0151614 -0.0979449,0.0151614l-1.27165 0c-0.0339685,0 -0.0668819,-0.00532283 -0.0979409,-0.0151614z"/>
   <path id="_269575112" class="fil1" d="M2.88156 5.43333c-0.0589094,0 -0.106669,0.0477598 -0.106669,0.106669 0,0.0589094 0.0477598,0.106669 0.106669,0.106669l0.495311 0c0.192102,0 0.327004,-0.0762402 0.418594,-0.188094 0.112209,-0.137035 0.152764,-0.325728 0.152764,-0.486067l0 -0.708311c0,-0.136831 0.0680827,-0.223012 0.155217,-0.259642 0.0342795,-0.0144134 0.0724567,-0.0216142 0.111453,-0.0216142 0.0383622,0 0.0765197,0.00733858 0.111449,0.0219961 0.0871299,0.0365591 0.155209,0.122236 0.155209,0.257583l0 0.424146c0,0.0589094 0.0477598,0.106669 0.106669,0.106669 0.0589094,0 0.106669,-0.0477598 0.106669,-0.106669l0 -0.424146c0,-0.235047 -0.125465,-0.38687 -0.286043,-0.454252 -0.0614016,-0.0257677 -0.127787,-0.0386654 -0.193953,-0.0386654 -0.0655394,0 -0.131909,0.0130315 -0.193957,0.0391181 -0.160583,0.0675079 -0.286051,0.219508 -0.286051,0.455476l0 0.708311c0,0.119669 -0.0277244,0.257398 -0.104425,0.351067 -0.0534449,0.0652677 -0.134717,0.109756 -0.253594,0.109756l-0.495311 0z"/>
   <path id="_269575040" class="fil1" d="M4.32156 5.14103l0.533331 0 0 -0.106768 -0.533331 0 0 0.106768zm0.586665 0.106669l-0.64 0c-0.0294528,0 -0.0533346,-0.0238819 -0.0533346,-0.0533346l0 -0.213437c0,-0.0294528 0.0238819,-0.0533346 0.0533346,-0.0533346l0.64 0c0.0294528,0 0.0533346,0.0238819 0.0533346,0.0533346l0 0.213437c0,0.0294528 -0.0238819,0.0533346 -0.0533346,0.0533346z"/>
   <path id="_269574680" class="fil1" d="M4.42817 4.98093l0 -0.222661c0,-0.0294528 0.0238819,-0.0533346 0.0533346,-0.0533346l0.213437 0c0.0294528,0 0.0533346,0.0238819 0.0533346,0.0533346l0 0.222661c0,0.0294528 -0.0238819,0.0533346 -0.0533346,0.0533346l-0.213437 0c-0.0294528,0 -0.0533346,-0.0238819 -0.0533346,-0.0533346zm0.106669 -0.169327l0 0.115992 0.106768 0 0 -0.115992 -0.106768 0z"/>
   <path id="_269574968" class="fil1" d="M2.35498 2.55333c-0.0589094,0 -0.106669,0.0477598 -0.106669,0.106669 0,0.0589094 0.0477598,0.106669 0.106669,0.106669l1.05315 0c0.0589094,0 0.106669,-0.0477598 0.106669,-0.106669 0,-0.0589094 -0.0477598,-0.106669 -0.106669,-0.106669l-1.05315 0z"/>
  </g>
 </g>
</svg>
