<?xml version="1.0" encoding="UTF-8"?>
<!DOCTYPE svg PUBLIC "-//W3C//DTD SVG 1.1//EN" "http://www.w3.org/Graphics/SVG/1.1/DTD/svg11.dtd">
<!-- Creator: CorelDRAW -->
<svg xmlns="http://www.w3.org/2000/svg" xml:space="preserve" width="6.82666in" height="6.82666in" style="shape-rendering:geometricPrecision; text-rendering:geometricPrecision; image-rendering:optimizeQuality; fill-rule:evenodd; clip-rule:evenodd"
viewBox="0 0 6.82666 6.82666"
 xmlns:xlink="http://www.w3.org/1999/xlink">
 <defs>
  <style type="text/css">
   <![CDATA[
    .fil1 {fill:none}
    .fil0 {fill:#212121;fill-rule:nonzero}
   ]]>
  </style>
 </defs>
 <g id="Layer_x0020_1">
  <metadata id="CorelCorpID_0Corel-Layer"/>
  <path class="fil0" d="M1.83424 2.80189l3.15817 0c0.187579,0 0.358035,0.0766654 0.481543,0.200169 0.123504,0.123504 0.200169,0.293961 0.200169,0.481539l0 3.93701e-006c0,0.187579 -0.0766654,0.358035 -0.200169,0.481543 -0.123508,0.123504 -0.293965,0.200169 -0.481543,0.200169l-3.15817 0c-0.187575,0 -0.358031,-0.0766654 -0.481539,-0.200173 -0.123504,-0.123504 -0.200169,-0.293961 -0.200169,-0.481539l0 -3.93701e-006c0,-0.187575 0.0766654,-0.358031 0.200169,-0.481539 0.123508,-0.123504 0.293965,-0.200169 0.481539,-0.200169zm3.15817 0.213339l-3.15817 0c-0.128689,0 -0.245764,0.0527283 -0.330705,0.137665 -0.084937,0.0849409 -0.137665,0.202016 -0.137665,0.330705l0 3.93701e-006c0,0.128693 0.0527283,0.245768 0.137665,0.330705 0.0849409,0.0849409 0.202016,0.137669 0.330705,0.137669l3.15817 0c0.128693,0 0.245768,-0.0527283 0.330709,-0.137665 0.084937,-0.0849409 0.137665,-0.202016 0.137665,-0.330709l0 -3.93701e-006c0,-0.128693 -0.0527283,-0.245768 -0.137665,-0.330705 -0.0849409,-0.084937 -0.202016,-0.137665 -0.330709,-0.137665z"/>
  <path class="fil0" d="M4.44402 2.90721c0.0294528,0.0508543 0.094563,0.0682008 0.145417,0.038748 0.0508543,-0.0294528 0.0682008,-0.094563 0.038748,-0.145417 -0.159366,-0.273642 -0.334142,-0.591402 -0.489079,-0.91487 -0.12276,-0.256291 -0.233823,-0.517394 -0.316039,-0.764823 0.159299,0.0905039 0.353772,0.286122 0.554795,0.53178 0.380453,0.464933 0.767642,1.09947 0.999272,1.56607 0.026,0.0526969 0.0898031,0.0743346 0.1425,0.0483346 0.0526969,-0.026 0.0743346,-0.0898031 0.0483346,-0.1425 -0.23785,-0.479138 -0.63511,-1.13031 -1.02511,-1.60691 -0.307551,-0.375839 -0.619193,-0.648496 -0.865909,-0.663374 -0.0138465,-0.0018622 -0.0282913,-0.00102362 -0.0426063,0.00293701 -0.0567756,0.0157008 -0.0900748,0.0744646 -0.074374,0.13124l0.000311024 -8.66142e-005c0.086689,0.313469 0.227472,0.655614 0.387154,0.988996 0.159299,0.332579 0.33622,0.654512 0.496583,0.92987z"/>
  <path class="fil0" d="M2.25248 4.0674c0.00483071,-0.0586811 -0.0388189,-0.110173 -0.0975,-0.115004 -0.0586811,-0.00483071 -0.110173,0.0388189 -0.115004,0.0975 -0.0359803,0.418909 0.231949,0.670925 0.464028,0.889209 0.0609134,0.0572953 0.118874,0.111819 0.164709,0.164079 -0.0153976,0.00188976 -0.0295079,0.00511024 -0.0423701,0.00955906 -0.0759528,0.0262795 -0.112709,0.0815709 -0.116976,0.157331 -0.00121654,0.0215709 0.000937008,0.0446181 0.00614173,0.0687717 -0.0463268,-0.0516654 -0.0933937,-0.10685 -0.140827,-0.164811 -0.380453,-0.464929 -0.767642,-1.09947 -0.999272,-1.56607 -0.026,-0.0526969 -0.0898031,-0.0743346 -0.1425,-0.0483346 -0.0526969,0.026 -0.0743346,0.0898031 -0.0483346,0.1425 0.23785,0.479138 0.63511,1.13032 1.02511,1.60691 0.307543,0.375831 0.619181,0.648484 0.865894,0.663374 0.0393465,0.00524803 0.0800748,-0.0117717 0.103331,-0.0471654 0.0323504,-0.0492283 0.0186654,-0.11537 -0.030563,-0.14772l-0.000251969 0.000385827c-0.179055,-0.117669 -0.343984,-0.301669 -0.406421,-0.434012 -0.00520472,-0.0110315 -0.0094685,-0.0210472 -0.012689,-0.0298937 0.0218819,0.00383858 0.0529016,0.0129803 0.0943976,0.0284055 0.0193504,0.00887008 0.0415354,0.0120551 0.0640472,0.00783071 0.0578976,-0.0108661 0.0960276,-0.0666181 0.0851614,-0.124516l-0.00026378 5.11811e-005c-0.0315512,-0.168016 -0.169311,-0.297594 -0.322484,-0.441669 -0.197083,-0.18537 -0.42461,-0.399386 -0.397358,-0.716705z"/>
  <path class="fil0" d="M1.79663 3.32837c0.0428583,0 0.0816654,0.017378 0.10976,0.0454724 0.0280945,0.0280945 0.0454724,0.0669016 0.0454724,0.10976 0,0.0428583 -0.0173819,0.0816772 -0.0454724,0.10976 -0.0280945,0.0280945 -0.0669016,0.0454724 -0.10976,0.0454724 -0.0428622,0 -0.0816732,-0.0173819 -0.109756,-0.0454724 -0.0280945,-0.0280945 -0.0454724,-0.0669016 -0.0454724,-0.10976 0,-0.0428583 0.017378,-0.0816654 0.0454724,-0.10976 0.0280827,-0.0280906 0.0668937,-0.0454724 0.109756,-0.0454724zm0.0343425 0.12089c-0.00878346,-0.00878346 -0.0209291,-0.0142205 -0.0343425,-0.0142205 -0.0134094,0 -0.0255591,0.00543701 -0.0343386,0.0142205 -0.00878346,0.00878346 -0.0142205,0.0209291 -0.0142205,0.0343425 0,0.0134134 0.00543701,0.0255591 0.0142205,0.0343425 0.00877953,0.00878346 0.0209291,0.0142205 0.0343386,0.0142205 0.0134134,0 0.0255591,-0.00543701 0.0343425,-0.0142205 0.00878346,-0.00877953 0.0142205,-0.0209291 0.0142205,-0.0343425 0,-0.0134134 -0.00543701,-0.0255591 -0.0142205,-0.0343425z"/>
  <path class="fil0" d="M5.03004 3.32837c0.0428622,0 0.0816732,0.0173819 0.109756,0.0454724 0.0280945,0.0280945 0.0454724,0.0669016 0.0454724,0.10976 0,0.0428583 -0.017378,0.0816654 -0.0454724,0.10976 -0.0280827,0.0280906 -0.0668937,0.0454724 -0.109756,0.0454724 -0.0428583,0 -0.0816654,-0.017378 -0.10976,-0.0454724 -0.0280906,-0.0280827 -0.0454724,-0.0669016 -0.0454724,-0.10976 0,-0.0428583 0.017378,-0.0816654 0.0454724,-0.10976 0.0280945,-0.0280945 0.0669016,-0.0454724 0.10976,-0.0454724zm0.0343386 0.12089c-0.00877953,-0.00878346 -0.0209291,-0.0142205 -0.0343386,-0.0142205 -0.0134134,0 -0.0255591,0.00543701 -0.0343425,0.0142205 -0.00878346,0.00878346 -0.0142205,0.0209291 -0.0142205,0.0343425 0,0.0134134 0.00543701,0.025563 0.0142205,0.0343425 0.00878346,0.00878346 0.0209291,0.0142205 0.0343425,0.0142205 0.0134094,0 0.0255591,-0.00543701 0.0343386,-0.0142205 0.00878346,-0.00878346 0.0142205,-0.0209291 0.0142205,-0.0343425 0,-0.0134134 -0.00543701,-0.0255591 -0.0142205,-0.0343425z"/>
  <path class="fil0" d="M2.80351 3.37693c-0.0589094,0 -0.106669,0.0477598 -0.106669,0.106669 0,0.0589094 0.0477598,0.106669 0.106669,0.106669l1.21965 0c0.0589094,0 0.106669,-0.0477598 0.106669,-0.106669 0,-0.0589094 -0.0477598,-0.106669 -0.106669,-0.106669l-1.21965 0z"/>
  <rect class="fil1" width="6.82666" height="6.82666"/>
 </g>
</svg>
