<?xml version="1.0" encoding="UTF-8"?>
<!DOCTYPE svg PUBLIC "-//W3C//DTD SVG 1.1//EN" "http://www.w3.org/Graphics/SVG/1.1/DTD/svg11.dtd">
<!-- Creator: CorelDRAW -->
<svg xmlns="http://www.w3.org/2000/svg" xml:space="preserve" width="6.82666in" height="6.82666in" style="shape-rendering:geometricPrecision; text-rendering:geometricPrecision; image-rendering:optimizeQuality; fill-rule:evenodd; clip-rule:evenodd"
viewBox="0 0 6.82666 6.82666"
 xmlns:xlink="http://www.w3.org/1999/xlink">
 <defs>
  <style type="text/css">
   <![CDATA[
    .fil1 {fill:none}
    .fil0 {fill:#212121;fill-rule:nonzero}
   ]]>
  </style>
 </defs>
 <g id="Layer_x0020_1">
  <metadata id="CorelCorpID_0Corel-Layer"/>
  <path class="fil0" d="M1.98463 3.30129l-0.877921 0.54761 0.217445 0.34861 0.877921 -0.54761 -0.217445 -0.34861zm-1.02463 0.513618l-0.056252 -0.0904173 1.05332 -0.65702c0.00166142,-0.00117323 0.00335433,-0.00230709 0.00509843,-0.0033937 0.0499803,-0.0311772 0.11578,-0.0159291 0.146957,0.0340512l-0.0905039 0.0564528 0.0904173 -0.056252 0.326854 0.524012c0.00117323,0.00166142 0.00230709,0.00335433 0.0033937,0.00509843 0.0311772,0.0499803 0.0159291,0.11578 -0.0340512,0.146957l-0.0564528 -0.0905039 0.056252 0.0904173 -1.05332 0.65702c-0.00166142,0.00117323 -0.00335433,0.00230709 -0.00509843,0.0033937 -0.0499803,0.0311772 -0.11578,0.0159291 -0.146957,-0.0340512l0.0905039 -0.0564528 -0.0904173 0.056252 -0.326854 -0.524012c-0.00117323,-0.00166142 -0.00230709,-0.00335433 -0.0033937,-0.00509843 -0.0311772,-0.0499803 -0.0159291,-0.11578 0.0340512,-0.146957l0.0564528 0.0905039z"/>
  <path class="fil0" d="M3.62126 4.68048c-0.247303,0.351102 -0.541752,0.623165 -0.876819,0.827083 -0.336953,0.205063 -0.714276,0.34098 -1.12542,0.418933l5.11811e-005 0.00026378c-0.057878,0.0109685 -0.113701,-0.0270591 -0.124669,-0.084937 -0.000354331,-0.00186614 -0.000653543,-0.00372835 -0.000905512,-0.00559055l-0.307476 -1.47024 -0.000267717 5.51181e-005c-0.00988583,-0.0472835 0.0132008,-0.0937992 0.053626,-0.115661l1.05305 -0.65685 -9.44882e-005 -0.000153543c0.0448031,-0.0279488 0.102311,-0.0185827 0.136205,0.0196575 0.161272,0.155933 0.341071,0.30865 0.535531,0.458795 0.196972,0.152087 0.409945,0.302165 0.634646,0.45074l0.000125984 -0.000192913c0.0491378,0.0324882 0.0626339,0.0986693 0.0301457,0.147807 -0.00239764,0.00362598 -0.00498425,0.00705118 -0.00772835,0.0102874zm-0.987654 0.645413c0.285028,-0.173461 0.538366,-0.399988 0.755343,-0.687358 -0.193953,-0.130539 -0.379728,-0.26313 -0.554878,-0.398366 -0.179063,-0.13826 -0.346299,-0.278843 -0.498929,-0.422264l-0.925606 0.577358 0.27215 1.30133c0.346673,-0.0755039 0.665594,-0.196445 0.951921,-0.370697z"/>
  <path class="fil0" d="M5.44619 1.14211c-0.524047,0.326882 -1.14192,0.744614 -1.74285,1.1509 -0.531559,0.359378 -1.04987,0.709807 -1.48315,0.983516l0.107728 0.172705c0.436524,-0.268843 0.979205,-0.580224 1.53576,-0.899563 0.627087,-0.359803 1.27177,-0.729709 1.79471,-1.05568 0.00322047,-0.00229134 0.00653543,-0.00438583 0.00993701,-0.00627559 0.0452717,-0.0298898 0.0749567,-0.0752283 0.0864409,-0.124787 0.0115551,-0.049878 0.00484646,-0.103913 -0.0227323,-0.150811 -0.00205118,-0.00294488 -0.00393307,-0.00597244 -0.00565354,-0.00906693 -0.0298937,-0.0452717 -0.0752323,-0.0749646 -0.124795,-0.0864449 -0.0515079,-0.0119331 -0.107461,-0.00438976 -0.155398,0.0255118zm-1.86202 0.974228c0.601031,-0.40635 1.219,-0.82415 1.74951,-1.15506 0.0976142,-0.0608898 0.21115,-0.0763386 0.315406,-0.0521811 0.102358,0.0237165 0.195917,0.0854409 0.257016,0.179669 0.00141732,0.00196063 0.00277953,0.00397638 0.00407874,0.00605906l-0.000153543 9.84252e-005 5.90551e-005 9.44882e-005 -0.0862992 0.053689 -0.00411417 0.00256693 0.0904173 -0.056252c0.0608819,0.0976102 0.0763346,0.211142 0.0521772,0.315406 -0.0237205,0.10235 -0.0854449,0.195909 -0.179665,0.257008 -0.00195669,0.00141339 -0.00397638,0.00277953 -0.00605512,0.0040748l-9.44882e-005 -0.000153543 -0.000102362 6.29921e-005 -0.0538031 -0.0864803 -0.00245276 -0.00393307 0.056252 0.0904173c-0.530681,0.33102 -1.17763,0.70222 -1.80684,1.06324 -0.593374,0.340465 -1.17098,0.671886 -1.61426,0.948161 -0.00164173,0.00115354 -0.00331496,0.00227165 -0.00503543,0.00334646 -0.0499803,0.0311772 -0.11578,0.0159291 -0.146957,-0.0340512l0.0905039 -0.0564528 -0.0904173 0.056252 -0.216803 -0.347571c-0.00117323,-0.00166142 -0.00230709,-0.00335827 -0.0033937,-0.00510236 -0.0311772,-0.0499803 -0.0159291,-0.11578 0.0340512,-0.146957l0.0564528 0.0905039 -0.056252 -0.0904173c0.444126,-0.277028 0.99787,-0.651409 1.56678,-1.03604z"/>
  <rect class="fil1" width="6.82666" height="6.82666"/>
 </g>
</svg>
