<?xml version="1.0" encoding="UTF-8"?>
<!DOCTYPE svg PUBLIC "-//W3C//DTD SVG 1.1//EN" "http://www.w3.org/Graphics/SVG/1.1/DTD/svg11.dtd">
<!-- Creator: CorelDRAW -->
<svg xmlns="http://www.w3.org/2000/svg" xml:space="preserve" width="6.82666in" height="6.82666in" style="shape-rendering:geometricPrecision; text-rendering:geometricPrecision; image-rendering:optimizeQuality; fill-rule:evenodd; clip-rule:evenodd"
viewBox="0 0 6.82666 6.82666"
 xmlns:xlink="http://www.w3.org/1999/xlink">
 <defs>
  <style type="text/css">
   <![CDATA[
    .fil1 {fill:none}
    .fil0 {fill:#212121;fill-rule:nonzero}
   ]]>
  </style>
 </defs>
 <g id="Layer_x0020_1">
  <metadata id="CorelCorpID_0Corel-Layer"/>
  <g id="_269577128">
   <path id="_269577992" class="fil0" d="M3.72993 0.85663c0.284382,0.0461181 0.547445,0.153205 0.774295,0.306898 0.23476,0.159051 0.430697,0.367787 0.571394,0.610327l0.000220472 -0.000125984 0.00088189 0.00156693 1.1811e-005 -3.93701e-006c0.029063,0.0512402 0.0110906,0.116346 -0.0401496,0.145409 -0.0170315,0.00966142 -0.0355906,0.0141142 -0.0538543,0.0138898l-3.14003 0c-0.0589094,0 -0.106669,-0.0477598 -0.106669,-0.106669 0,-0.0222559 0.00682283,-0.0429173 0.0184803,-0.0600197 0.141047,-0.240992 0.336169,-0.448091 0.569276,-0.605709 0.228709,-0.15465 0.494768,-0.261953 0.782913,-0.307157l-6.69291e-005 -0.000413386c0.0582008,-0.00912205 0.11278,0.0306614 0.121902,0.0888622 0.000948819,0.00606299 0.00136614,0.0120866 0.0012874,0.0180236l0 0.306382 0.367012 0 0 -0.307894c0,-0.0589094 0.0477598,-0.106669 0.106669,-0.106669 0.00912205,0 0.0179764,0.00114961 0.0264252,0.00330315zm0.65513 0.482732c-0.171075,-0.115902 -0.365398,-0.202008 -0.574886,-0.250524l0 0.28572c0,0.0589094 -0.0477598,0.106669 -0.106669,0.106669l-0.58035 0c-0.0589094,0 -0.106669,-0.0477598 -0.106669,-0.106669l0 -0.285689c-0.208575,0.0483898 -0.402437,0.134303 -0.573531,0.249992 -0.155319,0.105024 -0.291445,0.234429 -0.402354,0.38239l2.7455 0c-0.110752,-0.147902 -0.246421,-0.277134 -0.401043,-0.38189z"/>
   <path id="_269578088" class="fil0" d="M3.8302 2.878l0 -0.943406 -0.833744 0 0 1.27839 0.833744 -0.334984zm0.213339 -1.05007l0 1.11995c0.00076378,0.0429646 -0.0246575,0.0839252 -0.0669016,0.100898l-0.0397677 -0.0989764 0.0395827 0.098752 -1.03964 0.417705c-0.014185,0.00698031 -0.0301457,0.0109094 -0.0470236,0.0109094 -0.0589094,0 -0.106669,-0.0477598 -0.106669,-0.106669l0 -1.54257c0,-0.0589094 0.0477598,-0.106669 0.106669,-0.106669l1.04708 0c0.0589094,0 0.106669,0.0477598 0.106669,0.106669z"/>
   <path id="_269578400" class="fil0" d="M2.85759 5.06377l1.03962 -0.417697 -0.000102362 -0.000255906c0.0546614,-0.0219606 0.116783,0.00454724 0.138744,0.0592087 0.00552362,0.013752 0.00797638,0.0279724 0.00769291,0.0419094l0 0.502701c0,0.0288071 -0.0114291,0.0549449 -0.0299882,0.0741378l-0.518969 0.611646 -0.081252 -0.068752 0.0813346 0.0690118c-0.0210866,0.0248504 -0.0511063,0.0376378 -0.0813346,0.0376496l0 7.87402e-006 -3.93701e-006 0 -0.000838583 -1.1811e-005 -0.00125197 -1.5748e-005 -0.00143701 -3.54331e-005 -0.00107087 -4.33071e-005 -0.00161811 -7.87402e-005 -0.00100787 -6.29921e-005 -0.00164173 -0.000122047 -0.000944882 -8.26772e-005 -0.00159449 -0.00015748 -0.00114961 -0.000129921 -0.0014685 -0.000181102 -0.000885827 -0.000122047 -0.0018937 -0.000279528 -0.000185039 -2.75591e-005 -0.00233858 -0.000401575 -0.000228346 -4.33071e-005c-0.00858661,-0.00159055 -0.0168189,-0.00420472 -0.0245512,-0.00772441l-0.000220472 -0.000102362 -0.0021378 -0.00100787 -0.000295276 -0.000145669 -0.00208268 -0.00104331 -0.00026378 -0.000137795 -0.00195276 -0.00103937 -0.000814961 -0.000452756 -0.00155512 -0.00088189 -0.00046063 -0.000275591 -0.00181496 -0.00108268 -0.000472441 -0.000299213 -0.00183071 -0.00115748 -0.000244094 -0.00015748c-0.00220472,-0.00143701 -0.00434646,-0.00295669 -0.00643307,-0.00455118l-0.000114173 -8.66142e-005 -0.0019252 -0.00151181 -0.000307087 -0.000248031 -0.00187402 -0.00155118 -0.000102362 -8.26772e-005 -6.69291e-005 -5.90551e-005 -0.0017874 -0.00155512 -0.000366142 -0.000326772 -0.00142126 -0.00130315 -0.000649606 -0.000602362 -0.00107874 -0.00103937 -0.00092126 -0.000901575 -0.000503937 -0.000511811c-0.00367323,-0.00370472 -0.00702362,-0.00761417 -0.0100512,-0.0117087l-0.518843 -0.611496 -0.000177165 0.000149606c-0.0170276,-0.0200669 -0.0253425,-0.0446063 -0.0253268,-0.0690118l-7.87402e-006 0 0 -0.0841496c0,-0.047685 0.0312992,-0.088063 0.0744685,-0.101717zm0.972614 -0.161465l-0.817012 0.328256 0.400138 0.471594 0.416874 -0.491315 0 -0.308535z"/>
   <path id="_269578256" class="fil0" d="M3.95005 4.50615c0.0540748,-0.0227795 0.0794449,-0.0850945 0.0566654,-0.139169 -0.0227795,-0.0540748 -0.0850945,-0.0794449 -0.139169,-0.0566654l-0.990941 0.416736c-0.0540748,0.0227795 -0.0794449,0.0850945 -0.0566654,0.139169 0.0227795,0.0540748 0.0850945,0.0794449 0.139169,0.0566654l0.990941 -0.416736z"/>
   <path id="_269578448" class="fil0" d="M3.95005 4.14286c0.0540748,-0.0227795 0.0794449,-0.0850945 0.0566654,-0.139169 -0.0227795,-0.0540748 -0.0850945,-0.0794449 -0.139169,-0.0566654l-0.990941 0.416732c-0.0540748,0.0227795 -0.0794449,0.0850945 -0.0566654,0.139169 0.0227795,0.0540748 0.0850945,0.0794449 0.139169,0.0566654l0.990941 -0.416732z"/>
   <path id="_269578232" class="fil0" d="M3.95005 3.77957c0.0540748,-0.0227795 0.0794449,-0.0850945 0.0566654,-0.139169 -0.0227795,-0.0540748 -0.0850945,-0.0794449 -0.139169,-0.0566654l-0.990941 0.416736c-0.0540748,0.0227795 -0.0794449,0.0850945 -0.0566654,0.139169 0.0227795,0.0540748 0.0850945,0.0794449 0.139169,0.0566654l0.990941 -0.416736z"/>
   <path id="_269577896" class="fil0" d="M3.95005 3.41629c0.0540748,-0.0227795 0.0794449,-0.0850945 0.0566654,-0.139169 -0.0227795,-0.0540748 -0.0850945,-0.0794449 -0.139169,-0.0566654l-0.990941 0.416736c-0.0540748,0.0227795 -0.0794449,0.0850945 -0.0566654,0.139169 0.0227795,0.0540748 0.0850945,0.0794449 0.139169,0.0566654l0.990941 -0.416736z"/>
   <rect id="_269577176" class="fil1" width="6.82666" height="6.82666"/>
  </g>
 </g>
</svg>
