<?xml version="1.0" encoding="UTF-8"?>
<!DOCTYPE svg PUBLIC "-//W3C//DTD SVG 1.1//EN" "http://www.w3.org/Graphics/SVG/1.1/DTD/svg11.dtd">
<!-- Creator: CorelDRAW -->
<svg xmlns="http://www.w3.org/2000/svg" xml:space="preserve" width="6.82666in" height="6.82666in" style="shape-rendering:geometricPrecision; text-rendering:geometricPrecision; image-rendering:optimizeQuality; fill-rule:evenodd; clip-rule:evenodd"
viewBox="0 0 6.82666 6.82666"
 xmlns:xlink="http://www.w3.org/1999/xlink">
 <defs>
  <style type="text/css">
   <![CDATA[
    .fil1 {fill:none}
    .fil0 {fill:#212121;fill-rule:nonzero}
   ]]>
  </style>
 </defs>
 <g id="Layer_x0020_1">
  <metadata id="CorelCorpID_0Corel-Layer"/>
  <path class="fil0" d="M1.09495 1.70141l1.48071 0c0.0589094,0 0.106669,0.0477598 0.106669,0.106669 0,0.00424016 -0.000255906,0.00841732 -0.00073622,0.0125276l-0.000161417 0.00461417c-0.00737008,0.212398 -0.0770315,2.21818 -0.0593386,2.67325 0.00424803,0.109272 0.0450748,0.169067 0.107429,0.200724 0.0784882,0.0398465 0.193965,0.0485433 0.320154,0.0497953 0.0407874,0.000405512 0.0842205,6.69291e-005 0.129075,-0.000283465l0 -3.93701e-006 3.93701e-006 0 -3.93701e-006 -0.000413386c0.00314961,-2.3622e-005 0.00626772,9.44882e-005 0.00934646,0.000338583 0.229736,-0.00177953 0.493004,-0.0025748 0.686886,0.0900827 0.272165,0.130075 0.395756,0.409276 0.103028,1.0218l0.000393701 0.000188976c-0.0198898,0.0416142 -0.0632441,0.0644331 -0.106638,0.060185l-1.7818 -0.0125039 -0.0758386 0.0481457 4.72441e-005 7.48031e-005c-0.0180157,0.011437 -0.0381496,0.0167913 -0.0580118,0.0166142l-0.948319 0c-0.0525,0 -0.0961457,-0.0379331 -0.10502,-0.0878858 -0.00948031,-0.0413504 -0.0148819,-0.0955394 -0.0168425,-0.151823 -0.00218898,-0.062878 -7.48031e-005,-0.129433 0.00540157,-0.182646 0.0180709,-0.175531 0.0722992,-0.37139 0.128331,-0.57378 0.0658031,-0.237665 0.134224,-0.484787 0.143075,-0.701118 0.0142953,-0.349417 -0.0554488,-1.12641 -0.119035,-1.83482 -0.0221535,-0.246815 -0.0436496,-0.486299 -0.0550551,-0.624272l-5.51181e-005 3.93701e-006c-0.00485433,-0.0587087 0.0388031,-0.11024 0.0975118,-0.115094 0.00294882,-0.000244094 0.00588189,-0.000358268 0.00879134,-0.000362205l0 -3.93701e-006zm1.37066 0.213339l-1.25476 0c0.0161142,0.19087 0.0301693,0.347461 0.0445827,0.508059 0.0642205,0.715441 0.13465,1.50014 0.11987,1.86148 -0.00987008,0.241248 -0.0815984,0.500311 -0.150579,0.749457 -0.0535512,0.193429 -0.105382,0.380618 -0.121661,0.53878 -0.00462992,0.0449724 -0.00641339,0.101205 -0.00456693,0.154307 0.000393701,0.0112638 0.000948819,0.0223307 0.00167717,0.0330394l0.826024 0 0.0716811 -0.0455039c0.0174843,-0.0121969 0.0387756,-0.0192874 0.0617126,-0.0191299l-3.93701e-006 0.000417323 1.75491 0.012315c0.187969,-0.420634 0.125283,-0.602811 -0.0311811,-0.677591 -0.149862,-0.071622 -0.386543,-0.0708504 -0.593559,-0.0692441 -0.0030748,0.000291339 -0.00618898,0.00046063 -0.00933465,0.000484252l-0.000834646 -0.106665 0.000417323 0.106252c-0.0457126,0.000354331 -0.0899764,0.000704724 -0.131996,0.000287402 -0.154512,-0.0015315 -0.299512,-0.0140118 -0.414319,-0.0722992 -0.130937,-0.0664803 -0.216272,-0.181803 -0.224098,-0.38322 -0.016374,-0.421075 0.0402953,-2.13146 0.0560197,-2.59122z"/>
  <polygon class="fil0" points="0.93928,5.51898 4.0129,5.51898 4.0129,5.62565 0.93928,5.62565 "/>
  <path class="fil0" d="M3.45599 0.853449l1.2233 0c0.0589094,0 0.106669,0.0477598 0.106669,0.106669 0,0.00424016 -0.000255906,0.00842126 -0.00073622,0.0125276l-9.44882e-005 0.00269685c-0.00617323,0.177937 -0.0635827,1.83178 -0.0490039,2.20681 0.00319685,0.0822638 0.0330591,0.126839 0.0786142,0.149965 0.061689,0.0313228 0.154524,0.0381772 0.256307,0.039189 0.0335787,0.000330709 0.0693858,5.51181e-005 0.106343,-0.000232283l0 -3.93701e-006 7.87402e-006 0 -3.93701e-006 -0.000413386c0.00315354,-2.3622e-005 0.00627559,9.44882e-005 0.0093622,0.000338583 0.191386,-0.00147638 0.410425,-0.00191732 0.573957,0.0762441 0.234272,0.111965 0.341811,0.349854 0.0938071,0.868783l0.000393701 0.000188976c-0.0198898,0.0416142 -0.0632441,0.0644331 -0.106638,0.060185l-1.46483 -0.0102795 -0.0581378 0.0369055 5.11811e-005 7.87402e-005c-0.0180827,0.0114803 -0.038311,0.0168346 -0.0582441,0.0166142l-0.783087 0c-0.0525669,0 -0.096248,-0.0380276 -0.105051,-0.0880709 -0.00792913,-0.0351654 -0.0124488,-0.0807362 -0.0140945,-0.127949 -0.00183858,-0.0527913 -6.29921e-005,-0.108673 0.00453543,-0.153339 0.0150866,-0.146524 0.0600945,-0.309083 0.106602,-0.477059 0.0540866,-0.195354 0.110331,-0.398492 0.117551,-0.575047 0.0117638,-0.28763 -0.0457953,-0.928878 -0.0982677,-1.51352 -0.0187283,-0.208685 -0.0369094,-0.411205 -0.0455591,-0.515819l-5.51181e-005 3.93701e-006c-0.00485433,-0.0587087 0.0388031,-0.11024 0.0975118,-0.115094 0.00294882,-0.000244094 0.00588189,-0.000358268 0.00879134,-0.000362205l0 -3.93701e-006zm1.11325 0.213339l-0.997346 0c0.0130354,0.154087 0.0239252,0.275343 0.0350748,0.399606 0.0531063,0.591669 0.111354,1.24062 0.0991024,1.54019 -0.00824016,0.201472 -0.0677913,0.416551 -0.125055,0.623386 -0.0440276,0.15902 -0.0866378,0.312909 -0.0999331,0.442059 -0.00375197,0.0364291 -0.00519685,0.0819803 -0.00370079,0.125 0.000110236,0.0031378 0.000232283,0.00625984 0.000374016,0.00935039l0.659606 0 0.0539803 -0.0342677c0.0174803,-0.0121969 0.0387756,-0.0192874 0.0617126,-0.0191299l-3.93701e-006 0.000417323 1.43773 0.0100866c0.143768,-0.32689 0.0970394,-0.467803 -0.021748,-0.524575 -0.119594,-0.0571575 -0.311953,-0.0567087 -0.48061,-0.0554094 -0.00309055,0.000295276 -0.00621654,0.000464567 -0.00937795,0.000488189l-0.000830709 -0.106665 0.000417323 0.106252c-0.0378189,0.000291339 -0.0744528,0.00057874 -0.109264,0.00023622 -0.130106,-0.00129134 -0.252469,-0.0119331 -0.350472,-0.0616929 -0.114142,-0.0579488 -0.188508,-0.158063 -0.195283,-0.332461 -0.0133307,-0.342811 0.0317953,-1.71686 0.045626,-2.12287z"/>
  <polygon class="fil0" points="3.32738,4.01663 5.86667,4.01663 5.86667,4.1233 3.32738,4.1233 "/>
  <rect class="fil1" width="6.82666" height="6.82666"/>
 </g>
</svg>
