<?xml version="1.0" encoding="UTF-8"?>
<!DOCTYPE svg PUBLIC "-//W3C//DTD SVG 1.1//EN" "http://www.w3.org/Graphics/SVG/1.1/DTD/svg11.dtd">
<!-- Creator: CorelDRAW -->
<svg xmlns="http://www.w3.org/2000/svg" xml:space="preserve" width="6.82666in" height="6.82666in" style="shape-rendering:geometricPrecision; text-rendering:geometricPrecision; image-rendering:optimizeQuality; fill-rule:evenodd; clip-rule:evenodd"
viewBox="0 0 6.82666 6.82666"
 xmlns:xlink="http://www.w3.org/1999/xlink">
 <defs>
  <style type="text/css">
   <![CDATA[
    .fil2 {fill:none}
    .fil0 {fill:#212121}
    .fil1 {fill:#212121;fill-rule:nonzero}
   ]]>
  </style>
 </defs>
 <g id="Layer_x0020_1">
  <metadata id="CorelCorpID_0Corel-Layer"/>
  <path class="fil0" d="M5.99864 3.32522c0.0126535,0.0572992 -0.0235354,0.114016 -0.0808346,0.126669 -0.781535,0.173878 -1.62962,0.260819 -2.47625,0.260819 -0.846626,0 -1.69471,-0.0869409 -2.47625,-0.260819 -0.0572992,-0.0126535 -0.0934882,-0.0693701 -0.0808346,-0.126669 0.0126535,-0.0572992 0.0693701,-0.0934882 0.126669,-0.0808346 0.0467441,0.0103976 0.0937441,0.0204764 0.140988,0.0302402 0.0548031,-0.524949 0.271894,-1.00198 0.599417,-1.37212 0.327898,-0.370563 0.766291,-0.633921 1.26333,-0.731287l0 -0.203839c0,-0.0589094 0.0477598,-0.106669 0.106669,-0.106669l0.640008 0c0.0589094,0 0.106669,0.0477598 0.106669,0.106669l0 0.203921c0.488433,0.096563 0.922894,0.360776 1.25072,0.731256 0.328602,0.371354 0.550039,0.849563 0.610996,1.37228 0.0475906,-0.00982677 0.0949331,-0.0199803 0.14202,-0.0304567 0.0572992,-0.0126535 0.114016,0.0235354 0.126669,0.0808346zm-2.55708 0.17389c0.710587,0 1.41986,-0.0691378 2.07578,-0.207394 -0.0570315,-0.475996 -0.258882,-0.910795 -0.557551,-1.24832 -0.314913,-0.355882 -0.737496,-0.603524 -1.211,-0.676717 -0.0528898,-0.00631102 -0.0939016,-0.0513189 -0.0939016,-0.105906l0 -0.18672 -0.426669 0 0 0.185945c0.000444882,0.0521654 -0.0374685,0.0980984 -0.0905433,0.106217l-0.016126 -0.105441 0.0158346 0.105417c-0.48389,0.0739961 -0.911453,0.320921 -1.22667,0.677154 -0.297571,0.336283 -0.495236,0.770055 -0.546217,1.2481 0.65628,0.138433 1.36601,0.207665 2.07706,0.207665z"/>
  <path class="fil1" d="M0.924846 4.16402c0.0920118,-0.0982283 0.203827,-0.177949 0.329165,-0.232858 0.122988,-0.053874 0.258398,-0.0837795 0.400276,-0.0837795 0.210409,0 0.405945,0.0654055 0.567421,0.177047 0.145516,0.100614 0.263031,0.238839 0.33848,0.400594l3.00967 0c0.116083,0 0.221551,0.0474213 0.297937,0.123807 0.0763898,0.0763898 0.123807,0.181854 0.123807,0.297941 0,0.116087 -0.0474173,0.221551 -0.123803,0.297941 -0.0763898,0.0763858 -0.181854,0.123803 -0.297941,0.123803l-3.00967 0c-0.0754488,0.161756 -0.192965,0.29998 -0.33848,0.400594 -0.161476,0.111642 -0.357012,0.177047 -0.567421,0.177047 -0.141878,0 -0.277295,-0.0299055 -0.400283,-0.0837835 -0.127571,-0.0558858 -0.24113,-0.137472 -0.334063,-0.238126l-0.00015748 0.000145669c-0.0399528,-0.0432874 -0.037252,-0.110776 0.00603543,-0.150728 0.0205157,-0.018937 0.0464685,-0.0282835 0.0723465,-0.0282756l0 -1.1811e-005 0.23602 0 0.287413 0 0.000185039 3.93701e-006c0.00156693,-0.00266929 0.00322835,-0.00524803 0.00498425,-0.00772441l0.139232 -0.241165 0.0920827 0.0529173 -0.092378 -0.0533346c0.00123228,-0.00213386 0.0025315,-0.00420079 0.00388583,-0.00621654l0.137063 -0.237402 -0.000220472 -0.000125984c0.00111024,-0.00192126 0.00227953,-0.00379134 0.00348819,-0.00561811 -0.00102756,-0.00181496 -0.00199213,-0.00365354 -0.00290157,-0.0055l-0.14102 -0.243756 -0.140567 -0.243465 0.0920827 -0.0533346 -0.092378 0.0533346c-0.00111024,-0.0019252 -0.00215354,-0.00387795 -0.00312992,-0.00583858l-0.287823 0 -0.236012 0c-0.0589094,0 -0.106669,-0.0477598 -0.106669,-0.106669 0,-0.0305079 0.0128071,-0.0580197 0.0333425,-0.0774646zm0.414165 -0.0378583c-0.0063937,0.00280315 -0.0127441,0.00568504 -0.0190512,0.00865354l0.203047 0c0.0404921,0 0.0788937,0.0119449 0.111898,0.0326102 0.0306024,0.0191614 0.0559016,0.0457244 0.0732835,0.0770591 0.00057874,0.000937008 0.00114961,0.00187795 0.00170472,0.00283858l-0.00011811 7.08661e-005 0.00133858 0.00255118 0.139051 0.240843 0.141079 0.243862c0.00137008,0.0020315 0.00267717,0.00411811 0.00392126,0.00627165l-0.092378 0.0533307 0.0920827 -0.0529173c0.0205394,0.0355787 0.0295472,0.0746299 0.028189,0.112819 -0.0013937,0.0391654 -0.013437,0.0772087 -0.0348898,0.109563l-0.13426 0.232539c-0.00107087,0.00218504 -0.00221654,0.00435039 -0.00344882,0.00648819l-0.000220472 -0.000125984 -7.48031e-005 0.000125984 -0.000181102 -0.000106299 -0.138106 0.239217c-0.00161417,0.00372441 -0.00345276,0.00739764 -0.0055315,0.011l-0.000401575 -0.000232283c-0.0196063,0.0338976 -0.0469724,0.0602717 -0.0784213,0.0781535 -0.0286811,0.0163031 -0.0609724,0.0256457 -0.0940551,0.0272795 -0.00389764,0.000433071 -0.00785827,0.000661417 -0.0118701,0.000661417l-0.201654 0c0.00630709,0.0029685 0.0126614,0.00585433 0.0190591,0.00865748 0.0960709,0.0420866 0.202685,0.0654449 0.315283,0.0654449 0.166224,0 0.320079,-0.0512402 0.446587,-0.138709 0.128547,-0.0888819 0.22935,-0.21513 0.286724,-0.363067 0.0132205,-0.0438898 0.0539449,-0.0758661 0.102146,-0.0758661l3.08012 0c0.0572008,0 0.109283,-0.0234764 0.147106,-0.0612992 0.0378228,-0.0378228 0.0612992,-0.0899055 0.0612992,-0.147106 0,-0.0572008 -0.0234803,-0.109283 -0.0613031,-0.147106 -0.0378189,-0.0378189 -0.0899055,-0.0613031 -0.147102,-0.0613031l-3.07813 0c-0.0438386,0.000814961 -0.0854291,-0.0256457 -0.101791,-0.0690118l0.0997992 -0.0376575 -0.0995827 0.0375c-0.0569094,-0.150823 -0.158803,-0.279543 -0.289287,-0.369764 -0.126508,-0.0874685 -0.280362,-0.138709 -0.446587,-0.138709 -0.112594,0 -0.219209,0.0233583 -0.315276,0.0654409z"/>
  <path class="fil1" d="M3.12155 0.860713l0.640008 0c0.0589094,0 0.106669,0.0477598 0.106669,0.106669l0 1.34093c0,0.0589094 -0.0477598,0.106669 -0.106669,0.106669l-0.640008 0c-0.0589094,0 -0.106669,-0.0477598 -0.106669,-0.106669l0 -1.34093c0,-0.0589094 0.0477598,-0.106669 0.106669,-0.106669zm0.533339 0.213339l-0.426669 0 0 1.12759 0.426669 0 0 -1.12759z"/>
  <rect class="fil2" width="6.82666" height="6.82666"/>
 </g>
</svg>
