<?xml version="1.0" encoding="UTF-8"?>
<!DOCTYPE svg PUBLIC "-//W3C//DTD SVG 1.1//EN" "http://www.w3.org/Graphics/SVG/1.1/DTD/svg11.dtd">
<!-- Creator: CorelDRAW -->
<svg xmlns="http://www.w3.org/2000/svg" xml:space="preserve" width="6.82666in" height="6.82666in" style="shape-rendering:geometricPrecision; text-rendering:geometricPrecision; image-rendering:optimizeQuality; fill-rule:evenodd; clip-rule:evenodd"
viewBox="0 0 6.82666 6.82666"
 xmlns:xlink="http://www.w3.org/1999/xlink">
 <defs>
  <style type="text/css">
   <![CDATA[
    .fil1 {fill:none}
    .fil0 {fill:#212121;fill-rule:nonzero}
   ]]>
  </style>
 </defs>
 <g id="Layer_x0020_1">
  <metadata id="CorelCorpID_0Corel-Layer"/>
  <path class="fil0" d="M4.04126 1.56488l1.06265 0c0.0589094,0 0.106669,0.0477598 0.106669,0.106669l0 3.57433c0,0.0589094 -0.0477598,0.106669 -0.106669,0.106669l-1.06265 0c-0.0589094,0 -0.106669,-0.0477598 -0.106669,-0.106669l0 -3.57433c0,-0.0589094 0.0477598,-0.106669 0.106669,-0.106669zm0.955976 0.213339l-0.849307 0 0 3.361 0.849307 0 0 -3.361z"/>
  <path class="fil0" d="M3.84805 5.14506l1.44906 0c0.0589094,0 0.106669,0.0477598 0.106669,0.106669l0 0.386413c0,0.0589094 -0.0477598,0.106669 -0.106669,0.106669l-1.44906 0c-0.0589094,0 -0.106669,-0.0477598 -0.106669,-0.106669l0 -0.386413c0,-0.0589094 0.0477598,-0.106669 0.106669,-0.106669zm1.34239 0.213339l-1.23572 0 0 0.173075 1.23572 0 0 -0.173075z"/>
  <path class="fil0" d="M4.15167 4.42725c-0.0508543,-0.0292244 -0.115776,-0.011689 -0.145,0.0391654 -0.0292244,0.0508543 -0.011689,0.115776 0.0391654,0.145l0.947661 0.546469c0.0508543,0.0292244 0.115776,0.011689 0.145,-0.0391654 0.0292244,-0.0508543 0.011689,-0.115776 -0.0391654,-0.145l-0.947661 -0.546469z"/>
  <path class="fil0" d="M4.04583 3.33431c-0.0508543,0.0292244 -0.0683898,0.0941457 -0.0391654,0.145 0.0292244,0.0508543 0.0941457,0.0683898 0.145,0.0391654l0.947661 -0.546472c0.0508543,-0.0292244 0.0683898,-0.0941457 0.0391654,-0.145 -0.0292244,-0.0508543 -0.0941457,-0.0683898 -0.145,-0.0391654l-0.947661 0.546472z"/>
  <path class="fil0" d="M4.15167 2.24137c-0.0508543,-0.0292244 -0.115776,-0.011689 -0.145,0.0391654 -0.0292244,0.0508543 -0.011689,0.115776 0.0391654,0.145l0.947661 0.546469c0.0508543,0.0292244 0.115776,0.011689 0.145,-0.0391654 0.0292244,-0.0508543 0.011689,-0.115776 -0.0391654,-0.145l-0.947661 -0.546469z"/>
  <path class="fil0" d="M4.04583 4.42725c-0.0508543,0.0292244 -0.0683898,0.0941457 -0.0391654,0.145 0.0292244,0.0508543 0.0941457,0.0683898 0.145,0.0391654l0.947661 -0.546472c0.0508543,-0.0292244 0.0683898,-0.0941457 0.0391654,-0.145 -0.0292244,-0.0508543 -0.0941457,-0.0683898 -0.145,-0.0391654l-0.947661 0.546472z"/>
  <path class="fil0" d="M4.15167 3.33431c-0.0508543,-0.0292244 -0.115776,-0.011689 -0.145,0.0391654 -0.0292244,0.0508543 -0.011689,0.115776 0.0391654,0.145l0.947661 0.546472c0.0508543,0.0292244 0.115776,0.011689 0.145,-0.0391654 0.0292244,-0.0508543 0.011689,-0.115776 -0.0391654,-0.145l-0.947661 -0.546472z"/>
  <path class="fil0" d="M4.04583 2.24137c-0.0508543,0.0292244 -0.0683898,0.0941457 -0.0391654,0.145 0.0292244,0.0508543 0.0941457,0.0683898 0.145,0.0391654l0.947661 -0.546472c0.0508543,-0.0292244 0.0683898,-0.0941457 0.0391654,-0.145 -0.0292244,-0.0508543 -0.0941457,-0.0683898 -0.145,-0.0391654l-0.947661 0.546472z"/>
  <path class="fil0" d="M0.853331 1.66148l3.18793 0c0.0589094,0 0.106669,0.0477598 0.106669,0.106669l0 0.386413c0,0.0589094 -0.0477598,0.106669 -0.106669,0.106669l-3.18793 0c-0.0589094,0 -0.106669,-0.0477598 -0.106669,-0.106669l0 -0.386413c0,-0.0589094 0.0477598,-0.106669 0.106669,-0.106669zm3.08126 0.213339l-2.97459 0 0 0.173075 2.97459 0 0 -0.173075z"/>
  <path class="fil0" d="M5.86666 1.87482l-0.656094 0 0 0.173075 0.656094 0 0 -0.173075zm-0.762764 -0.213339l0.869433 0c0.0589094,0 0.106669,0.0477598 0.106669,0.106669l0 0.386413c0,0.0589094 -0.0477598,0.106669 -0.106669,0.106669l-0.869433 0c-0.0589094,0 -0.106669,-0.0477598 -0.106669,-0.106669l0 -0.386413c0,-0.0589094 0.0477598,-0.106669 0.106669,-0.106669z"/>
  <path class="fil0" d="M4.67925 1.18853c0,-0.0589094 -0.0477598,-0.106669 -0.106669,-0.106669 -0.0589094,0 -0.106669,0.0477598 -0.106669,0.106669l0 0.431516c0,0.0589094 0.0477598,0.106669 0.106669,0.106669 0.0589094,0 0.106669,-0.0477598 0.106669,-0.106669l0 -0.431516z"/>
  <path class="fil0" d="M4.613 1.09019c-0.0543071,-0.0223189 -0.116433,0.00361024 -0.138752,0.0579173 -0.0223189,0.0543071 0.00361024,0.116433 0.0579173,0.138752l1.40075 0.579622c0.0543071,0.0223189 0.116433,-0.00361024 0.138752,-0.0579173 0.0223189,-0.0543071 -0.00361024,-0.116433 -0.0579173,-0.138752l-1.40075 -0.579622z"/>
  <path class="fil0" d="M4.58883 1.29353c0.0579882,-0.00897244 0.0977205,-0.0632638 0.088748,-0.121252 -0.00897244,-0.0579882 -0.0632638,-0.0977205 -0.121252,-0.088748l-3.71925 0.579622c-0.0579882,0.00897244 -0.0977205,0.0632638 -0.088748,0.121252 0.00897244,0.0579882 0.0632638,0.0977205 0.121252,0.088748l3.71925 -0.579622z"/>
  <path class="fil0" d="M1.19647 2.20607c0,-0.0294528 -0.0238819,-0.0533346 -0.0533346,-0.0533346 -0.0294528,0 -0.0533346,0.0238819 -0.0533346,0.0533346l0 1.68736c0,0.0294528 0.0238819,0.0533346 0.0533346,0.0533346 0.0294528,0 0.0533346,-0.0238819 0.0533346,-0.0533346l0 -1.68736z"/>
  <path class="fil0" d="M1.109 3.83757c-0.0589094,0 -0.106669,0.0477598 -0.106669,0.106669 0,0.0589094 0.0477598,0.106669 0.106669,0.106669l0.0682717 0c0.0589094,0 0.106669,-0.0477598 0.106669,-0.106669 0,-0.0589094 -0.0477598,-0.106669 -0.106669,-0.106669l-0.0682717 0z"/>
  <path class="fil0" d="M1.05461 4.4397c0,-0.0294528 -0.0238819,-0.0533346 -0.0533346,-0.0533346 -0.0294528,0 -0.0533346,0.0238819 -0.0533346,0.0533346 0,0.0537244 0.0219449,0.102543 0.0572953,0.13789 0.0353504,0.0353504 0.0841614,0.0572953 0.137894,0.0572953l3.93701e-006 0c0.0537323,0 0.102543,-0.0219449 0.137894,-0.0572953 0.0353504,-0.0353465 0.0572953,-0.0841654 0.0572953,-0.13789l0 -0.133209c0,-0.0537244 -0.0219488,-0.102539 -0.0572953,-0.137894 -0.0231969,-0.0231929 -0.052189,-0.0406181 -0.084563,-0.0498583l0 -0.149823c0,-0.0294528 -0.0238819,-0.0533346 -0.0533346,-0.0533346 -0.0294528,0 -0.0533346,0.0238819 -0.0533346,0.0533346l0 0.19572c0,0.0294528 0.0238819,0.0533346 0.0533346,0.0533346l3.93701e-006 0c0.0242835,0 0.0464094,0.00997638 0.0624764,0.0260433 0.0160669,0.0160669 0.0260433,0.0381929 0.0260433,0.0624764l0 0.133209c0,0.0242835 -0.00997638,0.0464055 -0.0260433,0.0624724 -0.0160669,0.0160669 -0.038189,0.0260433 -0.0624764,0.0260433l-3.93701e-006 0c-0.0242874,0 -0.0464094,-0.00997638 -0.0624764,-0.0260433 -0.0160669,-0.0160669 -0.0260433,-0.038189 -0.0260433,-0.0624724z"/>
  <rect class="fil1" width="6.82666" height="6.82666"/>
 </g>
</svg>
