<?xml version="1.0" encoding="UTF-8"?>
<!DOCTYPE svg PUBLIC "-//W3C//DTD SVG 1.1//EN" "http://www.w3.org/Graphics/SVG/1.1/DTD/svg11.dtd">
<!-- Creator: CorelDRAW -->
<svg xmlns="http://www.w3.org/2000/svg" xml:space="preserve" width="6.82666in" height="6.82666in" style="shape-rendering:geometricPrecision; text-rendering:geometricPrecision; image-rendering:optimizeQuality; fill-rule:evenodd; clip-rule:evenodd"
viewBox="0 0 6.82666 6.82666"
 xmlns:xlink="http://www.w3.org/1999/xlink">
 <defs>
  <style type="text/css">
   <![CDATA[
    .fil1 {fill:none}
    .fil0 {fill:#212121;fill-rule:nonzero}
   ]]>
  </style>
 </defs>
 <g id="Layer_x0020_1">
  <metadata id="CorelCorpID_0Corel-Layer"/>
  <path class="fil0" d="M2.94609 0.96061l0.934484 0c0.0615669,0 0.117465,0.0251142 0.157917,0.065563 0.0404488,0.0404528 0.065563,0.0963504 0.065563,0.157917l0 1.63535c0,0.131453 -0.037622,0.255075 -0.102693,0.360646 -0.0551142,0.0894134 -0.130047,0.165472 -0.218539,0.221929l0 0.556327c0,0.101717 -0.0415394,0.194114 -0.108453,0.261035 -0.0669213,0.0669134 -0.159319,0.108453 -0.261035,0.108453 -0.101717,0 -0.194114,-0.0415394 -0.261035,-0.108453 -0.0669134,-0.0669213 -0.108453,-0.159319 -0.108453,-0.261035l0 -0.556323c-0.0884882,-0.0564567 -0.163429,-0.13252 -0.218543,-0.221933 -0.0650709,-0.105571 -0.102693,-0.229193 -0.102693,-0.360646l0 -1.63535c0,-0.0615669 0.0251142,-0.117465 0.065563,-0.157917 0.0404528,-0.0404488 0.0963504,-0.065563 0.157917,-0.065563zm0.934484 0.213339l-0.934484 0c-0.00267717,0 -0.00519685,0.00117323 -0.00708268,0.00305906 -0.00188583,0.00188583 -0.00305906,0.00440551 -0.00305906,0.00708268l0 1.63535c0,0.0915276 0.0257126,0.176819 0.070189,0.248976 0.0452165,0.0733622 0.109693,0.133764 0.18622,0.174028 0.0381142,0.0162717 0.0648268,0.0540866 0.0648268,0.0981457l0 0.617752c0,0.0428307 0.0176024,0.0818504 0.0459488,0.110201 0.0283504,0.0283465 0.0673701,0.0459488 0.110201,0.0459488 0.0428307,0 0.0818504,-0.0176024 0.110201,-0.0459488 0.0283465,-0.0283504 0.0459488,-0.0673701 0.0459488,-0.110201l0 -0.61587c-0.000669291,-0.0395236 0.020748,-0.077878 0.0583583,-0.0969843l0.048311 0.0950984 -0.0479173 -0.095c0.0791929,-0.0402283 0.145882,-0.101874 0.192291,-0.177169 0.0444764,-0.0721575 0.070189,-0.157449 0.070189,-0.248976l0 -1.63535c0,-0.00267717 -0.00117323,-0.00519685 -0.00305906,-0.00708268 -0.00188583,-0.00188583 -0.00440551,-0.00305906 -0.00708268,-0.00305906z"/>
  <path class="fil0" d="M3.52 4.26302c0,-0.0589094 -0.0477598,-0.106669 -0.106669,-0.106669 -0.0589094,0 -0.106669,0.0477598 -0.106669,0.106669l0 1.71031c0,0.0589094 0.0477598,0.106669 0.106669,0.106669 0.0589094,0 0.106669,-0.0477598 0.106669,-0.106669l0 -1.71031z"/>
  <path class="fil0" d="M2.36543 1.23905c-0.0589094,0 -0.106669,0.0477598 -0.106669,0.106669 0,0.0589094 0.0477598,0.106669 0.106669,0.106669l0.33965 0c0.0589094,0 0.106669,-0.0477598 0.106669,-0.106669 0,-0.0589094 -0.0477598,-0.106669 -0.106669,-0.106669l-0.33965 0z"/>
  <path class="fil0" d="M4.12158 1.23905c-0.0589094,0 -0.106669,0.0477598 -0.106669,0.106669 0,0.0589094 0.0477598,0.106669 0.106669,0.106669l0.33965 0c0.0589094,0 0.106669,-0.0477598 0.106669,-0.106669 0,-0.0589094 -0.0477598,-0.106669 -0.106669,-0.106669l-0.33965 0z"/>
  <polygon class="fil0" points="3.51021,1.70913 3.51021,2.77888 3.29687,2.77888 3.29687,1.70913 "/>
  <polygon class="fil0" points="3.29479,0.853331 3.29479,1.10175 3.08145,1.10175 3.08145,0.853331 "/>
  <polygon class="fil0" points="3.83073,0.853331 3.83073,1.10175 3.61739,1.10175 3.61739,0.853331 "/>
  <rect class="fil1" width="6.82666" height="6.82666"/>
 </g>
</svg>
