<?xml version="1.0" encoding="UTF-8"?>
<!DOCTYPE svg PUBLIC "-//W3C//DTD SVG 1.1//EN" "http://www.w3.org/Graphics/SVG/1.1/DTD/svg11.dtd">
<!-- Creator: CorelDRAW -->
<svg xmlns="http://www.w3.org/2000/svg" xml:space="preserve" width="6.82666in" height="6.82666in" style="shape-rendering:geometricPrecision; text-rendering:geometricPrecision; image-rendering:optimizeQuality; fill-rule:evenodd; clip-rule:evenodd"
viewBox="0 0 6.82666 6.82666"
 xmlns:xlink="http://www.w3.org/1999/xlink">
 <defs>
  <style type="text/css">
   <![CDATA[
    .fil1 {fill:none}
    .fil0 {fill:#212121;fill-rule:nonzero}
   ]]>
  </style>
 </defs>
 <g id="Layer_x0020_1">
  <metadata id="CorelCorpID_0Corel-Layer"/>
  <path class="fil0" d="M3.47038 1.53798l2.05395 0c0.123583,0 0.235858,0.0504843 0.317185,0.131811 0.0813268,0.0813228 0.131811,0.193598 0.131811,0.317181l0 1.14108c0,0.123579 -0.0504843,0.235858 -0.131811,0.317185 -0.0571575,0.0571575 -0.129602,0.0990827 -0.210516,0.118949l0 1.3896c0,0.0922047 -0.0376417,0.175953 -0.0982913,0.236602 -0.0606378,0.0606457 -0.14439,0.0982913 -0.236594,0.0982913l-0.627602 0c-0.264787,0 -0.505437,-0.108252 -0.679831,-0.282646 -0.174394,-0.174394 -0.282646,-0.415043 -0.282646,-0.679835l0 -0.74915 -0.235657 0c-0.114004,0 -0.218461,-0.0430906 -0.297898,-0.113787 -0.0567913,-0.0505433 -0.10076,-0.115374 -0.126248,-0.188787l-0.602189 0c-0.092378,0 -0.176287,-0.0377126 -0.237051,-0.0984764 -0.0607598,-0.0607598 -0.0984803,-0.144673 -0.0984803,-0.237051l0 -0.762866c0,-0.092378 0.0377205,-0.176291 0.0984803,-0.237051 0.0607638,-0.0607638 0.144673,-0.0984764 0.237051,-0.0984764l0.602189 0c0.0254843,-0.0734134 0.0694528,-0.13824 0.126248,-0.188787 0.079437,-0.0706969 0.183894,-0.113787 0.297898,-0.113787zm2.05395 0.213339l-2.05395 0c-0.0598268,0 -0.11461,0.0225787 -0.156228,0.0596142 -0.041248,0.0367087 -0.0696417,0.0873268 -0.0773701,0.144024 -0.00396063,0.0552992 -0.0500787,0.098937 -0.10639,0.098937l-0.686346 0c-0.0334921,0 -0.0640236,0.0137795 -0.0862165,0.0359724 -0.0221929,0.0221929 -0.0359764,0.0527244 -0.0359764,0.0862165l0 0.762866c0,0.0334921 0.0137835,0.0640236 0.0359764,0.0862165 0.0221929,0.0221929 0.0527244,0.0359724 0.0862165,0.0359724l0.686189 0c0.0534882,-0.000141732 0.0997362,0.039878 0.106102,0.0942717l-0.105945 0.0123976 0.105835 -0.0120827c0.00683858,0.0584567 0.035626,0.110728 0.0779252,0.148374 0.0416181,0.0370354 0.0964016,0.0596142 0.156228,0.0596142l0.342327 0c0.0589094,0 0.106669,0.0477598 0.106669,0.106669l0 0.855819c0,0.205906 0.084315,0.393173 0.220142,0.529 0.135827,0.135827 0.323094,0.220142 0.528996,0.220142l0.627602 0c0.033311,0 0.0636811,-0.0137047 0.0857598,-0.0357874 0.0220787,-0.0220787 0.0357874,-0.0524488 0.0357874,-0.0857677l0 -1.48341c0,-0.0589094 0.0477598,-0.106669 0.106669,-0.106669 0.0646969,0 0.123591,-0.0265472 0.16635,-0.0693071 0.0427598,-0.0427598 0.0693071,-0.101657 0.0693071,-0.16635l0 -1.14108c0,-0.0646929 -0.0265472,-0.123591 -0.0693071,-0.166346 -0.0427598,-0.0427598 -0.101654,-0.0693071 -0.16635,-0.0693071zm-1.3693 1.61239l0.570543 0c0.0589094,0 0.106669,0.0477598 0.106669,0.106669l0 1.02698c0,0.0589094 -0.0477598,0.106669 -0.106669,0.106669l-0.285276 0c-0.10789,0 -0.205902,-0.044063 -0.27689,-0.115047 -0.0709803,-0.0709843 -0.115047,-0.168996 -0.115047,-0.276886l0 -0.741713c0,-0.0589094 0.0477598,-0.106669 0.106669,-0.106669zm0.463874 0.213339l-0.357205 0 0 0.635043c0,0.049 0.0201299,0.0936339 0.0525433,0.126051 0.0324213,0.0324173 0.0770512,0.0525433 0.126055,0.0525433l0.178606 0 0 -0.813638z"/>
  <path class="fil0" d="M4.15503 1.99441c-0.0589094,0 -0.106669,0.0477598 -0.106669,0.106669 0,0.0589094 0.0477598,0.106669 0.106669,0.106669l1.25519 0c0.0589094,0 0.106669,-0.0477598 0.106669,-0.106669 0,-0.0589094 -0.0477598,-0.106669 -0.106669,-0.106669l-1.25519 0z"/>
  <path class="fil0" d="M4.61146 2.34018c-0.0589094,0 -0.106669,0.0477598 -0.106669,0.106669 0,0.0589094 0.0477598,0.106669 0.106669,0.106669l0.79876 0c0.0589094,0 0.106669,-0.0477598 0.106669,-0.106669 0,-0.0589094 -0.0477598,-0.106669 -0.106669,-0.106669l-0.79876 0z"/>
  <path class="fil0" d="M0.959996 2.45085c-0.0589094,0 -0.106669,0.0477598 -0.106669,0.106669 0,0.0589094 0.0477598,0.106669 0.106669,0.106669l1.25519 0c0.0589094,0 0.106669,-0.0477598 0.106669,-0.106669 0,-0.0589094 -0.0477598,-0.106669 -0.106669,-0.106669l-1.25519 0z"/>
  <path class="fil0" d="M2.59626 2.22213c-0.0294528,0 -0.0533346,0.0238819 -0.0533346,0.0533346 0,0.0294528 0.0238819,0.0533346 0.0533346,0.0533346l0.303583 0c0.0294528,0 0.0533346,-0.0238819 0.0533346,-0.0533346 0,-0.0294528 -0.0238819,-0.0533346 -0.0533346,-0.0533346l-0.303583 0z"/>
  <path class="fil0" d="M2.59626 2.44223c-0.0294528,0 -0.0533346,0.0238819 -0.0533346,0.0533346 0,0.0294528 0.0238819,0.0533346 0.0533346,0.0533346l0.303583 0c0.0294528,0 0.0533346,-0.0238819 0.0533346,-0.0533346 0,-0.0294528 -0.0238819,-0.0533346 -0.0533346,-0.0533346l-0.303583 0z"/>
  <path class="fil0" d="M2.59626 2.67386c-0.0294528,0 -0.0533346,0.0238819 -0.0533346,0.0533346 0,0.0294528 0.0238819,0.0533346 0.0533346,0.0533346l0.303583 0c0.0294528,0 0.0533346,-0.0238819 0.0533346,-0.0533346 0,-0.0294528 -0.0238819,-0.0533346 -0.0533346,-0.0533346l-0.303583 0z"/>
  <rect class="fil1" width="6.82666" height="6.82666"/>
 </g>
</svg>
