<?xml version="1.0" encoding="UTF-8"?>
<!DOCTYPE svg PUBLIC "-//W3C//DTD SVG 1.1//EN" "http://www.w3.org/Graphics/SVG/1.1/DTD/svg11.dtd">
<!-- Creator: CorelDRAW -->
<svg xmlns="http://www.w3.org/2000/svg" xml:space="preserve" width="6.82666in" height="6.82666in" style="shape-rendering:geometricPrecision; text-rendering:geometricPrecision; image-rendering:optimizeQuality; fill-rule:evenodd; clip-rule:evenodd"
viewBox="0 0 6.82666 6.82666"
 xmlns:xlink="http://www.w3.org/1999/xlink">
 <defs>
  <style type="text/css">
   <![CDATA[
    .fil1 {fill:none}
    .fil0 {fill:#212121;fill-rule:nonzero}
   ]]>
  </style>
 </defs>
 <g id="Layer_x0020_1">
  <metadata id="CorelCorpID_0Corel-Layer"/>
  <path class="fil0" d="M1.19456 4.10353c0.214941,-0.214941 0.496646,-0.322409 0.778343,-0.322409 0.281697,0 0.563402,0.107469 0.778343,0.322409 0.214941,0.214941 0.322409,0.496646 0.322409,0.778343 0,0.281697 -0.107469,0.563402 -0.322409,0.778343l-7.87402e-006 7.87402e-006c-0.214937,0.214933 -0.496642,0.322406 -0.778335,0.322406 -0.281693,0 -0.563398,-0.107472 -0.778335,-0.322406l-7.87402e-006 -7.87402e-006c-0.214937,-0.214937 -0.322413,-0.496646 -0.322413,-0.778343 0,-0.281697 0.107476,-0.563406 0.322413,-0.778343zm0.778343 -0.109071c-0.227118,0 -0.45424,0.0866378 -0.627508,0.259906 -0.173272,0.173272 -0.259909,0.40039 -0.259909,0.627508 0,0.227118 0.0866378,0.454236 0.259909,0.627508l7.87402e-006 7.87402e-006c0.173268,0.173264 0.400386,0.259902 0.6275,0.259902 0.227114,0 0.454232,-0.0866378 0.6275,-0.259902l7.87402e-006 -7.87402e-006c0.173268,-0.173268 0.259906,-0.40039 0.259906,-0.627508 0,-0.227118 -0.0866378,-0.45424 -0.259906,-0.627508 -0.173268,-0.173268 -0.40039,-0.259906 -0.627508,-0.259906z"/>
  <path class="fil0" d="M1.81115 4.72012l7.87402e-006 -7.87402e-006c0.0446654,-0.0446654 0.103213,-0.067 0.161748,-0.067 0.0585354,0 0.117083,0.0223346 0.161748,0.067l7.87402e-006 7.87402e-006 7.87402e-006 7.87402e-006c0.0446654,0.0446654 0.067,0.103213 0.067,0.161748 0,0.0585354 -0.0223346,0.117083 -0.067,0.161748l-7.87402e-006 7.87402e-006 -7.87402e-006 7.87402e-006c-0.0446654,0.0446654 -0.103213,0.067 -0.161748,0.067 -0.0585354,0 -0.117083,-0.0223346 -0.161748,-0.067l-7.87402e-006 -7.87402e-006 -7.87402e-006 -7.87402e-006c-0.0446654,-0.0446654 -0.067,-0.103213 -0.067,-0.161748 0,-0.0585354 0.0223346,-0.117083 0.067,-0.161748l7.87402e-006 -7.87402e-006zm0.0754252 0.0754094l-7.87402e-006 7.87402e-006 -7.87402e-006 7.87402e-006c-0.0238307,0.0238307 -0.035748,0.0550827 -0.035748,0.0863307 0,0.031248 0.0119173,0.0625 0.035748,0.0863307l7.87402e-006 7.87402e-006 7.87402e-006 7.87402e-006c0.0238307,0.0238307 0.0550827,0.035748 0.0863307,0.035748 0.031248,0 0.0625,-0.0119173 0.0863307,-0.035748l7.87402e-006 -7.87402e-006 7.87402e-006 -7.87402e-006c0.0238307,-0.0238307 0.035748,-0.0550827 0.035748,-0.0863307 0,-0.031248 -0.0119173,-0.0625 -0.035748,-0.0863307l-7.87402e-006 -7.87402e-006 -7.87402e-006 -7.87402e-006c-0.0238307,-0.0238307 -0.0550827,-0.035748 -0.0863307,-0.035748 -0.031248,0 -0.0625,0.0119173 -0.0863307,0.035748z"/>
  <path class="fil0" d="M0.918516 4.0384c-0.0182913,0.0228937 -0.014563,0.0562913 0.00833071,0.0745827 0.0228937,0.0182913 0.0562913,0.014563 0.0745827,-0.00833071 0.0139488,-0.0174409 0.0287835,-0.0349449 0.0444685,-0.0524685 0.0135866,-0.0151811 0.0294173,-0.031811 0.0474606,-0.0498543 0.24287,-0.24287 0.561213,-0.364315 0.879547,-0.364315 0.318335,0 0.636673,0.121445 0.879547,0.364315 0.137071,0.137071 0.23826,0.302047 0.298732,0.480673 0.0605433,0.17885 0.0804291,0.371421 0.0548307,0.563441 -0.00379528,0.0291063 0.0167283,0.0557874 0.0458346,0.0595827 0.0291063,0.00379528 0.0557874,-0.0167283 0.0595827,-0.0458346 0.0277913,-0.208465 0.00624409,-0.417406 -0.0594134,-0.611354 -0.0657362,-0.194169 -0.175535,-0.373311 -0.32415,-0.521925 -0.263709,-0.263705 -0.609343,-0.395567 -0.954965,-0.395567 -0.345622,0 -0.69126,0.131862 -0.954965,0.395567 -0.0158031,0.0158031 -0.0328858,0.0339606 -0.0512087,0.054437 -0.0162047,0.0181024 -0.0322874,0.0371378 -0.0482165,0.0570512z"/>
  <path class="fil0" d="M2.35339 3.60629l1.57838 -1.57838c0.0746654,-0.0746654 0.16461,-0.125752 0.260228,-0.153244 0.0786969,-0.022622 0.161441,-0.028937 0.242752,-0.0189528l0.115965 -0.115965 0.786906 -0.786906c0.0725394,-0.0725394 0.168031,-0.108811 0.263437,-0.108811 0.0954094,0 0.190902,0.0362717 0.263437,0.108811l3.93701e-006 7.87402e-006c0.0725394,0.0725394 0.108807,0.168028 0.108807,0.263433 0,0.0954016 -0.0362677,0.19089 -0.108807,0.263433l-3.93701e-006 3.93701e-006 -0.796323 0.796323 -0.106547 0.106547c0.00998031,0.081311 0.00367323,0.164055 -0.0189528,0.242752 -0.0274843,0.095622 -0.0785748,0.185563 -0.15324,0.260228l-1.56293 1.56293 -0.150835 -0.150835 1.56293 -1.56293c0.0484173,-0.0484173 0.0814409,-0.10637 0.0990748,-0.167724 0.0186063,-0.0647205 0.020622,-0.132961 0.00605118,-0.197772l-0.0129291 -0.0574882 0.0412638 -0.0412638 0.14528 -0.14528 0.796323 -0.796323 3.93701e-006 -3.93701e-006c0.0308661,-0.0308661 0.0463031,-0.0716969 0.0463031,-0.112598 0,-0.0409055 -0.015437,-0.0817323 -0.0463031,-0.112598l-3.93701e-006 -3.93701e-006 -0.000362205 -0.000362205c-0.0308228,-0.0306299 -0.0715,-0.0459488 -0.11224,-0.0459488 -0.0409055,0 -0.0817323,0.015437 -0.112602,0.0463071l-0.786906 0.786906 -0.154697 0.154697 -0.0412638 0.0412638 -0.0574882 -0.0129291c-0.064815,-0.0145709 -0.133051,-0.0125512 -0.197772,0.00605118 -0.0613504,0.0176378 -0.119307,0.0506614 -0.167724,0.0990787l-1.57838 1.57838 -0.150835 -0.150835z"/>
  <path class="fil0" d="M4.04994 4.74064l0.0972598 -0.0972559 -0.557791 -0.557791 -0.0972559 0.0972598 0.557787 0.557787zm0.323512 -0.0218386l-0.247496 0.247492 -0.000590551 0.000606299c-0.0416535,0.0416535 -0.109197,0.0416535 -0.15085,0l7.87402e-006 -7.87402e-006 -0.708024 -0.708024 -0.000606299 -0.000590551c-0.0416535,-0.0416535 -0.0416535,-0.109197 0,-0.15085l7.87402e-006 7.87402e-006 0.247492 -0.247496 0.000590551 -0.000606299c0.0416535,-0.0416535 0.109197,-0.0416535 0.15085,0l-7.87402e-006 7.87402e-006 0.708028 0.708028 0.000606299 0.000590551c0.0416535,0.0416535 0.0416535,0.109197 0,0.15085l-7.87402e-006 -7.87402e-006z"/>
  <path class="fil0" d="M3.89552 4.89504c-0.0416496,0.0416496 -0.0416496,0.109185 0,0.150835 0.0416496,0.0416496 0.109185,0.0416496 0.150835,0l0.406079 -0.406079c0.0416496,-0.0416496 0.0416496,-0.109185 0,-0.150835 -0.0416496,-0.0416496 -0.109185,-0.0416496 -0.150835,0l-0.406079 0.406079z"/>
  <polygon class="fil0" points="2.86726,2.90391 3.27334,2.49783 3.42418,2.64867 3.0181,3.05474 "/>
  <polygon class="fil0" points="2.94249,2.72826 3.0956,2.57515 3.24644,2.72598 3.09332,2.87909 "/>
  <rect class="fil1" width="6.82666" height="6.82666"/>
 </g>
</svg>
