<?xml version="1.0" encoding="UTF-8"?>
<!DOCTYPE svg PUBLIC "-//W3C//DTD SVG 1.1//EN" "http://www.w3.org/Graphics/SVG/1.1/DTD/svg11.dtd">
<!-- Creator: CorelDRAW -->
<svg xmlns="http://www.w3.org/2000/svg" xml:space="preserve" width="6.82666in" height="6.82666in" style="shape-rendering:geometricPrecision; text-rendering:geometricPrecision; image-rendering:optimizeQuality; fill-rule:evenodd; clip-rule:evenodd"
viewBox="0 0 6.82666 6.82666"
 xmlns:xlink="http://www.w3.org/1999/xlink">
 <defs>
  <style type="text/css">
   <![CDATA[
    .fil1 {fill:none}
    .fil0 {fill:#212121;fill-rule:nonzero}
   ]]>
  </style>
 </defs>
 <g id="Layer_x0020_1">
  <metadata id="CorelCorpID_0Corel-Layer"/>
  <path class="fil0" d="M0.96 1.93285l4.90666 0c0.0589094,0 0.106669,0.0477598 0.106669,0.106669l0 2.76787c0,0.0589094 -0.0477598,0.106669 -0.106669,0.106669l-4.90666 0c-0.0589094,0 -0.106669,-0.0477598 -0.106669,-0.106669l0 -2.76787c0,-0.0589094 0.0477598,-0.106669 0.106669,-0.106669zm4.79999 0.213339l-4.69332 0 0 2.55453 4.69332 0 0 -2.55453z"/>
  <path class="fil0" d="M1.91024 3.58563c0,-0.0589094 -0.0477598,-0.106669 -0.106669,-0.106669 -0.0589094,0 -0.106669,0.0477598 -0.106669,0.106669l0 0.213335c0,0.0589094 0.0477598,0.106669 0.106669,0.106669 0.0589094,0 0.106669,-0.0477598 0.106669,-0.106669l0 -0.213335z"/>
  <path class="fil0" d="M2.65688 3.58563c0,-0.0589094 -0.0477598,-0.106669 -0.106669,-0.106669 -0.0589094,0 -0.106669,0.0477598 -0.106669,0.106669l0 0.213335c0,0.0589094 0.0477598,0.106669 0.106669,0.106669 0.0589094,0 0.106669,-0.0477598 0.106669,-0.106669l0 -0.213335z"/>
  <path class="fil0" d="M2.28356 3.02769c0,-0.0589094 -0.0477598,-0.106669 -0.106669,-0.106669 -0.0589094,0 -0.106669,0.0477598 -0.106669,0.106669l0 0.213335c0,0.0589094 0.0477598,0.106669 0.106669,0.106669 0.0589094,0 0.106669,-0.0477598 0.106669,-0.106669l0 -0.213335z"/>
  <path class="fil0" d="M4.36357 3.58563c0,-0.0589094 -0.0477598,-0.106669 -0.106669,-0.106669 -0.0589094,0 -0.106669,0.0477598 -0.106669,0.106669l0 0.213335c0,0.0589094 0.0477598,0.106669 0.106669,0.106669 0.0589094,0 0.106669,-0.0477598 0.106669,-0.106669l0 -0.213335z"/>
  <path class="fil0" d="M5.11021 3.58563c0,-0.0589094 -0.0477598,-0.106669 -0.106669,-0.106669 -0.0589094,0 -0.106669,0.0477598 -0.106669,0.106669l0 0.213335c0,0.0589094 0.0477598,0.106669 0.106669,0.106669 0.0589094,0 0.106669,-0.0477598 0.106669,-0.106669l0 -0.213335z"/>
  <path class="fil0" d="M4.73689 3.02769c0,-0.0589094 -0.0477598,-0.106669 -0.106669,-0.106669 -0.0589094,0 -0.106669,0.0477598 -0.106669,0.106669l0 0.213335c0,0.0589094 0.0477598,0.106669 0.106669,0.106669 0.0589094,0 0.106669,-0.0477598 0.106669,-0.106669l0 -0.213335z"/>
  <path class="fil0" d="M3.46667 2.08c0,-0.0294528 -0.0238819,-0.0533346 -0.0533346,-0.0533346 -0.0294528,0 -0.0533346,0.0238819 -0.0533346,0.0533346l0 2.66667c0,0.0294528 0.0238819,0.0533346 0.0533346,0.0533346 0.0294528,0 0.0533346,-0.0238819 0.0533346,-0.0533346l0 -2.66667z"/>
  <path class="fil0" d="M2.17689 2.45332c0.265091,0 0.505098,0.107461 0.678823,0.281185 0.173724,0.173724 0.281185,0.413732 0.281185,0.678823 0,0.265091 -0.107461,0.505098 -0.281185,0.678823 -0.173724,0.173724 -0.413732,0.281185 -0.678823,0.281185 -0.265091,0 -0.505098,-0.107461 -0.678823,-0.281185 -0.173724,-0.173724 -0.281185,-0.413732 -0.281185,-0.678823 0,-0.265091 0.107461,-0.505098 0.281185,-0.678823 0.173724,-0.173724 0.413732,-0.281185 0.678823,-0.281185zm0.603406 0.356602c-0.154417,-0.154417 -0.36776,-0.249933 -0.603406,-0.249933 -0.235646,0 -0.448988,0.0955157 -0.603406,0.249933 -0.154417,0.154417 -0.249933,0.36776 -0.249933,0.603406 0,0.235646 0.0955157,0.448988 0.249933,0.603406 0.154417,0.154417 0.36776,0.249933 0.603406,0.249933 0.235646,0 0.448988,-0.0955157 0.603406,-0.249933 0.154417,-0.154417 0.249933,-0.36776 0.249933,-0.603406 0,-0.235646 -0.0955157,-0.448988 -0.249933,-0.603406z"/>
  <path class="fil0" d="M4.63022 2.45332c0.265091,0 0.505098,0.107461 0.678823,0.281185 0.173724,0.173724 0.281185,0.413732 0.281185,0.678823 0,0.265091 -0.107461,0.505098 -0.281185,0.678823 -0.173724,0.173724 -0.413732,0.281185 -0.678823,0.281185 -0.265091,0 -0.505098,-0.107461 -0.678823,-0.281185 -0.173724,-0.173724 -0.281185,-0.413732 -0.281185,-0.678823 0,-0.265091 0.107461,-0.505098 0.281185,-0.678823 0.173724,-0.173724 0.413732,-0.281185 0.678823,-0.281185zm0.603406 0.356602c-0.154417,-0.154417 -0.36776,-0.249933 -0.603406,-0.249933 -0.235646,0 -0.448988,0.0955157 -0.603406,0.249933 -0.154417,0.154417 -0.249933,0.36776 -0.249933,0.603406 0,0.235646 0.0955157,0.448988 0.249933,0.603406 0.154417,0.154417 0.36776,0.249933 0.603406,0.249933 0.235646,0 0.448988,-0.0955157 0.603406,-0.249933 0.154417,-0.154417 0.249933,-0.36776 0.249933,-0.603406 0,-0.235646 -0.0955157,-0.448988 -0.249933,-0.603406z"/>
  <rect class="fil1" width="6.82666" height="6.82666"/>
 </g>
</svg>
