<?xml version="1.0" encoding="UTF-8"?>
<!DOCTYPE svg PUBLIC "-//W3C//DTD SVG 1.1//EN" "http://www.w3.org/Graphics/SVG/1.1/DTD/svg11.dtd">
<!-- Creator: CorelDRAW -->
<svg xmlns="http://www.w3.org/2000/svg" xml:space="preserve" width="6.82666in" height="6.82666in" style="shape-rendering:geometricPrecision; text-rendering:geometricPrecision; image-rendering:optimizeQuality; fill-rule:evenodd; clip-rule:evenodd"
viewBox="0 0 6.82666 6.82666"
 xmlns:xlink="http://www.w3.org/1999/xlink">
 <defs>
  <style type="text/css">
   <![CDATA[
    .fil1 {fill:none}
    .fil0 {fill:#212121;fill-rule:nonzero}
   ]]>
  </style>
 </defs>
 <g id="Layer_x0020_1">
  <metadata id="CorelCorpID_0Corel-Layer"/>
  <path class="fil0" d="M4.10748 3.98926l-0.0128819 -0.00213386 0.0309213 0.057622 -0.046874 0.0252087 0.0469961 -0.0252165c0.0139252,0.0259528 0.00417323,0.0582874 -0.0217795,0.0722126 -0.0137323,0.00736614 -0.0292441,0.0081063 -0.042878,0.00332677l-0.0594646 -0.0167598 0.0243858 0.0603543 0.000129921 -5.11811e-005c0.0110315,0.0273071 -0.00216142,0.0583976 -0.0294685,0.0694291 -0.0146102,0.00590157 -0.0303031,0.00486614 -0.0434291,-0.00155118l-0.0568307 -0.0229606 0.0176654 0.062685 0.000106299 -3.14961e-005c0.00798819,0.0283504 -0.00851575,0.057815 -0.0368661,0.0658031 -0.0150276,0.00423622 -0.0303701,0.00158661 -0.0426575,-0.00605906l-0.0546417 -0.0293268 0.0106969 0.0646063 0.000141732 -2.3622e-005c0.00481102,0.0290591 -0.0148465,0.0565197 -0.0439055,0.0613307 -0.015378,0.00254724 -0.030311,-0.00176378 -0.0416732,-0.0106929l-0.0516693 -0.0354134 0.00341732 0.066126 0.000133858 -7.87402e-006c0.00151969,0.0294134 -0.0210945,0.0544921 -0.0505079,0.0560118 -0.0156142,0.000807087 -0.0300039,-0.00518504 -0.0402992,-0.0153858l-0.0480827 -0.0412677 -0.00426378 0.0671969 -0.053126 -0.00333465 0.0532244 0.00337795c-0.0018622,0.0293937 -0.0272087,0.0517087 -0.0566024,0.0498465 -0.0154016,-0.000976378 -0.0288543,-0.00839764 -0.0379094,-0.0194764l-0.0446142 -0.0475906 -0.0124488 0.0679173 -0.0522913 -0.00958268 0.0524567 0.00961417c-0.00530709,0.0289685 -0.0331024,0.0481496 -0.0620709,0.0428425 -0.0153622,-0.00281496 -0.0279764,-0.0119606 -0.0356378,-0.0242441l-0.0398425 -0.0529724 -0.0212283 0.0680433 -0.0508346 -0.0158346 0.0509134 0.0158858c-0.00877165,0.0281181 -0.0386811,0.0437992 -0.0667992,0.0350276 -0.0145197,-0.00452756 -0.0257205,-0.014689 -0.0319528,-0.0273346l-0.0355591 -0.0596496 -0.0306063 0.0673307 -0.0485394 -0.021874 0.0485512 0.0220709c-0.012189,0.026811 -0.043811,0.0386693 -0.070622,0.0264803 -0.0132205,-0.00601181 -0.0228031,-0.016748 -0.0276614,-0.0293031l-0.0294094 -0.0646969 -0.0377244 0.0632874 0.000141732 8.66142e-005c-0.0150787,0.0252992 -0.0478189,0.0335827 -0.0731181,0.0185039 -0.012689,-0.00756299 -0.0210906,-0.0195669 -0.0244213,-0.0328465l-0.0203386 -0.0651811 -0.0426024 0.0566378 -0.0425 -0.031874 0.042622 0.0320591c-0.0177047,0.0235394 -0.0511417,0.0282677 -0.0746811,0.010563 -0.0123661,-0.00929921 -0.0195354,-0.022937 -0.0209961,-0.0372047l-0.011685 -0.063752 -0.0470827 0.0502283 9.44882e-005 9.05512e-005c-0.0201417,0.0214882 -0.0538976,0.0225748 -0.0753858,0.00243307 -0.0111614,-0.0104646 -0.0168189,-0.0246063 -0.0168543,-0.0387874l-0.00405906 -0.0639803 -0.0509843 0.0437598 9.05512e-005 0.000106299c-0.0223504,0.0191811 -0.0560276,0.0166142 -0.0752087,-0.00573622 -0.0101929,-0.011874 -0.014248,-0.0269488 -0.0124528,-0.0413425l0.00321654 -0.0622638 -0.0545433 0.0373858 6.69291e-005 9.44882e-005c-0.0242953,0.0166496 -0.0574961,0.0104567 -0.0741457,-0.0138386 -0.00888976,-0.0129724 -0.0112638,-0.0284843 -0.00785039,-0.0426614l0.0100669 -0.0607874 -0.057622 0.0309213 -0.0252087 -0.046874 0.0252165 0.0469961c-0.0259528,0.0139252 -0.0582874,0.00417323 -0.0722126,-0.0217795 -0.00736614,-0.0137323 -0.0081063,-0.0292441 -0.00332677,-0.042878l0.0167598 -0.0594646 -0.0603543 0.0243858 5.11811e-005 0.000129921c-0.0273071,0.0110315 -0.0583976,-0.00216142 -0.0694291,-0.0294685 -0.00590157,-0.0146102 -0.00486614,-0.0303031 0.00155118,-0.0434291l0.0229606 -0.0568307 -0.062689 0.0176693 2.75591e-005 0.000102362c-0.0283504,0.00798819 -0.057811,-0.00851969 -0.0657992,-0.0368701 -0.00423228,-0.0150276 -0.00158661,-0.0303661 0.00605906,-0.0426535l0.0293268 -0.0546417 -0.0646063 0.0106969 2.3622e-005 0.000141732c-0.0290591,0.00481102 -0.0565197,-0.0148465 -0.0613307,-0.0439055 -0.00254724,-0.015378 0.00176378,-0.030311 0.0106929,-0.0416732l0.0354134 -0.0516693 -0.066122 0.00341732 7.87402e-006 0.000133858c-0.0294134,0.00151969 -0.0544921,-0.0210945 -0.0560118,-0.0505079 -0.000807087,-0.0156102 0.00518504,-0.0300079 0.0153858,-0.0402992l0.0412677 -0.0480866 -0.0671969 -0.00425984 0.00333465 -0.053126 -0.00337402 0.0532244c-0.0293937,-0.0018622 -0.0517126,-0.0272047 -0.0498504,-0.0565984 0.000976378,-0.0154094 0.00840551,-0.0288701 0.0194882,-0.0379252l0.0475787 -0.0446024 -0.0679173 -0.0124488 0.00958268 -0.0522913 -0.00961417 0.0524567c-0.0289685,-0.00530709 -0.0481496,-0.0331024 -0.0428425,-0.0620709 0.00281496,-0.0153622 0.0119567,-0.0279724 0.0242402,-0.0356378l0.0529724 -0.0398425 -0.0680433 -0.0212283 0.0158346 -0.0508346 -0.0158858 0.0509134c-0.0281181,-0.00877165 -0.0437992,-0.0386811 -0.0350276,-0.0667992 0.00452756,-0.0145197 0.014689,-0.0257205 0.0273346,-0.0319528l0.0596496 -0.0355591 -0.0673268 -0.0306063 0.021874 -0.0485394 -0.0220709 0.0485512c-0.026811,-0.012189 -0.0386693,-0.043811 -0.0264803,-0.070622 0.00601181,-0.0132205 0.016748,-0.0228031 0.0293031,-0.0276614l0.0646969 -0.0294134 -0.0632913 -0.0377244 -8.66142e-005 0.000141732c-0.0252992,-0.0150787 -0.0335827,-0.0478189 -0.0185039,-0.0731181 0.00756299,-0.012689 0.0195669,-0.0210906 0.0328465,-0.0244213l0.0651732 -0.0203346 -0.0566299 -0.0425945 0.031874 -0.0425 -0.0320591 0.042622c-0.0235394,-0.0177047 -0.0282677,-0.0511417 -0.010563,-0.0746811 0.00929921,-0.0123622 0.022937,-0.0195354 0.0372047,-0.0209961l0.0637598 -0.011689 -0.0502323 -0.0470906 -9.05512e-005 9.44882e-005c-0.0214882,-0.0201417 -0.0225748,-0.0538976 -0.00243307,-0.0753858 0.0104646,-0.0111654 0.0246024,-0.0168189 0.0387874,-0.0168543l0.0639803 -0.00405512 -0.0437598 -0.0509882 -0.000106299 9.05512e-005c-0.0191811,-0.0223504 -0.0166102,-0.0560236 0.00574016,-0.0752047 0.0118583,-0.0101772 0.0269016,-0.0142283 0.0412795,-0.0124567l0.159114 0.00821654 -0.00270866 0.053126 0.00274803 -0.0532598c0.0100118,0.000515748 0.0192323,0.00376378 0.0269843,0.00898031 0.108831,0.0656181 0.220571,0.132941 0.334516,0.201594 0.601256,0.362252 1.2641,0.761618 1.88326,1.142l1.1811e-005 -1.5748e-005c0.0250945,0.0154173 0.0329409,0.0482638 0.0175236,0.0733583 -0.012437,0.0202402 -0.0362087,0.0292598 -0.0581102,0.0239016zm-0.156213 -0.0441181c-0.0066063,-0.0106142 -0.0095315,-0.0235748 -0.00733071,-0.036878 0.000807087,-0.00487795 0.00225984,-0.00949606 0.00424409,-0.0137717 -0.582587,-0.356854 -1.18659,-0.720772 -1.73839,-1.05322 -0.110791,-0.066752 -0.219496,-0.132248 -0.325469,-0.196138l-0.0255512 -0.0013189 0.0299764 0.0349291c0.00877165,0.00883858 0.0145,0.0207677 0.0153504,0.0341693 0.0018622,0.0293937 -0.0204567,0.0547362 -0.0498504,0.0565984l-0.00337402 -0.0532244 0.00333465 0.053126 -0.0509331 0.00323228 0.0347244 0.0325512c0.00946457,0.00772441 0.0163425,0.0187205 0.0187165,0.0316772 0.00531102,0.0289685 -0.0138701,0.0567638 -0.0428386,0.0620748l-0.00961811 -0.0524567 0.00958268 0.0522913 -0.052378 0.00960236 0.0389606 0.0293031c0.0104961,0.00651575 0.0187874,0.016689 0.0227559,0.0294094 0.00877165,0.0281181 -0.00690945,0.0580276 -0.0350276,0.0667992l-0.0158858 -0.0509134 0.0158346 0.0508346 -0.0533425 0.0166417 0.0446732 0.0266299c0.0106614,0.00525591 0.0196378,0.0140866 0.0249409,0.025748 0.012189,0.026811 0.000330709,0.0584331 -0.0264803,0.070622l-0.0220709 -0.0485512 0.021874 0.0485394 -0.0532441 0.0242047 0.0505197 0.0229606c0.0107756,0.0041378 0.0202913,0.0117874 0.0266614,0.0224685 0.0150827,0.0252992 0.00679921,0.0580394 -0.0185,0.073122l-8.66142e-005 -0.000145669 -0.0482913 0.0287874 0.0504528 0.0157402c0.0114528,0.00285433 0.0220354,0.00951181 0.029685,0.0196811 0.0177047,0.0235394 0.0129764,0.0569764 -0.010563,0.0746811l-0.0320591 -0.042622 0.031874 0.0425 -0.0426732 0.0320945 0.0482008 0.00883858c0.0123583,0.00125591 0.0243386,0.00680315 0.0335,0.0165787 0.0201417,0.0214882 0.0190551,0.0552441 -0.00243307,0.0753858l-9.05512e-005 -9.44882e-005 -0.0373701 0.0350315 0.0477362 0.00302756c0.0122559,2.3622e-005 0.024563,0.00424803 0.0345906,0.0128543 0.0223504,0.0191811 0.0249213,0.0528543 0.00574016,0.0752047l-0.000106299 -9.05512e-005 -0.0324685 0.0378346 0.0459173 -0.00237008c0.0124528,-0.00153937 0.0255,0.0012874 0.0366654,0.00893701 0.0242953,0.0166496 0.0304882,0.0498504 0.0138386,0.0741457l-9.44882e-005 -6.69291e-005 -0.0276575 0.0403504 0.0444134 -0.00735433c0.0122874,-0.00295669 0.0256693,-0.00158661 0.0376811,0.00485827 0.0259528,0.0139252 0.0356969,0.0462598 0.0217717,0.0722126l-0.0469921 -0.0252205 0.046874 0.0252087 -0.0228425 0.042563 0.0433307 -0.0122087c0.0118031,-0.0041378 0.0250984,-0.00416929 0.0376024,0.00088189 0.0273071,0.0110315 0.0405,0.042122 0.0294685,0.0694291l-0.000129921 -5.11811e-005 -0.0180748 0.0447362 0.0411693 -0.0166339c0.0113819,-0.00559055 0.0247913,-0.00716535 0.0379606,-0.00345669 0.0283504,0.00798819 0.0448583,0.0374488 0.0368701,0.0657992l-0.000102362 -2.75591e-005 -0.0131102 0.0465197 0.0396772 -0.0212913c0.0105984,-0.00657874 0.0235394,-0.00948819 0.036811,-0.00729134 0.0290551,0.00481102 0.0487126,0.0322717 0.0439016,0.0613268l-0.000137795 -2.3622e-005 -0.00798031 0.0481811 0.0375394 -0.0257283c0.00977953,-0.00767323 0.0222638,-0.0119843 0.0356496,-0.0112913 0.0294134,0.00151969 0.0520276,0.0265984 0.0505079,0.0560118l-0.000133858 -7.87402e-006 -0.00256693 0.0496772 0.0349252 -0.0299724c0.00883465,-0.00876772 0.0207638,-0.0145 0.0341654,-0.0153504 0.0293937,-0.0018622 0.0547402,0.0204528 0.0566024,0.0498465l-0.0532244 0.00337795 0.053126 -0.00333465 0.00323228 0.0509331 0.0325 -0.0346693c0.00772835,-0.00949606 0.0187441,-0.0163976 0.0317323,-0.0187756 0.0289724,-0.00530709 0.0567677,0.013874 0.0620748,0.0428465l-0.0524606 0.00961417 0.0522913 -0.00958268 0.00959843 0.052378 0.0293071 -0.0389606c0.00651575,-0.0104961 0.0166929,-0.0187874 0.0294094,-0.0227559 0.0281181,-0.00877165 0.0580276,0.00690945 0.0667992,0.0350276l-0.0509134 0.0158858 0.0508346 -0.0158346 0.0166457 0.0533425 0.026626 -0.0446693c0.00525591,-0.0106614 0.0140866,-0.0196378 0.025748,-0.0249409 0.026811,-0.012189 0.0584331,-0.000330709 0.070622,0.0264803l-0.0485512 0.0220709 0.0485394 -0.021874 0.0242047 0.0532441 0.0229606 -0.0505197c0.0041378,-0.0107756 0.0117874,-0.0202913 0.0224685,-0.0266614 0.0252992,-0.0150827 0.0580394,-0.00679921 0.073122,0.0185l-0.000145669 8.66142e-005 0.0287874 0.0482874 0.0157402 -0.0504528c0.00285433,-0.0114528 0.00951181,-0.0220354 0.0196811,-0.029685 0.0235394,-0.0177047 0.0569764,-0.0129764 0.0746811,0.010563l-0.042622 0.0320591 0.0425 -0.031874 0.0320984 0.0426732 0.00883465 -0.0481969c0.00125591,-0.0123583 0.00680315,-0.0243386 0.0165787,-0.0335 0.0214882,-0.0201417 0.0552441,-0.0190551 0.0753858,0.00243307l-9.44882e-005 9.05512e-005 0.0350315 0.0373701 0.0030315 -0.0477402c2.3622e-005,-0.012252 0.00424803,-0.024563 0.0128543,-0.0345906 0.0191811,-0.0223504 0.0528543,-0.0249213 0.0752047,-0.00574016l-9.05512e-005 0.000106299 0.0378307 0.0324685 -0.00237008 -0.0459173c-0.00153937,-0.0124528 0.0012874,-0.0255 0.00893701,-0.0366654 0.0166496,-0.0242953 0.0498504,-0.0304882 0.0741457,-0.0138386l-6.69291e-005 9.44882e-005 0.0403504 0.0276575 -0.00735433 -0.0444134c-0.00295669,-0.0122874 -0.00158661,-0.0256693 0.00485827,-0.0376811 0.0139252,-0.0259528 0.0462598,-0.0356969 0.0722126,-0.0217717l-0.0252205 0.0469921 0.0252087 -0.046874 0.042563 0.0228425 -0.0122087 -0.0433268c-0.0041378,-0.0118031 -0.00416929,-0.0250984 0.00088189,-0.0376024 0.0110315,-0.0273071 0.042122,-0.0405 0.0694291,-0.0294685l-5.11811e-005 0.000129921 0.0447362 0.0180748 -0.0166339 -0.0411693c-0.00559055,-0.0113819 -0.00716535,-0.0247913 -0.00345669,-0.0379606 0.00798819,-0.0283504 0.0374488,-0.0448583 0.0657992,-0.0368701l-2.75591e-005 0.000102362 0.0465197 0.0131102 -0.0212559 -0.0396102z"/>
  <path class="fil0" d="M3.52822 3.59748c-0.0611693,0.0821299 -0.140803,0.149811 -0.232795,0.196929 -0.0920591,0.0471575 -0.195764,0.0737677 -0.304984,0.0737677 -0.185146,0 -0.35278,-0.0750551 -0.474126,-0.196402 -0.121346,-0.121346 -0.196402,-0.28898 -0.196402,-0.474126 0,-0.0526102 0.00620866,-0.104142 0.0179252,-0.153874 0.0118661,-0.0503543 0.0298504,-0.0992165 0.0531614,-0.145768l0.095 0.0475 -0.095374 -0.0477638c0.026378,-0.0526732 0.0904646,-0.0739882 0.143138,-0.0476102 0.00411417,0.00205906 0.00803543,0.00435433 0.0117598,0.00685039 0.154878,0.0933465 0.312791,0.188591 0.472122,0.284866 0.0766772,0.0463346 0.22376,0.135516 0.485402,0.294417l-0.055 0.0908346 0.0553701 -0.0911693c0.0503504,0.0305787 0.066378,0.096189 0.0357992,0.146539 -0.00328346,0.00540551 -0.0069685,0.0104094 -0.0109961,0.0150079zm-0.329465 0.00776378c0.0296929,-0.0152087 0.0575157,-0.0335945 0.0830276,-0.0547047 -0.0891063,-0.0539173 -0.217909,-0.13178 -0.374138,-0.226185 -0.12274,-0.0741614 -0.244638,-0.147713 -0.364953,-0.22026 -0.00618504,0.0299409 -0.00944094,0.0612283 -0.00944094,0.0935551 0,0.12626 0.0511693,0.240563 0.133898,0.323291 0.0827283,0.0827283 0.197031,0.133898 0.323291,0.133898 0.0756496,0 0.146421,-0.0178898 0.208315,-0.0495945zm-0.653232 -0.74826c0.0439528,0.0294724 0.0601693,0.0877283 0.0358504,0.136287"/>
  <path class="fil0" d="M4.90614 4.54617c0.0497047,0.0312953 0.11537,0.0163701 0.146665,-0.0333346 0.0312953,-0.0497047 0.0163701,-0.11537 -0.0333346,-0.146665 -0.786248,-0.496283 -1.73126,-1.06396 -2.57724,-1.57215 -0.249957,-0.15015 -0.490445,-0.294618 -0.776197,-0.467303 0.236917,-0.360488 0.596591,-0.593075 0.988354,-0.678043 0.394594,-0.0855827 0.821602,-0.0214016 1.18843,0.212571 0.00355512,0.00261024 0.00723622,0.00497244 0.0110197,0.00708661 0.324665,0.210803 0.546709,0.520524 0.651965,0.864016 0.107465,0.350709 0.0931339,0.736799 -0.0580197,1.08883l0.0979173 0.0420827 -0.0980157 -0.0420866c-0.0216614,0.0504528 -0.00137402,0.10837 0.045311,0.134827l0.694122 0.458122c0.0490157,0.0324449 0.115059,0.0190157 0.147504,-0.03 0.0324449,-0.0490157 0.0190157,-0.115059 -0.03,-0.147504l-0.627799 -0.414346c0.139732,-0.376307 0.145925,-0.781654 0.032311,-1.15243 -0.119409,-0.389681 -0.37124,-0.741024 -0.739449,-0.980126 -0.00197244,-0.00147638 -0.00401181,-0.00288976 -0.00611417,-0.00424409l-0.00011811 0.000185039 -0.000102362 -6.69291e-005 -0.0550354 0.0857441 -0.0024685 0.00383465 0.0575 -0.0895827c-0.417547,-0.268705 -0.90439,-0.342748 -1.35396,-0.245244 -0.447362,0.0970276 -0.857949,0.363965 -1.12683,0.777976 -0.00149213,0.00199606 -0.00292913,0.00405512 -0.00429921,0.00618504l0.000185039 0.00011811 -6.69291e-005 0.000106299 0.0489606 0.0314252 -1.1811e-005 0 -0.0489528 -0.0314213c-0.010185,0.0158268 -0.0190354,0.0299449 -0.0264921,0.0422756 -0.00539764,0.00891732 -0.0123976,0.0209173 -0.0209331,0.0358701 -0.000976378,0.00145276 -0.00192913,0.00293701 -0.00284646,0.00445276 -0.0304921,0.0504055 -0.0143504,0.115988 0.0360551,0.14648l0.0552126 -0.0912677 -0.055 0.091252c0.209512,0.126748 0.531878,0.320398 0.868697,0.522728 0.844031,0.50702 1.78688,1.0734 2.57307,1.56965z"/>
  <path class="fil0" d="M1.45992 4.99116l3.90682 0c0.125425,0 0.239374,0.0512362 0.321909,0.133776 0.0825394,0.0825394 0.133776,0.196492 0.133776,0.321913l0 3.93701e-006c0,0.0589094 -0.0477598,0.106669 -0.106669,0.106669l-4.60485 0c-0.0589094,0 -0.106669,-0.0477598 -0.106669,-0.106669l0 -3.93701e-006c0,-0.125421 0.0512362,-0.239374 0.133776,-0.321913 0.0825354,-0.0825394 0.196484,-0.133776 0.321909,-0.133776zm3.90682 0.213339l-3.90682 0c-0.0665354,0 -0.127102,0.0272992 -0.171075,0.0712717 -0.0187323,0.0187323 -0.0344331,0.0404764 -0.0462953,0.0644134l4.34156 0c-0.0118622,-0.023937 -0.027563,-0.0456811 -0.0462953,-0.0644134 -0.0439724,-0.0439724 -0.104539,-0.0712717 -0.171075,-0.0712717z"/>
  <path class="fil0" d="M0.959996 5.34018c-0.0589094,0 -0.106669,0.0477598 -0.106669,0.106669 0,0.0589094 0.0477598,0.106669 0.106669,0.106669l4.90667 0c0.0589094,0 0.106669,-0.0477598 0.106669,-0.106669 0,-0.0589094 -0.0477598,-0.106669 -0.106669,-0.106669l-4.90667 0z"/>
  <path class="fil0" d="M5.17894 4.218l7.87402e-006 0c0.0885669,0 0.169016,0.0361614 0.227264,0.0944094 0.058248,0.058248 0.0944055,0.138693 0.0944055,0.22726l0 0.537512c0,0.0589094 -0.0477598,0.106669 -0.106669,0.106669l-0.430008 0c-0.0589094,0 -0.106669,-0.0477598 -0.106669,-0.106669l0 -0.537512c0,-0.0885669 0.0361614,-0.169012 0.0944094,-0.22726 0.058248,-0.058248 0.138693,-0.0944094 0.22726,-0.0944094zm7.87402e-006 0.213339l-7.87402e-006 0c-0.0296811,0 -0.0567441,0.0122244 -0.0764252,0.0319055 -0.0196811,0.0196811 -0.0319055,0.0467441 -0.0319055,0.0764252l0 0.430843 0.216669 0 0 -0.430843c0,-0.0296811 -0.0122205,-0.0567441 -0.0319016,-0.0764252 -0.0196811,-0.0196811 -0.046748,-0.0319055 -0.0764291,-0.0319055z"/>
  <path class="fil0" d="M1.52952 2.31248c0.0510827,0.0287638 0.115819,0.0106654 0.144583,-0.0404173 0.0287638,-0.0510827 0.0106654,-0.115819 -0.0404173,-0.144583l-0.281516 -0.158835c0.00235827,-0.00477953 0.00551575,-0.0113583 0.00916929,-0.0197402 0.0260236,-0.059685 0.0872323,-0.132965 0.172858,-0.20439 0.0899449,-0.0750315 0.204524,-0.145307 0.332114,-0.193787 0.227181,-0.0863189 0.494815,-0.10163 0.731413,0.0560945 0.0490157,0.0324449 0.115059,0.0190157 0.147504,-0.03 0.0324449,-0.0490157 0.0190157,-0.115059 -0.03,-0.147504 -0.303756,-0.202492 -0.640575,-0.185413 -0.923917,-0.0777559 -0.150445,0.0571614 -0.286075,0.140472 -0.392949,0.229622 -0.111201,0.0927559 -0.193469,0.194303 -0.232024,0.28272 -0.0360866,0.0827638 -0.038622,0.160567 -0.000665354,0.224217 0.00921654,0.0176339 0.0234606,0.0328976 0.0420787,0.0434016l0.0524173 -0.0929016 -0.0520827 0.0925 0.321433 0.181358z"/>
  <path class="fil0" d="M3.1314 2.86238c0.0536417,0 0.10222,0.0217559 0.137386,0.0569134 0.0351575,0.0351575 0.0569134,0.0837402 0.0569134,0.137386 0,0.0536417 -0.0217559,0.10222 -0.0569134,0.137386 -0.0351654,0.0351575 -0.0837441,0.0569134 -0.137386,0.0569134 -0.0536457,0 -0.102228,-0.0217559 -0.137386,-0.0569134 -0.0351575,-0.0351654 -0.0569134,-0.0837441 -0.0569134,-0.137386 0,-0.0536535 0.021748,-0.102228 0.0569134,-0.137386 0.0351575,-0.0351654 0.0837323,-0.0569134 0.137386,-0.0569134zm0.0619685 0.132331c-0.0158543,-0.0158504 -0.0377717,-0.0256614 -0.0619685,-0.0256614 -0.0242047,0 -0.0461181,0.00980709 -0.0619685,0.0256614 -0.0158543,0.0158504 -0.0256614,0.0377638 -0.0256614,0.0619685 0,0.0241969 0.00981102,0.0461142 0.0256614,0.0619685 0.0158504,0.0158504 0.0377717,0.0256614 0.0619685,0.0256614 0.0241969,0 0.0461142,-0.00981102 0.0619685,-0.0256614 0.0158504,-0.0158543 0.0256614,-0.0377717 0.0256614,-0.0619685 0,-0.0241969 -0.00981102,-0.0461181 -0.0256614,-0.0619685z"/>
  <rect class="fil1" width="6.82666" height="6.82666"/>
 </g>
</svg>
