<?xml version="1.0" encoding="UTF-8"?>
<!DOCTYPE svg PUBLIC "-//W3C//DTD SVG 1.1//EN" "http://www.w3.org/Graphics/SVG/1.1/DTD/svg11.dtd">
<!-- Creator: CorelDRAW -->
<svg xmlns="http://www.w3.org/2000/svg" xml:space="preserve" width="6.82666in" height="6.82666in" style="shape-rendering:geometricPrecision; text-rendering:geometricPrecision; image-rendering:optimizeQuality; fill-rule:evenodd; clip-rule:evenodd"
viewBox="0 0 6.82666 6.82666"
 xmlns:xlink="http://www.w3.org/1999/xlink">
 <defs>
  <style type="text/css">
   <![CDATA[
    .fil1 {fill:none}
    .fil0 {fill:#212121;fill-rule:nonzero}
   ]]>
  </style>
 </defs>
 <g id="Layer_x0020_1">
  <metadata id="CorelCorpID_0Corel-Layer"/>
  <path class="fil0" d="M4.0122 2.93297c0.0451024,0.0377402 0.11226,0.0317717 0.15,-0.0133307 0.0377402,-0.0451024 0.0317717,-0.11226 -0.0133307,-0.15 -0.480118,-0.401709 -1.10009,-0.665091 -1.70337,-0.686988 -0.53876,-0.0195591 -1.06389,0.151988 -1.46702,0.586374l0.0779173 0.0725 -0.078185 -0.0725591c-0.0400709,0.0431772 -0.0375512,0.110673 0.00562598,0.150744 0.0267638,0.0248386 0.0628701,0.0333031 0.0959961,0.025874 0.0203858,-0.00340551 0.0393465,-0.00585827 0.0569567,-0.00743701 0.023,-0.00206299 0.0470709,-0.00332283 0.071937,-0.0038622l-0.00183858 -0.093811 2.75591e-005 -2.3622e-005 0.00204724 0.0942244c0.00624016,-0.000133858 0.0123346,-0.000807087 0.0182598,-0.00196457 0.0207717,-0.00292126 0.0420433,-0.0051811 0.0635866,-0.00668898 0.0221417,-0.00155118 0.0466929,-0.00236614 0.0735394,-0.00236614 0.063878,0 0.122626,0.00533858 0.172713,0.0147283 0.0486496,0.00912205 0.0886063,0.0215984 0.116201,0.0361693l-0.000114173 0.000216535c0.0104331,0.00552756 0.0213701,0.00914961 0.0324094,0.0109882 0.0240157,0.00480315 0.023874,0.00466142 0.0288425,0.00570472 0.0198465,0.00418504 0.0299567,0.00632677 0.0313465,0.00662992l-9.05512e-005 0.000405512c0.0138819,0.00307087 0.0277283,0.00327953 0.0409331,0.00102756 0.456087,-0.0523937 0.836843,0.00793307 1.13489,0.194618 0.298484,0.186965 0.519697,0.504421 0.656823,0.966445 0.0165669,0.056378 0.0757047,0.0886496 0.132083,0.0720827 0.056378,-0.0165669 0.0886496,-0.0757047 0.0720827,-0.132083 -0.152587,-0.514118 -0.404783,-0.871157 -0.748484,-1.08644 -0.339055,-0.212374 -0.761622,-0.283161 -1.26044,-0.227543 -0.00906299,-0.002 -0.0144331,-0.0031811 -0.0158031,-0.0034685 -0.00912992,-0.00192126 -0.0153701,-0.00325197 -0.0198386,-0.0042126 -0.0438307,-0.0209173 -0.0990866,-0.0379646 -0.161665,-0.0497008 -0.0642795,-0.0120551 -0.136531,-0.0189016 -0.211878,-0.0189016l-0.00289764 3.93701e-006c0.317457,-0.234854 0.692803,-0.329094 1.07655,-0.315165 0.55515,0.0201535 1.12826,0.264693 1.57421,0.637815zm0.772425 1.19819c0.0119646,0.0575276 0.0683031,0.0944646 0.125831,0.0825 0.0575276,-0.0119646 0.0944646,-0.0683031 0.0825,-0.125831 -0.0151969,-0.0729843 -0.0350236,-0.145394 -0.0591024,-0.216996 -0.0250433,-0.0744843 -0.053752,-0.146122 -0.0857638,-0.214807 -0.0248504,-0.0533858 -0.0882795,-0.0765157 -0.141665,-0.0516654 -0.0533858,0.0248504 -0.0765157,0.0882795 -0.0516654,0.141665 0.0301811,0.0647559 0.056126,0.128969 0.0774252,0.192311 0.0212638,0.0632283 0.0388543,0.127563 0.0524409,0.192823z"/>
  <path class="fil0" d="M1.36434 2.61031c0.122669,0 0.236173,0.0180591 0.3205,0.047252 0.117709,0.040748 0.19052,0.110433 0.19052,0.199394 0,0.0889606 -0.072811,0.158646 -0.19052,0.199394 -0.0843268,0.0291929 -0.197831,0.047252 -0.3205,0.047252 -0.122665,0 -0.236169,-0.0180551 -0.320492,-0.047248 -0.117709,-0.040748 -0.190516,-0.110441 -0.190516,-0.199398 0,-0.0889606 0.0728071,-0.15865 0.190516,-0.199398 0.0843228,-0.0291929 0.197827,-0.047248 0.320492,-0.047248zm0.247087 0.246646c-0.0617795,-0.0206181 -0.14872,-0.0333071 -0.247087,-0.0333071 -0.0983701,0 -0.185315,0.012689 -0.247091,0.0333071 0.0617756,0.0206181 0.14872,0.0333071 0.247091,0.0333071 0.0983661,0 0.185307,-0.012689 0.247087,-0.0333071zm0.0505945 0c0,-0.0057874 -0.00436614,-0.00302756 -0.0122677,0 0.00790157,0.0030315 0.0122677,0.00578346 0.0122677,0zm-0.59535 0c0,0.00578346 0.00436614,0.00302756 0.0122638,0 -0.00789764,-0.00302756 -0.0122638,-0.00578346 -0.0122638,0z"/>
  <path class="fil0" d="M4.61018 2.47175l0.197685 0.0990079 0.216803 0.0715197 -0.0333346 0.101252 0.0334173 -0.101299c0.0347126,0.0114488 0.0595787,0.0390157 0.0690512,0.0716535l0.0703031 0.21311 0.103465 0.206594 0.000405512 -0.000200787c0.0172441,0.0344331 0.0141024,0.0737441 -0.00485433,0.104209l-0.0990157 0.197709 -0.0715197 0.216799 -0.101252 -0.0333346 0.101299 0.0334173c-0.0114488,0.0347126 -0.0390157,0.0595787 -0.0716535,0.0690512l-0.213114 0.0703071 -0.206594 0.103465 0.000200787 0.000405512c-0.0344331,0.0172441 -0.0737402,0.0141024 -0.104205,-0.00485433l-0.197717 -0.0990157 -0.216795 -0.0715236 0.0333346 -0.101252 -0.0334173 0.101295c-0.0346535,-0.0114291 -0.0595,-0.0389331 -0.0690039,-0.0715l-0.0703543 -0.21326 -0.103465 -0.206591 -0.000405512 0.000200787c-0.0172441,-0.0344331 -0.0141024,-0.0737402 0.00485433,-0.104205l0.0990157 -0.197717 0.0715197 -0.216795 0.101252 0.0333346 -0.101299 -0.0334173c0.0114488,-0.0347126 0.0390157,-0.0595787 0.0716535,-0.0690512l0.21311 -0.0703071 0.206594 -0.103469 -0.000204724 -0.000405512c0.0344449,-0.017248 0.0737717,-0.0141063 0.10424,0.00486614zm0.111858 0.293602l-0.168331 -0.0843031 -0.159402 0.0798307c-0.00708268,0.00441339 -0.0147992,0.00806693 -0.0230748,0.0107992l-0.0334173 -0.101295 0.0333346 0.101252 -0.170657 0.0563031 -0.0550276 0.166803c-0.0017874,0.00618898 -0.00416142,0.012311 -0.00714961,0.0182795l-0.000405512 -0.000200787 -0.0843031 0.168331 0.0798307 0.159398c0.00441339,0.00708268 0.00806693,0.0147992 0.0107992,0.0230748l-0.101295 0.0334173 0.101252 -0.0333346 0.0563031 0.170657 0.166803 0.0550315c0.00618898,0.0017874 0.012311,0.00416142 0.0182795,0.00714961l-0.000200787 0.000405512 0.168331 0.0843031 0.15937 -0.079815c0.00709055,-0.00442126 0.014815,-0.00808268 0.0231063,-0.0108189l0.0334173 0.101299 -0.0333346 -0.101252 0.170661 -0.0563031 0.0550276 -0.166807c0.0017874,-0.00619291 0.00416142,-0.012311 0.00714961,-0.0182795l0.000405512 0.000200787 0.0843031 -0.168327 -0.079815 -0.159374c-0.00442126,-0.00709055 -0.00808268,-0.014815 -0.0108189,-0.0231063l0.101299 -0.0334173 -0.101252 0.0333346 -0.0562992 -0.170654 -0.166787 -0.0550197c-0.00620079,-0.0017874 -0.0123268,-0.00416142 -0.0183071,-0.00715748l0.000204724 -0.000405512z"/>
  <path class="fil0" d="M4.5537 2.91976c0.0721654,0 0.13752,0.0292677 0.184823,0.0765709 0.0473031,0.0473031 0.0765709,0.112661 0.0765709,0.184827 0,0.0721654 -0.0292677,0.13752 -0.0765709,0.184823 -0.0473031,0.0473031 -0.112657,0.0765709 -0.184823,0.0765709 -0.0721654,0 -0.13752,-0.0292677 -0.184823,-0.0765709 -0.0473031,-0.0473031 -0.0765709,-0.112657 -0.0765709,-0.184823 0,-0.0721654 0.0292677,-0.137516 0.0765709,-0.184827 0.0473031,-0.0473031 0.112657,-0.0765709 0.184823,-0.0765709zm0.0339882 0.227406c-0.00868504,-0.00868504 -0.0207087,-0.0140669 -0.0339882,-0.0140669 -0.0132795,0 -0.0253031,0.00538189 -0.0339882,0.0140669 -0.00868898,0.00868898 -0.0140669,0.0207126 -0.0140669,0.0339921 0,0.0132795 0.00538189,0.0253031 0.0140669,0.0339882 0.00868504,0.00868504 0.0207087,0.0140669 0.0339882,0.0140669 0.0132795,0 0.0253031,-0.00538189 0.0339882,-0.0140669 0.00868504,-0.00868504 0.0140669,-0.0207087 0.0140669,-0.0339882 0,-0.0132795 -0.00538189,-0.0253071 -0.0140669,-0.0339921z"/>
  <path class="fil0" d="M1.18439 4.30396c-0.0508543,0.029685 -0.0680157,0.0949803 -0.0383307,0.145835 0.029685,0.0508543 0.0949803,0.0680157 0.145835,0.0383307 0.177728,-0.103736 0.477374,-0.19248 0.855969,-0.255409 0.373457,-0.0620709 0.821862,-0.0981811 1.30533,-0.0981811 0.658012,0 1.25213,0.0671496 1.68074,0.175713 0.386803,0.0979685 0.626051,0.215358 0.626051,0.328921 0,0.0589094 0.0477598,0.106669 0.106669,0.106669 0.0589094,0 0.106669,-0.0477598 0.106669,-0.106669 0,-0.224043 -0.301028,-0.412323 -0.78772,-0.535591 -0.444882,-0.112685 -1.05751,-0.182382 -1.73241,-0.182382 -0.492992,0 -0.953339,0.0373386 -1.3395,0.10152 -0.404906,0.0673031 -0.730146,0.164996 -0.929307,0.281244z"/>
  <rect class="fil1" width="6.82666" height="6.82666"/>
 </g>
</svg>
