<?xml version="1.0" encoding="UTF-8"?>
<!DOCTYPE svg PUBLIC "-//W3C//DTD SVG 1.1//EN" "http://www.w3.org/Graphics/SVG/1.1/DTD/svg11.dtd">
<!-- Creator: CorelDRAW -->
<svg xmlns="http://www.w3.org/2000/svg" xml:space="preserve" width="6.82666in" height="6.82666in" style="shape-rendering:geometricPrecision; text-rendering:geometricPrecision; image-rendering:optimizeQuality; fill-rule:evenodd; clip-rule:evenodd"
viewBox="0 0 6.82666 6.82666"
 xmlns:xlink="http://www.w3.org/1999/xlink">
 <defs>
  <style type="text/css">
   <![CDATA[
    .fil1 {fill:none}
    .fil0 {fill:#212121;fill-rule:nonzero}
   ]]>
  </style>
 </defs>
 <g id="Layer_x0020_1">
  <metadata id="CorelCorpID_0Corel-Layer"/>
  <path class="fil0" d="M4.23393 3.05309c-0.0692244,-0.216677 -0.198657,-0.371213 -0.339142,-0.538933 -0.15839,-0.189106 -0.329709,-0.393673 -0.458996,-0.719957 -0.00410236,0.0185551 -0.00762598,0.0374646 -0.0106142,0.0566929 -0.0178819,0.115114 -0.0167874,0.24348 -0.00679921,0.377457 0.00674016,0.0904213 0.0415394,0.206472 0.0788543,0.330941 0.11798,0.393496 0.258012,0.860543 -0.208756,1.17311l-0.0591654 -0.0883346 0.0593504 0.0886299c-0.0489488,0.0327756 -0.115205,0.0196693 -0.14798,-0.0292795 -0.0166063,-0.0247992 -0.0214291,-0.0540433 -0.0157835,-0.081126 0.0139606,-0.116874 -0.0057126,-0.241287 -0.0454252,-0.353075 -0.0196339,-0.0552677 -0.0438307,-0.106768 -0.0709409,-0.152067 -0.116807,0.434598 -0.0544921,0.726591 0.0931142,0.895835 0.111827,0.128217 0.275146,0.187335 0.444807,0.184665 0.174783,-0.00275197 0.355602,-0.0705394 0.496012,-0.195661 0.212646,-0.189496 0.330417,-0.513965 0.191465,-0.948902zm-0.175811 -0.675602c0.153957,0.183807 0.295803,0.353157 0.378315,0.611437 0.169146,0.529445 0.0171732,0.932094 -0.252299,1.17223 -0.17865,0.159201 -0.409945,0.245465 -0.63435,0.249 -0.229512,0.00361024 -0.452508,-0.0787323 -0.608138,-0.257169 -0.212622,-0.243795 -0.294921,-0.663425 -0.0800354,-1.27993 0.00377165,-0.0146102 0.0107087,-0.0286496 0.0209331,-0.0410669 0.0374409,-0.0454764 0.104669,-0.0519882 0.150146,-0.0145472l-0.000251969 0.00030315c0.100346,0.0826378 0.191382,0.22163 0.24787,0.380638 0.0216614,0.0609646 0.0384882,0.125394 0.0490669,0.191244 0.127602,-0.222709 0.0400709,-0.514764 -0.0363071,-0.769504 -0.040748,-0.135913 -0.078748,-0.262638 -0.0871929,-0.375941 -0.0109528,-0.146917 -0.0117047,-0.290563 0.00930315,-0.425795 0.0215394,-0.138638 0.0658661,-0.266394 0.144839,-0.376917 0.0138346,-0.0221614 0.0357913,-0.0393268 0.0630276,-0.0465787 0.0569252,-0.0151535 0.115366,0.0187126 0.13052,0.0756378l-0.103079 0.0274409 0.102917 -0.0270827c0.11865,0.445669 0.321059,0.687327 0.504717,0.906598z"/>
  <path class="fil0" d="M3.04592 0.804898c0.225894,0.396815 0.175681,0.532614 -0.106323,1.29442l-0.0242087 0.0654173c-0.067189,0.181681 0.0149331,0.352429 0.0171378,0.356961l0.000228346 -0.000110236c0.0256654,0.0530236 0.00349213,0.116819 -0.0495315,0.142484 -0.0406417,0.0196732 -0.0876063,0.0112402 -0.118886,-0.0176496 -0.523071,-0.398705 -0.335937,-0.781815 -0.129335,-1.20451 0.0936102,-0.191512 0.191819,-0.392445 0.210039,-0.597752l0.105835 0.00916535 -0.106248 -0.00942913c0.00520472,-0.0586772 0.057,-0.102024 0.115677,-0.0968189 0.0379449,0.00336614 0.0694724,0.0262205 0.0856142,0.0578189zm-0.306323 1.22109c0.156634,-0.42313 0.233496,-0.630862 0.227244,-0.801697 -0.0414173,0.107197 -0.0917913,0.210268 -0.141004,0.310953 -0.118807,0.243075 -0.229598,0.46989 -0.14289,0.686827 0.00577165,-0.0424252 0.0160472,-0.0863307 0.0324409,-0.130665l0.0242087 -0.0654173z"/>
  <path class="fil0" d="M4.02095 4.69703c-0.381819,0.160535 -1.48131,0.412484 -1.48605,0.413571l5.11811e-005 0.000224409c-0.0121299,0.00277953 -0.024248,0.00336614 -0.0359449,0.00202756l-0.76902 -0.0667362 -0.651764 0.170189c0.0561693,0.186535 0.167012,0.554535 0.167291,0.554492 0.147776,-0.0239173 0.526693,-0.101894 0.946169,-0.202138 0.293106,-0.0700472 0.605854,-0.150933 0.873209,-0.231799l-0.000688976 -0.000862205c-0.000129921,0 -0.000165354,-3.14961e-005 -7.87402e-005,-0.000102362 0.0499843,-0.0397165 0.176098,-0.139925 0.371476,-0.191732 0.689669,-0.182886 1.09566,-0.356421 1.60657,-0.590787l-0.981173 0.145193 1.9685e-005 0.000129921c-0.0137638,0.00203543 -0.0273031,0.00134252 -0.0400709,-0.00166929zm-1.51648 0.202201c0.161969,-0.0366732 1.41969,-0.321453 1.43635,-0.327173 0.00865354,-0.0428189 0.0432598,-0.0776339 0.0889646,-0.0843976l0.0156142 0.10552 -0.0154173 -0.105417 1.71686 -0.254063c0.047815,-0.00970079 0.0976654,0.0145551 0.118457,0.0609409 0.0240945,0.0537559 5.51181e-005,0.116874 -0.0537008,0.140969l-0.0436339 -0.0973346 0.0433346 0.0970827c-0.173035,0.0775709 -0.34315,0.156079 -0.501016,0.228929 -0.610909,0.281925 -1.03383,0.477098 -1.82052,0.685713 -0.151783,0.0402441 -0.253012,0.120685 -0.293138,0.152567 -0.0204449,0.0162441 -0.0333189,0.0264724 -0.0560079,0.0333622 -0.27435,0.0834843 -0.597409,0.167142 -0.899772,0.239402 -0.426051,0.101815 -0.811433,0.181098 -0.962004,0.205469 -0.18011,0.0291496 -0.421303,-0.757984 -0.435909,-0.806201 -0.000669291,-0.00205118 -0.00129134,-0.00413386 -0.00184252,-0.00625197 -0.0148819,-0.057 0.0192598,-0.115276 0.0762598,-0.130157l0.0269488 0.103209 -0.0266654 -0.102917 0.768713 -0.200728c0.0139094,-0.00491732 0.029063,-0.00701575 0.0447165,-0.00565748l0 1.9685e-005 0.773406 0.0671181zm0.560421 0.43763l0.0140591 -0.00426378c0.0162795,-0.00494094 -0.0126142,0.00341732 -0.014748,0.00340157l0.000688976 0.000862205z"/>
  <path class="fil0" d="M3.10106 4.45359c0.00164961,0.0232874 0.035311,-0.0320197 0.0819567,-0.00477165 0.100913,0.0589488 0.244744,0.135555 0.398602,0.214846l0.00011811 -0.000228346c0.0523622,0.0269843 0.0729331,0.0913189 0.0459488,0.143681 -0.0158583,0.0307717 -0.0446181,0.0505591 -0.0762638,0.0561693 -0.10922,0.0285157 -0.219713,0.0564094 -0.324886,0.0823976 -0.160228,0.0395906 -0.295425,0.072126 -0.39974,0.0968543l1.1811e-005 4.33071e-005c-0.0156654,0.0037126 -0.0313425,0.00375591 -0.0461339,0.00069685 -0.0373031,-0.00577165 -0.0712717,-0.0130551 -0.0984803,-0.0225197 -0.0683031,-0.023748 -0.107787,-0.0654213 -0.104213,-0.132189 0.000507874,-0.0095 -1.26102,-0.985224 -1.26465,-0.988028l0.065 -0.0841654 -0.0652677 0.0843701c-0.0465945,-0.0360433 -0.0551457,-0.103043 -0.0191024,-0.149638 0.0314882,-0.0407047 0.0866024,-0.052374 0.131098,-0.0306378l1.60808 0.624295 -0.0383346 0.0991654 0.0386024 -0.099437c0.0453937,0.017622 0.0718701,0.0629055 0.0676496,0.109094zm-0.0255472 0.179394c-0.055685,-0.0325276 -0.101102,-0.0645079 -0.133236,-0.0953976l-0.944575 -0.366709c0.298925,0.241764 0.630189,0.519799 0.748094,0.656035 -9.84252e-005,-0.00565748 0.00175197,-0.00860236 0.00639764,-0.00698819 0.0102283,0.00355906 0.026122,0.007 0.0456614,0.010315 0.122205,-0.0290079 0.258008,-0.0616142 0.377846,-0.0912244 0.0208583,-0.00515354 0.0416693,-0.010315 0.0623819,-0.0154685 -0.0620669,-0.0334606 -0.117398,-0.0641732 -0.162571,-0.090563zm1.09312 0.325291c0.137717,0.0677323 0.239319,0.116906 0.260835,0.127307l0.360831 0.142126 0.37276 -0.0418031 -1.9685e-005 -0.000192913c0.0232717,-0.00261024 0.0456299,0.00248425 0.0645433,0.0132402l0.703945 0.366575 -0.0491654 0.0945827 0.0492677 -0.0946063c0.052248,0.0272087 0.0725472,0.091626 0.0453386,0.143874 -0.00864961,0.0166102 -0.0210669,0.0299882 -0.0356535,0.0396417 -0.0340394,0.0244016 -0.340189,0.244177 -0.400839,0.298669 -0.115012,0.103323 -1.99211,-0.478472 -1.99751,-0.480138l0.031252 -0.101665 -0.0314724 0.101917c-0.0562835,-0.017378 -0.0878228,-0.0771063 -0.0704449,-0.13339 0.00425197,-0.0137717 0.0110472,-0.0260551 0.0196969,-0.0365079 -0.0297638,-0.0166772 -0.0625748,-0.0344449 -0.0960787,-0.0525354l0.0504173 -0.093752 -0.0506772 0.0938583c-0.0518346,-0.0279882 -0.0711693,-0.0927008 -0.0431811,-0.144535 0.0156654,-0.0290157 0.0428425,-0.0478425 0.0728228,-0.0538937l0.000830709 -0.000228346c0.00735827,-0.00203937 0.00835039,-0.00235433 0.00947638,-0.00264961 0.118484,-0.0314173 0.232256,-0.0637441 0.343059,-0.0972402 0.107217,-0.0324094 0.206992,-0.0646929 0.301571,-0.0972717l-2.3622e-005 -6.29921e-005c0.0305197,-0.0105118 0.0625433,-0.00637008 0.0884173,0.0086811zm0.218831 0.225193l-0.046252 0.0958346c-0.000291339,-0.000141732 -0.0932953,-0.0450197 -0.233362,-0.113787 -0.0854173,0.0289016 -0.174134,0.0573543 -0.267512,0.0855787 -0.0395433,0.0119528 -0.080622,0.0240512 -0.123374,0.0363228 0.0188543,0.0136024 0.0349961,0.0268346 0.0476299,0.039622 0.0411378,0.0416339 0.069685,0.0791142 0.082626,0.111535 0.484945,0.148689 1.53239,0.46728 1.55075,0.450783 0.0430827,-0.0387047 0.17652,-0.137543 0.282004,-0.214453l-0.525657 -0.273736 -0.359988 0.0403701c-0.0187165,0.00329921 -0.0385433,0.00164567 -0.0575197,-0.00582677l7.48031e-005 -0.000188976 -0.382299 -0.150575c-0.0045315,-0.00147244 -0.00901575,-0.00326378 -0.0134291,-0.00538976l0.0463071 -0.0960906z"/>
  <rect class="fil1" width="6.82666" height="6.82666"/>
 </g>
</svg>
