<?xml version="1.0" encoding="UTF-8"?>
<!DOCTYPE svg PUBLIC "-//W3C//DTD SVG 1.1//EN" "http://www.w3.org/Graphics/SVG/1.1/DTD/svg11.dtd">
<!-- Creator: CorelDRAW -->
<svg xmlns="http://www.w3.org/2000/svg" xml:space="preserve" width="6.82666in" height="6.82666in" style="shape-rendering:geometricPrecision; text-rendering:geometricPrecision; image-rendering:optimizeQuality; fill-rule:evenodd; clip-rule:evenodd"
viewBox="0 0 6.82666 6.82666"
 xmlns:xlink="http://www.w3.org/1999/xlink">
 <defs>
  <style type="text/css">
   <![CDATA[
    .fil1 {fill:none}
    .fil0 {fill:#212121;fill-rule:nonzero}
   ]]>
  </style>
 </defs>
 <g id="Layer_x0020_1">
  <metadata id="CorelCorpID_0Corel-Layer"/>
  <path class="fil0" d="M4.30977 1.28322c-0.502921,-0.300425 -0.851004,-0.282992 -1.34691,-0.258154 -0.177197,0.00887402 -1.06437,0.0223031 -1.29822,0.0193583 -0.0357165,-0.00046063 -0.0684724,0.0131457 -0.0926181,0.0355827 -0.023752,0.0220787 -0.0390236,0.0525591 -0.0404685,0.0864567l0.00019685 0 -2.75591e-005 0.00182677 0 4.33071e-005 -7.08661e-005 0.00169291 -1.5748e-005 0.000358268c-4.72441e-005,0.00088189 -0.000114173,0.00176378 -0.000188976,0.0026378 0.000322835,0.0332205 0.0139213,0.0635394 0.0359961,0.0860591 0.0232559,0.0237244 0.747386,0.0352402 0.783677,0.0361772l0.098937 0.00255512c0.0251654,0.000649606 0.0486024,0.00933858 0.0673268,0.0237677 0.0186811,0.0143937 0.0326614,0.0345906 0.0389449,0.0582717 0.00268504,0.010122 0.00381496,0.0202362 0.00353937,0.0301102 -0.000665354,0.0242913 -0.00969291,0.0469882 -0.0245906,0.065063 -0.0148622,0.0180394 -0.0357559,0.0316024 -0.0601811,0.0376732 -0.00996457,0.00248031 -0.0204094,0.0036811 -0.0311339,0.00340157l-0.999547 -0.00431496c-0.0370709,-0.000956693 -0.0710394,0.0127087 -0.0959724,0.0355748 -0.0250906,0.0230039 -0.0411063,0.0551969 -0.0420984,0.0910984 -0.000988189,0.0358622 0.0131378,0.0687244 0.0367795,0.0928425 0.0237835,0.0242638 0.057063,0.0397598 0.0941811,0.0407165l1.00159 0.00441339c0.0515236,0.00133071 0.084311,0.0307992 0.0984134,0.0677402 0.00485039,0.0127244 0.00709843,0.0264331 0.00673228,0.0400157 -0.000366142,0.0137402 -0.00329134,0.0272598 -0.00873228,0.0394764 -0.0161378,0.0361732 -0.0504961,0.0638465 -0.102272,0.0625079l-1.12969 -0.00771654c-0.0358543,-0.000929134 -0.0687047,0.0122913 -0.0928189,0.0344055 -0.0242638,0.022252 -0.0397559,0.0533858 -0.0407165,0.0881102 -0.000956693,0.0346772 0.0127087,0.0664567 0.0355669,0.0897795 0.0230079,0.0234724 0.0551969,0.0384567 0.0910945,0.0393858l1.12866 0.00764961c0.0322717,0.000834646 0.061685,0.0134961 0.0836693,0.0337953 0.0218819,0.0202087 0.0362835,0.0480197 0.0386496,0.0792441 0.000354331,0.0046811 0.000472441,0.00876378 0.000377953,0.0122756 -0.000866142,0.0311693 -0.0139764,0.0596299 -0.0349488,0.0808661 -0.020878,0.0211614 -0.0496339,0.0351024 -0.0818543,0.037378 -0.00472441,0.000338583 -0.00897244,0.000464567 -0.0126929,0.000366142l-1.26561 -0.0326732c-0.00380709,0.000185039 -0.00757874,0.000122047 -0.0112913,-0.000192913 -0.0326772,0.000397638 -0.0624724,0.0129409 -0.0846339,0.0332638 -0.0223268,0.0204724 -0.0369646,0.0487283 -0.0391142,0.0803465 0.000114173,0.00325197 2.3622e-005,0.00647244 -0.00026378,0.00964961 0.000409449,0.0315945 0.0133858,0.0604213 0.0343937,0.0818583 0.0222205,0.0226654 0.0532992,0.0371378 0.0879606,0.0380433l3.93701e-006 -0.000228346c0.00212598,5.51181e-005 0.00423228,0.000188976 0.00631496,0.000393701l1.96304 0.0506811c0.0781732,0.00198425 0.0857795,0.0649528 0.0902638,0.101949l0.000267717 0.00228346c0.0121693,0.0682835 -0.0492126,0.0928228 -0.142366,0.130063 -0.102984,0.0411732 -0.500079,0.195508 -0.494606,0.369055 0.00101969,0.0322047 0.0142992,0.0640197 0.0396181,0.0882913 0.0242717,0.0232598 0.0559685,0.0357795 0.0883858,0.037248 0.0320669,0.00144882 0.0646457,-0.00817323 0.0910866,-0.0291732l3.93701e-006 -0.000177165c0.00572441,-0.00454724 0.0118937,-0.0082126 0.0183346,-0.0110315 0.274362,-0.142827 0.470689,-0.205819 0.635878,-0.258807 0.284819,-0.0913622 0.470846,-0.151043 0.824508,-0.584882 0.0028937,-0.0158346 0.0774409,-0.0554449 0.0948071,-0.0619134 0.0583858,-0.0217323 0.265303,-0.0153622 0.32189,-0.0121024l-0.00135827 -1.18772c-0.0344724,-0.00174409 -0.205602,-0.00266535 -0.239799,-0.00533071 -0.000153543,0.0028937 -0.0591378,-0.00905118 -0.0653189,-0.0108701 -0.0215866,-0.00635827 -0.0420866,-0.015252 -0.0609567,-0.0265157zm-1.35525 -0.41687c0.525606,-0.0263228 0.894539,-0.0448031 1.44104,0.281654 0.0838307,0.0500512 0.338992,-0.019752 0.413669,0.0572913 0.0203937,0.0210276 0.0325433,0.0494252 0.031689,0.0802638l4.72441e-005 1.2352c-0.000314961,0.0852283 -0.0365,0.134433 -0.118689,0.144205 -0.0660039,0.00785039 -0.278571,-0.00928346 -0.272488,0.00255118 -0.0233937,-0.000444882 -0.0458031,0.00733071 -0.0634921,0.0221457 -0.382303,0.46789 -0.586445,0.533413 -0.898472,0.633508 -0.15902,0.0510118 -0.347961,0.111634 -0.608382,0.247051 -0.0579134,0.0434213 -0.127862,0.0632913 -0.196642,0.0601772 -0.0711063,-0.0032126 -0.141209,-0.0312323 -0.195618,-0.083378 -0.0563465,-0.0540157 -0.0859016,-0.124579 -0.0881496,-0.19589 -0.0021811,-0.0691654 0.0211142,-0.138992 0.0703386,-0.19515 0.0720039,-0.110909 0.232378,-0.198622 0.372559,-0.261441l-1.70001 -0.0438858c-0.00464961,0.00023622 -0.00935039,9.05512e-005 -0.0140591,-0.000456693 -0.0769252,-0.00388189 -0.145516,-0.0365709 -0.194815,-0.0868661 -0.0494055,-0.0504094 -0.0795748,-0.118461 -0.0795197,-0.192957 -0.000338583,-0.0048622 -0.000216535,-0.00979528 0.000401575,-0.0147402 0.00401969,-0.0743937 0.0378071,-0.140744 0.0898071,-0.188417 0.0222126,-0.0203661 0.0755591,-0.0508386 0.127626,-0.0617441 0.044689,-0.00935827 0.0443583,0.024126 0.0192717,-0.0014685 -0.0518228,-0.052878 -0.086811,-0.128764 -0.0846417,-0.207335 0.00216535,-0.0785276 0.0369724,-0.148713 0.0914803,-0.198701 0.0331654,-0.0304094 0.0736063,-0.0533937 0.118425,-0.0663031 -0.0474882,-0.0527087 -0.0754646,-0.122126 -0.0733819,-0.197508 0.00220079,-0.0797087 0.0375236,-0.150949 0.0928622,-0.201689 0.052315,-0.0479685 0.122472,-0.077748 0.199429,-0.0792047 -0.13565,-0.159516 -0.0167913,-0.350465 0.0233346,-0.38776 0.0540157,-0.0501929 0.127858,-0.0806181 0.208921,-0.0795669 0.221606,0.0027874 1.10956,-0.0106811 1.28746,-0.0195906z"/>
  <path class="fil0" d="M2.51689 5.54344c0.502921,0.300425 0.851004,0.282992 1.34691,0.258157 0.177197,-0.00887402 1.06437,-0.0223031 1.29822,-0.0193622 0.0357165,0.000464567 0.0684724,-0.0131457 0.0926181,-0.0355827 0.023752,-0.0220787 0.0390236,-0.0525591 0.0404685,-0.0864567l-0.00019685 0 2.75591e-005 -0.00182677 0 -3.93701e-005 7.08661e-005 -0.00169291 1.5748e-005 -0.000362205c4.72441e-005,-0.00088189 0.000114173,-0.00176378 0.000188976,-0.0026378 -0.000322835,-0.0332205 -0.0139213,-0.0635394 -0.0359961,-0.0860591 -0.0232559,-0.0237244 -0.747386,-0.0352402 -0.783677,-0.0361772l-0.098937 -0.00255512c-0.0251654,-0.000649606 -0.0486024,-0.00933858 -0.0673268,-0.0237677 -0.0186811,-0.0143937 -0.0326614,-0.0345866 -0.0389449,-0.0582717 -0.00268504,-0.010122 -0.00381496,-0.0202362 -0.00353937,-0.0301102 0.000665354,-0.0242913 0.00969291,-0.0469882 0.0245906,-0.065063 0.0148622,-0.0180354 0.0357559,-0.0316024 0.0601811,-0.0376732 0.00996457,-0.00248031 0.0204094,-0.0036811 0.0311339,-0.00340157l0.999547 0.00431496c0.0370709,0.000956693 0.0710394,-0.0127087 0.0959724,-0.0355748 0.0250906,-0.0230039 0.0411063,-0.0551929 0.0420984,-0.0910984 0.000988189,-0.0358622 -0.0131378,-0.0687205 -0.0367795,-0.0928425 -0.0237835,-0.0242638 -0.057063,-0.0397598 -0.0941811,-0.0407165l-0.982287 -0.00206299c-0.0515236,-0.00132677 -0.084311,-0.0307992 -0.0984134,-0.0677362 -0.00485039,-0.0127283 -0.00709843,-0.026437 -0.00673228,-0.0400197 0.000366142,-0.0137362 0.00329134,-0.0272598 0.00873228,-0.0394764 0.0161378,-0.0361732 0.0504961,-0.0638465 0.102272,-0.0625079l1.11038 0.00537008c0.0358543,0.000925197 0.0687047,-0.0122953 0.0928189,-0.0344094 0.0242638,-0.022252 0.0397559,-0.0533858 0.0407165,-0.0881102 0.000956693,-0.0346772 -0.0127087,-0.0664567 -0.0355669,-0.0897795 -0.0230079,-0.0234685 -0.0551969,-0.0384567 -0.0910945,-0.0393858l-1.12866 -0.00764961c-0.0322717,-0.000830709 -0.061685,-0.0134961 -0.0836693,-0.0337953 -0.0218819,-0.0202087 -0.0362835,-0.0480197 -0.0386496,-0.0792441 -0.000354331,-0.00467717 -0.000472441,-0.00876378 -0.000377953,-0.0122756 0.000866142,-0.0311693 0.0139764,-0.059626 0.0349488,-0.0808661 0.020878,-0.0211614 0.0496339,-0.0351024 0.0818543,-0.037378 0.00472441,-0.000338583 0.00897244,-0.000464567 0.0126929,-0.000366142l1.26561 0.0326732c0.00380709,-0.000185039 0.00757874,-0.000122047 0.0112913,0.000192913 0.0326772,-0.000393701 0.0624724,-0.0129409 0.0846339,-0.0332638 0.0223268,-0.0204685 0.0369646,-0.0487283 0.0391142,-0.0803465 -0.000114173,-0.00325197 -2.3622e-005,-0.00647244 0.00026378,-0.00964961 -0.000409449,-0.0315945 -0.0133858,-0.0604213 -0.0343937,-0.0818583 -0.0222205,-0.0226654 -0.0532992,-0.0371378 -0.0879606,-0.0380433l-3.93701e-006 0.000228346c-0.00212598,-5.51181e-005 -0.00423228,-0.000188976 -0.00631496,-0.000393701l-1.96304 -0.0506811c-0.0781732,-0.00198425 -0.0857795,-0.0649528 -0.0902638,-0.101949l-0.000267717 -0.00227953c-0.0121693,-0.0682835 0.0492126,-0.0928268 0.142366,-0.130067 0.133579,-0.0534016 0.381693,-0.152594 0.450917,-0.266043l0.0707087 0.0401142 -0.0707756 -0.0404055c0.00359843,-0.00589764 0.0078622,-0.0111811 0.0126457,-0.015811 0.0217638,-0.0252717 0.0320748,-0.0563071 0.0311102,-0.0869094 -0.00101969,-0.0322047 -0.0142992,-0.0640197 -0.0396181,-0.0882874 -0.0242717,-0.0232638 -0.0559685,-0.0357835 -0.0883858,-0.037252 -0.0320669,-0.00144882 -0.0646457,0.00817717 -0.0910866,0.0291732l-0.0521535 -0.0612638 0.0521496 0.0614409c-0.00572441,0.00454724 -0.0118937,0.0082126 -0.0183346,0.0110315 -0.274362,0.142827 -0.470689,0.205819 -0.635878,0.258807 -0.284819,0.0913661 -0.470846,0.151043 -0.824508,0.584882 -0.0028937,0.0158346 -0.0774409,0.0554488 -0.0948071,0.0619134 -0.0583858,0.0217323 -0.265303,0.0153622 -0.32189,0.0121024l0.00135827 1.18772c0.0344724,0.00174409 0.205602,0.00266535 0.239799,0.00533071 0.000153543,-0.00288976 0.0591378,0.00905512 0.0653189,0.0108701 0.0215866,0.00635827 0.0420866,0.015252 0.0609567,0.0265157zm1.35525 0.41687c-0.525606,0.0263228 -0.894539,0.0448031 -1.44104,-0.281654 -0.00755906,-0.00451181 -0.0153819,-0.00796063 -0.023248,-0.0102795 -0.00637008,-0.00187402 -0.0131929,-0.00310236 -0.0203268,-0.00364567 -0.00182283,2.3622e-005 -0.00365354,-3.93701e-006 -0.0055,-9.84252e-005l1.1811e-005 -0.00015748c-0.0604213,-0.00306299 -0.31535,0.00770866 -0.364606,-0.0431102 -0.0203937,-0.0210276 -0.0325433,-0.0494252 -0.031689,-0.0802638l-4.72441e-005 -1.2352c0.000314961,-0.0852283 0.0365,-0.134433 0.118689,-0.144205 0.0660039,-0.00784646 0.278571,0.00928346 0.272488,-0.00255118 0.0233937,0.000444882 0.0458031,-0.00733071 0.0634921,-0.0221457 0.382303,-0.46789 0.586445,-0.533413 0.898472,-0.633508 0.15902,-0.0510118 0.347961,-0.111634 0.608382,-0.247051 0.0579134,-0.0434213 0.127862,-0.0632874 0.196642,-0.0601772 0.0711063,0.0032126 0.141209,0.0312323 0.195618,0.0833819 0.0563465,0.0540118 0.0859016,0.124575 0.0881496,0.19589 0.0021811,0.0691614 -0.0211142,0.138988 -0.0703386,0.195146 -0.0720039,0.110909 -0.232378,0.198622 -0.372559,0.261441l1.70001 0.0438858c0.00464961,-0.00023622 0.00935039,-9.05512e-005 0.0140591,0.00046063 0.0769252,0.00387795 0.145516,0.0365669 0.194815,0.0868661 0.0494055,0.0504055 0.0795748,0.118457 0.0795197,0.192953 0.000338583,0.00486614 0.000216535,0.00979528 -0.000401575,0.0147402 -0.00401969,0.0743937 -0.0378071,0.140744 -0.0898071,0.188417 -0.0222126,0.0203661 -0.0755591,0.0508386 -0.127626,0.0617441 -0.044689,0.00935827 -0.0443583,-0.024122 -0.0192717,0.00147244 0.0518228,0.052874 0.086811,0.12876 0.0846417,0.207331 -0.00216535,0.0785276 -0.0369724,0.148717 -0.0914803,0.198701 -0.0331654,0.0304134 -0.0736063,0.0533937 -0.118425,0.0663071 0.0474882,0.0527047 0.0754646,0.122122 0.0733819,0.197504 -0.00220079,0.0797087 -0.0375236,0.150949 -0.0928622,0.201689 -0.052315,0.0479685 -0.122472,0.077748 -0.199429,0.0792047 0.0422165,0.0496457 0.0674213,0.113205 0.0672559,0.182134l3.93701e-006 7.48031e-005 6.29921e-005 0.000996063 4.72441e-005 0.00125984 2.3622e-005 0.000704724 1.5748e-005 0.00109055 7.87402e-006 0.00105118 0 6.29921e-005 -2.75591e-005 0.00184252 -0.000240157 -3.93701e-006 3.93701e-006 2.3622e-005 -0.0596024 -0.00156299 -0.022315 -0.00057874 0.0819173 0.00214961c-0.00216142,0.0782874 -0.0365197,0.148354 -0.0904882,0.198516 -0.0540157,0.0501929 -0.127858,0.0806181 -0.208921,0.0795669 -0.221606,-0.0027874 -1.10956,0.0106811 -1.28746,0.0195906zm2.01898 -1.69873l1.9685e-005 0 0 0 -1.9685e-005 0z"/>
  <rect class="fil1" width="6.82666" height="6.82666"/>
 </g>
</svg>
