<?xml version="1.0" encoding="UTF-8"?>
<!DOCTYPE svg PUBLIC "-//W3C//DTD SVG 1.1//EN" "http://www.w3.org/Graphics/SVG/1.1/DTD/svg11.dtd">
<!-- Creator: CorelDRAW -->
<svg xmlns="http://www.w3.org/2000/svg" xml:space="preserve" width="6.82666in" height="6.82666in" style="shape-rendering:geometricPrecision; text-rendering:geometricPrecision; image-rendering:optimizeQuality; fill-rule:evenodd; clip-rule:evenodd"
viewBox="0 0 6.82666 6.82666"
 xmlns:xlink="http://www.w3.org/1999/xlink">
 <defs>
  <style type="text/css">
   <![CDATA[
    .fil1 {fill:none}
    .fil0 {fill:#212121;fill-rule:nonzero}
   ]]>
  </style>
 </defs>
 <g id="Layer_x0020_1">
  <metadata id="CorelCorpID_0Corel-Layer"/>
  <path class="fil0" d="M1.463 0.812433l0.513972 0c0.0569409,0 0.103461,0.044626 0.106508,0.100803 0.00575197,0.0408189 0.0260315,0.0771378 0.0553937,0.103488 0.0302165,0.0271181 0.0703465,0.0436693 0.114398,0.0436693l3.93701e-006 0c0.0440551,0 0.0841811,-0.0165512 0.114398,-0.0436693 0.0306457,-0.0275039 0.0514016,-0.0658661 0.0560669,-0.108874l0.105835 0.011252 -0.106043 -0.0115039c0.00596063,-0.0549685 0.0526969,-0.0956339 0.106839,-0.0951654l1.22527 0c0.0589094,0 0.106669,0.0477598 0.106669,0.106669l0 0.0369646c0.497315,-0.0153858 1.5368,0.0214173 1.60759,1.22946l0.000259843 -1.5748e-005c0.00343307,0.0588071 -0.0414567,0.109272 -0.100264,0.112705 -0.0563937,0.00329134 -0.105106,-0.0378543 -0.112039,-0.0930984 -0.0550984,-0.276909 -0.284465,-0.391205 -0.558075,-0.42663 -0.271713,-0.0351772 -0.58715,0.00408268 -0.837469,0.046189l0 0.084248c0,0.0589094 -0.0477598,0.106669 -0.106669,0.106669l-1.22606 0c-0.0569409,0 -0.103461,-0.044626 -0.106508,-0.100803 -0.00574803,-0.0408189 -0.0260276,-0.0771378 -0.0553937,-0.103488 -0.0302165,-0.0271181 -0.0703425,-0.0436693 -0.114398,-0.0436693l-3.93701e-006 0c-0.0440512,0 -0.0841811,0.0165512 -0.114398,0.0436693 -0.0306496,0.0275039 -0.0514016,0.0658661 -0.0560669,0.108874l-0.105835 -0.011252 0.106043 0.0115039c-0.00596063,0.0549685 -0.0526969,0.0956339 -0.106839,0.0951654l-0.513177 0c-0.0589094,0 -0.106669,-0.0477598 -0.106669,-0.106669l0 -0.989819c0,-0.0589094 0.0477598,-0.106669 0.106669,-0.106669zm0.431217 0.213339l-0.324547 0 0 0.77648 0.324547 0c0.022122,-0.057626 0.0577638,-0.108701 0.102988,-0.149283 0.0682835,-0.0612795 0.15815,-0.0986772 0.256067,-0.0986772l3.93701e-006 0c0.0979173,0 0.187783,0.0373976 0.256067,0.0986772 0.0452205,0.0405827 0.0808622,0.0916575 0.102988,0.149283l1.03664 0 0 -0.0657362c-0.000598425,-0.0511772 0.035811,-0.0967953 0.0878543,-0.106122l7.48031e-005 0.000413386c0.275535,-0.049378 0.65622,-0.106311 0.989547,-0.0631575 0.145232,0.0188031 0.281217,0.0558976 0.396866,0.119138 -0.305248,-0.557835 -1.03855,-0.527504 -1.34963,-0.514575l-0.00514961 0.000212598c-0.00422835,0.000507874 -0.0085315,0.000779528 -0.0128937,0.000779528 -0.0589094,0 -0.106669,-0.0477598 -0.106669,-0.106669l0 -0.0407638 -1.03664 0c-0.022122,0.057626 -0.0577638,0.108701 -0.102988,0.149283 -0.0682835,0.0612795 -0.15815,0.0986772 -0.256067,0.0986772l-3.93701e-006 0c-0.0979173,0 -0.187783,-0.0373976 -0.256067,-0.0986772 -0.0452244,-0.0405827 -0.0808661,-0.0916575 -0.102988,-0.149283z"/>
  <path class="fil0" d="M2.93824 1.82031l0.426665 0c0.0589094,0 0.106669,0.0477598 0.106669,0.106669l0 0.64c0,0.0589094 -0.0477598,0.106669 -0.106669,0.106669l-0.426665 0c-0.0589094,0 -0.106669,-0.0477598 -0.106669,-0.106669l0 -0.64c0,-0.0589094 0.0477598,-0.106669 0.106669,-0.106669zm0.319996 0.213339l-0.213327 0 0 0.426661 0.213327 0 0 -0.426661z"/>
  <path class="fil0" d="M3.49741 5.5799l-0.0797047 -2.90625 -0.546402 0 -0.0655787 2.90542c-0.00222441,0.0987047 0.0771535,0.165201 0.180622,0.197693 0.0524173,0.0164606 0.109937,0.0246457 0.167283,0.0245472 0.0576496,-9.84252e-005 0.114917,-0.00838583 0.166496,-0.0248465 0.102083,-0.0325787 0.179965,-0.098685 0.177283,-0.196559zm0.129953 -3.01583l0.0825512 3.01c0.00577165,0.210453 -0.137453,0.344843 -0.325622,0.404898 -0.0723504,0.0230906 -0.151654,0.0347126 -0.230661,0.0348465 -0.079311,0.000133858 -0.158606,-0.0111063 -0.230614,-0.0337205 -0.189484,-0.0595039 -0.334559,-0.193988 -0.329795,-0.405189l0.0677402 -3.00117c-0.000137795,-0.00223228 -0.000216535,-0.00448031 -0.000216535,-0.00674803 0,-0.0589094 0.0477598,-0.106669 0.106669,-0.106669l0.753697 0 0 3.93701e-006c0.0575787,-2.75591e-005 0.105039,0.0458307 0.106626,0.10374l-0.000374016 1.1811e-005z"/>
  <rect class="fil1" width="6.82666" height="6.82666"/>
 </g>
</svg>
