<?xml version="1.0" encoding="UTF-8"?>
<!DOCTYPE svg PUBLIC "-//W3C//DTD SVG 1.1//EN" "http://www.w3.org/Graphics/SVG/1.1/DTD/svg11.dtd">
<!-- Creator: CorelDRAW -->
<svg xmlns="http://www.w3.org/2000/svg" xml:space="preserve" width="6.82666in" height="6.82666in" style="shape-rendering:geometricPrecision; text-rendering:geometricPrecision; image-rendering:optimizeQuality; fill-rule:evenodd; clip-rule:evenodd"
viewBox="0 0 6.82666 6.82666"
 xmlns:xlink="http://www.w3.org/1999/xlink">
 <defs>
  <style type="text/css">
   <![CDATA[
    .fil1 {fill:none}
    .fil0 {fill:#212121;fill-rule:nonzero}
   ]]>
  </style>
 </defs>
 <g id="Layer_x0020_1">
  <metadata id="CorelCorpID_0Corel-Layer"/>
  <path class="fil0" d="M3.97158 5.63741c-0.0167087,-0.52763 -0.0721378,-1.06604 -0.125287,-1.58235 -0.0539764,-0.524354 -0.10563,-1.02617 -0.112988,-1.4749l-0.215169 0c-0.00741732,0.431354 -0.0577087,0.91322 -0.110634,1.42036 -0.0551693,0.52865 -0.113244,1.08504 -0.127606,1.63606 -0.00194488,0.0747402 0.0741969,0.127362 0.173787,0.155059 0.0542047,0.0150748 0.114303,0.0225551 0.174528,0.022437 0.0596378,-0.000114173 0.119425,-0.00788189 0.173646,-0.0232756 0.0977638,-0.0277598 0.172051,-0.0798228 0.169724,-0.153386zm0.0863819 -1.60402c0.0534055,0.518791 0.109094,1.05977 0.126122,1.59735 0.00603937,0.190819 -0.136409,0.311583 -0.324724,0.365055 -0.0716969,0.0203583 -0.151291,0.030622 -0.23115,0.0307795 -0.0792756,0.000153543 -0.158866,-0.00982283 -0.231197,-0.0299409 -0.189929,-0.0528228 -0.33461,-0.173594 -0.329622,-0.365059 0.0146654,-0.562579 0.0730118,-1.12159 0.128441,-1.65273 0.0564724,-0.541138 0.109906,-1.05307 0.109906,-1.50536 0,-0.0589094 0.0477598,-0.106669 0.106669,-0.106669l0.426665 0c0.0589094,0 0.106669,0.0477598 0.106669,0.106669 0,0.469795 0.0547795,1.0019 0.11222,1.5599z"/>
  <path class="fil0" d="M3.73525 1.08681c-0.000314961,-0.0120827 -0.000602362,-0.0242756 -0.000866142,-0.0365748 -0.000279528,-0.0129724 -0.000527559,-0.0253858 -0.000748031,-0.0372283l-0.215843 0c-0.000228346,0.0118386 -0.000488189,0.0242362 -0.000779528,0.0371693 -0.000275591,0.0123189 -0.00057874,0.0245276 -0.000909449,0.0366339l0.219146 0zm0.211638 -0.0407402c0.000905512,0.0422795 0.00231102,0.0872874 0.00416142,0.13474 0.000492126,0.00415748 0.000751969,0.00838189 0.000751969,0.0126693 0,0.0589094 -0.0477598,0.106669 -0.106669,0.106669l-0.439079 0 0 -7.87402e-006c-0.00147638,0 -0.00295276,-2.3622e-005 -0.00444094,-8.66142e-005 -0.0588583,-0.00244882 -0.104583,-0.0521575 -0.102134,-0.111016l0.000334646 1.5748e-005c0.00209843,-0.0505472 0.00368898,-0.0983346 0.00469685,-0.143043 0.000799213,-0.0356929 0.00122441,-0.0818386 0.00122441,-0.139673 0,-0.0589094 0.0477598,-0.106669 0.106669,-0.106669l0.426665 0c0.0589094,0 0.106669,0.0477598 0.106669,0.106669 0,0.0584252 0.000397638,0.104618 0.00114961,0.139732z"/>
  <path class="fil0" d="M2.44357 2.36681l1.57874 0 0.418398 -0.319398c0.0151693,-0.0772283 0.0254803,-0.151831 0.027122,-0.222898 0.00159449,-0.0692559 -0.00470079,-0.136469 -0.022378,-0.201343l-0.423142 -0.323024 -1.57874 0 0 1.06666zm1.61439 0.213339l-1.72106 0c-0.0589094,0 -0.106669,-0.0477598 -0.106669,-0.106669l0 -1.28c0,-0.0589094 0.0477598,-0.106669 0.106669,-0.106669l1.72106 0 0 3.93701e-006c0.0225984,-1.5748e-005 0.045378,0.00711024 0.0647244,0.021878l-0.0647244 0.0847874 0.0645827 -0.0845827 0.473244 0.361272c0.0192638,0.0126969 0.0345709,0.0317126 0.0424291,0.0552992l-0.101197 0.0337205 0.100835 -0.0333346c0.0330984,0.0993307 0.0448465,0.200165 0.0424803,0.302827 -0.00225984,0.0981299 -0.0169685,0.196083 -0.0378622,0.295106 -0.00400394,0.0263819 -0.0178425,0.0513071 -0.0407283,0.0687756l-0.000149606 -0.00019685 -0.473323 0.361327c-0.0187717,0.0164685 -0.043378,0.0264567 -0.070311,0.0264567z"/>
  <rect class="fil1" width="6.82666" height="6.82666"/>
 </g>
</svg>
