<?xml version="1.0" encoding="UTF-8"?>
<!DOCTYPE svg PUBLIC "-//W3C//DTD SVG 1.1//EN" "http://www.w3.org/Graphics/SVG/1.1/DTD/svg11.dtd">
<!-- Creator: CorelDRAW -->
<svg xmlns="http://www.w3.org/2000/svg" xml:space="preserve" width="6.82666in" height="6.82666in" style="shape-rendering:geometricPrecision; text-rendering:geometricPrecision; image-rendering:optimizeQuality; fill-rule:evenodd; clip-rule:evenodd"
viewBox="0 0 6.82666 6.82666"
 xmlns:xlink="http://www.w3.org/1999/xlink">
 <defs>
  <style type="text/css">
   <![CDATA[
    .fil1 {fill:none}
    .fil0 {fill:#212121;fill-rule:nonzero}
   ]]>
  </style>
 </defs>
 <g id="Layer_x0020_1">
  <metadata id="CorelCorpID_0Corel-Layer"/>
  <path class="fil0" d="M3.68472 1.69092c0.529815,0 1.01353,0.199157 1.3805,0.526803 0.370677,0.330945 0.621717,0.793051 0.680232,1.31338l0.000192913 -1.9685e-005c0.00525197,0.0467638 -0.0205748,0.0898583 -0.0610197,0.108657 -0.391004,0.221039 -0.852772,0.404165 -1.34075,0.530827 -0.474035,0.123039 -0.972575,0.193035 -1.45481,0.193035 -0.228472,0 -0.441094,-0.0156969 -0.635795,-0.0452717 -0.20161,-0.0306299 -0.384579,-0.0764764 -0.546594,-0.135512l0.036252 -0.1 -0.0365197 0.10022c-0.0403189,-0.014689 -0.0663937,-0.0511693 -0.0697874,-0.0912953 -0.00853543,-0.0537795 -0.0149803,-0.106854 -0.0191969,-0.159059 -0.00451575,-0.0559409 -0.00684252,-0.111862 -0.00684252,-0.167622 0,-0.412209 0.120508,-0.796559 0.328252,-1.11977 0.200248,-0.311543 0.481843,-0.566035 0.814866,-0.733618l-0.0177283 -0.155563 -0.000188976 1.9685e-005c-0.00666535,-0.0585276 0.035378,-0.11139 0.0939055,-0.118055 0.0021063,-0.000240157 0.00420472,-0.000409449 0.00629528,-0.000523622l0.524846 -0.0598031 -1.9685e-005 -0.000188976c0.0585276,-0.00666535 0.11139,0.035378 0.118055,0.0939055 0.000240157,0.0021063 0.000409449,0.00420472 0.000523622,0.00629528l0.00262992 0.0230787c0.015252,-0.00148031 0.0306024,-0.00279134 0.0460394,-0.00394882 0.0527874,-0.00395276 0.105055,-0.00597244 0.156669,-0.00597244zm1.23883 0.685134c-0.32865,-0.293433 -0.762677,-0.471795 -1.23883,-0.471795 -0.0484685,0 -0.0954252,0.00174016 -0.140835,0.0051378 -0.0453307,0.00339764 -0.0907008,0.00851181 -0.13602,0.0152717 -0.00243307,0.000448819 -0.0048937,0.000822835 -0.00738976,0.0011063 -0.0585276,0.00666535 -0.11139,-0.035378 -0.118055,-0.0939055l0.10598 -0.0120748 -0.105835 0.0116654 -0.0034252 -0.0300748 -0.319539 0.0364094 0.0134528 0.118067c0.00840945,0.0467992 -0.0154528,0.0951417 -0.0606969,0.115815l-0.000161417 -0.000354331c-0.326091,0.148984 -0.601772,0.389583 -0.794205,0.688972 -0.186118,0.289563 -0.294079,0.634409 -0.294079,1.00477 0,0.0514961 0.00204331,0.101831 0.00600787,0.150953 0.00241339,0.0298898 0.00543307,0.0590787 0.00903543,0.0875551 0.133079,0.0439961 0.282165,0.0790394 0.445976,0.103925 0.183933,0.0279409 0.385921,0.0427677 0.604126,0.0427677 0.465681,0 0.945874,-0.0672756 1.40148,-0.185531 0.447118,-0.116051 0.870787,-0.280996 1.23413,-0.479461 -0.0660512,-0.438622 -0.285122,-0.827091 -0.601122,-1.10922z"/>
  <path class="fil0" d="M5.6522 3.41247c-0.0589094,0 -0.106669,0.0477598 -0.106669,0.106669 0,0.0589094 0.0477598,0.106669 0.106669,0.106669 0.0452244,0 0.0775906,0.00303937 0.0992126,0.00849213 -0.0294055,0.0519252 -0.0961417,0.115366 -0.165465,0.170827l-0.0308189 0.0246614c-0.59785,0.478429 -1.29415,1.03565 -2.13467,1.18293 -0.407114,0.0713346 -0.829378,-0.0317165 -1.21764,-0.126472 -0.209437,-0.0511102 -0.409425,-0.0999252 -0.597283,-0.120299 -0.282035,-0.0305906 -0.469953,-0.0664803 -0.526087,-0.140665 -0.0451457,-0.0596614 0.00885827,-0.182815 0.18963,-0.408713 0.0546535,-0.0682992 0.122587,-0.129063 0.203626,-0.186386l-0.061252 -0.0870827 0.061252 0.0866654 3.54331e-005 -2.3622e-005 0.000311024 0.000440945c0.00285039,-0.00201575 0.00557087,-0.00414961 0.00816142,-0.00638583 0.081437,-0.0567087 0.176067,-0.109984 0.283539,-0.163717 0.0524646,-0.0262323 0.0737323,-0.0900354 0.0475,-0.1425 -0.0262323,-0.0524646 -0.0900354,-0.0737323 -0.1425,-0.0475 -0.11578,0.0578858 -0.219083,0.116252 -0.310465,0.179972 -0.0032126,0.00180709 -0.00635827,0.00379134 -0.00943307,0.00596457l0.000114173 0.000165354c-0.0958071,0.0677913 -0.177917,0.141894 -0.246724,0.227882 -0.253799,0.317157 -0.306146,0.521079 -0.193795,0.669547 0.101354,0.133945 0.334799,0.18726 0.673583,0.224004 0.175236,0.0190079 0.367965,0.0660472 0.569787,0.115299 0.409417,0.0999173 0.854693,0.208583 1.30431,0.129803 0.892559,-0.156402 1.61243,-0.732472 2.23051,-1.22709l0.0308189 -0.0246614c0.0872205,-0.0697756 0.173811,-0.154268 0.218102,-0.23274 0.0270669,-0.0479528 0.0407717,-0.096378 0.0354488,-0.1435 -0.00667717,-0.0591969 -0.0379331,-0.107976 -0.101067,-0.141398 -0.0487441,-0.0257992 -0.119752,-0.0408543 -0.218736,-0.0408543z"/>
  <path class="fil0" d="M2.94883 2.07176c0.0326732,-0.0490157 0.0194291,-0.115244 -0.0295866,-0.147917 -0.0490157,-0.0326732 -0.115244,-0.0194291 -0.147917,0.0295866 -0.223831,0.335748 -0.330472,0.698461 -0.367122,1.08875 -0.0360039,0.383409 -0.00406299,0.789465 0.0499606,1.22167 0.00713386,0.0584488 0.0603031,0.100051 0.118752,0.0929173 0.0584488,-0.00713386 0.100051,-0.0603031 0.0929173,-0.118752 -0.0526378,-0.421114 -0.0839921,-0.814252 -0.0499606,-1.17667 0.0333858,-0.355535 0.130126,-0.685343 0.332957,-0.989587z"/>
  <path class="fil0" d="M3.44427 1.75234c-0.0492441,-0.0319843 -0.115098,-0.0179961 -0.147083,0.031248 -0.0319843,0.0492441 -0.0179961,0.115098 0.031248,0.147083 0.304909,0.198343 0.533827,0.500213 0.715626,0.851803 0.185949,0.359618 0.322673,0.770831 0.44052,1.17804 0.0163346,0.056378 0.0752874,0.0888346 0.131665,0.0725 0.056378,-0.0163346 0.0888346,-0.0752874 0.0725,-0.131665 -0.12122,-0.418858 -0.26228,-0.842661 -0.45552,-1.21637 -0.19739,-0.38174 -0.449102,-0.711555 -0.788957,-0.93263z"/>
  <rect class="fil1" width="6.82666" height="6.82666"/>
 </g>
</svg>
