<?xml version="1.0" encoding="UTF-8"?>
<!DOCTYPE svg PUBLIC "-//W3C//DTD SVG 1.1//EN" "http://www.w3.org/Graphics/SVG/1.1/DTD/svg11.dtd">
<!-- Creator: CorelDRAW -->
<svg xmlns="http://www.w3.org/2000/svg" xml:space="preserve" width="6.82666in" height="6.82666in" style="shape-rendering:geometricPrecision; text-rendering:geometricPrecision; image-rendering:optimizeQuality; fill-rule:evenodd; clip-rule:evenodd"
viewBox="0 0 6.82666 6.82666"
 xmlns:xlink="http://www.w3.org/1999/xlink">
 <defs>
  <style type="text/css">
   <![CDATA[
    .fil1 {fill:none}
    .fil0 {fill:#212121;fill-rule:nonzero}
   ]]>
  </style>
 </defs>
 <g id="Layer_x0020_1">
  <metadata id="CorelCorpID_0Corel-Layer"/>
  <path class="fil0" d="M2.62854 0.932799c-0.0190984,-0.055689 -0.0797283,-0.0853504 -0.135417,-0.066252 -0.055689,0.0190984 -0.0853504,0.0797283 -0.066252,0.135417l1.69013 4.90667c0.0190984,0.055689 0.0797283,0.0853504 0.135417,0.066252 0.055689,-0.0190984 0.0853504,-0.0797283 0.066252,-0.135417l-1.69013 -4.90667z"/>
  <path class="fil0" d="M4.27065 0.932799c-0.0190984,-0.055689 -0.0797283,-0.0853504 -0.135417,-0.066252 -0.055689,0.0190984 -0.0853504,0.0797283 -0.066252,0.135417l1.69013 4.90667c0.0190984,0.055689 0.0797283,0.0853504 0.135417,0.066252 0.055689,-0.0190984 0.0853504,-0.0797283 0.066252,-0.135417l-1.69013 -4.90667z"/>
  <path class="fil0" d="M2.26688 0.86072c-0.0589094,0 -0.106669,0.0477598 -0.106669,0.106669 0,0.0589094 0.0477598,0.106669 0.106669,0.106669l2.16375 0c0.0589094,0 0.106669,-0.0477598 0.106669,-0.106669 0,-0.0589094 -0.0477598,-0.106669 -0.106669,-0.106669l-2.16375 0z"/>
  <path class="fil0" d="M4.05862 5.12178c-0.0589094,0 -0.106669,0.0477598 -0.106669,0.106669 0,0.0589094 0.0477598,0.106669 0.106669,0.106669l1.51578 0c0.0589094,0 0.106669,-0.0477598 0.106669,-0.106669 0,-0.0589094 -0.0477598,-0.106669 -0.106669,-0.106669l-1.51578 0z"/>
  <path class="fil0" d="M3.81399 4.4116c-0.0589094,0 -0.106669,0.0477598 -0.106669,0.106669 0,0.0589094 0.0477598,0.106669 0.106669,0.106669l1.51578 0c0.0589094,0 0.106669,-0.0477598 0.106669,-0.106669 0,-0.0589094 -0.0477598,-0.106669 -0.106669,-0.106669l-1.51578 0z"/>
  <path class="fil0" d="M3.56937 3.70143c-0.0589094,0 -0.106669,0.0477598 -0.106669,0.106669 0,0.0589094 0.0477598,0.106669 0.106669,0.106669l1.51578 0c0.0589094,0 0.106669,-0.0477598 0.106669,-0.106669 0,-0.0589094 -0.0477598,-0.106669 -0.106669,-0.106669l-1.51578 0z"/>
  <path class="fil0" d="M3.32474 2.99125c-0.0589094,0 -0.106669,0.0477598 -0.106669,0.106669 0,0.0589094 0.0477598,0.106669 0.106669,0.106669l1.51578 0c0.0589094,0 0.106669,-0.0477598 0.106669,-0.106669 0,-0.0589094 -0.0477598,-0.106669 -0.106669,-0.106669l-1.51578 0z"/>
  <path class="fil0" d="M3.08012 2.28107c-0.0589094,0 -0.106669,0.0477598 -0.106669,0.106669 0,0.0589094 0.0477598,0.106669 0.106669,0.106669l1.51578 0c0.0589094,0 0.106669,-0.0477598 0.106669,-0.106669 0,-0.0589094 -0.0477598,-0.106669 -0.106669,-0.106669l-1.51578 0z"/>
  <path class="fil0" d="M2.8355 1.5709c-0.0589094,0 -0.106669,0.0477598 -0.106669,0.106669 0,0.0589094 0.0477598,0.106669 0.106669,0.106669l1.51578 0c0.0589094,0 0.106669,-0.0477598 0.106669,-0.106669 0,-0.0589094 -0.0477598,-0.106669 -0.106669,-0.106669l-1.51578 0z"/>
  <path class="fil0" d="M4.28641 1.00196c0.0190984,-0.055689 -0.010563,-0.116319 -0.066252,-0.135417 -0.055689,-0.0190984 -0.116319,0.010563 -0.135417,0.066252l-1.69013 4.90667c-0.0190984,0.055689 0.010563,0.116319 0.066252,0.135417 0.055689,0.0190984 0.116319,-0.010563 0.135417,-0.066252l1.69013 -4.90667z"/>
  <path class="fil0" d="M2.6443 1.00196c0.0190984,-0.055689 -0.010563,-0.116319 -0.066252,-0.135417 -0.055689,-0.0190984 -0.116319,0.010563 -0.135417,0.066252l-1.69013 4.90667c-0.0190984,0.055689 0.010563,0.116319 0.066252,0.135417 0.055689,0.0190984 0.116319,-0.010563 0.135417,-0.066252l1.69013 -4.90667z"/>
  <path class="fil0" d="M2.65466 5.33511c0.0589094,0 0.106669,-0.0477598 0.106669,-0.106669 0,-0.0589094 -0.0477598,-0.106669 -0.106669,-0.106669l-1.51578 0c-0.0589094,0 -0.106669,0.0477598 -0.106669,0.106669 0,0.0589094 0.0477598,0.106669 0.106669,0.106669l1.51578 0z"/>
  <path class="fil0" d="M2.89929 4.62494c0.0589094,0 0.106669,-0.0477598 0.106669,-0.106669 0,-0.0589094 -0.0477598,-0.106669 -0.106669,-0.106669l-1.51578 0c-0.0589094,0 -0.106669,0.0477598 -0.106669,0.106669 0,0.0589094 0.0477598,0.106669 0.106669,0.106669l1.51578 0z"/>
  <path class="fil0" d="M3.14391 3.91477c0.0589094,0 0.106669,-0.0477598 0.106669,-0.106669 0,-0.0589094 -0.0477598,-0.106669 -0.106669,-0.106669l-1.51578 0c-0.0589094,0 -0.106669,0.0477598 -0.106669,0.106669 0,0.0589094 0.0477598,0.106669 0.106669,0.106669l1.51578 0z"/>
  <path class="fil0" d="M3.38854 3.20459c0.0589094,0 0.106669,-0.0477598 0.106669,-0.106669 0,-0.0589094 -0.0477598,-0.106669 -0.106669,-0.106669l-1.51578 0c-0.0589094,0 -0.106669,0.0477598 -0.106669,0.106669 0,0.0589094 0.0477598,0.106669 0.106669,0.106669l1.51578 0z"/>
  <path class="fil0" d="M3.63316 2.49441c0.0589094,0 0.106669,-0.0477598 0.106669,-0.106669 0,-0.0589094 -0.0477598,-0.106669 -0.106669,-0.106669l-1.51578 0c-0.0589094,0 -0.106669,0.0477598 -0.106669,0.106669 0,0.0589094 0.0477598,0.106669 0.106669,0.106669l1.51578 0z"/>
  <rect class="fil1" width="6.82666" height="6.82666"/>
  <rect class="fil1" width="6.82666" height="6.82666"/>
  <path class="fil0" d="M3.87778 1.78424c0.0589094,0 0.106669,-0.0477598 0.106669,-0.106669 0,-0.0589094 -0.0477598,-0.106669 -0.106669,-0.106669l-1.51578 0c-0.0589094,0 -0.106669,0.0477598 -0.106669,0.106669 0,0.0589094 0.0477598,0.106669 0.106669,0.106669l1.51578 0z"/>
  <rect class="fil1" width="6.82666" height="6.82666"/>
 </g>
</svg>
