<?xml version="1.0" encoding="UTF-8"?>
<!DOCTYPE svg PUBLIC "-//W3C//DTD SVG 1.1//EN" "http://www.w3.org/Graphics/SVG/1.1/DTD/svg11.dtd">
<!-- Creator: CorelDRAW -->
<svg xmlns="http://www.w3.org/2000/svg" xml:space="preserve" width="6.82666in" height="6.82666in" style="shape-rendering:geometricPrecision; text-rendering:geometricPrecision; image-rendering:optimizeQuality; fill-rule:evenodd; clip-rule:evenodd"
viewBox="0 0 6.82666 6.82666"
 xmlns:xlink="http://www.w3.org/1999/xlink">
 <defs>
  <style type="text/css">
   <![CDATA[
    .fil1 {fill:none}
    .fil0 {fill:#212121;fill-rule:nonzero}
   ]]>
  </style>
 </defs>
 <g id="Layer_x0020_1">
  <metadata id="CorelCorpID_0Corel-Layer"/>
  <path class="fil0" d="M2.11327 1.82395l3.75631 0.113827 -0.00291732 0.106252 0.00323228 -0.106618c0.0588819,0.00178346 0.105169,0.0509685 0.103386,0.10985 -0.00096063,0.031748 -0.0157087,0.0598268 -0.0383228,0.0786929l-1.23315 1.18938 0.000200787 0.000204724c-0.0207008,0.0199646 -0.0473937,0.0298898 -0.0740512,0.0298858l0 7.87402e-006c-0.503406,0 -0.927567,-0.00574409 -1.27683,-0.029878 -0.35489,-0.0245276 -0.631059,-0.0684449 -0.831535,-0.144965 -0.205921,-0.0786024 -0.338366,-0.169252 -0.42222,-0.367252 -0.0758898,-0.179193 -0.102965,-0.442311 -0.102965,-0.873413 0,-0.0589094 0.0477598,-0.106669 0.106669,-0.106669 0.00412205,0 0.00818898,0.000240157 0.012189,0.00069685zm3.49793 0.318677l-3.40283 -0.103114c0.00398031,0.337626 0.0277913,0.546602 0.0848465,0.681319 0.0550236,0.129921 0.150807,0.192795 0.30222,0.250591 0.179681,0.0685827 0.435972,0.108551 0.769866,0.131626 0.329858,0.0227953 0.736638,0.0287165 1.22004,0.0290315l1.02587 -0.989453z"/>
  <path class="fil0" d="M0.977496 1.93903c-0.0579882,-0.00966142 -0.112839,0.0295118 -0.1225,0.0875 -0.00966142,0.0579882 0.0295118,0.112839 0.0875,0.1225l0.621776 0.103626 0.380756 1.1233 0.100835 -0.0341654 -0.101024 0.0342441c0.0145276,0.0428583 0.0536378,0.0704331 0.0962795,0.0723425l3.58857 0.299421c0.0586811,0.00483071 0.110173,-0.0388189 0.115004,-0.0975 0.00483071,-0.0586811 -0.0388189,-0.110173 -0.0975,-0.115004l-3.52296 -0.293949 -0.376535 -1.11084c-0.0105157,-0.0391142 -0.0429567,-0.0704921 -0.0855118,-0.0775827l-3.54331e-005 0.000216535 -0.684654 -0.114106z"/>
  <path class="fil0" d="M5.28285 2.80945c-0.0184094,-0.055689 -0.0784803,-0.0859094 -0.134169,-0.0675 -0.055689,0.0184094 -0.0859094,0.0784803 -0.0675,0.134169l0.228217 0.68465c0.0184094,0.055689 0.0784803,0.0859094 0.134169,0.0675 0.055689,-0.0184094 0.0859094,-0.0784803 0.0675,-0.134169l-0.228217 -0.68465z"/>
  <path class="fil0" d="M2.15033 2.67081c0.0579882,-0.00966142 0.0971614,-0.0645118 0.0875,-0.1225 -0.00966142,-0.0579882 -0.0645118,-0.0971614 -0.1225,-0.0875l-0.334118 0.0569134c-0.0579882,0.00966142 -0.0971614,0.0645118 -0.0875,0.1225 0.00966142,0.0579882 0.0645118,0.0971614 0.1225,0.0875l0.334118 -0.0569134z"/>
  <path class="fil0" d="M2.42904 3.36637c-0.00437008,-0.0586811 -0.0554882,-0.102705 -0.114169,-0.0983346 -0.0586811,0.00437008 -0.102705,0.0554882 -0.0983346,0.114169l0.114106 1.48341 0.106252 -0.00791732 -0.106354 0.0081811c0.00451575,0.0587362 0.0557992,0.102689 0.114535,0.0981732 0.0406378,-0.00312598 0.0741929,-0.0286378 0.0895236,-0.0635157l0.696248 -1.42606c0.0257717,-0.0529252 0.00375591,-0.116728 -0.0491693,-0.1425 -0.0529252,-0.0257717 -0.116728,-0.00375591 -0.1425,0.0491693l-0.52611 1.07759 -0.0840276 -1.09236z"/>
  <path class="fil0" d="M4.32605 3.53107c-0.0184094,-0.0228937 -0.0518976,-0.0265315 -0.0747913,-0.00812205 -0.0228937,0.0184094 -0.0265315,0.0518976 -0.00812205,0.0747913l0.669201 0.827713 0.0414567 -0.0333346 -0.0414724 0.0335315c0.0185157,0.0229016 0.0521024,0.0264567 0.0750039,0.00794094 0.00411417,-0.00332677 0.00760236,-0.00714173 0.0104488,-0.0112913l0.567398 -0.680878c0.018752,-0.0225512 0.0156732,-0.0560394 -0.00687795,-0.0747913 -0.0225512,-0.018752 -0.0560394,-0.0156732 -0.0747913,0.00687795l-0.529031 0.634839 -0.628421 -0.777276z"/>
  <path class="fil0" d="M4.98371 3.7631c0.171236,0 0.326276,0.0694173 0.438508,0.18165 0.112228,0.112228 0.18165,0.267268 0.18165,0.438504 0,0.171236 -0.0694173,0.326276 -0.18165,0.438504 -0.112228,0.112232 -0.267272,0.18165 -0.438508,0.18165 -0.171236,0 -0.326276,-0.0694173 -0.438504,-0.18165 -0.112232,-0.112228 -0.18165,-0.267268 -0.18165,-0.438504 0,-0.171232 0.0694213,-0.326276 0.18165,-0.438504 0.112228,-0.112228 0.267272,-0.18165 0.438504,-0.18165zm0.287673 0.332484c-0.0736142,-0.0736142 -0.175323,-0.119146 -0.287673,-0.119146 -0.112346,0 -0.214059,0.0455354 -0.287669,0.119146 -0.0736102,0.0736102 -0.119146,0.175323 -0.119146,0.287669 0,0.11235 0.0455354,0.214063 0.119146,0.287669 0.0736063,0.0736102 0.175319,0.119146 0.287669,0.119146 0.11235,0 0.214067,-0.0455354 0.287673,-0.119146 0.0736102,-0.0736063 0.119146,-0.175319 0.119146,-0.287669 0,-0.11235 -0.0455354,-0.214059 -0.119146,-0.287669z"/>
  <path class="fil0" d="M4.98372 4.13746c0.0678583,0 0.129311,0.0275157 0.173795,0.072 0.0444843,0.0444921 0.072,0.105937 0.072,0.173799 0,0.0678622 -0.0275157,0.129307 -0.072,0.173799 -0.0444843,0.0444843 -0.105937,0.072 -0.173795,0.072 -0.0678583,0 -0.129315,-0.0275157 -0.173795,-0.0720039 -0.0444803,-0.0444803 -0.0720039,-0.105929 -0.0720039,-0.173795 0,-0.0678583 0.0275236,-0.129315 0.0720039,-0.173795 0.0444803,-0.0444803 0.105937,-0.0720039 0.173795,-0.0720039zm0.0229606 0.222835c-0.0058622,-0.0058622 -0.0139882,-0.00949606 -0.0229606,-0.00949606 -0.00897244,0 -0.0170945,0.00363386 -0.0229606,0.0095 -0.00586614,0.00586614 -0.0095,0.0139882 -0.0095,0.0229606 0,0.00897244 0.00363386,0.0170945 0.0095,0.0229606 0.00586614,0.00586614 0.0139882,0.0095 0.0229606,0.0095 0.00897244,0 0.0170984,-0.00363386 0.0229606,-0.00949606 0.00586614,-0.00586614 0.00949606,-0.0139882 0.00949606,-0.0229646 0,-0.00897638 -0.00363386,-0.0171024 -0.00949606,-0.0229646z"/>
  <rect class="fil1" width="6.82666" height="6.82666"/>
 </g>
</svg>
