<?xml version="1.0" encoding="UTF-8"?>
<!DOCTYPE svg PUBLIC "-//W3C//DTD SVG 1.1//EN" "http://www.w3.org/Graphics/SVG/1.1/DTD/svg11.dtd">
<!-- Creator: CorelDRAW -->
<svg xmlns="http://www.w3.org/2000/svg" xml:space="preserve" width="6.82666in" height="6.82666in" style="shape-rendering:geometricPrecision; text-rendering:geometricPrecision; image-rendering:optimizeQuality; fill-rule:evenodd; clip-rule:evenodd"
viewBox="0 0 6.82666 6.82666"
 xmlns:xlink="http://www.w3.org/1999/xlink">
 <defs>
  <style type="text/css">
   <![CDATA[
    .fil1 {fill:none}
    .fil0 {fill:#212121;fill-rule:nonzero}
   ]]>
  </style>
 </defs>
 <g id="Layer_x0020_1">
  <metadata id="CorelCorpID_0Corel-Layer"/>
  <path class="fil0" d="M3.41333 0.853331c0.192996,0 0.359004,0.0770472 0.483429,0.201472 0.128382,0.128382 0.211394,0.307827 0.232098,0.504059l0.385591 3.65392 0.000279528 -2.75591e-005c0.0061811,0.0585827 -0.0363031,0.111091 -0.0948858,0.117272 -0.00396457,0.000417323 -0.00790157,0.000610236 -0.0117992,0.000590551l-1.99004 0c-0.0589094,0 -0.106669,-0.0477598 -0.106669,-0.106669 0,-0.00651969 0.000586614,-0.0129016 0.00170472,-0.0190984l0.384756 -3.64599c0.0207087,-0.19626 0.103717,-0.375697 0.232091,-0.504071 0.124425,-0.124425 0.290433,-0.201461 0.483441,-0.201461zm0.332594 0.352307c-0.0858228,-0.0858228 -0.200055,-0.138969 -0.332594,-0.138969 -0.132547,0 -0.246787,0.0531378 -0.332606,0.138957 -0.0945,0.0945 -0.155748,0.227957 -0.171256,0.374906l-0.373224 3.53675 1.75417 0 -0.373224 -3.53675c-0.0155039,-0.146925 -0.0767559,-0.280386 -0.171264,-0.374894z"/>
  <path class="fil0" d="M1.84893 5.76l3.12881 0 0 -0.429378 -3.12881 0 0 0.429378zm3.23548 0.213339l-3.34215 0c-0.0589094,0 -0.106669,-0.0477598 -0.106669,-0.106669l0 -0.642717c0,-0.0589094 0.0477598,-0.106669 0.106669,-0.106669l3.34215 0c0.0589094,0 0.106669,0.0477598 0.106669,0.106669l0 0.642717c0,0.0589094 -0.0477598,0.106669 -0.106669,0.106669z"/>
  <path class="fil0" d="M2.98666 4.3807c-0.0589094,0 -0.106669,0.0477598 -0.106669,0.106669 0,0.0589094 0.0477598,0.106669 0.106669,0.106669l0.853335 0c0.0589094,0 0.106669,-0.0477598 0.106669,-0.106669 0,-0.0589094 -0.0477598,-0.106669 -0.106669,-0.106669l-0.853335 0z"/>
  <path class="fil0" d="M3.10309 3.51446c-0.0589094,0 -0.106669,0.0477598 -0.106669,0.106669 0,0.0589094 0.0477598,0.106669 0.106669,0.106669l0.620476 0c0.0589094,0 0.106669,-0.0477598 0.106669,-0.106669 0,-0.0589094 -0.0477598,-0.106669 -0.106669,-0.106669l-0.620476 0z"/>
  <path class="fil0" d="M3.15225 2.64822c-0.0589094,0 -0.106669,0.0477598 -0.106669,0.106669 0,0.0589094 0.0477598,0.106669 0.106669,0.106669l0.522154 0c0.0589094,0 0.106669,-0.0477598 0.106669,-0.106669 0,-0.0589094 -0.0477598,-0.106669 -0.106669,-0.106669l-0.522154 0z"/>
  <path class="fil0" d="M3.20976 1.78198c-0.0589094,0 -0.106669,0.0477598 -0.106669,0.106669 0,0.0589094 0.0477598,0.106669 0.106669,0.106669l0.407134 0c0.0589094,0 0.106669,-0.0477598 0.106669,-0.106669 0,-0.0589094 -0.0477598,-0.106669 -0.106669,-0.106669l-0.407134 0z"/>
  <rect class="fil1" width="6.82666" height="6.82666"/>
 </g>
</svg>
