<?xml version="1.0" encoding="UTF-8"?>
<!DOCTYPE svg PUBLIC "-//W3C//DTD SVG 1.1//EN" "http://www.w3.org/Graphics/SVG/1.1/DTD/svg11.dtd">
<!-- Creator: CorelDRAW -->
<svg xmlns="http://www.w3.org/2000/svg" xml:space="preserve" width="6.82666in" height="6.82666in" style="shape-rendering:geometricPrecision; text-rendering:geometricPrecision; image-rendering:optimizeQuality; fill-rule:evenodd; clip-rule:evenodd"
viewBox="0 0 6.82666 6.82666"
 xmlns:xlink="http://www.w3.org/1999/xlink">
 <defs>
  <style type="text/css">
   <![CDATA[
    .fil1 {fill:none}
    .fil0 {fill:#212121;fill-rule:nonzero}
   ]]>
  </style>
 </defs>
 <g id="Layer_x0020_1">
  <metadata id="CorelCorpID_0Corel-Layer"/>
  <path class="fil0" d="M1.86528 3.14551l0 1.81587 1.81587 0 -1.81587 -1.81587zm-0.213339 1.92254l0 -2.18005 3.93701e-006 0c0,-0.0272992 0.0104134,-0.0545984 0.0312402,-0.0754252 0.0416535,-0.0416535 0.109197,-0.0416535 0.15085,0l-7.87402e-006 7.87402e-006 2.17939 2.17939c0.0196929,0.0193543 0.0319094,0.0462835 0.0319094,0.0760748 0,0.0589094 -0.0477598,0.106669 -0.106669,0.106669l-2.18005 0c-0.0589094,0 -0.106669,-0.0477598 -0.106669,-0.106669zm-0.615862 -4.18281l4.906 4.906 7.87402e-006 -7.87402e-006c0.0416535,0.0416535 0.0416535,0.109197 0,0.15085 -0.0208268,0.0208268 -0.048126,0.0312402 -0.0754252,0.0312402l0 3.93701e-006 -4.90666 0c-0.0589094,0 -0.106669,-0.0477598 -0.106669,-0.106669l0 -4.90666c0,-0.0589094 0.0477598,-0.106669 0.106669,-0.106669 0.0297913,0 0.0567205,0.0122165 0.0760748,0.0319094zm4.57308 4.87475l-4.54249 -4.54249 0 4.54249 4.54249 0z"/>
  <rect class="fil1" width="6.82666" height="6.82666"/>
 </g>
</svg>
