<?xml version="1.0" encoding="UTF-8"?>
<!DOCTYPE svg PUBLIC "-//W3C//DTD SVG 1.1//EN" "http://www.w3.org/Graphics/SVG/1.1/DTD/svg11.dtd">
<!-- Creator: CorelDRAW -->
<svg xmlns="http://www.w3.org/2000/svg" xml:space="preserve" width="6.82666in" height="6.82666in" style="shape-rendering:geometricPrecision; text-rendering:geometricPrecision; image-rendering:optimizeQuality; fill-rule:evenodd; clip-rule:evenodd"
viewBox="0 0 6.82666 6.82666"
 xmlns:xlink="http://www.w3.org/1999/xlink">
 <defs>
  <style type="text/css">
   <![CDATA[
    .fil2 {fill:none}
    .fil1 {fill:#212121}
    .fil0 {fill:#212121;fill-rule:nonzero}
   ]]>
  </style>
 </defs>
 <g id="Layer_x0020_1">
  <metadata id="CorelCorpID_0Corel-Layer"/>
  <path class="fil0" d="M5.5873 1.06667l-1.53288 0 0 4.69332 1.53288 0 0 -4.69332zm-1.63955 -0.213339l1.74622 0c0.0589094,0 0.106669,0.0477598 0.106669,0.106669l0 4.90666c0,0.0589094 -0.0477598,0.106669 -0.106669,0.106669l-1.74622 0c-0.0589094,0 -0.106669,-0.0477598 -0.106669,-0.106669l0 -4.90666c0,-0.0589094 0.0477598,-0.106669 0.106669,-0.106669z"/>
  <polygon class="fil0" points="5.31503,1.50073 4.7817,1.50073 4.7817,1.28739 5.31503,1.28739 "/>
  <polygon class="fil0" points="5.31503,1.90576 5.04954,1.90576 5.04954,1.69242 5.31503,1.69242 "/>
  <polygon class="fil0" points="5.31503,2.31078 4.7817,2.31078 4.7817,2.09744 5.31503,2.09744 "/>
  <polygon class="fil0" points="5.31503,2.71581 5.04954,2.71581 5.04954,2.50247 5.31503,2.50247 "/>
  <polygon class="fil0" points="5.31503,3.12084 4.7817,3.12084 4.7817,2.9075 5.31503,2.9075 "/>
  <polygon class="fil0" points="5.31503,3.52587 5.04954,3.52587 5.04954,3.31253 5.31503,3.31253 "/>
  <polygon class="fil0" points="5.31503,3.93089 4.7817,3.93089 4.7817,3.71756 5.31503,3.71756 "/>
  <polygon class="fil0" points="5.31503,4.33592 5.04954,4.33592 5.04954,4.12258 5.31503,4.12258 "/>
  <polygon class="fil0" points="5.31503,4.74095 4.7817,4.74095 4.7817,4.52761 5.31503,4.52761 "/>
  <polygon class="fil0" points="5.31503,5.14598 5.04954,5.14598 5.04954,4.93264 5.31503,4.93264 "/>
  <polygon class="fil0" points="5.31503,5.55101 4.7817,5.55101 4.7817,5.33767 5.31503,5.33767 "/>
  <path class="fil0" d="M2.12299 1.28242c0,0.0589094 0.0477598,0.106669 0.106669,0.106669 0.0589094,0 0.106669,-0.0477598 0.106669,-0.106669l0 -0.322417c0,-0.0589094 -0.0477598,-0.106669 -0.106669,-0.106669 -0.0589094,0 -0.106669,0.0477598 -0.106669,0.106669l0 0.322417z"/>
  <circle class="fil1" cx="2.22966" cy="1.6402" r="0.0511104"/>
  <path class="fil0" d="M2.1036 2.09663l-0.0936693 -0.0520394 -0.666126 2.26711 0.0936654 0.0520354 0.66613 -2.26711zm-0.158283 -0.209559l0.0516654 -0.0929173 0.276681 0.153717c0.047748,0.0215551 0.0735236,0.0755512 0.0583346,0.12724l-0.102343 -0.0300709 0.102083 0.03 -0.725354 2.46868c-0.00216142,0.0100276 -0.00581496,0.0199094 -0.0110551,0.0293425 -0.0286063,0.0514961 -0.0935512,0.0700472 -0.145047,0.0414409l0.0518031 -0.0932441 -0.0516654 0.0929173 -0.276681 -0.153717c-0.047748,-0.0215512 -0.0735197,-0.0755512 -0.0583307,-0.12724l0.102343 0.0300709 -0.102083 -0.03 0.72535 -2.46868c0.00216142,-0.0100276 0.00581496,-0.0199094 0.0110551,-0.0293425 0.0286063,-0.0514961 0.0935512,-0.0700472 0.145047,-0.0414409l-0.0518031 0.0932441z"/>
  <path class="fil0" d="M2.18565 1.94787l0.276681 -0.153717 0.0516654 0.0929173 -0.0518031 -0.0932441c0.0514961,-0.0286063 0.116441,-0.0100551 0.145047,0.0414409 0.00524016,0.00943307 0.0088937,0.019315 0.0110551,0.0293425l0.72535 2.46868 -0.102083 0.03 0.102343 -0.0300709c0.015189,0.051689 -0.0105827,0.105689 -0.0583307,0.12724l-0.276681 0.153717 -0.0516654 -0.0929173 0.0518031 0.0932441c-0.0514961,0.0286063 -0.116441,0.0100551 -0.145047,-0.0414409 -0.00524016,-0.00943307 -0.0088937,-0.019315 -0.0110551,-0.0293425l-0.725354 -2.46868 0.102083 -0.03 -0.102343 0.0300709c-0.015189,-0.051689 0.0105866,-0.105685 0.0583346,-0.12724zm0.263732 0.0967205l-0.0936693 0.0520394 0.66613 2.26711 0.0936654 -0.0520354 -0.666126 -2.26711z"/>
  <path class="fil0" d="M2.22966 1.38909c-0.0693543,0 -0.132134,0.0281024 -0.177567,0.0735394 -0.045437,0.0454331 -0.0735394,0.108213 -0.0735394,0.177567 0,0.0693543 0.0281024,0.132138 0.0735394,0.177571 0.0454291,0.0454291 0.108213,0.0735394 0.177567,0.0735394 0.0693543,0 0.132138,-0.0281102 0.177567,-0.0735394 0.045437,-0.0454331 0.0735394,-0.108217 0.0735394,-0.177571 0,-0.0693543 -0.0281102,-0.132138 -0.0735394,-0.177567 -0.0454331,-0.045437 -0.108217,-0.0735394 -0.177567,-0.0735394zm-0.328402 -0.0772953c0.0840512,-0.0840551 0.200157,-0.136043 0.328402,-0.136043 0.128236,0 0.24435,0.0519882 0.328402,0.136043 0.0840472,0.0840472 0.136043,0.200161 0.136043,0.328402 0,0.128244 -0.0519882,0.244354 -0.136043,0.328406 -0.0840472,0.0840472 -0.200161,0.136043 -0.328402,0.136043 -0.12824,0 -0.244354,-0.0519961 -0.328402,-0.136043 -0.0840551,-0.0840512 -0.136043,-0.200161 -0.136043,-0.328406 0,-0.128244 0.0519882,-0.24435 0.136043,-0.328402z"/>
  <path class="fil0" d="M3.21332 4.40221c-0.0165669,-0.056378 -0.0757047,-0.0886496 -0.132083,-0.0720827 -0.056378,0.0165669 -0.0886496,0.0757047 -0.0720827,0.132083l0.421303 1.43445c0.0165669,0.056378 0.0757047,0.0886496 0.132083,0.0720827 0.056378,-0.0165669 0.0886496,-0.0757047 0.0720827,-0.132083l-0.421303 -1.43445z"/>
  <path class="fil0" d="M1.46801 4.46221c0.0165669,-0.056378 -0.0157047,-0.115516 -0.0720827,-0.132083 -0.056378,-0.0165669 -0.115516,0.0157047 -0.132083,0.0720827l-0.421303 1.43445c-0.0165669,0.056378 0.0157047,0.115516 0.0720827,0.132083 0.056378,0.0165669 0.115516,-0.0157047 0.132083,-0.0720827l0.421303 -1.43445z"/>
  <rect class="fil2" width="6.82666" height="6.82666"/>
 </g>
</svg>
