<?xml version="1.0" encoding="UTF-8"?>
<!DOCTYPE svg PUBLIC "-//W3C//DTD SVG 1.1//EN" "http://www.w3.org/Graphics/SVG/1.1/DTD/svg11.dtd">
<!-- Creator: CorelDRAW -->
<svg xmlns="http://www.w3.org/2000/svg" xml:space="preserve" width="6.82666in" height="6.82666in" style="shape-rendering:geometricPrecision; text-rendering:geometricPrecision; image-rendering:optimizeQuality; fill-rule:evenodd; clip-rule:evenodd"
viewBox="0 0 6.82666 6.82666"
 xmlns:xlink="http://www.w3.org/1999/xlink">
 <defs>
  <style type="text/css">
   <![CDATA[
    .fil1 {fill:none}
    .fil0 {fill:#212121;fill-rule:nonzero}
   ]]>
  </style>
 </defs>
 <g id="Layer_x0020_1">
  <metadata id="CorelCorpID_0Corel-Layer"/>
  <path class="fil0" d="M0.959996 1.70008l0.426665 0c0.0589094,0 0.106669,0.0477598 0.106669,0.106669l0 0.426669c0,0.0589094 -0.0477598,0.106669 -0.106669,0.106669l-0.426665 0c-0.0589094,0 -0.106669,-0.0477598 -0.106669,-0.106669l0 -0.426669c0,-0.0589094 0.0477598,-0.106669 0.106669,-0.106669zm0.319996 0.213339l-0.213327 0 0 0.213331 0.213327 0 0 -0.213331z"/>
  <path class="fil0" d="M2.13332 1.91342l-0.639992 0 0 0.213331 0.639992 0 0 -0.213331zm-0.746661 -0.213339l0.853331 0c0.0589094,0 0.106669,0.0477598 0.106669,0.106669l0 0.426669c0,0.0589094 -0.0477598,0.106669 -0.106669,0.106669l-0.853331 0c-0.0589094,0 -0.106669,-0.0477598 -0.106669,-0.106669l0 -0.426669c0,-0.0589094 0.0477598,-0.106669 0.106669,-0.106669z"/>
  <path class="fil0" d="M1.94922 5.11342l-0.238634 0c-0.0735039,0 -0.140268,-0.03 -0.188587,-0.0783268 -0.0483228,-0.0483228 -0.0783228,-0.115083 -0.0783228,-0.188591l0 -2.61308c0,-0.0589094 0.0477598,-0.106669 0.106669,-0.106669l0.525953 0c0.0589094,0 0.106669,0.0477598 0.106669,0.106669l0 2.64625c0,0.0643858 -0.0262677,0.122854 -0.0685827,0.165169 -0.042311,0.042311 -0.10078,0.0685827 -0.165165,0.0685827zm-0.238634 -0.213339l0.238634 0c0.0055,0 0.0105827,-0.00233071 0.0143307,-0.00607874 0.00374803,-0.00374803 0.00607874,-0.00883465 0.00607874,-0.0143346l0 -2.53958 -0.312614 0 0 2.50641c0,0.014622 0.00605906,0.0279961 0.0158189,0.0377559 0.00975984,0.00975984 0.0231339,0.0158228 0.037752,0.0158228z"/>
  <path class="fil0" d="M2.55999 1.91342l-0.213327 0 0 0.213331 0.213327 0 0 -0.213331zm-0.319996 -0.213339l0.426665 0c0.0589094,0 0.106669,0.0477598 0.106669,0.106669l0 0.426669c0,0.0589094 -0.0477598,0.106669 -0.106669,0.106669l-0.426665 0c-0.0589094,0 -0.106669,-0.0477598 -0.106669,-0.106669l0 -0.426669c0,-0.0589094 0.0477598,-0.106669 0.106669,-0.106669z"/>
  <path class="fil0" d="M1.45374 4.65735c-0.0545354,0.0218583 -0.0810276,0.0837992 -0.0591693,0.138335 0.0218583,0.0545354 0.0837992,0.0810276 0.138335,0.0591693l0.64 -0.258575c0.0545354,-0.0218583 0.0810276,-0.0837992 0.0591693,-0.138335 -0.0218583,-0.0545354 -0.0837992,-0.0810276 -0.138335,-0.0591693l-0.64 0.258575z"/>
  <path class="fil0" d="M1.45374 4.268c-0.0545354,0.0218583 -0.0810276,0.0837992 -0.0591693,0.138335 0.0218583,0.0545354 0.0837992,0.0810276 0.138335,0.0591693l0.64 -0.258575c0.0545354,-0.0218583 0.0810276,-0.0837992 0.0591693,-0.138335 -0.0218583,-0.0545354 -0.0837992,-0.0810276 -0.138335,-0.0591693l-0.64 0.258575z"/>
  <path class="fil0" d="M1.45374 3.87865c-0.0545354,0.0218583 -0.0810276,0.0837992 -0.0591693,0.138335 0.0218583,0.0545354 0.0837992,0.0810276 0.138335,0.0591693l0.64 -0.258575c0.0545354,-0.0218583 0.0810276,-0.0837992 0.0591693,-0.138335 -0.0218583,-0.0545354 -0.0837992,-0.0810276 -0.138335,-0.0591693l-0.64 0.258575z"/>
  <path class="fil0" d="M1.45374 3.4893c-0.0545354,0.0218583 -0.0810276,0.0837992 -0.0591693,0.138335 0.0218583,0.0545354 0.0837992,0.0810276 0.138335,0.0591693l0.64 -0.258575c0.0545354,-0.0218583 0.0810276,-0.0837992 0.0591693,-0.138335 -0.0218583,-0.0545354 -0.0837992,-0.0810276 -0.138335,-0.0591693l-0.64 0.258575z"/>
  <path class="fil0" d="M1.45374 3.09995c-0.0545354,0.0218583 -0.0810276,0.0837992 -0.0591693,0.138335 0.0218583,0.0545354 0.0837992,0.0810276 0.138335,0.0591693l0.64 -0.258575c0.0545354,-0.0218583 0.0810276,-0.0837992 0.0591693,-0.138335 -0.0218583,-0.0545354 -0.0837992,-0.0810276 -0.138335,-0.0591693l-0.64 0.258575z"/>
  <path class="fil0" d="M2.87293 2.44334l0.426665 0c0.0589094,0 0.106669,0.0477598 0.106669,0.106669l0 0.426669c0,0.0589094 -0.0477598,0.106669 -0.106669,0.106669l-0.426665 0c-0.0589094,0 -0.106669,-0.0477598 -0.106669,-0.106669l0 -0.426669c0,-0.0589094 0.0477598,-0.106669 0.106669,-0.106669zm0.319996 0.213339l-0.213327 0 0 0.213331 0.213327 0 0 -0.213331z"/>
  <path class="fil0" d="M4.04626 2.65668l-0.639992 0 0 0.213331 0.639992 0 0 -0.213331zm-0.746661 -0.213339l0.853331 0c0.0589094,0 0.106669,0.0477598 0.106669,0.106669l0 0.426669c0,0.0589094 -0.0477598,0.106669 -0.106669,0.106669l-0.853331 0c-0.0589094,0 -0.106669,-0.0477598 -0.106669,-0.106669l0 -0.426669c0,-0.0589094 0.0477598,-0.106669 0.106669,-0.106669z"/>
  <path class="fil0" d="M3.86216 5.12658l-0.238634 0c-0.0735039,0 -0.140256,-0.0299961 -0.188587,-0.0783268 -0.0483228,-0.0483228 -0.0783228,-0.115083 -0.0783228,-0.188591l0 -1.87957c0,-0.0589094 0.0477598,-0.106669 0.106669,-0.106669l0.525953 0c0.0589094,0 0.106669,0.0477598 0.106669,0.106669l0 1.91274c0,0.0643858 -0.0262717,0.122854 -0.0685827,0.165169 -0.042315,0.042311 -0.100776,0.0685827 -0.165165,0.0685827zm-0.238634 -0.213339l0.238634 0c0.00549606,0 0.0105827,-0.00233071 0.0143307,-0.00607874 0.00374803,-0.00374803 0.00607874,-0.00883465 0.00607874,-0.0143346l0 -1.80607 -0.312614 0 0 1.77291c0,0.014622 0.00605906,0.0279961 0.0158189,0.0377559 0.00975984,0.00975984 0.0231339,0.0158228 0.037752,0.0158228z"/>
  <path class="fil0" d="M4.47292 2.65668l-0.213327 0 0 0.213331 0.213327 0 0 -0.213331zm-0.319996 -0.213339l0.426665 0c0.0589094,0 0.106669,0.0477598 0.106669,0.106669l0 0.426669c0,0.0589094 -0.0477598,0.106669 -0.106669,0.106669l-0.426665 0c-0.0589094,0 -0.106669,-0.0477598 -0.106669,-0.106669l0 -0.426669c0,-0.0589094 0.0477598,-0.106669 0.106669,-0.106669z"/>
  <path class="fil0" d="M3.36668 4.67051c-0.0545354,0.0218583 -0.0810276,0.0837992 -0.0591693,0.138335 0.0218583,0.0545354 0.0837992,0.0810276 0.138335,0.0591693l0.64 -0.258575c0.0545354,-0.0218583 0.0810276,-0.0837992 0.0591693,-0.138335 -0.0218583,-0.0545354 -0.0837992,-0.0810276 -0.138335,-0.0591693l-0.64 0.258575z"/>
  <path class="fil0" d="M3.36668 4.28116c-0.0545354,0.0218583 -0.0810276,0.0837992 -0.0591693,0.138335 0.0218583,0.0545354 0.0837992,0.0810276 0.138335,0.0591693l0.64 -0.258575c0.0545354,-0.0218583 0.0810276,-0.0837992 0.0591693,-0.138335 -0.0218583,-0.0545354 -0.0837992,-0.0810276 -0.138335,-0.0591693l-0.64 0.258575z"/>
  <path class="fil0" d="M3.36668 3.89181c-0.0545354,0.0218583 -0.0810276,0.0837992 -0.0591693,0.138335 0.0218583,0.0545354 0.0837992,0.0810276 0.138335,0.0591693l0.64 -0.258575c0.0545354,-0.0218583 0.0810276,-0.0837992 0.0591693,-0.138335 -0.0218583,-0.0545354 -0.0837992,-0.0810276 -0.138335,-0.0591693l-0.64 0.258575z"/>
  <path class="fil0" d="M5.33981 3.42508l0.28685 0.165614 0.293209 0.169283 0.000125984 -0.000220472c0.0346299,0.0199921 0.0537992,0.0564803 0.0533346,0.093811l0 0.33728 0 0.338713c0,0.0422087 -0.0245236,0.078689 -0.0600945,0.0959843l-0.286575 0.165457 -0.293335 0.169358 -0.0533346 -0.0920827 0.0533346 0.092378c-0.0365472,0.0210984 -0.0803898,0.0181102 -0.113154,-0.00403937l-0.28685 -0.165614 -0.293209 -0.169283 -0.000125984 0.000220472c-0.0346299,-0.0199921 -0.0537992,-0.0564803 -0.0533346,-0.093811l0 -0.33728 0 -0.338713c0,-0.0422087 0.0245236,-0.078689 0.0600945,-0.0959843l0.286575 -0.165457 0.293335 -0.169358 0.0533346 0.0920827 -0.0533346 -0.092378c0.0365472,-0.0210984 0.0803898,-0.0181102 0.113154,0.00403937zm0.180181 0.34978l-0.24 -0.138567 -0.24 0.138567 -0.24 0.138567 0 0.277421 0 0.277421 0.24 0.138567 0.24 0.138567 0.24 -0.138567 0.24 -0.138567 0 -0.277421 0 -0.277421 -0.24 -0.138567z"/>
  <path class="fil0" d="M5.28 3.81752c0.103087,0 0.196425,0.0417953 0.263984,0.10935 0.0675591,0.0675591 0.10935,0.160898 0.10935,0.263984 0,0.103087 -0.0417913,0.196425 -0.10935,0.263984 -0.0675591,0.0675591 -0.160898,0.10935 -0.263984,0.10935 -0.103087,0 -0.196425,-0.0417913 -0.263984,-0.10935 -0.0675551,-0.0675591 -0.10935,-0.160898 -0.10935,-0.263984 0,-0.103087 0.0417953,-0.196425 0.10935,-0.263984 0.0675591,-0.0675551 0.160898,-0.10935 0.263984,-0.10935zm0.188567 0.184768c-0.048252,-0.048248 -0.114925,-0.0780984 -0.188567,-0.0780984 -0.0736417,0 -0.140315,0.0298504 -0.188567,0.0780984 -0.048248,0.048252 -0.0780984,0.114925 -0.0780984,0.188567 0,0.0736417 0.0298504,0.140315 0.0780984,0.188567 0.048252,0.048252 0.114925,0.0780984 0.188567,0.0780984 0.0736417,0 0.140315,-0.0298465 0.188567,-0.0780984 0.048252,-0.048252 0.0780984,-0.114925 0.0780984,-0.188567 0,-0.0736417 -0.0298465,-0.140315 -0.0780984,-0.188567z"/>
  <rect class="fil1" width="6.82666" height="6.82666"/>
 </g>
</svg>
