<?xml version="1.0" encoding="UTF-8"?>
<!DOCTYPE svg PUBLIC "-//W3C//DTD SVG 1.1//EN" "http://www.w3.org/Graphics/SVG/1.1/DTD/svg11.dtd">
<!-- Creator: CorelDRAW -->
<svg xmlns="http://www.w3.org/2000/svg" xml:space="preserve" width="6.82666in" height="6.82666in" style="shape-rendering:geometricPrecision; text-rendering:geometricPrecision; image-rendering:optimizeQuality; fill-rule:evenodd; clip-rule:evenodd"
viewBox="0 0 6.82666 6.82666"
 xmlns:xlink="http://www.w3.org/1999/xlink">
 <defs>
  <style type="text/css">
   <![CDATA[
    .fil1 {fill:none}
    .fil0 {fill:#212121;fill-rule:nonzero}
   ]]>
  </style>
 </defs>
 <g id="Layer_x0020_1">
  <metadata id="CorelCorpID_0Corel-Layer"/>
  <path class="fil0" d="M1.87189 2.12931l3.09331 0c0.0589094,0 0.106669,0.0477598 0.106669,0.106669l0 3.68771c0,0.0589094 -0.0477598,0.106669 -0.106669,0.106669l-3.09331 0c-0.0589094,0 -0.106669,-0.0477598 -0.106669,-0.106669l0 -3.68771c0,-0.0589094 0.0477598,-0.106669 0.106669,-0.106669zm2.98664 0.213339l-2.87997 0 0 3.47437 2.87997 0 0 -3.47437z"/>
  <path class="fil0" d="M1.97856 2.94084l0 0.243051c0,0.0589094 -0.0477598,0.106669 -0.106669,0.106669 -0.0965591,0 -0.183992,-0.0391496 -0.247283,-0.102441 -0.0632913,-0.0632913 -0.102441,-0.15072 -0.102441,-0.24728 0,-0.0965591 0.0391496,-0.183992 0.102441,-0.247283 0.0632913,-0.0632913 0.150724,-0.102441 0.247283,-0.102441 0.0589094,0 0.106669,0.0477598 0.106669,0.106669l0 0.243055zm-0.213339 0.0850079l0 -0.0850079 0 -0.0850118c-0.0185984,0.0233071 -0.0297165,0.0528622 -0.0297165,0.0850118 0,0.0321496 0.0111181,0.0617008 0.0297165,0.0850079z"/>
  <path class="fil0" d="M5.07186 2.94084l0 0.0850079c0.0185984,-0.0233071 0.0297165,-0.0528583 0.0297165,-0.0850079 0,-0.0321496 -0.0111181,-0.0617047 -0.0297165,-0.0850118l0 0.0850118zm-0.213339 0.243051l0 -0.243051 0 -0.243055c0,-0.0589094 0.0477598,-0.106669 0.106669,-0.106669 0.0965591,0 0.183992,0.0391496 0.247283,0.102441 0.0632913,0.0632913 0.102441,0.150724 0.102441,0.247283 0,0.0965591 -0.0391496,0.183988 -0.102441,0.24728 -0.0632913,0.0632913 -0.150724,0.102441 -0.247283,0.102441 -0.0589094,0 -0.106669,-0.0477598 -0.106669,-0.106669z"/>
  <path class="fil0" d="M1.57076 2.95322c0.0126535,0.0265787 0.0444646,0.0378622 0.0710433,0.0252087 0.0265787,-0.0126535 0.0378622,-0.0444646 0.0252087,-0.0710433 -0.038626,-0.0808858 -0.0677559,-0.163807 -0.0871339,-0.247728 -0.0193583,-0.0838346 -0.0291575,-0.169323 -0.0291575,-0.255449 0,-0.397409 0.206571,-0.757976 0.540543,-1.01966 0.337673,-0.264583 0.805051,-0.42824 1.32207,-0.42824 0.51702,0 0.984398,0.163657 1.32207,0.42824 0.333972,0.261685 0.540543,0.622252 0.540543,1.01966 0,0.0818346 -0.00891339,0.163307 -0.0265354,0.243512 -0.0176614,0.080374 -0.0440709,0.159587 -0.0790197,0.236744 -0.0120787,0.0268071 -0.000141732,0.0583346 0.0266654,0.0704134 0.0268071,0.0120787 0.0583346,0.000141732 0.0704134,-0.0266654 0.0380787,-0.084063 0.0668543,-0.17039 0.0861063,-0.257996 0.0192874,-0.0877795 0.0290394,-0.176772 0.0290394,-0.266008 0,-0.431697 -0.222335,-0.821756 -0.581795,-1.10341 -0.355752,-0.278748 -0.846358,-0.451161 -1.38749,-0.451161 -0.54113,0 -1.03174,0.172413 -1.38749,0.451161 -0.359461,0.281654 -0.581795,0.671713 -0.581795,1.10341 0,0.0935236 0.0107795,0.186965 0.0320787,0.279197 0.0212756,0.0921417 0.0529134,0.182457 0.0946299,0.269815z"/>
  <path class="fil0" d="M4.8047 2.27681c0.0225512,-0.018752 0.0256299,-0.0522402 0.00687795,-0.0747913 -0.018752,-0.0225512 -0.0522402,-0.0256299 -0.0747913,-0.00687795 -0.587583,0.48763 -0.470799,0.690732 -0.245252,1.08297 0.042311,0.0735866 0.0887638,0.154366 0.134484,0.245504 0.0349252,0.069626 0.0612992,0.155429 0.0703858,0.243465 0.00847638,0.0821142 0.00169291,0.165516 -0.0277008,0.238047 -0.0282992,0.0698346 -0.0782008,0.130094 -0.156681,0.169461 -0.0469724,0.023563 -0.104563,0.0400551 -0.174319,0.0472559 -0.210594,0.0217362 -0.282598,-0.0795157 -0.298295,-0.231567 -0.0122362,-0.118551 0.00581102,-0.269114 0.0239567,-0.42052 0.0156142,-0.13026 0.0313031,-0.261154 0.0285591,-0.379862 -0.00572047,-0.247346 -0.0877323,-0.430736 -0.391665,-0.423709 -0.189575,0.00438189 -0.244587,0.106291 -0.241201,0.252843 0.00214567,0.0927913 0.030626,0.201709 0.0596969,0.31289 0.0289134,0.110583 0.0584528,0.223551 0.0602874,0.315358 0.00225984,0.113224 -0.044437,0.196508 -0.213472,0.199886 -0.218445,0.00435827 -0.290406,-0.0954173 -0.293354,-0.243161 -0.00304331,-0.152579 0.0589094,-0.357594 0.120087,-0.560051 0.0903071,-0.298835 0.179028,-0.592453 0.0678701,-0.756303 -0.0282402,-0.0416339 -0.065815,-0.0688189 -0.107429,-0.0832283 -0.0364055,-0.0126024 -0.0753504,-0.0151654 -0.113287,-0.00887402 -0.0371102,0.00615748 -0.0736102,0.0208071 -0.106024,0.0427953 -0.0458543,0.0311024 -0.0836811,0.0770787 -0.103618,0.134689 -0.044122,0.127472 -0.0147559,0.269882 0.0118346,0.398839 0.0135866,0.0658819 0.026374,0.127898 0.026374,0.178106 0,0.0643543 -0.0298976,0.107669 -0.138949,0.107669 -0.068189,0 -0.0832835,-0.0663425 -0.0832835,-0.160287 0,-0.0469488 0.00344882,-0.0981024 0.00705512,-0.15165 0.012248,-0.181803 0.0262165,-0.38922 -0.0738425,-0.539311 -0.0163346,-0.0245039 -0.0494528,-0.031126 -0.0739567,-0.0147913 -0.0245039,0.0163346 -0.031126,0.0494528 -0.0147913,0.0739567 0.0801102,0.120165 0.0674409,0.308224 0.0563386,0.473059 -0.00382283,0.0567126 -0.00747244,0.110898 -0.00747244,0.158736 0,0.156461 0.0344291,0.266957 0.189953,0.266957 0.192772,0 0.245618,-0.0862205 0.245618,-0.214339 0,-0.0593189 -0.0140039,-0.12722 -0.028878,-0.199358 -0.0238268,-0.115555 -0.0501417,-0.243165 -0.0155827,-0.343004 0.012,-0.0346811 0.0349331,-0.0624646 0.0627835,-0.0813583 0.0195079,-0.0132323 0.041378,-0.0220354 0.0635276,-0.0257087 0.0213031,-0.0035315 0.0425276,-0.00231496 0.0616181,0.00429134 0.020685,0.00716142 0.0395827,0.0209921 0.0540984,0.0423937 0.0824567,0.121539 0.000937008,0.391315 -0.0820354,0.665886 -0.0634291,0.209906 -0.127661,0.422465 -0.12426,0.592972 0.00420472,0.210831 0.102787,0.353295 0.401693,0.347327 0.251685,-0.00502756 0.321122,-0.133496 0.317638,-0.308224 -0.00209055,-0.104598 -0.033189,-0.223524 -0.063626,-0.339941 -0.0275354,-0.105307 -0.0545157,-0.208472 -0.0563583,-0.288307 -0.00193307,-0.0837677 0.029315,-0.142016 0.137035,-0.144504 0.219622,-0.00507874 0.27902,0.133165 0.283327,0.319543 0.00252756,0.109402 -0.0128465,0.237657 -0.0281417,0.36528 -0.0187953,0.156819 -0.0374882,0.312756 -0.0239567,0.44385 0.0221024,0.214091 0.122354,0.356772 0.414965,0.326567 0.082874,-0.00855118 0.152693,-0.0288504 0.21098,-0.0580906 0.104315,-0.0523268 0.170512,-0.132106 0.207933,-0.224461 0.0363307,-0.0896457 0.0449291,-0.19063 0.0347874,-0.288882 -0.0104134,-0.10089 -0.0408543,-0.19965 -0.0812205,-0.280126 -0.0470394,-0.0937717 -0.0943307,-0.176012 -0.137406,-0.250921 -0.196173,-0.341157 -0.297752,-0.517807 0.221087,-0.948386z"/>
  <rect class="fil1" width="6.82666" height="6.82666"/>
 </g>
</svg>
