<?xml version="1.0" encoding="UTF-8"?>
<!DOCTYPE svg PUBLIC "-//W3C//DTD SVG 1.1//EN" "http://www.w3.org/Graphics/SVG/1.1/DTD/svg11.dtd">
<!-- Creator: CorelDRAW -->
<svg xmlns="http://www.w3.org/2000/svg" xml:space="preserve" width="6.82666in" height="6.82666in" style="shape-rendering:geometricPrecision; text-rendering:geometricPrecision; image-rendering:optimizeQuality; fill-rule:evenodd; clip-rule:evenodd"
viewBox="0 0 6.82666 6.82666"
 xmlns:xlink="http://www.w3.org/1999/xlink">
 <defs>
  <style type="text/css">
   <![CDATA[
    .fil1 {fill:none}
    .fil0 {fill:#212121;fill-rule:nonzero}
   ]]>
  </style>
 </defs>
 <g id="Layer_x0020_1">
  <metadata id="CorelCorpID_0Corel-Layer"/>
  <path class="fil0" d="M3.18897 1.72567l1.83683 1.90241c0.106697,0.0140709 0.215394,0.0478819 0.320142,0.10061 0.11187,0.0563189 0.219343,0.134508 0.314941,0.233524 0.388866,0.402748 0.292681,0.982248 0.0630984,1.41309 -0.0621654,0.116665 -0.133906,0.222343 -0.208055,0.310287 -0.0765394,0.0907835 -0.156882,0.164236 -0.233508,0.213331 -0.147724,0.0946339 -0.28826,0.10628 -0.388933,0.00201181 -0.124567,-0.129008 -0.215866,-0.286976 -0.318972,-0.465382 -0.126382,-0.218669 -0.271563,-0.46987 -0.514906,-0.721902l-1.91857 -1.98706 -0.000204724 0.00019685c-0.0409173,-0.042378 -0.0397323,-0.109909 0.00264567,-0.150827 0.0018937,-0.00183071 0.00384252,-0.00357087 0.00583071,-0.00523228l0.883799 -0.853331 -0.00019685 -0.000204724c0.042378,-0.0409173 0.109909,-0.0397323 0.150827,0.00264567 0.00183071,0.0018937 0.00357087,0.00383858 0.00523228,0.00583071zm1.78726 2.00423l-0.0766654 0.073752 -1.7952 -1.8593 -0.736374 0.710984 1.84494 1.91081c0.261362,0.270697 0.413398,0.533748 0.54574,0.762736 0.096311,0.166646 0.181591,0.314201 0.288138,0.424547 0.017752,0.0183858 0.0627362,0.00339764 0.120602,-0.0336732 0.0589449,-0.0377638 0.122949,-0.096878 0.186004,-0.171669 0.0654409,-0.0776181 0.128575,-0.170543 0.183055,-0.272783 0.193449,-0.363035 0.280815,-0.844791 -0.0289252,-1.16559 -0.0783189,-0.0811181 -0.166165,-0.145075 -0.257445,-0.191028 -0.0920906,-0.0463583 -0.187587,-0.0740945 -0.280004,-0.0823031 -0.0258386,-0.00148031 -0.0512087,-0.0123071 -0.0706024,-0.0323937l0.0767362 -0.0740906z"/>
  <path class="fil0" d="M5.05541 3.81204c0.0211693,-0.0203622 0.0218228,-0.0540394 0.00146063,-0.0752087 -0.0203622,-0.0211693 -0.0540394,-0.0218228 -0.0752087,-0.00146063l-0.889433 0.858768c-0.0211693,0.0203622 -0.0218228,0.0540394 -0.00146063,0.0752087 0.0203622,0.0211693 0.0540394,0.0218228 0.0752087,0.00146063l0.889433 -0.858768z"/>
  <path class="fil0" d="M2.57934 2.30354c-0.0203622,-0.0211693 -0.0540394,-0.0218228 -0.0752087,-0.00146063 -0.0211693,0.0203622 -0.0218228,0.0540394 -0.00146063,0.0752087l1.8932 1.9608c0.0203622,0.0211693 0.0540394,0.0218228 0.0752087,0.00146063 0.0211693,-0.0203622 0.0218228,-0.0540394 0.00146063,-0.0752087l-1.8932 -1.9608z"/>
  <path class="fil0" d="M2.82191 2.06933c-0.0203622,-0.0211693 -0.0540394,-0.0218228 -0.0752087,-0.00146063 -0.0211693,0.0203622 -0.0218228,0.0540394 -0.00146063,0.0752087l1.89321 1.9608c0.0203622,0.0211693 0.0540394,0.0218228 0.0752087,0.00146063 0.0211693,-0.0203622 0.0218228,-0.0540394 0.00146063,-0.0752087l-1.89321 -1.9608z"/>
  <path class="fil0" d="M2.12825 1.03161l0.847457 0.877709 0.000204724 -0.00019685c0.0409173,0.042378 0.0397323,0.109909 -0.00264567,0.150827 -0.0018937,0.00183071 -0.00384252,0.00357087 -0.00583071,0.00523228l-0.479512 0.46298 0.00019685 0.000204724c-0.042378,0.0409173 -0.109909,0.0397323 -0.150827,-0.00264567 -0.00183071,-0.0018937 -0.00357087,-0.00383858 -0.00523228,-0.00583071l-1.39982 -1.4498 -0.000204724 0.00019685c-0.0409173,-0.042378 -0.0397323,-0.109909 0.00264567,-0.150827 0.0174843,-0.0168819 0.039248,-0.0265866 0.0616614,-0.0292008 0.166772,-0.0254764 0.336008,-0.0442087 0.515787,-0.0337913 0.183992,0.0106654 0.375142,0.0516772 0.578941,0.146524l1.9685e-005 -3.93701e-005c0.0148543,0.00691339 0.0273661,0.016815 0.0371575,0.0286535zm0.620504 0.948965l-0.764772 -0.792075c-0.170925,-0.077 -0.330488,-0.110654 -0.48352,-0.119524 -0.0900866,-0.00522047 -0.179118,-0.00192126 -0.267551,0.00620866l1.18376 1.22602 0.332087 -0.320634z"/>
  <path class="fil0" d="M2.14035 1.55425c0.0293386,0.00046063 0.0535,-0.0229528 0.0539606,-0.0522913 0.00046063,-0.0293386 -0.0229528,-0.0535 -0.0522913,-0.0539606l-0.329555 -0.00577953c-0.0293386,-0.00046063 -0.0535,0.0229528 -0.0539606,0.0522913 -0.00046063,0.0293386 0.0229528,0.0535 0.0522913,0.0539606l0.329555 0.00577953z"/>
  <path class="fil0" d="M2.29865 1.7182c0.0293386,0.00046063 0.0535,-0.0229528 0.0539606,-0.0522913 0.00046063,-0.0293386 -0.0229528,-0.0535 -0.0522913,-0.0539606l-0.329555 -0.00577953c-0.0293386,-0.00046063 -0.0535,0.0229528 -0.0539606,0.0522913 -0.00046063,0.0293386 0.0229528,0.0535 0.0522913,0.0539606l0.329555 0.00577953z"/>
  <path class="fil0" d="M2.45694 1.88215c0.0293386,0.00046063 0.0535,-0.0229528 0.0539606,-0.0522913 0.00046063,-0.0293386 -0.0229528,-0.0535 -0.0522913,-0.0539606l-0.329555 -0.00577953c-0.0293386,-0.00046063 -0.0535,0.0229528 -0.0539606,0.0522913 -0.00046063,0.0293386 0.0229528,0.0535 0.0522913,0.0539606l0.329555 0.00577953z"/>
  <path class="fil0" d="M4.08698 3.18816l0.372906 0.386217 0.000204724 -0.00019685c0.0409173,0.042378 0.0397323,0.109909 -0.00264567,0.150827 -0.0018937,0.00183071 -0.00384252,0.00357087 -0.00583071,0.00523228l-0.351701 0.339579 0.00019685 0.000204724c-0.042378,0.0409173 -0.109909,0.0397323 -0.150827,-0.00264567 -0.00183071,-0.0018937 -0.00357087,-0.00383858 -0.00523228,-0.00583071l-0.372906 -0.386217 -0.000204724 0.00019685c-0.0409173,-0.042378 -0.0397323,-0.109909 0.00264567,-0.150827 0.0018937,-0.00183071 0.00384252,-0.00357087 0.00583071,-0.00523228l0.351701 -0.339579 -0.00019685 -0.000204724c0.042378,-0.0409173 0.109909,-0.0397323 0.150827,0.00264567 0.00183071,0.0018937 0.00357087,0.00383858 0.00523228,0.00583071zm0.145953 0.457472l-0.230559 -0.238791 -0.204276 0.197232 0.230559 0.238791 0.204276 -0.197232z"/>
  <rect class="fil1" width="6.82666" height="6.82666"/>
 </g>
</svg>
