<?xml version="1.0" encoding="UTF-8"?>
<!DOCTYPE svg PUBLIC "-//W3C//DTD SVG 1.1//EN" "http://www.w3.org/Graphics/SVG/1.1/DTD/svg11.dtd">
<!-- Creator: CorelDRAW -->
<svg xmlns="http://www.w3.org/2000/svg" xml:space="preserve" width="6.82666in" height="6.82666in" style="shape-rendering:geometricPrecision; text-rendering:geometricPrecision; image-rendering:optimizeQuality; fill-rule:evenodd; clip-rule:evenodd"
viewBox="0 0 6.82666 6.82666"
 xmlns:xlink="http://www.w3.org/1999/xlink">
 <defs>
  <style type="text/css">
   <![CDATA[
    .fil1 {fill:none}
    .fil0 {fill:#212121;fill-rule:nonzero}
   ]]>
  </style>
 </defs>
 <g id="Layer_x0020_1">
  <metadata id="CorelCorpID_0Corel-Layer"/>
  <path class="fil0" d="M2.06512 1.42773l0 0.904878c0,0.163642 0.030752,0.320059 0.0866339,0.463551 0.058315,0.149728 0.143791,0.285937 0.250098,0.402142 0.107114,0.117083 0.235634,0.213807 0.379138,0.283594 0.138413,0.067315 0.29065,0.109343 0.450882,0.120134 0.0917126,0.00616142 0.193185,0.00455512 0.292165,0.00299213l-3.93701e-006 -3.93701e-005c-0.0043937,-3.54331e-005 -0.0083937,-9.44882e-005 0,-0.000145669l-3.93701e-006 -0.000216535 0.00030315 0 0 -3.93701e-006c0.00272835,-4.33071e-005 0.00543307,2.3622e-005 0.00811024,0.000181102 0.0152677,-5.11811e-005 0.0462323,-8.66142e-005 0.105382,-8.66142e-005 0.106614,0 0.208618,0.0208661 0.30189,0.0586024 0.0965197,0.0390551 0.183551,0.0964646 0.256488,0.167744 0.0717323,0.0700984 0.129583,0.153748 0.169035,0.246528 0.0382874,0.0900315 0.0594528,0.188232 0.0594528,0.290583 0,0.102512 -0.0210827,0.200343 -0.0590276,0.28989 -0.0395236,0.0932717 -0.0972126,0.176614 -0.16828,0.246067 -0.0734094,0.0717441 -0.16089,0.129295 -0.257374,0.168472 -0.0937992,0.0380866 -0.196071,0.0590276 -0.302185,0.0590276l-0.967295 0 0 0.485728 0.967295 0c0.170012,0 0.333713,-0.0336654 0.483756,-0.0948898 0.155091,-0.0632913 0.295646,-0.155909 0.413543,-0.271126 0.117969,-0.115283 0.213547,-0.25298 0.278799,-0.4065 0.0620354,-0.145949 0.0964961,-0.306728 0.0964961,-0.476669 0,-0.16902 -0.0345472,-0.330126 -0.0970472,-0.476921 -0.0652913,-0.153354 -0.160917,-0.291583 -0.279429,-0.407402 -0.117354,-0.114689 -0.257366,-0.207264 -0.41265,-0.270524 -0.149134,-0.0607559 -0.312476,-0.0943386 -0.483469,-0.0943386 -0.0303937,0 -0.0352795,0.00015748 -0.0425394,0.000393701 -0.014248,0.000464567 -0.0332835,0.00108661 -0.0772441,0.00179134l1.1811e-005 0.000393701 -0.00131102 2.3622e-005 0 3.93701e-006 -0.000354331 0c-0.00308268,4.33071e-005 -0.0061378,-3.54331e-005 -0.00915748,-0.000251969 -0.0801417,0.00125984 -0.162126,0.00229921 -0.243106,-0.0031378 -0.0980945,-0.0066063 -0.191126,-0.0322992 -0.275524,-0.0734291 -0.0863937,-0.0421024 -0.164386,-0.101051 -0.230043,-0.172815 -0.0659567,-0.0720984 -0.118728,-0.15663 -0.15437,-0.249559 -0.0344094,-0.0897126 -0.0533425,-0.1875 -0.0533425,-0.289787l0 -0.904878 -0.485724 0zm-0.213339 0.904878l0 -1.01155c0,-0.0589094 0.0477598,-0.106669 0.106669,-0.106669l0.699063 0c0.0589094,0 0.106669,0.0477598 0.106669,0.106669l0 1.01155c0,0.0758976 0.0139055,0.148079 0.0391693,0.213953 0.0263622,0.0687323 0.0645945,0.130382 0.111874,0.182063 0.0467598,0.0511102 0.103268,0.093563 0.166705,0.124476 0.0605551,0.0295118 0.126878,0.0479134 0.196358,0.0525945 0.0775197,0.00520472 0.152504,0.00427559 0.225677,0.0031378 0.00120472,-0.000122047 0.00241339,-0.000220472 0.00362992,-0.00030315l0.000507874 -3.54331e-005 0.00204724 -0.000110236 0.000870079 -3.54331e-005 0.000755906 -3.14961e-005 0 7.87402e-006 0.00157874 -4.33071e-005 0.00169291 0.106654 -0.00166535 -0.106252c0.0384173,-0.000606299 0.0594921,-0.00129921 0.0752323,-0.00181102 0.0226575,-0.00073622 0.0376732,-0.00122835 0.0492087,-0.00122835 0.198917,0 0.389303,0.0392205 0.563469,0.110173 0.180756,0.0736339 0.343957,0.181614 0.48098,0.315524 0.138701,0.135551 0.250583,0.297248 0.326933,0.476575 0.0737717,0.173268 0.114551,0.362579 0.114551,0.560252 0,0.19863 -0.0407126,0.387579 -0.114,0.56 -0.0763268,0.179575 -0.188193,0.340705 -0.326303,0.475673 -0.13761,0.134484 -0.301386,0.242472 -0.481874,0.316126 -0.175083,0.0714409 -0.365866,0.110724 -0.563756,0.110724l-1.02974 0c-0.00746457,0 -0.0170984,-0.000374016 -0.0288465,-0.00111024 -0.00524409,-0.000326772 -0.0115118,-0.000905512 -0.0187717,-0.00172441 -0.0573346,-0.00179528 -0.103272,-0.0488386 -0.103272,-0.10661l0 -0.693035c-0.00030315,-0.0531969 0.0391732,-0.0994567 0.0932756,-0.106303l0.0133937 0.105823 -0.0133346 -0.105417c0.0116024,-0.0014685 0.0212047,-0.00244882 0.0287087,-0.00291732 0.011748,-0.00073622 0.0213819,-0.00111024 0.0288465,-0.00111024l1.02974 0c0.0783661,0 0.153547,-0.0153228 0.222185,-0.0431929 0.071185,-0.0289055 0.135437,-0.0710827 0.189043,-0.123472 0.0512559,-0.0500945 0.0926693,-0.10974 0.120776,-0.176067 0.0266929,-0.0629921 0.0415236,-0.132917 0.0415236,-0.207386 0,-0.0737244 -0.014937,-0.143728 -0.0419488,-0.207252 -0.0284173,-0.0668268 -0.0700118,-0.127008 -0.121531,-0.177354 -0.0531496,-0.0519409 -0.116984,-0.0939449 -0.188157,-0.122744 -0.0680669,-0.0275394 -0.14302,-0.0427677 -0.22189,-0.0427677 -0.00327165,0 -0.0749528,-0.000362205 -0.102858,-0.000496063 -0.0024252,0.000200787 -0.00487795,0.000330709 -0.00735039,0.000370079l0 -3.93701e-006 -0.000208661 7.87402e-006 -0.000688976 -0.0435039 3.14961e-005 0.0026378 0.000633858 0.0404646c-0.10598,0.00167717 -0.214626,0.0033937 -0.309677,-0.00299213 -0.188134,-0.0126693 -0.366815,-0.0619882 -0.52922,-0.140969 -0.167413,-0.0814173 -0.317697,-0.194634 -0.443303,-0.331933 -0.124165,-0.135724 -0.223882,-0.294516 -0.29176,-0.468803 -0.065563,-0.16835 -0.101642,-0.350693 -0.101642,-0.54022z"/>
  <path class="fil0" d="M2.19613 4.7754l0.367728 0c0.0589094,0 0.106669,0.0477598 0.106669,0.106669l0 0.991264c0,0.0589094 -0.0477598,0.106669 -0.106669,0.106669l-0.367728 0c-0.0589094,0 -0.106669,-0.0477598 -0.106669,-0.106669l0 -0.991264c0,-0.0589094 0.0477598,-0.106669 0.106669,-0.106669zm0.261059 0.213339l-0.15439 0 0 0.777925 0.15439 0 0 -0.777925z"/>
  <path class="fil0" d="M1.70291 1.32106l0 -0.367728c0,-0.0589094 0.0477598,-0.106669 0.106669,-0.106669l0.991268 0c0.0589094,0 0.106669,0.0477598 0.106669,0.106669l0 0.367728c0,0.0589094 -0.0477598,0.106669 -0.106669,0.106669l-0.991268 0c-0.0589094,0 -0.106669,-0.0477598 -0.106669,-0.106669zm0.213339 -0.261059l0 0.15439 0.777929 0 0 -0.15439 -0.777929 0z"/>
  <path class="fil0" d="M2.03854 2.08737c-0.0294528,0 -0.0533346,0.0238819 -0.0533346,0.0533346 0,0.0294528 0.0238819,0.0533346 0.0533346,0.0533346l0.533335 0c0.0294528,0 0.0533346,-0.0238819 0.0533346,-0.0533346 0,-0.0294528 -0.0238819,-0.0533346 -0.0533346,-0.0533346l-0.533335 0z"/>
  <path class="fil0" d="M2.03854 1.8913c-0.0294528,0 -0.0533346,0.0238819 -0.0533346,0.0533346 0,0.0294528 0.0238819,0.0533346 0.0533346,0.0533346l0.533335 0c0.0294528,0 0.0533346,-0.0238819 0.0533346,-0.0533346 0,-0.0294528 -0.0238819,-0.0533346 -0.0533346,-0.0533346l-0.533335 0z"/>
  <path class="fil0" d="M4.36357 4.43404c-0.0294528,0 -0.0533346,0.0238819 -0.0533346,0.0533346 0,0.0294528 0.0238819,0.0533346 0.0533346,0.0533346l0.533335 0c0.0294528,0 0.0533346,-0.0238819 0.0533346,-0.0533346 0,-0.0294528 -0.0238819,-0.0533346 -0.0533346,-0.0533346l-0.533335 0z"/>
  <path class="fil0" d="M4.36357 4.23796c-0.0294528,0 -0.0533346,0.0238819 -0.0533346,0.0533346 0,0.0294528 0.0238819,0.0533346 0.0533346,0.0533346l0.533335 0c0.0294528,0 0.0533346,-0.0238819 0.0533346,-0.0533346 0,-0.0294528 -0.0238819,-0.0533346 -0.0533346,-0.0533346l-0.533335 0z"/>
  <rect class="fil1" width="6.82666" height="6.82666"/>
 </g>
</svg>
