<?xml version="1.0" encoding="UTF-8"?>
<!DOCTYPE svg PUBLIC "-//W3C//DTD SVG 1.1//EN" "http://www.w3.org/Graphics/SVG/1.1/DTD/svg11.dtd">
<!-- Creator: CorelDRAW -->
<svg xmlns="http://www.w3.org/2000/svg" xml:space="preserve" width="6.82666in" height="6.82666in" style="shape-rendering:geometricPrecision; text-rendering:geometricPrecision; image-rendering:optimizeQuality; fill-rule:evenodd; clip-rule:evenodd"
viewBox="0 0 6.82666 6.82666"
 xmlns:xlink="http://www.w3.org/1999/xlink">
 <defs>
  <style type="text/css">
   <![CDATA[
    .fil1 {fill:none}
    .fil0 {fill:#212121;fill-rule:nonzero}
   ]]>
  </style>
 </defs>
 <g id="Layer_x0020_1">
  <metadata id="CorelCorpID_0Corel-Layer"/>
  <path class="fil0" d="M1.51515 0.86789c0.209882,0.0987362 0.440587,0.235134 0.646941,0.370748 0.265161,0.174264 0.491799,0.348335 0.584598,0.441134 0.147315,0.147315 0.220976,0.340398 0.220976,0.533461 0,0.193071 -0.0736614,0.38615 -0.220976,0.533465 -0.147315,0.147315 -0.340394,0.220976 -0.533465,0.220976 -0.193063,0 -0.386146,-0.0736614 -0.533461,-0.220976 -0.0927992,-0.0927992 -0.266874,-0.319449 -0.441138,-0.584606 -0.13752,-0.209252 -0.275843,-0.443539 -0.374886,-0.655772l0.096252 -0.045 -0.0966614 0.0451102c-0.0199134,-0.0426693 -0.00915748,-0.0917835 0.0232205,-0.122504l0.499346 -0.499343 -7.87402e-006 -7.87402e-006c0.0350394,-0.0350394 0.0884016,-0.0405984 0.12926,-0.016685zm0.530272 0.548252c-0.179453,-0.117937 -0.37752,-0.236248 -0.561878,-0.327535l-0.394945 0.394941c0.0912874,0.184358 0.209594,0.382421 0.327531,0.561874 0.165161,0.251303 0.328539,0.464512 0.414469,0.550441 0.105646,0.105646 0.244134,0.158472 0.382626,0.158472 0.138492,0 0.276984,-0.0528268 0.38263,-0.158472 0.105646,-0.105646 0.158472,-0.244138 0.158472,-0.38263 0,-0.138492 -0.0528268,-0.27698 -0.158472,-0.382626 -0.0859252,-0.0859252 -0.299126,-0.249307 -0.550433,-0.414465z"/>
  <path class="fil0" d="M1.28607 1.13524c-0.0416496,-0.0416496 -0.109185,-0.0416496 -0.150835,0 -0.0416496,0.0416496 -0.0416496,0.109185 0,0.150835l0.698555 0.698555c0.0416496,0.0416496 0.109185,0.0416496 0.150835,0 0.0416496,-0.0416496 0.0416496,-0.109185 0,-0.150835l-0.698555 -0.698555z"/>
  <path class="fil0" d="M1.73914 1.92846l0.189917 -0.189917 -7.87402e-006 -7.87402e-006c0.0416535,-0.0416535 0.109197,-0.0416535 0.15085,0l0.000590551 0.000606299 0.316929 0.316925 7.87402e-006 -7.87402e-006c0.0416535,0.0416535 0.0416535,0.109197 0,0.15085l-0.000606299 0.000590551 -0.189917 0.189917 7.87402e-006 7.87402e-006c-0.0416535,0.0416535 -0.109197,0.0416535 -0.15085,0l-0.000590551 -0.000606299 -0.316929 -0.316925 -7.87402e-006 7.87402e-006c-0.0416535,-0.0416535 -0.0416535,-0.109197 0,-0.15085l0.000606299 -0.000590551zm0.265335 0.0363346l-0.0396811 0.0396811 0.166693 0.166689 0.0396811 -0.0396811 -0.166693 -0.166689z"/>
  <path class="fil0" d="M2.74975 2.74267c-0.0974094,0.106866 -0.12263,0.307331 -0.099815,0.514591 0.0260551,0.236681 0.114185,0.473839 0.230358,0.594106 0.262528,0.190996 0.568374,0.424906 0.861724,0.677343 0.29726,0.255799 0.581055,0.530488 0.793098,0.798756 0.120236,0.152118 0.127492,0.3105 0.0798189,0.431012 -0.0187362,0.0473543 -0.0465157,0.089252 -0.0798189,0.123091 -0.0350669,0.0356299 -0.0762795,0.0622874 -0.119902,0.0772913 -0.0888543,0.0305669 -0.184728,0.0162992 -0.262185,-0.0611575 -0.20189,-0.20189 -0.488339,-0.452004 -0.78735,-0.697988 -0.359874,-0.296051 -0.739626,-0.587811 -1.01446,-0.784339l0.0616654 -0.0866654 -0.0620433 0.0867677c-0.0056378,-0.0040315 -0.0107598,-0.00851969 -0.0153661,-0.0133661 -0.168898,-0.169854 -0.296831,-0.419457 -0.375583,-0.688059 -0.0830236,-0.283161 -0.112091,-0.590327 -0.0771496,-0.848083 0.00782283,-0.0582165 0.0613661,-0.0990748 0.119583,-0.091252 0.0582165,0.00782283 0.0990748,0.0613661 0.091252,0.119583 -0.0310236,0.228854 -0.00448425,0.504071 0.0704803,0.759752 0.068811,0.234689 0.177811,0.450425 0.319512,0.594453 0.276488,0.198146 0.656154,0.490102 1.01711,0.787043 0.30739,0.252878 0.600071,0.508205 0.803185,0.711319 0.0127047,0.0127047 0.0281024,0.0151654 0.042185,0.0103228 0.012937,-0.00444882 0.0257992,-0.0130039 0.0373976,-0.0247874 0.0133543,-0.0135709 0.024874,-0.0313228 0.0331575,-0.0522559 0.023126,-0.0584567 0.0169685,-0.138618 -0.0481575,-0.221012 -0.201803,-0.255315 -0.476,-0.520272 -0.76476,-0.768756 -0.287965,-0.247799 -0.591047,-0.479374 -0.85172,-0.668929 -0.00623228,-0.00402756 -0.0121378,-0.00876378 -0.0175984,-0.0142244l7.87402e-006 -7.87402e-006c-0.151382,-0.151382 -0.26485,-0.442638 -0.29611,-0.726626 -0.0288583,-0.262126 0.0114252,-0.524858 0.15398,-0.681252l0.157504 0.143331z"/>
  <path class="fil0" d="M2.59933 2.59225c0.156394,-0.142555 0.419126,-0.182839 0.681248,-0.15398 0.283992,0.0312598 0.575244,0.14472 0.72663,0.296106l7.87402e-006 -7.87402e-006c0.00546063,0.00546063 0.0101969,0.0113661 0.0142244,0.0175984 0.189555,0.260673 0.421126,0.563756 0.668929,0.851724 0.248484,0.28876 0.513441,0.562957 0.768756,0.76476 0.0823898,0.065122 0.162555,0.0712756 0.221008,0.0481535 0.020937,-0.00828346 0.0386811,-0.0197992 0.0522559,-0.0331575 0.0117835,-0.0115984 0.0203425,-0.0244646 0.0247913,-0.0374016 0.00484252,-0.0140787 0.00238189,-0.0294764 -0.0103228,-0.0421811 -0.203106,-0.203106 -0.458441,-0.495791 -0.711311,-0.803177 -0.296945,-0.360957 -0.588902,-0.740626 -0.787047,-1.01711 -0.147106,-0.144724 -0.369323,-0.255362 -0.610248,-0.323898 -0.261815,-0.0744764 -0.542047,-0.0984528 -0.770791,-0.0622047 -0.0579882,0.00920079 -0.112465,-0.0303465 -0.121665,-0.0883346 -0.00920079,-0.0579882 0.0303465,-0.112465 0.0883346,-0.121665 0.259433,-0.0411102 0.572902,-0.0151614 0.862453,0.0672047 0.275079,0.078248 0.531831,0.208091 0.705508,0.380787 0.00485039,0.00461024 0.00934252,0.00973228 0.013378,0.015378l-0.0867677 0.0620433 0.0866654 -0.0616654c0.196528,0.274835 0.488287,0.654583 0.784346,1.01446 0.24598,0.299008 0.496094,0.585457 0.69798,0.787343 0.0774528,0.0774528 0.0917283,0.173331 0.0611575,0.262181 -0.0150079,0.0436299 -0.0416693,0.0848425 -0.0772953,0.119906 -0.0338386,0.0333031 -0.0757283,0.0610827 -0.123091,0.0798189 -0.120504,0.0476732 -0.278894,0.0404173 -0.431008,-0.079815 -0.268268,-0.212043 -0.542957,-0.495839 -0.798756,-0.793098 -0.252437,-0.293354 -0.486346,-0.599201 -0.677343,-0.861728 -0.120268,-0.116173 -0.357425,-0.204299 -0.59411,-0.230354 -0.207256,-0.022815 -0.40772,0.00240551 -0.514587,0.099815l-0.143331 -0.157504z"/>
  <rect class="fil1" width="6.82666" height="6.82666"/>
 </g>
</svg>
