<?xml version="1.0" encoding="UTF-8"?>
<!DOCTYPE svg PUBLIC "-//W3C//DTD SVG 1.1//EN" "http://www.w3.org/Graphics/SVG/1.1/DTD/svg11.dtd">
<!-- Creator: CorelDRAW -->
<svg xmlns="http://www.w3.org/2000/svg" xml:space="preserve" width="6.82666in" height="6.82666in" style="shape-rendering:geometricPrecision; text-rendering:geometricPrecision; image-rendering:optimizeQuality; fill-rule:evenodd; clip-rule:evenodd"
viewBox="0 0 6.82666 6.82666"
 xmlns:xlink="http://www.w3.org/1999/xlink">
 <defs>
  <style type="text/css">
   <![CDATA[
    .fil3 {fill:none}
    .fil0 {fill:none;fill-rule:nonzero}
    .fil1 {fill:#212121}
    .fil2 {fill:#212121;fill-rule:nonzero}
   ]]>
  </style>
 </defs>
 <g id="Layer_x0020_1">
  <metadata id="CorelCorpID_0Corel-Layer"/>
  <path class="fil0" d="M3.04176 3.0255c-0.221398,0.242898 -0.102114,0.93111 0.121016,1.15424 0.458634,0.333268 1.07079,0.817736 1.43161,1.27424 0.19861,0.251276 -0.0556181,0.51313 -0.19472,0.374024 -0.387583,-0.387583 -1.14093,-0.986138 -1.58295,-1.30221 -0.282291,-0.282291 -0.452421,-0.985598 -0.396602,-1.39731"/>
  <path class="fil0" d="M4.2223 3.18521c0.333272,0.458634 0.81774,1.07079 1.27425,1.43162 0.251272,0.19861 0.513126,-0.0556181 0.37402,-0.194724 -0.387579,-0.387583 -0.986138,-1.14093 -1.30221,-1.58294 -0.150185,-0.150185 -0.50613,-0.32198 -0.751744,-0.384571 -0.45115,-0.114969 -1.11794,-0.0657598 -1.5913,0.026874 -0.872783,0.170803 -0.760787,-0.0871299 -0.935921,-0.78089 -0.0115591,-0.0457992 -0.16898,-0.232398 -0.234744,-0.166638 -0.211106,0.379287 -0.16248,0.913815 0.0355591,1.27955 0.128724,0.24865 0.363535,0.361185 0.609252,0.339717 0.557228,-0.048685 2.13539,-0.355437 2.52284,0.0320118z"/>
  <path class="fil0" d="M3.04157 2.39545c0.0325591,-0.239512 0.0571339,-0.485 0.0719843,-0.660996 0.0207362,-0.24578 -0.0924882,-0.480256 -0.34152,-0.608244 -0.366319,-0.196953 -0.899563,-0.235925 -1.27822,-0.0236929 -8.66142e-005,6.29921e-005 0.120071,0.214756 0.165906,0.226185 0.729571,0.181866 1.01082,0.0552441 0.749551,1.07349"/>
  <circle class="fil1" cx="2.759" cy="2.68411" r="0.111236"/>
  <path class="fil2" d="M3.15384 3.06383c-0.0825827,0.0906024 -0.103409,0.274638 -0.0833622,0.465874 0.0227126,0.216634 0.0976929,0.433303 0.196173,0.536303 0.228819,0.166504 0.495315,0.370354 0.751102,0.590469 0.259717,0.223496 0.507772,0.463614 0.693299,0.698339 0.108358,0.137094 0.114756,0.280201 0.0716181,0.389244 -0.0170039,0.0429843 -0.0422677,0.0810551 -0.0725827,0.111858 -0.0320787,0.0325906 -0.0698268,0.0569921 -0.109827,0.070752 -0.0822638,0.0282953 -0.171,0.0151024 -0.242681,-0.0565787 -0.175945,-0.175945 -0.425291,-0.393681 -0.685453,-0.607701 -0.313449,-0.257858 -0.644268,-0.512024 -0.883744,-0.683264l0.0616654 -0.0866654 -0.0620433 0.0867677c-0.00568504,-0.00406693 -0.0108465,-0.00859055 -0.0154803,-0.0134843 -0.147957,-0.149189 -0.266083,-0.39798 -0.341555,-0.66389 -0.0806575,-0.284177 -0.11385,-0.592882 -0.0829409,-0.820874 0.00782283,-0.0582165 0.0613661,-0.0990748 0.119583,-0.091252 0.0582165,0.00782283 0.0990748,0.0613661 0.091252,0.119583 -0.0270945,0.199835 0.00370472,0.476421 0.0771063,0.735039 0.0657638,0.231705 0.164638,0.444866 0.284807,0.567937 0.241118,0.17285 0.571843,0.427205 0.88635,0.685937 0.268539,0.220913 0.524122,0.443866 0.701287,0.621031 0.00692913,0.00692913 0.0151969,0.0083189 0.0226811,0.00574409 0.00931102,-0.00320079 0.0187165,-0.00950394 0.0273228,-0.018248 0.0103661,-0.0105354 0.0193701,-0.0244646 0.0259213,-0.0410236 0.0185866,-0.0469843 0.0132953,-0.111874 -0.0399567,-0.179244 -0.175291,-0.221772 -0.413744,-0.452157 -0.664961,-0.668339 -0.250425,-0.2155 -0.514169,-0.417024 -0.741154,-0.582094 -0.00622835,-0.00402756 -0.0121339,-0.00876378 -0.0175906,-0.0142205l7.87402e-006 -7.87402e-006c-0.133929,-0.133929 -0.234157,-0.406043 -0.261878,-0.670449 -0.0257008,-0.245161 0.0103071,-0.491295 0.137528,-0.630874l0.157504 0.143331z"/>
  <path class="fil2" d="M4.34528 3.09404c0.165071,0.226976 0.366598,0.490728 0.582098,0.741154 0.216181,0.251217 0.446567,0.489673 0.668339,0.664965 0.0673661,0.053248 0.132256,0.0585433 0.17924,0.0399567 0.0165591,-0.00655118 0.0304882,-0.0155551 0.0410236,-0.0259213 0.00874409,-0.0086063 0.0150472,-0.0180118 0.018248,-0.0273228 0.0025748,-0.00748425 0.00118504,-0.0157559 -0.00574409,-0.022685 -0.177169,-0.177173 -0.40013,-0.43276 -0.621043,-0.701303 -0.25872,-0.314496 -0.513059,-0.645197 -0.685906,-0.886303 -0.0653268,-0.0634921 -0.173075,-0.13222 -0.292709,-0.193421 -0.135047,-0.0690827 -0.284047,-0.127713 -0.405134,-0.158571 -0.196528,-0.0500787 -0.436969,-0.0675787 -0.683831,-0.0634134 -0.298728,0.00504331 -0.607425,0.0419528 -0.860799,0.0915354 -0.841098,0.164598 -0.880453,-0.0238622 -0.99524,-0.573634 -0.0175276,-0.0839567 -0.0371654,-0.177988 -0.0644331,-0.286004 -0.00127559,-0.00506299 -0.0223307,-0.0296614 -0.0511496,-0.0584843 -0.00655906,-0.00655906 -0.013122,-0.0127677 -0.0194921,-0.0183543 -0.0680866,0.150594 -0.0960472,0.324071 -0.0912008,0.498394 0.00609055,0.219283 0.0640984,0.438346 0.159598,0.614831l0.000192913 -0.000102362c0.00141732,0.00261417 0.00270472,0.00526772 0.00388189,0.00794094 0.0522795,0.0984449 0.123799,0.170476 0.20611,0.21637 0.0883583,0.0492677 0.190724,0.0691654 0.296295,0.0599449 0.112035,-0.0097874 0.248386,-0.0274961 0.405437,-0.0478898 0.721039,-0.0936339 1.8509,-0.240354 2.20199,0.110736l7.87402e-006 -7.87402e-006c0.00545669,0.00545669 0.0101929,0.0113622 0.0142205,0.0175906zm0.420429 0.879484c-0.219902,-0.255543 -0.423579,-0.521776 -0.59,-0.750449 -0.284252,-0.27187 -1.34298,-0.134433 -2.01998,-0.0465197 -0.168898,0.0219331 -0.315535,0.0409803 -0.413776,0.0495591 -0.146858,0.0128307 -0.291197,-0.015937 -0.417957,-0.0866142 -0.117638,-0.0655945 -0.218819,-0.166669 -0.29124,-0.303346 -0.00104724,-0.00170079 -0.00205512,-0.00343701 -0.00301969,-0.00521654l0.000220472 -0.00011811 -0.000141732 -0.000271654 -3.14961e-005 1.5748e-005c-0.110571,-0.204197 -0.177717,-0.457232 -0.184744,-0.710102 -0.00645276,-0.232213 0.0377835,-0.465579 0.145469,-0.663248 0.00516929,-0.011622 0.0125118,-0.0225079 0.0220433,-0.0320394l7.87402e-006 7.87402e-006c0.0205236,-0.0205236 0.0444921,-0.0335709 0.0710787,-0.0402874 0.0484213,-0.0122205 0.0975276,0.000169291 0.143673,0.0267795 0.0332008,0.0191496 0.064748,0.0450669 0.0917598,0.0720787 0.0532165,0.0532205 0.0981457,0.12263 0.106984,0.15765 0.0268071,0.106185 0.0475669,0.205598 0.0660945,0.294343 0.0827283,0.396232 0.111094,0.532063 0.746075,0.407799 0.26228,-0.0513268 0.584039,-0.0895669 0.898303,-0.094874 0.265555,-0.00448425 0.525366,0.0146378 0.739665,0.069248 0.133748,0.0340827 0.299,0.099189 0.449299,0.176075 0.140972,0.0721142 0.26978,0.155319 0.349693,0.234512 0.00481102,0.00458268 0.00926378,0.00967323 0.0132677,0.0152756l-0.0867677 0.0620433 0.0866654 -0.0616654c0.171232,0.239465 0.425398,0.57028 0.683252,0.883724 0.214024,0.260165 0.431768,0.50952 0.607713,0.685469 0.0716811,0.0716811 0.084874,0.160421 0.0565787,0.242685 -0.0137598,0.04 -0.0381614,0.077748 -0.070752,0.109827 -0.0308031,0.030315 -0.068874,0.0555787 -0.111858,0.0725827 -0.109047,0.0431378 -0.25215,0.0367402 -0.38924,-0.0716181 -0.234724,-0.185528 -0.474839,-0.433583 -0.698339,-0.693303z"/>
  <path class="fil2" d="M2.96949 2.34795c-0.00782283,0.0582165 0.0330354,0.11176 0.091252,0.119583 0.0582165,0.00782283 0.11176,-0.0330354 0.119583,-0.091252 0.0150551,-0.11076 0.0282402,-0.220843 0.0394685,-0.323965 0.014374,-0.132031 0.0254961,-0.249331 0.0333504,-0.342445 0.0124094,-0.147102 -0.0167205,-0.291374 -0.0876732,-0.417744 -0.0667362,-0.11885 -0.169933,-0.220764 -0.309697,-0.292976l1.5748e-005 -2.75591e-005 -0.00175197 -0.000933071 9.44882e-005 -0.000185039c-0.00158661,-0.000814961 -0.00318504,-0.00158268 -0.00479528,-0.00231496 -0.202787,-0.107551 -0.45187,-0.170382 -0.700827,-0.174996 -0.236358,-0.00438189 -0.473791,0.0436693 -0.673441,0.155571l-7.08661e-005 -0.000129921c-0.0513858,0.0288031 -0.0696969,0.093815 -0.0408937,0.145201 0.00456299,0.0081378 0.0100354,0.0154488 0.0162165,0.0218701 0.0050315,0.0124449 0.0108701,0.024689 0.0175827,0.035811 0.0201535,0.0333976 0.0469567,0.0759134 0.0734685,0.112366 0.0382717,0.052622 0.0819488,0.0962756 0.126268,0.107319 0.106512,0.0265512 0.206492,0.047126 0.29624,0.0655906 0.0759961,0.0156339 0.144457,0.0297244 0.201126,0.0442638 0.26902,0.0690236 0.341028,0.185752 0.174685,0.834051 -0.0144961,0.0568386 0.0198268,0.114673 0.0766654,0.129169 0.0568386,0.0144961 0.114673,-0.0198268 0.129169,-0.0766654 0.212496,-0.828189 0.0930039,-0.984362 -0.328016,-1.09239 -0.0652913,-0.016752 -0.134402,-0.0309764 -0.211126,-0.0467598 -0.0852362,-0.0175354 -0.180185,-0.0370748 -0.287909,-0.0639291 -0.0129173,-0.00321654 0.00776378,-0.00865354 -0.00459843,-0.0256496 -0.0117283,-0.0161299 -0.0238543,-0.0342244 -0.0353307,-0.0520984 0.143315,-0.0587165 0.304701,-0.0840866 0.466634,-0.0810866 0.215075,0.00398425 0.429768,0.0579882 0.604098,0.150409 0.00237008,0.00146063 0.00481496,0.00284252 0.00733465,0.0041378l0.00011811 -0.000228346c0.101543,0.0522126 0.175752,0.124799 0.222906,0.208776 0.0496299,0.0883937 0.0698976,0.190681 0.0610039,0.296075 -0.00843307,0.0999724 -0.0194724,0.217634 -0.0325157,0.337445 -0.0113346,0.104083 -0.0242992,0.212673 -0.0386339,0.318138z"/>
  <rect class="fil3" width="6.82666" height="6.82666"/>
 </g>
</svg>
