<?xml version="1.0" encoding="UTF-8"?>
<!DOCTYPE svg PUBLIC "-//W3C//DTD SVG 1.1//EN" "http://www.w3.org/Graphics/SVG/1.1/DTD/svg11.dtd">
<!-- Creator: CorelDRAW -->
<svg xmlns="http://www.w3.org/2000/svg" xml:space="preserve" width="6.82666in" height="6.82666in" style="shape-rendering:geometricPrecision; text-rendering:geometricPrecision; image-rendering:optimizeQuality; fill-rule:evenodd; clip-rule:evenodd"
viewBox="0 0 6.82666 6.82666"
 xmlns:xlink="http://www.w3.org/1999/xlink">
 <defs>
  <style type="text/css">
   <![CDATA[
    .fil1 {fill:none}
    .fil0 {fill:#212121;fill-rule:nonzero}
   ]]>
  </style>
 </defs>
 <g id="Layer_x0020_1">
  <metadata id="CorelCorpID_0Corel-Layer"/>
  <path class="fil0" d="M3.16128 5.76738l1.22209 0c-0.0186102,-0.216567 -0.0933701,-0.416917 -0.209622,-0.586429 -0.139232,-0.203008 -0.337858,-0.362024 -0.57076,-0.451945l-0.000125984 0.000326772c-0.043063,-0.016622 -0.0691732,-0.0581378 -0.0682559,-0.101772l0 -0.246846c0,-0.102555 -0.0420354,-0.19587 -0.109748,-0.263579 -0.0677126,-0.0677126 -0.161024,-0.109748 -0.263579,-0.109748l-7.87402e-006 0c-0.102555,0 -0.195866,0.0420315 -0.263583,0.109744 -0.0677087,0.0677126 -0.109744,0.161028 -0.109744,0.263583l0 0.249106c0,0.0483268 -0.0321457,0.0891417 -0.0762165,0.102252 -0.22952,0.0904449 -0.42526,0.24815 -0.562925,0.448878 -0.116252,0.169512 -0.191012,0.369862 -0.209622,0.586429l1.22209 0zm1.33333 0.213339l-1.33333 0 -1.33333 0c-0.0589094,0 -0.106669,-0.0477598 -0.106669,-0.106669 0,-0.301531 0.0929094,-0.581575 0.251693,-0.813098 0.149535,-0.218039 0.357634,-0.39285 0.601638,-0.501846l0 -0.17839c0,-0.161441 0.0659724,-0.308138 0.172248,-0.414417 0.10628,-0.106276 0.252976,-0.172248 0.414417,-0.172248l7.87402e-006 0c0.161441,0 0.308134,0.0659724 0.414413,0.172252 0.10628,0.106276 0.172252,0.252972 0.172252,0.414413l0 0.17839c0.244004,0.108996 0.452102,0.283807 0.601638,0.501846 0.158783,0.231524 0.251693,0.511567 0.251693,0.813098 0,0.0589094 -0.0477598,0.106669 -0.106669,0.106669z"/>
  <path class="fil0" d="M2.85066 5.13777c0.0547638,-0.0211693 0.082,-0.0827362 0.0608307,-0.1375 -0.0211693,-0.0547638 -0.0827362,-0.082 -0.1375,-0.0608307 -0.115244,0.0444882 -0.213465,0.123071 -0.282228,0.223339 -0.066937,0.0975984 -0.106106,0.215543 -0.106106,0.342413 0,0.0589094 0.0477598,0.106669 0.106669,0.106669 0.0589094,0 0.106669,-0.0477598 0.106669,-0.106669 0,-0.0827244 0.0253268,-0.159311 0.0686024,-0.222413 0.044685,-0.0651575 0.108402,-0.116185 0.183063,-0.145008z"/>
  <path class="fil0" d="M3.22356 3.93162c0,0.0589094 0.0477598,0.106669 0.106669,0.106669 0.0589094,0 0.106669,-0.0477598 0.106669,-0.106669l0 -2.90196c0,-0.0759016 -0.0309764,-0.144835 -0.080878,-0.194736 -0.0498976,-0.0499016 -0.118831,-0.080878 -0.194732,-0.080878l-3.93701e-006 0c-0.0759055,0 -0.144831,0.0309803 -0.194732,0.080878 -0.0498976,0.0499016 -0.080878,0.118839 -0.080878,0.194736l0 2.90196c0,0.0589094 0.0477598,0.106669 0.106669,0.106669 0.0589094,0 0.106669,-0.0477598 0.106669,-0.106669l0 -2.90196c0,-0.0170157 0.00703937,-0.0325669 0.018374,-0.0439016 0.0113346,-0.0113346 0.0268858,-0.018374 0.0438976,-0.018374l3.93701e-006 0c0.0170157,0 0.032563,0.00703937 0.0438976,0.018374 0.0113346,0.0113346 0.018374,0.0268858 0.018374,0.0439016l0 2.90196z"/>
  <rect class="fil1" width="6.82666" height="6.82666"/>
 </g>
</svg>
