<?xml version="1.0" encoding="UTF-8"?>
<!DOCTYPE svg PUBLIC "-//W3C//DTD SVG 1.1//EN" "http://www.w3.org/Graphics/SVG/1.1/DTD/svg11.dtd">
<!-- Creator: CorelDRAW -->
<svg xmlns="http://www.w3.org/2000/svg" xml:space="preserve" width="6.82666in" height="6.82666in" style="shape-rendering:geometricPrecision; text-rendering:geometricPrecision; image-rendering:optimizeQuality; fill-rule:evenodd; clip-rule:evenodd"
viewBox="0 0 6.82666 6.82666"
 xmlns:xlink="http://www.w3.org/1999/xlink">
 <defs>
  <style type="text/css">
   <![CDATA[
    .fil1 {fill:none}
    .fil0 {fill:#212121;fill-rule:nonzero}
   ]]>
  </style>
 </defs>
 <g id="Layer_x0020_1">
  <metadata id="CorelCorpID_0Corel-Layer"/>
  <path class="fil0" d="M0.886343 2.88385l1.99927 -1.99927 -7.87402e-006 -7.87402e-006c0.0416535,-0.0416535 0.109197,-0.0416535 0.15085,0 0.0075,0.0075 0.0136417,0.0158465 0.0184409,0.0247205l1.72503 2.64601 0.000287402 -0.000185039c0.0284449,0.0436299 0.0208465,0.100346 -0.0154055,0.135138l-1.07602 1.07602 7.87402e-006 7.87402e-006c-0.0384331,0.0384331 -0.0989055,0.0414055 -0.140748,0.00891339l-2.64597 -1.725 0.0579173 -0.0891654 -0.0582559 0.0893543c-0.0493465,-0.0321732 -0.0632717,-0.0982638 -0.0310984,-0.14761 0.00459055,-0.00704331 0.00987402,-0.0133543 0.0157008,-0.0189252zm2.05738 -1.75571l-1.81559 1.81558 2.47076 1.61078 0.955606 -0.955606 -1.61078 -2.47076z"/>
  <path class="fil0" d="M3.83472 4.31867l0.484563 -0.484563 -7.87402e-006 -7.87402e-006c0.0416535,-0.0416535 0.109197,-0.0416535 0.15085,0l0.000590551 0.000606299 1.00257 1.00258c0.055063,0.00675984 0.109146,0.0214685 0.160343,0.0441142 0.0629094,0.0278268 0.121606,0.0672874 0.172646,0.118327l7.87402e-006 7.87402e-006c0.111362,0.111362 0.167047,0.257323 0.167047,0.403264 0,0.145941 -0.055685,0.291902 -0.167047,0.403264l-7.87402e-006 7.87402e-006 -7.87402e-006 7.87402e-006c-0.111362,0.111362 -0.257323,0.167047 -0.403264,0.167047 -0.145941,0 -0.291902,-0.055685 -0.403264,-0.167047l-7.87402e-006 -7.87402e-006c-0.0510394,-0.0510394 -0.0905,-0.10974 -0.118327,-0.17265 -0.0226457,-0.0512008 -0.0373583,-0.105287 -0.0441181,-0.160354l-1.00317 -1.00316 -7.87402e-006 7.87402e-006c-0.0416535,-0.0416535 -0.0416535,-0.109197 0,-0.15085l0.000606299 -0.000590551zm0.55998 -0.258311l-0.334327 0.334327 0.954319 0.954315c0.0184685,0.0181693 0.0304094,0.0430669 0.0317244,0.0709843l-0.106547 0.00502756 0.106252 -0.005c0.00204724,0.0433819 0.0121457,0.0867638 0.0302835,0.127772 0.0171535,0.0387795 0.0418701,0.0753583 0.0741614,0.10765l7.87402e-006 7.87402e-006c0.0696929,0.0696929 0.161059,0.104543 0.252429,0.104543 0.0913701,0 0.182736,-0.0348504 0.252429,-0.104543l7.87402e-006 -7.87402e-006 7.87402e-006 -7.87402e-006c0.0696929,-0.0696929 0.104543,-0.161059 0.104543,-0.252429 0,-0.0913701 -0.0348504,-0.182736 -0.104543,-0.252429l-7.87402e-006 -7.87402e-006c-0.0322913,-0.0322913 -0.0688701,-0.0570118 -0.107646,-0.0741614 -0.0388465,-0.0171811 -0.079815,-0.0271535 -0.120898,-0.0298937 -0.0279173,0.000484252 -0.0559921,-0.00991732 -0.0772913,-0.0312165l7.87402e-006 -7.87402e-006 -0.954913 -0.954921z"/>
  <path class="fil0" d="M3.17162 4.30411c-0.0416496,0.0416496 -0.0416496,0.109185 0,0.150835 0.0416496,0.0416496 0.109185,0.0416496 0.150835,0l1.13249 -1.13249c0.0416496,-0.0416496 0.0416496,-0.109185 0,-0.150835 -0.0416496,-0.0416496 -0.109185,-0.0416496 -0.150835,0l-1.13249 1.13249z"/>
  <rect class="fil1" width="6.82666" height="6.82666"/>
 </g>
</svg>
