<?xml version="1.0" encoding="UTF-8"?>
<!DOCTYPE svg PUBLIC "-//W3C//DTD SVG 1.1//EN" "http://www.w3.org/Graphics/SVG/1.1/DTD/svg11.dtd">
<!-- Creator: CorelDRAW -->
<svg xmlns="http://www.w3.org/2000/svg" xml:space="preserve" width="6.82666in" height="6.82666in" style="shape-rendering:geometricPrecision; text-rendering:geometricPrecision; image-rendering:optimizeQuality; fill-rule:evenodd; clip-rule:evenodd"
viewBox="0 0 6.82666 6.82666"
 xmlns:xlink="http://www.w3.org/1999/xlink">
 <defs>
  <style type="text/css">
   <![CDATA[
    .fil1 {fill:none}
    .fil0 {fill:#212121;fill-rule:nonzero}
   ]]>
  </style>
 </defs>
 <g id="Layer_x0020_1">
  <metadata id="CorelCorpID_0Corel-Layer"/>
  <path class="fil0" d="M0.964878 1.80333l4.8969 0c0.0589094,0 0.106669,0.0477598 0.106669,0.106669l0 2.41844c0,0.0589094 -0.0477598,0.106669 -0.106669,0.106669l-4.8969 0c-0.0589094,0 -0.106669,-0.0477598 -0.106669,-0.106669l0 -2.41844c0,-0.0589094 0.0477598,-0.106669 0.106669,-0.106669zm4.79023 0.213339l-4.68356 0 0 2.2051 4.68356 0 0 -2.2051z"/>
  <path class="fil0" d="M1.07917 2.84427c-0.0225512,-0.0543071 -0.0848622,-0.0800512 -0.139169,-0.0575 -0.0543071,0.0225512 -0.0800512,0.0848622 -0.0575,0.139169l0.600358 1.44333c0.0225512,0.0543071 0.0848622,0.0800512 0.139169,0.0575 0.0543071,-0.0225512 0.0800512,-0.0848622 0.0575,-0.139169l-0.600358 -1.44333z"/>
  <path class="fil0" d="M5.7475 3.39417c0.0225512,0.0543071 0.0848622,0.0800512 0.139169,0.0575 0.0543071,-0.0225512 0.0800512,-0.0848622 0.0575,-0.139169l-0.600358 -1.44333c-0.0225512,-0.0543071 -0.0848622,-0.0800512 -0.139169,-0.0575 -0.0543071,0.0225512 -0.0800512,0.0848622 -0.0575,0.139169l0.600358 1.44333z"/>
  <path class="fil0" d="M1.29756 1.94176c-0.0220906,-0.0543071 -0.0840276,-0.0804252 -0.138335,-0.0583346 -0.0543071,0.0220906 -0.0804252,0.0840276 -0.0583346,0.138335l0.959996 2.34667c0.0220906,0.0543071 0.0840276,0.0804252 0.138335,0.0583346 0.0543071,-0.0220906 0.0804252,-0.0840276 0.0583346,-0.138335l-0.959996 -2.34667z"/>
  <path class="fil0" d="M1.8756 1.94176c-0.0220906,-0.0543071 -0.0840276,-0.0804252 -0.138335,-0.0583346 -0.0543071,0.0220906 -0.0804252,0.0840276 -0.0583346,0.138335l0.959996 2.34667c0.0220906,0.0543071 0.0840276,0.0804252 0.138335,0.0583346 0.0543071,-0.0220906 0.0804252,-0.0840276 0.0583346,-0.138335l-0.959996 -2.34667z"/>
  <path class="fil0" d="M2.45363 1.94176c-0.0220906,-0.0543071 -0.0840276,-0.0804252 -0.138335,-0.0583346 -0.0543071,0.0220906 -0.0804252,0.0840276 -0.0583346,0.138335l0.959996 2.34667c0.0220906,0.0543071 0.0840276,0.0804252 0.138335,0.0583346 0.0543071,-0.0220906 0.0804252,-0.0840276 0.0583346,-0.138335l-0.959996 -2.34667z"/>
  <path class="fil0" d="M3.03167 1.94176c-0.0220906,-0.0543071 -0.0840276,-0.0804252 -0.138335,-0.0583346 -0.0543071,0.0220906 -0.0804252,0.0840276 -0.0583346,0.138335l0.959996 2.34667c0.0220906,0.0543071 0.0840276,0.0804252 0.138335,0.0583346 0.0543071,-0.0220906 0.0804252,-0.0840276 0.0583346,-0.138335l-0.959996 -2.34667z"/>
  <path class="fil0" d="M3.6097 1.94176c-0.0220906,-0.0543071 -0.0840276,-0.0804252 -0.138335,-0.0583346 -0.0543071,0.0220906 -0.0804252,0.0840276 -0.0583346,0.138335l0.959996 2.34667c0.0220906,0.0543071 0.0840276,0.0804252 0.138335,0.0583346 0.0543071,-0.0220906 0.0804252,-0.0840276 0.0583346,-0.138335l-0.959996 -2.34667z"/>
  <path class="fil0" d="M4.18774 1.94176c-0.0220906,-0.0543071 -0.0840276,-0.0804252 -0.138335,-0.0583346 -0.0543071,0.0220906 -0.0804252,0.0840276 -0.0583346,0.138335l0.959996 2.34667c0.0220906,0.0543071 0.0840276,0.0804252 0.138335,0.0583346 0.0543071,-0.0220906 0.0804252,-0.0840276 0.0583346,-0.138335l-0.959996 -2.34667z"/>
  <path class="fil0" d="M4.76578 1.94176c-0.0220906,-0.0543071 -0.0840276,-0.0804252 -0.138335,-0.0583346 -0.0543071,0.0220906 -0.0804252,0.0840276 -0.0583346,0.138335l0.959996 2.34667c0.0220906,0.0543071 0.0840276,0.0804252 0.138335,0.0583346 0.0543071,-0.0220906 0.0804252,-0.0840276 0.0583346,-0.138335l-0.959996 -2.34667z"/>
  <path class="fil0" d="M3.41333 0.796299c0.0931102,0 0.177685,0.0380157 0.238925,0.0992559 0.0612402,0.0612402 0.0992559,0.145815 0.0992559,0.238925l0 0.348854c0,0.0589094 -0.0477598,0.106669 -0.106669,0.106669l-0.463024 0c-0.0589094,0 -0.106669,-0.0477598 -0.106669,-0.106669l0 -0.348854c0,-0.0931102 0.0380157,-0.177685 0.0992559,-0.238925 0.0612402,-0.0612402 0.145815,-0.0992559 0.238925,-0.0992559zm0.0880906 0.250091c-0.0226732,-0.0226732 -0.0538661,-0.036752 -0.0880906,-0.036752 -0.0342244,0 -0.0654173,0.0140787 -0.0880906,0.036752 -0.0226732,0.0226732 -0.036752,0.0538661 -0.036752,0.0880906l0 0.242185 0.249685 0 0 -0.242185c0,-0.0342244 -0.0140787,-0.0654173 -0.036752,-0.0880906z"/>
  <path class="fil0" d="M3.12259 1.37666c-0.0589094,0 -0.106669,0.0477598 -0.106669,0.106669 0,0.0589094 0.0477598,0.106669 0.106669,0.106669l0.581484 0c0.0589094,0 0.106669,-0.0477598 0.106669,-0.106669 0,-0.0589094 -0.0477598,-0.106669 -0.106669,-0.106669l-0.581484 0z"/>
  <path class="fil0" d="M3.52 1.48333c0,-0.0589094 -0.0477598,-0.106669 -0.106669,-0.106669 -0.0589094,0 -0.106669,0.0477598 -0.106669,0.106669l0 0.426665c0,0.0589094 0.0477598,0.106669 0.106669,0.106669 0.0589094,0 0.106669,-0.0477598 0.106669,-0.106669l0 -0.426665z"/>
  <path class="fil0" d="M1.74057 5.92369c0,0.0589094 0.0477598,0.106669 0.106669,0.106669 0.0589094,0 0.106669,-0.0477598 0.106669,-0.106669l0 -1.59525c0,-0.0589094 -0.0477598,-0.106669 -0.106669,-0.106669 -0.0589094,0 -0.106669,0.0477598 -0.106669,0.106669l0 1.59525z"/>
  <path class="fil0" d="M4.87275 5.92369c0,0.0589094 0.0477598,0.106669 0.106669,0.106669 0.0589094,0 0.106669,-0.0477598 0.106669,-0.106669l0 -1.59525c0,-0.0589094 -0.0477598,-0.106669 -0.106669,-0.106669 -0.0589094,0 -0.106669,0.0477598 -0.106669,0.106669l0 1.59525z"/>
  <path class="fil0" d="M1.50946 5.81702c-0.0589094,0 -0.106669,0.0477598 -0.106669,0.106669 0,0.0589094 0.0477598,0.106669 0.106669,0.106669l0.675551 0c0.0589094,0 0.106669,-0.0477598 0.106669,-0.106669 0,-0.0589094 -0.0477598,-0.106669 -0.106669,-0.106669l-0.675551 0z"/>
  <path class="fil0" d="M4.64165 5.81702c-0.0589094,0 -0.106669,0.0477598 -0.106669,0.106669 0,0.0589094 0.0477598,0.106669 0.106669,0.106669l0.675551 0c0.0589094,0 0.106669,-0.0477598 0.106669,-0.106669 0,-0.0589094 -0.0477598,-0.106669 -0.106669,-0.106669l-0.675551 0z"/>
  <rect class="fil1" width="6.82666" height="6.82666"/>
 </g>
</svg>
