<?xml version="1.0" encoding="UTF-8"?>
<!DOCTYPE svg PUBLIC "-//W3C//DTD SVG 1.1//EN" "http://www.w3.org/Graphics/SVG/1.1/DTD/svg11.dtd">
<!-- Creator: CorelDRAW -->
<svg xmlns="http://www.w3.org/2000/svg" xml:space="preserve" width="6.82666in" height="6.82666in" style="shape-rendering:geometricPrecision; text-rendering:geometricPrecision; image-rendering:optimizeQuality; fill-rule:evenodd; clip-rule:evenodd"
viewBox="0 0 6.82666 6.82666"
 xmlns:xlink="http://www.w3.org/1999/xlink">
 <defs>
  <style type="text/css">
   <![CDATA[
    .fil1 {fill:none}
    .fil0 {fill:#212121;fill-rule:nonzero}
   ]]>
  </style>
 </defs>
 <g id="Layer_x0020_1">
  <metadata id="CorelCorpID_0Corel-Layer"/>
  <path class="fil0" d="M1.56237 0.853331l4.1098 0c0.0829291,0 0.158252,0.0338543 0.212783,0.0883858 0.0545315,0.0545315 0.0883858,0.129854 0.0883858,0.212783l0 0.636618c0,0.0829291 -0.0338543,0.158252 -0.0883858,0.212783 -0.0545315,0.0545315 -0.129854,0.0883858 -0.212783,0.0883858l-4.1098 0c-0.0829291,0 -0.158252,-0.0338543 -0.212783,-0.0883858 -0.0545315,-0.0545315 -0.0883858,-0.129854 -0.0883858,-0.212783l0 -0.636618c0,-0.0829291 0.0338543,-0.158252 0.0883858,-0.212783 0.0545315,-0.0545315 0.129854,-0.0883858 0.212783,-0.0883858zm4.1098 0.213339l-4.1098 0c-0.0240433,0 -0.0459843,0.00991732 -0.0619488,0.0258819 -0.0159646,0.0159646 -0.0258819,0.0379055 -0.0258819,0.0619488l0 0.636618c0,0.0240433 0.00991732,0.0459843 0.0258819,0.0619488 0.0159646,0.0159646 0.0379055,0.0258819 0.0619488,0.0258819l4.1098 0c0.0240433,0 0.0459843,-0.00991732 0.0619488,-0.0258819 0.0159646,-0.0159646 0.0258819,-0.0379055 0.0258819,-0.0619488l0 -0.636618c0,-0.0240433 -0.00991732,-0.0459843 -0.0258819,-0.0619488 -0.0159646,-0.0159646 -0.0379055,-0.0258819 -0.0619488,-0.0258819z"/>
  <path class="fil0" d="M3.5106 3.15231c0,0.0589094 0.0477598,0.106669 0.106669,0.106669 0.0589094,0 0.106669,-0.0477598 0.106669,-0.106669l0 -0.767307c0,-0.0589094 -0.0477598,-0.106669 -0.106669,-0.106669l-2.5506 0 0 -0.712272 0.278709 0c0.0589094,0 0.106669,-0.0477598 0.106669,-0.106669 0,-0.0589094 -0.0477598,-0.106669 -0.106669,-0.106669l-0.385378 0c-0.0589094,0 -0.106669,0.0477598 -0.106669,0.106669l0 0.92561c0,0.0589094 0.0477598,0.106669 0.106669,0.106669l2.5506 0 0 0.660638z"/>
  <path class="fil0" d="M3.63296 3.04276c0.0885236,0 0.168634,0.0369646 0.226571,0.0967165 0.0572598,0.0590512 0.0926811,0.140114 0.0926811,0.229185 0,0.0890709 -0.0354213,0.170134 -0.0926811,0.229185 -0.057937,0.059752 -0.138047,0.0967165 -0.226571,0.0967165 -0.0885236,0 -0.168634,-0.0369646 -0.226571,-0.0967165 -0.0572598,-0.0590512 -0.0926811,-0.140114 -0.0926811,-0.229185 0,-0.0890669 0.0354173,-0.170138 0.0926811,-0.229189 0.057937,-0.059748 0.138047,-0.0967126 0.226571,-0.0967126zm0.0740669 0.245047c-0.0189921,-0.0195866 -0.045189,-0.0317087 -0.0740669,-0.0317087 -0.0288819,0 -0.0550748,0.012122 -0.0740669,0.0317047 -0.0196732,0.0202874 -0.0318465,0.0488504 -0.0318465,0.0808583 0,0.0320039 0.0121732,0.0605669 0.0318465,0.0808543 0.0189921,0.0195866 0.045189,0.0317087 0.0740669,0.0317087 0.028878,0 0.0550748,-0.012122 0.0740669,-0.0317087 0.0196732,-0.0202874 0.0318465,-0.0488504 0.0318465,-0.0808543 0,-0.0320039 -0.0121732,-0.0605669 -0.0318465,-0.0808543z"/>
  <path class="fil0" d="M3.63295 3.51809l7.87402e-006 0c0.131118,0 0.250244,0.0535669 0.336539,0.139862 0.0862913,0.0862913 0.139858,0.205421 0.139858,0.336539l0 1.50244c0,0.131118 -0.0535669,0.250248 -0.139858,0.336539 -0.0862953,0.0862953 -0.205421,0.139862 -0.336539,0.139862l-7.87402e-006 0c-0.131122,0 -0.250248,-0.0535669 -0.336539,-0.139862 -0.0862953,-0.0862913 -0.139862,-0.205417 -0.139862,-0.336539l0 -1.50244c0,-0.131122 0.0535669,-0.250248 0.139862,-0.336539 0.0862913,-0.0862953 0.205417,-0.139862 0.336539,-0.139862zm7.87402e-006 0.213339l-7.87402e-006 0c-0.0722323,0 -0.13798,0.0296299 -0.185705,0.0773583 -0.0477283,0.0477244 -0.0773583,0.113472 -0.0773583,0.185705l0 1.50244c0,0.0722323 0.0296299,0.13798 0.0773583,0.185705 0.0477244,0.0477283 0.113472,0.0773583 0.185705,0.0773583l7.87402e-006 0c0.0722323,0 0.137976,-0.0296299 0.185705,-0.0773583 0.0477244,-0.0477244 0.0773543,-0.113472 0.0773543,-0.185705l0 -1.50244c0,-0.0722323 -0.0296299,-0.13798 -0.0773543,-0.185705 -0.0477283,-0.0477283 -0.113472,-0.0773583 -0.185705,-0.0773583z"/>
  <path class="fil0" d="M4.19357 0.9465c-0.0121929,-0.0575276 -0.0687205,-0.0942756 -0.126248,-0.0820827 -0.0575276,0.0121929 -0.0942756,0.0687205 -0.0820827,0.126248 0.016685,0.0788583 0.00390945,0.190039 -0.00831496,0.296461 -0.00592913,0.0515906 -0.0117441,0.102177 -0.0146063,0.153669 -0.0110709,0.199039 0.0248228,0.352858 0.243161,0.365 0.265567,0.0147756 0.315894,-0.0966929 0.32463,-0.253768 0.00133465,-0.0240079 0.00100787,-0.0512087 0.000669291,-0.0794094 -0.000531496,-0.0444567 -0.00111024,-0.092126 0.00783858,-0.132476 0.000496063,-0.00224409 0.00553543,-0.00625984 0.0129685,-0.0107205 0.00812205,-0.00487402 0.0174843,-0.00798819 0.0268583,-0.00854724 0.00698425,-0.000417323 0.0135197,0.000625984 0.018563,0.00358661 0.00968898,0.00568898 0.0189331,0.0191693 0.0260157,0.0433425 0.0183071,0.0624882 0.0235906,0.106921 0.027126,0.136736 0.0165866,0.139657 0.0189528,0.159583 0.181244,0.159583 0.173169,0 0.207638,-0.122972 0.242969,-0.249031 0.0150433,-0.0536693 0.0304961,-0.108787 0.0632598,-0.106571 0.0580669,0.00393701 0.0854134,0.0433543 0.112031,0.0817323 0.057748,0.0832559 0.113937,0.164256 0.27611,0.164256 0.153528,0 0.149689,-0.120866 0.144953,-0.27002 -0.00283465,-0.0894055 -0.00644094,-0.203047 0.0393425,-0.215689 0.0566063,-0.0156457 0.089811,-0.0742283 0.0741654,-0.130835 -0.0156457,-0.0566063 -0.0742283,-0.089811 -0.130835,-0.0741654 -0.206917,0.0571457 -0.200346,0.264339 -0.195177,0.427358 0.000874016,0.027622 0.133516,0.0500118 0.0675512,0.0500118 -0.0513386,0 -0.0758858,-0.0353858 -0.10111,-0.071752 -0.055622,-0.080189 -0.112748,-0.162547 -0.272866,-0.173402 -0.205205,-0.0139016 -0.244331,0.125665 -0.282425,0.261571 -0.00570866,0.0203701 -0.0113583,0.0405236 -0.0168898,0.0568504 -0.00511811,-0.0285394 -0.0128189,-0.0632638 -0.0252835,-0.105799 -0.0241024,-0.082248 -0.0691063,-0.136047 -0.122677,-0.167508 -0.0440787,-0.0258858 -0.092126,-0.0355433 -0.138571,-0.0327598 -0.0440591,0.00264173 -0.0870315,0.0166496 -0.12352,0.0385472 -0.0551929,0.0331181 -0.0976339,0.0857205 -0.111307,0.14739 -0.0142441,0.0642283 -0.0135157,0.124555 -0.0128386,0.180815 0.00026378,0.0222717 0.000527559,0.043748 -0.000669291,0.0652362 -0.00187795,0.033811 -0.017063,0.0575709 -0.100457,0.0529331 -0.0415669,-0.00231102 -0.046685,-0.0624094 -0.0423268,-0.140827 0.00229921,-0.0413583 0.00798031,-0.0907717 0.0137717,-0.141173 0.0141378,-0.123075 0.0289173,-0.251661 0.00497638,-0.364791z"/>
  <rect class="fil1" width="6.82666" height="6.82666"/>
 </g>
</svg>
