<?xml version="1.0" encoding="UTF-8"?>
<!DOCTYPE svg PUBLIC "-//W3C//DTD SVG 1.1//EN" "http://www.w3.org/Graphics/SVG/1.1/DTD/svg11.dtd">
<!-- Creator: CorelDRAW -->
<svg xmlns="http://www.w3.org/2000/svg" xml:space="preserve" width="6.82666in" height="6.82666in" style="shape-rendering:geometricPrecision; text-rendering:geometricPrecision; image-rendering:optimizeQuality; fill-rule:evenodd; clip-rule:evenodd"
viewBox="0 0 6.82666 6.82666"
 xmlns:xlink="http://www.w3.org/1999/xlink">
 <defs>
  <style type="text/css">
   <![CDATA[
    .fil1 {fill:none}
    .fil0 {fill:#212121;fill-rule:nonzero}
   ]]>
  </style>
 </defs>
 <g id="Layer_x0020_1">
  <metadata id="CorelCorpID_0Corel-Layer"/>
  <path class="fil0" d="M1.28113 1.78619c-0.0533858,0.024622 -0.0767047,0.0878622 -0.0520827,0.141248 0.024622,0.0533858 0.0878622,0.0767047 0.141248,0.0520827l1.41373 -0.654236c0.0844724,-0.0390906 0.16987,-0.0718937 0.246047,-0.0780906 0.0618583,-0.00503543 0.119555,0.00904331 0.167354,0.0568465l2.00736 2.00736c0.0293189,0.0293228 0.0439803,0.0681181 0.0439803,0.106996 0,0.038878 -0.0146654,0.0776811 -0.0439803,0.106996l-1.04286 1.04285 -0.106992 -0.106996c-0.0416496,-0.0416496 -0.109185,-0.0416496 -0.150835,0 -0.0416496,0.0416496 -0.0416496,0.109185 0,0.150835l0.181811 0.181815 0.000590551 0.000606299c0.0416535,0.0416535 0.109197,0.0416535 0.15085,0l-7.87402e-006 -7.87402e-006 1.11828 -1.11827c0.0709803,-0.0709843 0.106484,-0.164453 0.106484,-0.257831 0,-0.0933701 -0.0354961,-0.186835 -0.106484,-0.257831l-2.00736 -2.00736c-0.098878,-0.0988858 -0.21376,-0.128374 -0.334858,-0.118516 -0.106787,0.00868898 -0.21476,0.0492362 -0.318543,0.0972638l-1.41373 0.654236z"/>
  <path class="fil0" d="M5.68094 4.2222c-0.024622,0.0533858 -0.00130315,0.116626 0.0520827,0.141248 0.0533858,0.024622 0.116626,0.00130315 0.141248,-0.0520827 0.0480276,-0.103783 0.0885748,-0.211756 0.0972677,-0.318543 0.00985433,-0.121098 -0.0196299,-0.235976 -0.118516,-0.334862l-0.453508 -0.453504c-0.0416496,-0.0416496 -0.109185,-0.0416496 -0.150835,0 -0.0416496,0.0416496 -0.0416496,0.109185 0,0.150835l0.453508 0.453504c0.0477992,0.0477992 0.061878,0.1055 0.0568465,0.167358 -0.00620079,0.0761693 -0.0390039,0.161575 -0.0780945,0.246047z"/>
  <path class="fil0" d="M5.60967 4.11682l0.118768 0.0376417c0.0606299,0.0192126 0.107937,0.0615945 0.135319,0.114386 0.0272283,0.0524882 0.0345433,0.115307 0.0153858,0.175768l-0.376441 1.18765c-0.0192126,0.060626 -0.0615945,0.107937 -0.114386,0.135319 -0.0524882,0.0272205 -0.115311,0.0345433 -0.175768,0.0153858l-0.118768 -0.0376457c-0.0932913,-0.0295669 -0.166059,-0.0947205 -0.208138,-0.175858 -0.0419331,-0.0808386 -0.0531969,-0.177594 -0.023685,-0.270705l0.301154 -0.950118c0.0295669,-0.0932913 0.0947205,-0.166059 0.175858,-0.208138 0.0808425,-0.0419291 0.177587,-0.0531929 0.270701,-0.0236811zm0.0546024 0.240972l-0.118768 -0.0376417c-0.0375197,-0.0118937 -0.0764882,-0.0073622 -0.109031,0.00951575 -0.032248,0.0167244 -0.0581969,0.0457913 -0.0700315,0.0831378l-0.301154 0.950118c-0.0118898,0.0375157 -0.0073622,0.0764921 0.00951969,0.109035 0.0167244,0.032248 0.0457913,0.0581969 0.0831378,0.0700315l0.118768 0.0376457c0.00485433,0.00153543 0.00989764,0.000956693 0.0140984,-0.00122047 0.00390157,-0.00202362 0.0070748,-0.00563386 0.00855906,-0.0103189l0.376441 -1.18765c0.00153937,-0.00485827 0.000956693,-0.00990157 -0.00122047,-0.0140984 -0.00202362,-0.00390157 -0.00563386,-0.0070748 -0.0103189,-0.00855906z"/>
  <path class="fil0" d="M1.24009 1.64639c-0.0416496,-0.0416496 -0.109185,-0.0416496 -0.150835,0 -0.0416496,0.0416496 -0.0416496,0.109185 0,0.150835l0.322087 0.322087c0.0416496,0.0416496 0.109185,0.0416496 0.150835,0 0.0416496,-0.0416496 0.0416496,-0.109185 0,-0.150835l-0.322087 -0.322087z"/>
  <path class="fil0" d="M1.57486 2.06772c-0.0208228,-0.0208228 -0.0545945,-0.0208228 -0.0754173,0 -0.0208228,0.0208228 -0.0208228,0.0545945 0,0.0754173l2.4143 2.4143c0.0208228,0.0208228 0.0545945,0.0208228 0.0754173,0 0.0208228,-0.0208228 0.0208228,-0.0545945 0,-0.0754173l-2.4143 -2.4143z"/>
  <path class="fil0" d="M1.29509 1.55485c0.0208228,-0.0208228 0.0208228,-0.0545945 0,-0.0754173 -0.0208228,-0.0208228 -0.0545945,-0.0208228 -0.0754173,0l-0.297378 0.297386c-0.0208228,0.0208228 -0.0208228,0.0545945 0,0.0754173 0.0208228,0.0208228 0.0545945,0.0208228 0.0754173,0l0.297378 -0.297386z"/>
  <rect class="fil1" width="6.82666" height="6.82666"/>
 </g>
</svg>
