<?xml version="1.0" encoding="UTF-8"?>
<!DOCTYPE svg PUBLIC "-//W3C//DTD SVG 1.1//EN" "http://www.w3.org/Graphics/SVG/1.1/DTD/svg11.dtd">
<!-- Creator: CorelDRAW -->
<svg xmlns="http://www.w3.org/2000/svg" xml:space="preserve" width="6.82666in" height="6.82666in" style="shape-rendering:geometricPrecision; text-rendering:geometricPrecision; image-rendering:optimizeQuality; fill-rule:evenodd; clip-rule:evenodd"
viewBox="0 0 6.82666 6.82666"
 xmlns:xlink="http://www.w3.org/1999/xlink">
 <defs>
  <style type="text/css">
   <![CDATA[
    .fil1 {fill:none}
    .fil0 {fill:#212121;fill-rule:nonzero}
   ]]>
  </style>
 </defs>
 <g id="Layer_x0020_1">
  <metadata id="CorelCorpID_0Corel-Layer"/>
  <path class="fil0" d="M1.01072 1.66213c-0.0496654,0.0496654 -0.0496654,0.130193 0,0.179854 0.0496614,0.0496654 0.0705591,0.109295 0.12022,0.0596299l0.293642 -0.293638c0.206913,-0.206917 0.344618,-0.12374 0.477819,-0.0432795 0.0196693,0.0118898 0.039248,0.0237008 0.0524646,0.0314213l2.72741 1.9698 -0.973807 0.973811c-0.0496654,0.0496654 -0.0496654,0.130193 0,0.179854 0.0496614,0.0496654 0.130189,0.0496654 0.179854,0l1.07748 -1.07748c0.00533465,-0.00516142 0.0102913,-0.0108583 0.0147913,-0.0170866 0.041122,-0.056937 0.0282953,-0.136433 -0.0286378,-0.177559l-0.000248031 0.00034252 -2.84711 -2.05624c-0.00584252,-0.00498819 -0.0122205,-0.00952756 -0.0191181,-0.0135079l-8.26772e-005 0.000141732c-0.0227087,-0.0131181 -0.0371772,-0.0218504 -0.0516181,-0.0305748 -0.217189,-0.131201 -0.441713,-0.266823 -0.789047,0.0805118l-0.234008 0.234008z"/>
  <path class="fil0" d="M5.71583 4.35988l-0.748417 -0.748413 -1.10811 1.10811 0.748417 0.748413 0.0404213 -0.0404213c-0.0276181,-0.0525157 -0.0414331,-0.110496 -0.0414331,-0.168441 0,-0.0924449 0.0351535,-0.184972 0.105441,-0.255268l0.539551 -0.539555c0.0702874,-0.0702874 0.162819,-0.105437 0.255264,-0.105437 0.0579449,0 0.115921,0.013815 0.168441,0.0414331l0.0404291 -0.0404252zm-0.673 -0.974665l0.898654 0.89865 0.000606299 0.000590551c0.0416535,0.0416535 0.0416535,0.109197 0,0.15085l-7.87402e-006 -7.87402e-006 -0.179252 0.179248 -0.000590551 0.000606299c-0.0416535,0.0416575 -0.109193,0.0416614 -0.15085,7.87402e-006l0.0754213 -0.0754291 -0.0754173 0.0754173c-0.028622,-0.028622 -0.0664921,-0.042937 -0.104433,-0.042937 -0.0379449,0 -0.075811,0.014315 -0.104429,0.0429331l-0.539551 0.539555c-0.0286181,0.028622 -0.042937,0.0664882 -0.042937,0.104433 0,0.0377598 0.014185,0.0754488 0.0425276,0.104016l0.000417323 0.000409449c0.0416535,0.0416535 0.0416535,0.109197 0,0.15085l-7.87402e-006 -7.87402e-006 -0.179248 0.179248 -0.000590551 0.000606299c-0.0416535,0.0416535 -0.109197,0.0416535 -0.15085,0l7.87402e-006 -7.87402e-006 -0.898654 -0.89865 -0.000606299 -0.000590551c-0.0416535,-0.0416535 -0.0416535,-0.109197 0,-0.15085l7.87402e-006 7.87402e-006 1.25835 -1.25835 0.000590551 -0.000606299c0.0416535,-0.0416535 0.109197,-0.0416535 0.15085,0l-7.87402e-006 7.87402e-006z"/>
  <path class="fil0" d="M5.22268 3.89575c0.0416496,-0.0416496 0.0416496,-0.109185 0,-0.150835 -0.0416496,-0.0416496 -0.109185,-0.0416496 -0.150835,0l-1.16902 1.16902c-0.0416496,0.0416496 -0.0416496,0.109185 0,0.150835 0.0416496,0.0416496 0.109185,0.0416496 0.150835,0l1.16902 -1.16902z"/>
  <polygon class="fil0" points="3.84796,4.60324 3.72156,4.61295 3.64372,4.61892 3.6497,4.54108 3.65343,4.49254 3.60488,4.49626 3.52704,4.50224 3.53302,4.4244 3.53674,4.37585 3.4882,4.37958 3.41035,4.38556 3.41633,4.30771 3.42006,4.25917 3.37152,4.2629 3.29367,4.26887 3.29965,4.19103 3.30338,4.14248 3.25483,4.14622 3.17699,4.15219 3.18297,4.07435 3.18669,4.0258 3.13815,4.02953 3.0603,4.0355 3.06628,3.95767 3.07001,3.90912 3.02146,3.91285 2.94362,3.91883 2.9496,3.84098 2.95333,3.79243 2.90478,3.79616 2.82694,3.80214 2.83291,3.7243 2.83665,3.67575 2.7881,3.67948 2.71026,3.68546 2.71623,3.60761 2.71996,3.55907 2.67142,3.5628 2.59357,3.56878 2.59955,3.49093 2.60328,3.44239 2.55473,3.44611 2.47689,3.45209 2.48287,3.37425 2.48659,3.3257 2.43805,3.32943 2.36021,3.33541 2.36618,3.25757 2.36991,3.20902 2.32136,3.21274 2.24352,3.21872 2.24949,3.14088 2.25322,3.09233 2.20468,3.09606 2.12683,3.10204 2.13281,3.02419 2.13654,2.97565 2.088,2.97938 2.01016,2.98536 2.01613,2.90751 2.01986,2.85896 1.97131,2.86269 1.89347,2.86867 1.89944,2.79083 1.90317,2.74228 1.85463,2.74601 1.77679,2.75199 1.78276,2.67415 1.78649,2.6256 1.73794,2.62933 1.6601,2.6353 1.66607,2.55746 1.6698,2.50891 1.62126,2.51264 1.54341,2.51862 1.54939,2.44077 1.55312,2.39222 1.50457,2.39595 1.42673,2.40193 1.4327,2.32409 1.43644,2.27554 1.38789,2.27927 1.31006,2.28525 1.31602,2.20741 1.31975,2.15886 1.2712,2.16259 1.19337,2.16857 1.19934,2.09072 1.20307,2.04217 1.15452,2.0459 1.07668,2.05188 1.08265,1.97404 1.08638,1.92549 1.03783,1.92922 0.959996,1.9352 0.965972,1.85735 0.975673,1.73096 "/>
  <rect class="fil1" width="6.82666" height="6.82666"/>
 </g>
</svg>
