<?xml version="1.0" encoding="UTF-8"?>
<!DOCTYPE svg PUBLIC "-//W3C//DTD SVG 1.1//EN" "http://www.w3.org/Graphics/SVG/1.1/DTD/svg11.dtd">
<!-- Creator: CorelDRAW -->
<svg xmlns="http://www.w3.org/2000/svg" xml:space="preserve" width="6.82666in" height="6.82666in" style="shape-rendering:geometricPrecision; text-rendering:geometricPrecision; image-rendering:optimizeQuality; fill-rule:evenodd; clip-rule:evenodd"
viewBox="0 0 6.82666 6.82666"
 xmlns:xlink="http://www.w3.org/1999/xlink">
 <defs>
  <style type="text/css">
   <![CDATA[
    .fil1 {fill:none}
    .fil0 {fill:#212121;fill-rule:nonzero}
   ]]>
  </style>
 </defs>
 <g id="Layer_x0020_1">
  <metadata id="CorelCorpID_0Corel-Layer"/>
  <path class="fil0" d="M3.4278 2.57737l0.821504 0.821508c0.0490709,0.0490709 0.0736142,0.11363 0.0736142,0.178106 0,0.0644685 -0.0245433,0.129031 -0.0736142,0.178102l-0.212161 0.212161 7.87402e-006 7.87402e-006c-0.037626,0.037626 -0.096378,0.0412598 -0.138087,0.0109094 -0.0608504,-0.0374961 -0.131965,-0.0525551 -0.201138,-0.0451732 -0.0690709,0.00736614 -0.136248,0.0374134 -0.189232,0.0901339l-0.0010315 0.00103543c-0.0527717,0.0529882 -0.0828543,0.120201 -0.0902244,0.189311 -0.00758268,0.0711024 0.00853937,0.14426 0.0483622,0.206217l0.000185039 -0.00011811c0.0280748,0.0436417 0.0202953,0.100051 -0.0158189,0.134654l-1.23595 1.23595 -7.87402e-006 7.87402e-006c-0.162028,0.162028 -0.375484,0.243039 -0.588846,0.243039 -0.212583,0 -0.425252,-0.0804291 -0.587059,-0.241276 -0.00109843,-0.00104724 -0.00217323,-0.00212205 -0.00322835,-0.00321654 -0.161075,-0.16185 -0.241618,-0.374677 -0.241618,-0.587413 0,-0.21337 0.0810197,-0.426831 0.243047,-0.588858l1.23748 -1.23748 -7.87402e-006 -7.87402e-006c0.037626,-0.037626 0.096378,-0.0412598 0.138087,-0.0109094 0.0608504,0.0374921 0.131969,0.0525512 0.201142,0.0451732 0.069311,-0.0073937 0.13672,-0.037626 0.189787,-0.0906929l3.93701e-006 -3.93701e-006c0.0530669,-0.0530669 0.0832992,-0.120476 0.0906929,-0.189787 0.00758268,-0.0711024 -0.00853937,-0.14426 -0.0483622,-0.206213l-0.000185039 0.00011811c-0.0280748,-0.0436417 -0.0202953,-0.100051 0.0158189,-0.134654l0.210634 -0.210634c0.0490709,-0.0490709 0.113634,-0.0736142 0.178102,-0.0736142 0.0644764,0 0.129035,0.0245433 0.178106,0.0736142zm0.670669 0.972343l-0.821504 -0.821508c-0.00740157,-0.00740157 -0.0173031,-0.0111102 -0.0272717,-0.0111102 -0.0099685,0 -0.0198661,0.00370866 -0.0272677,0.0111102l-0.156831 0.156831c0.0360906,0.084374 0.0493465,0.176335 0.0397598,0.26622 -0.0124291,0.11652 -0.0629449,0.229535 -0.151528,0.318118l-3.93701e-006 3.93701e-006c-0.0885827,0.0885827 -0.201598,0.139098 -0.318118,0.151528 -0.0898858,0.00958661 -0.181846,-0.00366929 -0.26622,-0.0397598l-1.18215 1.18215c-0.120358,0.120358 -0.180543,0.279154 -0.180543,0.438024 0,0.158646 0.0600197,0.31722 0.180043,0.437516l0.000511811 0.0005 -7.87402e-006 7.87402e-006 7.87402e-006 7.87402e-006c0.120354,0.120354 0.279146,0.180535 0.438012,0.180535 0.158866,0 0.317657,-0.0601811 0.438012,-0.180535l7.87402e-006 -7.87402e-006 1.18215 -1.18215c-0.0360906,-0.084374 -0.0493465,-0.176339 -0.0397598,-0.266224 0.0123701,-0.11598 0.0624803,-0.228476 0.150303,-0.316874l0.00122047 -0.00125591 7.87402e-006 7.87402e-006c0.0885906,-0.0885827 0.201598,-0.139094 0.318122,-0.151524 0.0898858,-0.00958661 0.181846,0.00366929 0.266217,0.0397598l0.156831 -0.156831c0.00740157,-0.00740157 0.0111102,-0.0172992 0.0111102,-0.0272677 0,-0.0099685 -0.00370866,-0.0198701 -0.0111102,-0.0272717zm-0.590339 0.47398l3.93701e-006 3.93701e-006 -0.000334646 0.000326772 -0.000137795 0.000137795"/>
  <path class="fil0" d="M5.57326 1.40424c0.0416496,-0.0416496 0.0416496,-0.109185 0,-0.150835 -0.0416496,-0.0416496 -0.109185,-0.0416496 -0.150835,0l-1.72415 1.72415c-0.0416496,0.0416496 -0.0416496,0.109185 0,0.150835 0.0416496,0.0416496 0.109185,0.0416496 0.150835,0l1.72415 -1.72415z"/>
  <path class="fil0" d="M5.75565 0.945055l0.126547 0.126551 7.87402e-006 -7.87402e-006c0.0416535,0.0416535 0.0416535,0.109197 0,0.15085l-0.000606299 0.000590551 -0.358535 0.358531 7.87402e-006 7.87402e-006c-0.0416535,0.0416535 -0.109197,0.0416535 -0.15085,0l-0.000590551 -0.000606299 -0.126547 -0.126547 -7.87402e-006 7.87402e-006c-0.0416535,-0.0416535 -0.0416535,-0.109197 0,-0.15085l0.000606299 -0.000590551 0.358535 -0.358535 -7.87402e-006 -7.87402e-006c0.0416535,-0.0416535 0.109197,-0.0416535 0.15085,0l0.000590551 0.000606299z"/>
  <path class="fil0" d="M1.14635 4.65344c-0.0416496,-0.0416496 -0.109185,-0.0416496 -0.150835,0 -0.0416496,0.0416496 -0.0416496,0.109185 0,0.150835l1.02688 1.02688c0.0416496,0.0416496 0.109185,0.0416496 0.150835,0 0.0416496,-0.0416496 0.0416496,-0.109185 0,-0.150835l-1.02688 -1.02688z"/>
  <path class="fil0" d="M2.50893 4.11311c0.0208228,-0.0208228 0.0208228,-0.0545945 0,-0.0754173 -0.0208228,-0.0208228 -0.0545945,-0.0208228 -0.0754173,0l-0.653469 0.653465c-0.0208228,0.0208228 -0.0208228,0.0545945 0,0.0754173 0.0208228,0.0208228 0.0545945,0.0208228 0.0754173,0l0.653469 -0.653465z"/>
  <path class="fil0" d="M2.78897 4.39315c0.0208228,-0.0208228 0.0208228,-0.0545945 0,-0.0754173 -0.0208228,-0.0208228 -0.0545945,-0.0208228 -0.0754173,0l-0.653469 0.653465c-0.0208228,0.0208228 -0.0208228,0.0545945 0,0.0754173 0.0208228,0.0208228 0.0545945,0.0208228 0.0754173,0l0.653469 -0.653465z"/>
  <path class="fil0" d="M3.48767 2.51749l0.821504 0.821508c0.0490709,0.0490709 0.0736142,0.11363 0.0736142,0.178106 0,0.0644685 -0.0245433,0.129031 -0.0736142,0.178102l-0.212161 0.212161 7.87402e-006 7.87402e-006c-0.037626,0.037626 -0.096378,0.0412598 -0.138087,0.0109094 -0.0608504,-0.0374961 -0.131965,-0.0525551 -0.201138,-0.0451732 -0.0690709,0.00736614 -0.136248,0.0374134 -0.189232,0.0901339l-0.0010315 0.00103543c-0.0527717,0.0529882 -0.0828543,0.120201 -0.0902244,0.189311 -0.00758268,0.0711024 0.00853937,0.14426 0.0483622,0.206217l0.000185039 -0.00011811c0.0280748,0.0436417 0.0202953,0.100051 -0.0158189,0.134654l-1.23595 1.23595 -7.87402e-006 7.87402e-006c-0.162028,0.162028 -0.375484,0.243039 -0.588846,0.243039 -0.212583,0 -0.425252,-0.0804291 -0.587059,-0.241276 -0.00109843,-0.00104724 -0.00217323,-0.00212205 -0.00322835,-0.00321654 -0.161075,-0.16185 -0.241618,-0.374677 -0.241618,-0.587413 0,-0.21337 0.0810197,-0.426831 0.243047,-0.588858l1.23748 -1.23748 -7.87402e-006 -7.87402e-006c0.037626,-0.037626 0.096378,-0.0412598 0.138087,-0.0109094 0.0608504,0.0374921 0.131969,0.0525512 0.201142,0.0451732 0.069311,-0.0073937 0.13672,-0.037626 0.189787,-0.0906929l3.93701e-006 -3.93701e-006c0.0530669,-0.0530669 0.0832992,-0.120476 0.0906929,-0.189787 0.00758268,-0.0711024 -0.00853937,-0.14426 -0.0483622,-0.206213l-0.000185039 0.00011811c-0.0280748,-0.0436417 -0.0202953,-0.100051 0.0158189,-0.134654l0.210634 -0.210634c0.0490709,-0.0490709 0.113634,-0.0736142 0.178102,-0.0736142 0.0644764,0 0.129035,0.0245433 0.178106,0.0736142zm0.670669 0.972343l-0.821504 -0.821508c-0.00740157,-0.00740157 -0.0173031,-0.0111102 -0.0272717,-0.0111102 -0.0099685,0 -0.0198661,0.00370866 -0.0272677,0.0111102l-0.156831 0.156831c0.0360906,0.084374 0.0493465,0.176335 0.0397598,0.26622 -0.0124291,0.11652 -0.0629449,0.229535 -0.151528,0.318118l-3.93701e-006 3.93701e-006c-0.0885827,0.0885827 -0.201598,0.139098 -0.318118,0.151528 -0.0898858,0.00958661 -0.181846,-0.00366929 -0.26622,-0.0397598l-1.18215 1.18215c-0.120358,0.120358 -0.180543,0.279154 -0.180543,0.438024 0,0.158646 0.0600197,0.31722 0.180043,0.437516l0.000511811 0.0005 -7.87402e-006 7.87402e-006 7.87402e-006 7.87402e-006c0.120354,0.120354 0.279146,0.180535 0.438012,0.180535 0.158866,0 0.317657,-0.0601811 0.438012,-0.180535l7.87402e-006 -7.87402e-006 1.18215 -1.18215c-0.0360906,-0.084374 -0.0493465,-0.176339 -0.0397598,-0.266224 0.0123701,-0.11598 0.0624803,-0.228476 0.150303,-0.316874l0.00122047 -0.00125591 7.87402e-006 7.87402e-006c0.0885906,-0.0885827 0.201598,-0.139094 0.318122,-0.151524 0.0898858,-0.00958661 0.181846,0.00366929 0.266217,0.0397598l0.156831 -0.156831c0.00740157,-0.00740157 0.0111102,-0.0172992 0.0111102,-0.0272677 0,-0.0099685 -0.00370866,-0.0198701 -0.0111102,-0.0272717zm-0.590339 0.47398l3.93701e-006 3.93701e-006 -0.000334646 0.000326772 -0.000137795 0.000137795"/>
  <path class="fil0" d="M5.63314 1.34436c0.0416496,-0.0416496 0.0416496,-0.109185 0,-0.150835 -0.0416496,-0.0416496 -0.109185,-0.0416496 -0.150835,0l-1.72415 1.72415c-0.0416496,0.0416496 -0.0416496,0.109185 0,0.150835 0.0416496,0.0416496 0.109185,0.0416496 0.150835,0l1.72415 -1.72415z"/>
  <path class="fil0" d="M5.81553 0.885177l0.126547 0.126551 7.87402e-006 -7.87402e-006c0.0416535,0.0416535 0.0416535,0.109197 0,0.15085l-0.000606299 0.000590551 -0.358535 0.358531 7.87402e-006 7.87402e-006c-0.0416535,0.0416535 -0.109197,0.0416535 -0.15085,0l-0.000590551 -0.000606299 -0.126547 -0.126547 -7.87402e-006 7.87402e-006c-0.0416535,-0.0416535 -0.0416535,-0.109197 0,-0.15085l0.000606299 -0.000590551 0.358535 -0.358535 -7.87402e-006 -7.87402e-006c0.0416535,-0.0416535 0.109197,-0.0416535 0.15085,0l0.000590551 0.000606299z"/>
  <path class="fil0" d="M1.20622 4.59357c-0.0416496,-0.0416496 -0.109185,-0.0416496 -0.150835,0 -0.0416496,0.0416496 -0.0416496,0.109185 0,0.150835l1.02688 1.02688c0.0416496,0.0416496 0.109185,0.0416496 0.150835,0 0.0416496,-0.0416496 0.0416496,-0.109185 0,-0.150835l-1.02688 -1.02688z"/>
  <path class="fil0" d="M2.56881 4.05324c0.0208228,-0.0208228 0.0208228,-0.0545945 0,-0.0754173 -0.0208228,-0.0208228 -0.0545945,-0.0208228 -0.0754173,0l-0.653469 0.653465c-0.0208228,0.0208228 -0.0208228,0.0545945 0,0.0754173 0.0208228,0.0208228 0.0545945,0.0208228 0.0754173,0l0.653469 -0.653465z"/>
  <path class="fil0" d="M2.84885 4.33328c0.0208228,-0.0208228 0.0208228,-0.0545945 0,-0.0754173 -0.0208228,-0.0208228 -0.0545945,-0.0208228 -0.0754173,0l-0.653469 0.653465c-0.0208228,0.0208228 -0.0208228,0.0545945 0,0.0754173 0.0208228,0.0208228 0.0545945,0.0208228 0.0754173,0l0.653469 -0.653465z"/>
  <rect class="fil1" width="6.82666" height="6.82666"/>
 </g>
</svg>
