<?xml version="1.0" encoding="UTF-8"?>
<!DOCTYPE svg PUBLIC "-//W3C//DTD SVG 1.1//EN" "http://www.w3.org/Graphics/SVG/1.1/DTD/svg11.dtd">
<!-- Creator: CorelDRAW -->
<svg xmlns="http://www.w3.org/2000/svg" xml:space="preserve" width="6.82666in" height="6.82666in" style="shape-rendering:geometricPrecision; text-rendering:geometricPrecision; image-rendering:optimizeQuality; fill-rule:evenodd; clip-rule:evenodd"
viewBox="0 0 6.82666 6.82666"
 xmlns:xlink="http://www.w3.org/1999/xlink">
 <defs>
  <style type="text/css">
   <![CDATA[
    .fil1 {fill:none}
    .fil0 {fill:#212121;fill-rule:nonzero}
   ]]>
  </style>
 </defs>
 <g id="Layer_x0020_1">
  <metadata id="CorelCorpID_0Corel-Layer"/>
  <path class="fil0" d="M3.67803 4.56927c0.0490157,0.0322165 0.11487,0.0185984 0.147087,-0.0304173 0.0322165,-0.0490157 0.0185984,-0.11487 -0.0304173,-0.147087l-0.339618 -0.22322c-0.0490157,-0.0322165 -0.11487,-0.0185984 -0.147087,0.0304173 -0.0322165,0.0490157 -0.0185984,0.11487 0.0304173,0.147087l0.339618 0.22322z"/>
  <path class="fil0" d="M4.77646 4.54243l0.764634 0.502575c0.00642126,0.00340945 0.0123583,0.00738976 0.0177756,0.0118465 0.110256,0.0760945 0.180976,0.189504 0.20635,0.31222 0.0253031,0.122366 0.00532677,0.254295 -0.0656732,0.367854 -0.00226772,0.00441732 -0.00483465,0.00865748 -0.00767323,0.0126929l-0.00030315 0.000433071 -4.33071e-005 5.90551e-005c-0.00146063,0.00206299 -0.00298819,0.00405906 -0.00457874,0.00599213 -0.0760945,0.110283 -0.189524,0.181031 -0.31226,0.206409 -0.12587,0.0260236 -0.261858,0.00415748 -0.377571,-0.0718937l-0.77289 -0.507996c-0.187236,-0.123063 -0.187957,-0.191728 -0.18874,-0.266929 -0.000295276,-0.0281181 -0.000622047,-0.0592126 -0.201744,-0.191402 -0.0782677,-0.0514409 -0.128972,-0.129055 -0.147669,-0.212945 -0.0189016,-0.0847953 -0.00505906,-0.176102 0.0459961,-0.253783 0.0511339,-0.0777992 0.129657,-0.126807 0.21526,-0.143138 0.0839843,-0.0160276 0.17513,-0.000177165 0.253516,0.0513425 0.200728,0.131933 0.229673,0.119791 0.255846,0.108807 0.0690787,-0.0289882 0.13215,-0.0554606 0.319768,0.0678543zm0.714555 0.596752l-0.0583346 0.088752 -0.77289 -0.508c-0.0922047,-0.0606024 -0.10576,-0.0549134 -0.120594,-0.048689 -0.0754488,0.0316693 -0.15887,0.0666772 -0.45502,-0.127972 -0.030122,-0.0197992 -0.065252,-0.0258701 -0.0976811,-0.0196811 -0.0308228,0.00587795 -0.0589055,0.0232283 -0.0769213,0.0506417 -0.0180906,0.0275276 -0.022878,0.0603976 -0.0159961,0.0912795 0.00708268,0.0317874 0.0265945,0.0614016 0.0568346,0.0812756 0.29576,0.194394 0.29672,0.28515 0.297579,0.367236 0.000165354,0.0158031 0.000318898,0.0302402 0.0929055,0.0910945l0.77289 0.507996c0.0665236,0.0437244 0.14522,0.0561969 0.218398,0.0410669 0.0702323,-0.0145197 0.13511,-0.0546732 0.178862,-0.117169 0.00135827,-0.0024685 0.00282283,-0.00490551 0.00439764,-0.00730315l0.0891378 0.0585866 -0.088752 -0.0583346c0.0437205,-0.0665197 0.056189,-0.145217 0.0410591,-0.218386 -0.0145236,-0.0702402 -0.0546811,-0.13513 -0.117189,-0.178878 -0.00246063,-0.00135433 -0.00488583,-0.00281102 -0.00727165,-0.00437795l0.0585866 -0.0891378z"/>
  <path class="fil0" d="M3.8912 1.23306c0.42274,0.280228 0.72585,0.655043 0.856063,1.05522 0.126811,0.38972 0.091126,0.802051 -0.154417,1.17563 -0.11537,0.175535 -0.24452,0.320917 -0.384122,0.438409 -0.147358,0.124012 -0.306197,0.216728 -0.472709,0.280843l0.000181102 0.000464567c-0.0366811,0.0141181 -0.0763701,0.0066063 -0.105004,-0.0162874l-0.368232 -0.242028 -0.000251969 0.000385827c-0.0492283,-0.0323543 -0.0629055,-0.0984961 -0.0305512,-0.147724 0.0182008,-0.0276969 0.0470984,-0.0441339 0.0776614,-0.0474606 0.11072,-0.0215197 0.214091,-0.0613346 0.304795,-0.118921 0.0882008,-0.0559961 0.163878,-0.128472 0.221972,-0.216862 0.135303,-0.205858 0.153587,-0.462657 0.0737717,-0.711417 -0.0823425,-0.256614 -0.267957,-0.503866 -0.537303,-0.680898l-0.000251969 0.000385827c-0.00264567,-0.00174016 -0.00518504,-0.00357874 -0.00762205,-0.00550394 -0.267362,-0.173315 -0.564831,-0.243996 -0.830618,-0.218039 -0.256512,0.0250551 -0.482366,0.141047 -0.618287,0.34215 -0.00234252,0.00434252 -0.00498425,0.00850787 -0.00788583,0.0124606l-6.29921e-005 8.26772e-005 -0.00133858 0.00177953 -0.000452756 0.000590551 -0.000472441 0.000602362c-0.0554134,0.0867047 -0.0903701,0.182173 -0.106248,0.282 -0.0171772,0.108004 -0.0119843,0.221476 0.0138189,0.334929l0.000314961 -7.08661e-005c0.0130827,0.057437 -0.022878,0.11461 -0.080315,0.127693 -0.0329331,0.0075 -0.0657717,-0.00112598 -0.0902717,-0.0206732l-0.371831 -0.244394 -0.000251969 0.000385827c-0.032315,-0.0212402 -0.049311,-0.0570315 -0.0480236,-0.0930512 -0.00682283,-0.172583 0.0149646,-0.349972 0.0702677,-0.531657 0.0527559,-0.173311 0.136024,-0.350067 0.254098,-0.529709l-0.000385827 -0.000251969c0.00200394,-0.00305118 0.00414173,-0.00596457 0.0063937,-0.00874016 0.246469,-0.368953 0.62185,-0.562984 1.04182,-0.595165 0.412626,-0.031622 0.868264,0.094878 1.28328,0.36661l2.3622e-005 -4.33071e-005 1.9685e-005 1.1811e-005 -2.75591e-005 4.33071e-005 0.000122047 7.87402e-005 0.000200787 -0.000334646c0.00125197,0.000751969 0.00247638,0.00152756 0.00368504,0.00232283l3.93701e-006 -7.87402e-006 0.000582677 0.000393701 0.00088189 0.000594488 0.00124409 0.000854331 0.00133465 0.000952756 0.000755906 0.000551181 0.00154331 0.00116142 0.00053937 0.000413386 0.00156693 0.00124016zm0.653559 1.12105c-0.115606,-0.355287 -0.388614,-0.690626 -0.771063,-0.944102l-0.00191339 -0.00105512 -0.000275591 -0.00015748 -0.00201181 -0.00117323 -0.000188976 -0.000110236 0 -3.93701e-006c-0.00125591,-0.000748031 -0.00249606,-0.00152362 -0.00372835,-0.00233465l0.0585866 -0.0891378 -0.0583346 0.088752c-0.375854,-0.247035 -0.785878,-0.362319 -1.15455,-0.334067 -0.356193,0.0272953 -0.673713,0.190496 -0.880949,0.500528 -0.00298031,0.0055315 -0.00648425,0.0108543 -0.0105079,0.0158976 -0.103709,0.159244 -0.176791,0.314886 -0.222972,0.466606 -0.0431339,0.141693 -0.0627874,0.280394 -0.0620748,0.415764l0.14248 0.0936496c-0.000854331,-0.0598268 0.00327165,-0.119197 0.0125551,-0.177575 0.0204134,-0.128343 0.0658031,-0.251598 0.137972,-0.36415 0.00163386,-0.00312598 0.00344094,-0.00619685 0.00541732,-0.00920866l0.0891378 0.0585866 -0.088752 -0.0583346c0.172598,-0.262598 0.458413,-0.413394 0.780972,-0.444898 0.310941,-0.0303701 0.657094,0.051122 0.966173,0.25148 0.00620079,0.00323622 0.0121575,0.00712598 0.0177559,0.0116693 0.306634,0.204276 0.518846,0.489878 0.61437,0.787575 0.0989528,0.308394 0.0738465,0.630461 -0.0987717,0.893087 -0.0757835,0.115303 -0.173,0.20889 -0.285311,0.280193 -0.0497795,0.0316063 -0.10265,0.0588976 -0.158035,0.0818307l0.138874 0.0912756c0.126772,-0.0544528 0.248339,-0.128858 0.362437,-0.224882 0.124024,-0.104382 0.239409,-0.234524 0.343287,-0.392575 0.206957,-0.314874 0.236752,-0.663264 0.129417,-0.99313z"/>
  <path class="fil0" d="M1.54203 2.69067c0.0322165,-0.0490157 0.0185984,-0.11487 -0.0304173,-0.147087 -0.0490157,-0.0322165 -0.11487,-0.0185984 -0.147087,0.0304173l-0.251315 0.382362c-0.0322165,0.0490157 -0.0185984,0.11487 0.0304173,0.147087 0.0490157,0.0322165 0.11487,0.0185984 0.147087,-0.0304173l0.251315 -0.382362z"/>
  <path class="fil0" d="M1.21563 2.67648c-0.0490157,-0.0322165 -0.11487,-0.0185984 -0.147087,0.0304173 -0.0322165,0.0490157 -0.0185984,0.11487 0.0304173,0.147087l0.409453 0.269126c0.0490157,0.0322165 0.11487,0.0185984 0.147087,-0.0304173 0.0322165,-0.0490157 0.0185984,-0.11487 -0.0304173,-0.147087l-0.409453 -0.269126z"/>
  <path class="fil0" d="M2.69959 3.65185c-0.0490157,-0.0322165 -0.11487,-0.0185984 -0.147087,0.0304173 -0.0322165,0.0490157 -0.0185984,0.11487 0.0304173,0.147087l0.409453 0.269122c0.0490157,0.0322165 0.11487,0.0185984 0.147087,-0.0304173 0.0322165,-0.0490157 0.0185984,-0.11487 -0.0304173,-0.147087l-0.409453 -0.269122z"/>
  <path class="fil0" d="M3.30048 3.71604l0.355681 0.23378 0.000251969 -0.000385827c0.0492283,0.0323543 0.0629055,0.0984961 0.0305512,0.147724 -0.00183465,0.00279134 -0.00378346,0.00546063 -0.00582677,0.00802362l-0.314283 0.478165 0.000385827 0.000251969c-0.0323543,0.0492283 -0.0984961,0.0629055 -0.147724,0.0305512 -0.00279134,-0.00183465 -0.00546063,-0.00378346 -0.00802362,-0.00582677l-0.355681 -0.23378 -0.000251969 0.000385827c-0.0492283,-0.0323543 -0.0629055,-0.0984961 -0.0305512,-0.147724 0.00183465,-0.00279134 0.00378346,-0.00546063 0.00582677,-0.00802362l0.314283 -0.478165 -0.000385827 -0.000251969c0.0323543,-0.0492283 0.0984961,-0.0629055 0.147724,-0.0305512 0.00279134,0.00183465 0.00546063,0.00378346 0.00802362,0.00582677zm0.15026 0.352949l-0.186453 -0.122551 -0.203055 0.308937 0.186453 0.122551 0.203055 -0.308937z"/>
  <rect class="fil1" width="6.82666" height="6.82666"/>
 </g>
</svg>
