<?xml version="1.0" encoding="UTF-8"?>
<!DOCTYPE svg PUBLIC "-//W3C//DTD SVG 1.1//EN" "http://www.w3.org/Graphics/SVG/1.1/DTD/svg11.dtd">
<!-- Creator: CorelDRAW -->
<svg xmlns="http://www.w3.org/2000/svg" xml:space="preserve" width="6.82666in" height="6.82666in" style="shape-rendering:geometricPrecision; text-rendering:geometricPrecision; image-rendering:optimizeQuality; fill-rule:evenodd; clip-rule:evenodd"
viewBox="0 0 6.82666 6.82666"
 xmlns:xlink="http://www.w3.org/1999/xlink">
 <defs>
  <style type="text/css">
   <![CDATA[
    .fil1 {fill:none}
    .fil0 {fill:#212121;fill-rule:nonzero}
   ]]>
  </style>
 </defs>
 <g id="Layer_x0020_1">
  <metadata id="CorelCorpID_0Corel-Layer"/>
  <path class="fil0" d="M1.80827 0.854165c0.13489,-0.00422835 0.270343,0.0184961 0.397531,0.0681929 0.125622,0.0490827 0.243138,0.124122 0.344098,0.225079 0.149453,0.149457 0.241929,0.335024 0.27739,0.529394 0.0319252,0.174988 0.017189,0.356736 -0.0441929,0.525201l1.92715 1.92715c0.15939,-0.0587677 0.331161,-0.0734646 0.496453,-0.0440591 0.185417,0.0329843 0.362795,0.120961 0.50574,0.263902 0.185799,0.185799 0.278697,0.429311 0.278697,0.672803 0,0.2435 -0.0929016,0.487012 -0.278697,0.672803l-3.93701e-006 3.93701e-006c-0.185795,0.185791 -0.429303,0.278697 -0.672799,0.278697 -0.243496,0 -0.487,-0.0929055 -0.672795,-0.278697l-3.93701e-006 -3.93701e-006c-0.135386,-0.135386 -0.221433,-0.301898 -0.258122,-0.476992 -0.0326811,-0.155957 -0.0258543,-0.318563 0.0204488,-0.471799l-1.94494 -1.94494c-0.168465,0.0613819 -0.350213,0.0761181 -0.525201,0.0441929 -0.194378,-0.0354646 -0.379941,-0.127937 -0.529394,-0.27739 -0.100961,-0.100957 -0.176,-0.218472 -0.225083,-0.344094 -0.0507795,-0.129961 -0.0734055,-0.268559 -0.0678858,-0.406354l0.106252 0.00416535 -0.106583 -0.00427165c0.00235827,-0.0588622 0.0519921,-0.104669 0.110854,-0.102311 0.0282795,0.00113386 0.0535433,0.0131811 0.0719016,0.0319213l0.167055 0.167051 0.204346 0.204346 7.87402e-006 -7.87402e-006 0.000366142 0.000377953c0.00160236,-0.00042126 0.00320079,-0.000811024 0.00480315,-0.00115748l0.275224 -0.0737441 0.273283 -0.0732244 -3.54331e-005 -0.000133858c0.00231102,-0.00061811 0.00462205,-0.00114961 0.00693307,-0.0016063l0.0747559 -0.279972 0.0731614 -0.273047 0.102917 0.0275 -0.103031 -0.0276063c0.000606299,-0.00227165 0.00129134,-0.0045 0.00203543,-0.00669685l-0.204898 -0.204894 -0.167807 -0.167807 -7.87402e-006 7.87402e-006c-0.0416535,-0.0416535 -0.0416535,-0.109197 0,-0.15085 0.0220079,-0.0220079 0.051248,-0.0323858 0.0800748,-0.0311339zm0.320028 0.266524c-0.00735039,-0.00287008 -0.0147323,-0.00562598 -0.0221457,-0.00827165l0.146043 0.146043c0.0289921,0.0289921 0.0478622,0.0647205 0.0565669,0.102567 0.00779921,0.0339291 0.007,0.0696378 -0.00239764,0.103685 -0.000417323,0.00201181 -0.000889764,0.00402756 -0.00142913,0.00603937l-0.000133858 -3.54331e-005 -0.0731417 0.272976 -0.0749567 0.280724c-0.0106614,0.0397795 -0.0320984,0.0739803 -0.060378,0.100311 -0.0268031,0.0249528 -0.059811,0.042685 -0.0956299,0.0512244l-0.00134646 0.00038189 -1.5748e-005 -6.29921e-005 -0.00188976 0.000433071 -0.271555 0.0727598 -0.271504 0.072748c-0.00283858,0.00102362 -0.00573622,0.00194488 -0.00870472,0.00274016l-0.000102362 -0.000377953 -6.29921e-005 1.5748e-005 6.69291e-005 0.000244094c-0.0372913,0.00998819 -0.0753031,0.00915748 -0.11065,-0.000562992 -0.0328031,-0.00901969 -0.062937,-0.0256693 -0.0877283,-0.0484016 -0.00260236,-0.00214961 -0.00512598,-0.00443307 -0.00755906,-0.00686614l7.87402e-006 -7.87402e-006 -0.145051 -0.145051c0.00264567,0.00742126 0.00540157,0.0148071 0.00827559,0.0221654 0.0384291,0.0983504 0.0976181,0.190799 0.177587,0.270764 0.118327,0.118327 0.26411,0.191339 0.416063,0.219059 0.155114,0.0282992 0.317189,0.01 0.463768,-0.054874 0.0402323,-0.0210591 0.0910787,-0.014689 0.124882,0.0191142l-7.87402e-006 7.87402e-006 2.01344 2.01344 0.000606299 0.000590551 -0.00279921 0.00279921 0.000232283 0.000106299 0.00252756 -0.00251181c0.00245669,0.00245669 0.00516142,0.00494488 0.00807874,0.00743307 0.00080315,0.000685039 0.00233858,0.0018622 0.00457874,0.00349606 0.0408071,0.0271732 0.0587008,0.0799606 0.0401535,0.127508l-0.0993701 -0.0387717 0.0991654 0.038752c-0.0524803,0.134512 -0.0640669,0.281327 -0.0347402,0.421287 0.0283071,0.135087 0.0951732,0.264035 0.200626,0.369488l3.93701e-006 3.93701e-006c0.144126,0.144122 0.333043,0.216193 0.521961,0.216193 0.188917,0 0.377839,-0.0720709 0.521965,-0.216193l3.93701e-006 -3.93701e-006c0.144126,-0.144122 0.216193,-0.333047 0.216193,-0.521969 0,-0.188921 -0.0720669,-0.377843 -0.216193,-0.521969 -0.111012,-0.111008 -0.248327,-0.179252 -0.391575,-0.204736 -0.145976,-0.0259646 -0.298031,-0.00803937 -0.434823,0.0537717 -0.0422717,0.0228425 -0.0961969,0.0148346 -0.129823,-0.0224134l0.000850394 -0.000767717 -0.000129921 -0.000102362 -0.000712598 0.000641732c-0.00325197,-0.00360236 -0.00347638,-0.00393701 -0.00412205,-0.00461811l-0.000291339 -0.000307087c-0.00156693,-0.0013937 -0.0031063,-0.00283465 -0.0046063,-0.00433465l7.87402e-006 -7.87402e-006 -2.0122 -2.01221c-0.0318858,-0.0303976 -0.0427598,-0.078748 -0.0235827,-0.121161l0.000165354 7.48031e-005c0.0668976,-0.148039 0.0860236,-0.312268 0.0573661,-0.469358 -0.0277205,-0.151949 -0.100732,-0.297732 -0.219059,-0.416063 -0.0799685,-0.0799646 -0.172413,-0.139154 -0.270768,-0.177583zm3.35733 3.53754l0.0610472 0.227819 0.0625 0.23324 0.000133858 -3.54331e-005c0.0104449,0.0389724 -0.00211024,0.078689 -0.0293346,0.104748l-0.169079 0.169079 -0.170799 0.170803 7.87402e-006 7.87402e-006c-0.0293701,0.0293701 -0.0716102,0.0380236 -0.108575,0.0259764l-0.227673 -0.0610079 -0.233315 -0.0625157 0.0275 -0.102917 -0.0276063 0.103031c-0.040122,-0.010748 -0.0687362,-0.043 -0.0767835,-0.0810315l-0.0610433 -0.227815 -0.0625 -0.23324 -0.000133858 3.54331e-005c-0.0104449,-0.0389724 0.0021063,-0.078685 0.0293307,-0.104744l0.169083 -0.169087 0.170799 -0.170799 -7.87402e-006 -7.87402e-006c0.0293701,-0.0293701 0.0716102,-0.0380276 0.108575,-0.0259803l0.227669 0.0610079 0.233315 0.0625157 -0.0275 0.102917 0.0276063 -0.103031c0.040122,0.010748 0.0687362,0.043 0.0767835,0.0810315zm-0.144787 0.282819l-0.0465827 -0.173839 -0.173835 -0.0465787 -0.173839 -0.0465827 -0.127362 0.127362 -0.127362 0.127366 0.0465827 0.173835 0.0465787 0.173835 0.173835 0.0465787 0.173843 0.0465866 0.127362 -0.127366 0.127362 -0.127362 -0.0465827 -0.173835z"/>
  <rect class="fil1" width="6.82666" height="6.82666"/>
 </g>
</svg>
