<?xml version="1.0" encoding="UTF-8"?>
<!DOCTYPE svg PUBLIC "-//W3C//DTD SVG 1.1//EN" "http://www.w3.org/Graphics/SVG/1.1/DTD/svg11.dtd">
<!-- Creator: CorelDRAW -->
<svg xmlns="http://www.w3.org/2000/svg" xml:space="preserve" width="6.82666in" height="6.82666in" style="shape-rendering:geometricPrecision; text-rendering:geometricPrecision; image-rendering:optimizeQuality; fill-rule:evenodd; clip-rule:evenodd"
viewBox="0 0 6.82666 6.82666"
 xmlns:xlink="http://www.w3.org/1999/xlink">
 <defs>
  <style type="text/css">
   <![CDATA[
    .fil1 {fill:none}
    .fil0 {fill:#212121;fill-rule:nonzero}
   ]]>
  </style>
 </defs>
 <g id="Layer_x0020_1">
  <metadata id="CorelCorpID_0Corel-Layer"/>
  <path class="fil0" d="M3.88156 4.17356c0.0194055,0.0158307 0.0376417,0.0314134 0.0546575,0.0467165 0.0211142,0.019 0.0405866,0.0373937 0.0583031,0.0551102 0.203894,0.203894 0.334177,0.449575 0.386276,0.694512 0.0542559,0.255087 0.0239094,0.510051 -0.0958661,0.718815l-0.0925 -0.0529173 0.0925197 0.0530827c-0.0107402,0.0187205 -0.0263031,0.0329449 -0.0442165,0.0420236 -0.207906,0.117594 -0.460996,0.147122 -0.714213,0.0932638 -0.244933,-0.0520984 -0.490614,-0.182378 -0.694508,-0.386272 -0.0177244,-0.0177244 -0.0361063,-0.037185 -0.0550945,-0.0582913 -0.0169528,-0.0188425 -0.034252,-0.0391929 -0.0518386,-0.0609606l-0.000212598 0.000173228c-0.0327402,-0.0405236 -0.0309331,-0.0977323 0.00161024,-0.136028l0.334201 -0.476783 0.0870827 0.0608346 -0.0873465 -0.0612244c0.00405118,-0.00577953 0.00857874,-0.0110276 0.0134764,-0.0157402l0.192764 -0.192768 -7.87402e-006 -7.87402e-006c0.00679528,-0.00679528 0.0142874,-0.0124764 0.0222362,-0.0170551l0.45911 -0.316331 0.0604173 0.0875 -0.0605197 -0.0878346c0.0421693,-0.0290551 0.097874,-0.0236063 0.133669,0.0101811zm-0.037874 0.252661c-0.014937,-0.014937 -0.029122,-0.0285551 -0.0425472,-0.0408701l-0.389268 0.268209 -0.183866 0.18387 -0.285638 0.4075c0.0122126,0.0133071 0.0257008,0.0273504 0.0404803,0.0421299 0.174146,0.174146 0.38198,0.284988 0.587839,0.328776 0.193913,0.0412441 0.385421,0.0228268 0.543189,-0.0585945 0.0814213,-0.157764 0.0998307,-0.349272 0.0585906,-0.543177 -0.0437874,-0.205862 -0.154634,-0.413697 -0.32878,-0.587843z"/>
  <path class="fil0" d="M1.48413 2.30684c0.116303,0.0962953 0.196453,0.222795 0.232535,0.352894 0.0383701,0.13837 0.0277205,0.281728 -0.0406299,0.400866l-0.0925 -0.0529173 0.0925197 0.0530827c-0.010752,0.0187402 -0.0263307,0.0329764 -0.0442677,0.0420512 -0.118209,0.0659843 -0.259634,0.0758661 -0.396201,0.0379921 -0.132575,-0.0367677 -0.261417,-0.119295 -0.35835,-0.239213l-0.000212598 0.000173228c-0.0327362,-0.0405236 -0.0309291,-0.0977362 0.00161811,-0.136028 0.0894134,-0.127512 0.139642,-0.197602 0.202406,-0.260799 0.0645236,-0.0649724 0.135917,-0.116512 0.269138,-0.208303l0.0604173 0.0875 -0.0605197 -0.0878346c0.042315,-0.0291535 0.0982677,-0.0235669 0.134047,0.0105354zm0.0275354 0.409563c-0.0191969,-0.0692087 -0.0569961,-0.137354 -0.11087,-0.196004 -0.0787323,0.0553346 -0.127673,0.0930157 -0.168913,0.134543 -0.0415591,0.0418504 -0.0793307,0.0914882 -0.135287,0.170307 0.0585709,0.0537126 0.126587,0.0914016 0.195661,0.110559 0.074189,0.0205748 0.148823,0.019252 0.211906,-0.0075 0.0267598,-0.0630866 0.0280787,-0.137717 0.00750394,-0.211906z"/>
  <path class="fil0" d="M3.44756 5.02254c0.0416496,0.0416496 0.109185,0.0416496 0.150835,0 0.0416496,-0.0416496 0.0416496,-0.109185 0,-0.150835l-1.90335 -1.90335c-0.0416496,-0.0416496 -0.109185,-0.0416496 -0.150835,0 -0.0416496,0.0416496 -0.0416496,0.109185 0,0.150835l1.90335 1.90335z"/>
  <path class="fil0" d="M2.78521 1.00576c0.116303,0.0962953 0.196453,0.222795 0.232535,0.352894 0.0383701,0.13837 0.0277205,0.281728 -0.0406299,0.400866l-0.0925 -0.0529173 0.0925197 0.0530827c-0.010752,0.0187402 -0.0263307,0.0329764 -0.0442677,0.0420512 -0.118205,0.0659803 -0.25963,0.0758661 -0.396201,0.0379921 -0.132567,-0.0367677 -0.261409,-0.119295 -0.358346,-0.239209l-0.000216535 0.000173228c-0.0327441,-0.0405315 -0.0309331,-0.0977559 0.00162992,-0.136051 0.0894055,-0.1275 0.139634,-0.197587 0.202394,-0.26078 0.0645236,-0.0649724 0.135917,-0.116512 0.269138,-0.208303l0.0604173 0.0875 -0.0605197 -0.0878346c0.042315,-0.0291535 0.0982677,-0.0235669 0.134047,0.0105354zm0.0275354 0.409563c-0.0191969,-0.0692087 -0.0569961,-0.137354 -0.11087,-0.196004 -0.0787323,0.0553346 -0.127673,0.0930157 -0.168913,0.134543 -0.0415591,0.0418504 -0.0793268,0.0914843 -0.135287,0.170307 0.0585748,0.0537165 0.126591,0.0914016 0.195661,0.110559 0.074189,0.0205748 0.148823,0.019252 0.211906,-0.0075 0.0267598,-0.0630866 0.0280787,-0.137717 0.00750394,-0.211906z"/>
  <path class="fil0" d="M4.74864 3.72146c0.0416496,0.0416496 0.109185,0.0416496 0.150835,0 0.0416496,-0.0416496 0.0416496,-0.109185 0,-0.150835l-1.90335 -1.90335c-0.0416496,-0.0416496 -0.109185,-0.0416496 -0.150835,0 -0.0416496,0.0416496 -0.0416496,0.109185 0,0.150835l1.90335 1.90335z"/>
  <path class="fil0" d="M4.07088 3.75248l0.860209 -0.860209 -7.87402e-006 -7.87402e-006c0.0416535,-0.0416535 0.109197,-0.0416535 0.15085,0l0.000590551 0.000606299 0.81261 0.812614c0.052126,0.052126 0.0781969,0.120713 0.0781969,0.18922 0,0.0685 -0.0260709,0.137091 -0.0781969,0.189224l-0.633193 0.633193c-0.0521339,0.052126 -0.120724,0.0781969 -0.189224,0.0781969l0 -0.000417323c-0.0687598,3.93701e-006 -0.13737,-0.0259252 -0.18922,-0.0777756l-0.813213 -0.813213 -7.87402e-006 7.87402e-006c-0.0416535,-0.0416535 -0.0416535,-0.109197 0,-0.15085l0.000606299 -0.000590551zm0.935626 -0.633957l-0.709972 0.709972 0.737795 0.737795c0.0107323,0.0107323 0.0246457,0.0161063 0.0383858,0.0161063l0 -0.000417323c0.014,0 0.0279291,-0.00523228 0.0383898,-0.0156929l0.633193 -0.633193c0.0104606,-0.0104606 0.0156929,-0.0243898 0.0156929,-0.0383898 0,-0.014 -0.00523622,-0.0279291 -0.0156929,-0.0383858l-0.737791 -0.737795z"/>
  <rect class="fil1" width="6.82666" height="6.82666"/>
 </g>
</svg>
