<?xml version="1.0" encoding="UTF-8"?>
<!DOCTYPE svg PUBLIC "-//W3C//DTD SVG 1.1//EN" "http://www.w3.org/Graphics/SVG/1.1/DTD/svg11.dtd">
<!-- Creator: CorelDRAW -->
<svg xmlns="http://www.w3.org/2000/svg" xml:space="preserve" width="6.82666in" height="6.82666in" style="shape-rendering:geometricPrecision; text-rendering:geometricPrecision; image-rendering:optimizeQuality; fill-rule:evenodd; clip-rule:evenodd"
viewBox="0 0 6.82666 6.82666"
 xmlns:xlink="http://www.w3.org/1999/xlink">
 <defs>
  <style type="text/css">
   <![CDATA[
    .fil1 {fill:none}
    .fil0 {fill:#212121;fill-rule:nonzero}
   ]]>
  </style>
 </defs>
 <g id="Layer_x0020_1">
  <metadata id="CorelCorpID_0Corel-Layer"/>
  <path class="fil0" d="M1.71533 0.882551c0.168902,0.138732 0.285157,0.32139 0.337217,0.509087 0.0542677,0.195677 0.0395748,0.397772 -0.0563543,0.564972l-0.0925 -0.0529173 0.0925197 0.0530827c-0.010752,0.0187362 -0.0263307,0.0329685 -0.0442638,0.0420472 -0.166291,0.0935512 -0.366445,0.107488 -0.560311,0.0537244 -0.190102,-0.0527244 -0.375043,-0.171303 -0.514402,-0.343728l-0.000216535 0.000173228c-0.0327441,-0.0405315 -0.0309331,-0.0977559 0.00162992,-0.136051 0.13522,-0.192862 0.210484,-0.298177 0.303268,-0.39161 0.0945197,-0.0951811 0.200843,-0.17187 0.399626,-0.308835l0.0604173 0.0875 -0.0605197 -0.0878346c0.0422559,-0.0291142 0.0981024,-0.0235827 0.13389,0.0103898zm0.132217 0.565756c-0.0351339,-0.126685 -0.108287,-0.250992 -0.213654,-0.353429 -0.144665,0.100642 -0.229476,0.164287 -0.301142,0.236453 -0.0720157,0.0725236 -0.135665,0.158374 -0.237528,0.302921 0.10237,0.105169 0.226543,0.178201 0.353083,0.213295 0.131772,0.0365433 0.265272,0.0313425 0.376567,-0.0226732 0.0540157,-0.111291 0.0592165,-0.244795 0.0226732,-0.376567z"/>
  <path class="fil0" d="M4.76353 4.91436c0.0416496,0.0416496 0.109185,0.0416496 0.150835,0 0.0416496,-0.0416496 0.0416496,-0.109185 0,-0.150835l-2.88063 -2.88063c-0.0416496,-0.0416496 -0.109185,-0.0416496 -0.150835,0 -0.0416496,0.0416496 -0.0416496,0.109185 0,0.150835l2.88063 2.88063z"/>
  <path class="fil0" d="M3.73746 5.03905l1.30219 -1.30219 -7.87402e-006 -7.87402e-006c0.0416535,-0.0416535 0.109197,-0.0416535 0.15085,0l0.000590551 0.000606299 0.751004 0.751004 7.87402e-006 -7.87402e-006c0.0208268,0.0208268 0.0312402,0.048126 0.0312402,0.0754252l3.93701e-006 0 0 1.30278c0,0.0589094 -0.0477598,0.106669 -0.106669,0.106669l-1.30278 0c-0.0297913,0 -0.0567205,-0.0122165 -0.0760748,-0.0319094l-0.750945 -0.750945 -7.87402e-006 7.87402e-006c-0.0416535,-0.0416535 -0.0416535,-0.109197 0,-0.15085l0.000606299 -0.000590551zm1.3776 -1.07593l-1.15195 1.15195 0.644933 0.644933 1.15195 0 0 -1.15195 -0.644933 -0.644933z"/>
  <rect class="fil1" width="6.82666" height="6.82666"/>
 </g>
</svg>
