<?xml version="1.0" encoding="UTF-8"?>
<!DOCTYPE svg PUBLIC "-//W3C//DTD SVG 1.1//EN" "http://www.w3.org/Graphics/SVG/1.1/DTD/svg11.dtd">
<!-- Creator: CorelDRAW -->
<svg xmlns="http://www.w3.org/2000/svg" xml:space="preserve" width="6.82666in" height="6.82666in" style="shape-rendering:geometricPrecision; text-rendering:geometricPrecision; image-rendering:optimizeQuality; fill-rule:evenodd; clip-rule:evenodd"
viewBox="0 0 6.82666 6.82666"
 xmlns:xlink="http://www.w3.org/1999/xlink">
 <defs>
  <style type="text/css">
   <![CDATA[
    .fil1 {fill:none}
    .fil0 {fill:#212121;fill-rule:nonzero}
   ]]>
  </style>
 </defs>
 <g id="Layer_x0020_1">
  <metadata id="CorelCorpID_0Corel-Layer"/>
  <path class="fil0" d="M1.02 2.34929l4.78667 0c0.0752756,0 0.143638,0.0307205 0.193126,0.0802087 0.0494882,0.0494882 0.0802087,0.11785 0.0802087,0.193126l0 2.11111c0,0.0752756 -0.0307205,0.143638 -0.0802087,0.193126 -0.0494882,0.0494882 -0.11785,0.0802087 -0.193126,0.0802087l-4.78667 0c-0.0752756,0 -0.143638,-0.0307205 -0.193126,-0.0802087 -0.0494882,-0.0494882 -0.0802087,-0.11785 -0.0802087,-0.193126l0 -2.11111c0,-0.0752756 0.0307205,-0.143638 0.0802087,-0.193126 0.0494882,-0.0494882 0.11785,-0.0802087 0.193126,-0.0802087zm4.78667 0.213339l-4.78667 0c-0.0163898,0 -0.0313701,0.00678346 -0.0422913,0.0177047 -0.0109213,0.0109213 -0.0177047,0.0259016 -0.0177047,0.0422913l0 2.11111c0,0.0163898 0.00678346,0.0313701 0.0177047,0.0422913 0.0109213,0.0109213 0.0259016,0.0177047 0.0422913,0.0177047l4.78667 0c0.0163898,0 0.0313701,-0.00678346 0.0422913,-0.0177047 0.0109213,-0.0109213 0.0177047,-0.0259016 0.0177047,-0.0422913l0 -2.11111c0,-0.0163898 -0.00678346,-0.0313701 -0.0177047,-0.0422913 -0.0109213,-0.0109213 -0.0259016,-0.0177047 -0.0422913,-0.0177047z"/>
  <path class="fil0" d="M2.61229 1.66827l1.60208 0c0.0998031,0 0.190465,0.0407559 0.256122,0.106409 0.0656535,0.0656575 0.106409,0.156319 0.106409,0.256122l0 0.419858c0,0.0174055 -6.29921e-005,0.0146772 -0.000153543,0.00963386 -0.00229528,0.0570787 -0.049315,0.102346 -0.106583,0.102331l0 7.87402e-006 -2.11367 0c-0.0574961,0 -0.104362,-0.0455 -0.106579,-0.102453 -9.05512e-005,0.00511811 -0.00015748,0.00801969 -0.00015748,-0.00951969l0 -0.419858c0,-0.0998031 0.0407559,-0.190465 0.106409,-0.256122 0.0656575,-0.0656535 0.156319,-0.106409 0.256122,-0.106409zm1.60208 0.213339l-1.60208 0c-0.0409173,0 -0.0781969,0.0168189 -0.105287,0.0439055 -0.0270866,0.0270906 -0.0439055,0.0643701 -0.0439055,0.105287l0 0.318492 1.90046 0 0 -0.318492c0,-0.0409173 -0.0168189,-0.0781969 -0.0439055,-0.105287 -0.0270906,-0.0270866 -0.0643701,-0.0439055 -0.105287,-0.0439055zm0.362323 0.575902c-7.48031e-005,-0.0041378 -0.000165354,-0.00777953 -0.000244094,-0.00246457l-3.14961e-005 0.00216929 -0.106252 -0.00125197 0.106528 0.00154724z"/>
  <path class="fil0" d="M0.911547 3.57152l0.57202 0 0 0.213339 -0.57202 0 0 -0.213339zm0.89202 0l3.08314 0 0 0.213339 -3.08314 0 0 -0.213339zm3.40314 0l0.708409 0 0 0.213339 -0.708409 0 0 -0.213339z"/>
  <path class="fil0" d="M1.48357 3.25152l0.32 0c0.0294528,0 0.0533346,0.0238819 0.0533346,0.0533346l0 0.746665c0,0.0294528 -0.0238819,0.0533346 -0.0533346,0.0533346l-0.32 0c-0.0294528,0 -0.0533346,-0.0238819 -0.0533346,-0.0533346l0 -0.746665c0,-0.0294528 0.0238819,-0.0533346 0.0533346,-0.0533346zm0.266665 0.106669l-0.213331 0 0 0.639996 0.213331 0 0 -0.639996z"/>
  <path class="fil0" d="M4.8867 3.25152l0.32 0c0.0294528,0 0.0533346,0.0238819 0.0533346,0.0533346l0 0.746665c0,0.0294528 -0.0238819,0.0533346 -0.0533346,0.0533346l-0.32 0c-0.0294528,0 -0.0533346,-0.0238819 -0.0533346,-0.0533346l0 -0.746665c0,-0.0294528 0.0238819,-0.0533346 0.0533346,-0.0533346zm0.266665 0.106669l-0.213331 0 0 0.639996 0.213331 0 0 -0.639996z"/>
  <path class="fil0" d="M1.48357 3.4326l0.32 0c0.0294528,0 0.0533346,0.0238819 0.0533346,0.0533346l0 0.3845c0,0.0294528 -0.0238819,0.0533346 -0.0533346,0.0533346l-0.32 0c-0.0294528,0 -0.0533346,-0.0238819 -0.0533346,-0.0533346l0 -0.3845c0,-0.0294528 0.0238819,-0.0533346 0.0533346,-0.0533346zm0.266665 0.106669l-0.213331 0 0 0.277831 0.213331 0 0 -0.277831z"/>
  <path class="fil0" d="M4.8867 3.4326l0.32 0c0.0294528,0 0.0533346,0.0238819 0.0533346,0.0533346l0 0.3845c0,0.0294528 -0.0238819,0.0533346 -0.0533346,0.0533346l-0.32 0c-0.0294528,0 -0.0533346,-0.0238819 -0.0533346,-0.0533346l0 -0.3845c0,-0.0294528 0.0238819,-0.0533346 0.0533346,-0.0533346zm0.266665 0.106669l-0.213331 0 0 0.277831 0.213331 0 0 -0.277831z"/>
  <path class="fil0" d="M1.44 4.94506c0,-0.0589094 -0.0477598,-0.106669 -0.106669,-0.106669 -0.0589094,0 -0.106669,0.0477598 -0.106669,0.106669l0 0.106665c0,0.0589094 0.0477598,0.106669 0.106669,0.106669 0.0589094,0 0.106669,-0.0477598 0.106669,-0.106669l0 -0.106665z"/>
  <path class="fil0" d="M5.6 4.94506c0,-0.0589094 -0.0477598,-0.106669 -0.106669,-0.106669 -0.0589094,0 -0.106669,0.0477598 -0.106669,0.106669l0 0.106665c0,0.0589094 0.0477598,0.106669 0.106669,0.106669 0.0589094,0 0.106669,-0.0477598 0.106669,-0.106669l0 -0.106665z"/>
  <rect class="fil1" width="6.82666" height="6.82666"/>
 </g>
</svg>
