<?xml version="1.0" encoding="UTF-8"?>
<!DOCTYPE svg PUBLIC "-//W3C//DTD SVG 1.1//EN" "http://www.w3.org/Graphics/SVG/1.1/DTD/svg11.dtd">
<!-- Creator: CorelDRAW -->
<svg xmlns="http://www.w3.org/2000/svg" xml:space="preserve" width="6.82666in" height="6.82666in" style="shape-rendering:geometricPrecision; text-rendering:geometricPrecision; image-rendering:optimizeQuality; fill-rule:evenodd; clip-rule:evenodd"
viewBox="0 0 6.82666 6.82666"
 xmlns:xlink="http://www.w3.org/1999/xlink">
 <defs>
  <style type="text/css">
   <![CDATA[
    .fil1 {fill:none}
    .fil0 {fill:#212121;fill-rule:nonzero}
   ]]>
  </style>
 </defs>
 <g id="Layer_x0020_1">
  <metadata id="CorelCorpID_0Corel-Layer"/>
  <path class="fil0" d="M4.86722 2.52626c0.0421299,0.0342047 0.0826811,0.0688071 0.121528,0.10376 0.0427835,0.0384921 0.0835748,0.0770984 0.122228,0.115752 0.427091,0.427091 0.699717,0.940512 0.808425,1.45159 0.111976,0.526441 0.0502165,1.05111 -0.195287,1.47902l-0.0925 -0.0529173 0.0925197 0.0530827c-0.0107402,0.0187205 -0.0262953,0.0329409 -0.0442087,0.0420197 -0.427067,0.243323 -0.94985,0.30426 -1.47441,0.192685 -0.511075,-0.108705 -1.02449,-0.381331 -1.45159,-0.808425 -0.0386496,-0.0386496 -0.0772598,-0.0794449 -0.115752,-0.122228 -0.0366654,-0.0407441 -0.0729409,-0.0833622 -0.108776,-0.12772l-0.000212598 0.000173228c-0.0327323,-0.0405197 -0.0309291,-0.0977244 0.00161024,-0.13602l0.735571 -1.04939 0.0870827 0.0608346 -0.0873465 -0.0612244c0.00405118,-0.00577953 0.0085748,-0.0110236 0.0134764,-0.0157402l0.422201 -0.422201 -7.87402e-006 -7.87402e-006c0.00679528,-0.00679528 0.0142874,-0.0124764 0.0222362,-0.0170551l1.00974 -0.695732 0.0604173 0.0875 -0.0605197 -0.0878346c0.0421299,-0.0290276 0.0977717,-0.0236102 0.133571,0.0100906zm-0.0209764 0.262091c-0.0195079,-0.0175551 -0.0388937,-0.0345669 -0.0581496,-0.0510354l-0.941098 0.648437 -0.413303 0.413303 -0.687854 0.981319c0.0163543,0.0191102 0.0332441,0.0383504 0.0506654,0.0577126 0.0335354,0.0372756 0.0696142,0.0752559 0.108256,0.113898 0.397343,0.397343 0.872913,0.650535 1.34492,0.750929 0.465406,0.0989921 0.926657,0.0492402 1.30364,-0.157752 0.206988,-0.37698 0.256744,-0.838236 0.157752,-1.30364 -0.100398,-0.472004 -0.353591,-0.947579 -0.750929,-1.34492 -0.0386457,-0.0386457 -0.076622,-0.0747205 -0.113898,-0.108256z"/>
  <path class="fil0" d="M4.11007 4.21935c0.0416496,0.0416496 0.109185,0.0416496 0.150835,0 0.0416496,-0.0416496 0.0416496,-0.109185 0,-0.150835l-1.33696 -1.33695c-0.0416496,-0.0416496 -0.109185,-0.0416496 -0.150835,0 -0.0416496,0.0416496 -0.0416496,0.109185 0,0.150835l1.33696 1.33695z"/>
  <path class="fil0" d="M0.953413 1.29517l0.333579 -0.333579c0.0667047,-0.0666969 0.1545,-0.100051 0.242209,-0.100051 0.0877047,0 0.175504,0.0333583 0.242201,0.100055l1.25091 1.25091 3.93701e-006 3.93701e-006c0.0666969,0.0666969 0.100051,0.154496 0.100051,0.242201 0,0.0877047 -0.0333543,0.1755 -0.100051,0.242197l-3.93701e-006 3.93701e-006 -0.333579 0.333579 -3.93701e-006 3.93701e-006c-0.0666969,0.0666969 -0.154496,0.100051 -0.242201,0.100051l0 -0.000417323c-0.0879646,3.93701e-006 -0.17578,-0.0332087 -0.242201,-0.0996299l-3.93701e-006 -3.93701e-006 -1.25091 -1.25091 -3.93701e-006 -3.93701e-006c-0.0666969,-0.0666969 -0.100051,-0.154488 -0.100051,-0.242201 0,-0.0877087 0.0333543,-0.1755 0.100051,-0.242205l3.93701e-006 -3.93701e-006zm0.484413 -0.182744l-0.333579 0.333579 -3.93701e-006 3.93701e-006c-0.0250276,0.0250276 -0.0375472,0.0581614 -0.0375472,0.0913701 0,0.0332047 0.0125197,0.0663386 0.0375472,0.0913661l3.93701e-006 3.93701e-006 1.25091 1.25091 3.93701e-006 3.93701e-006c0.0253031,0.0253031 0.0584213,0.0379606 0.0913661,0.0379606l0 -0.000417323c0.0332047,0 0.0663386,-0.0125197 0.0913661,-0.0375472l3.93701e-006 -3.93701e-006 0.333579 -0.333579 3.93701e-006 -3.93701e-006c0.0250276,-0.0250276 0.0375472,-0.0581575 0.0375472,-0.0913622 0,-0.0332047 -0.0125197,-0.0663386 -0.0375472,-0.0913661l-3.93701e-006 -3.93701e-006 -1.25091 -1.25091c-0.0250276,-0.0250276 -0.0581614,-0.0375512 -0.0913661,-0.0375512 -0.0332087,0 -0.0663465,0.0125197 -0.091374,0.0375472z"/>
  <path class="fil0" d="M2.15481 2.67507c-0.0416496,0.0416496 -0.0416496,0.109185 0,0.150835 0.0416496,0.0416496 0.109185,0.0416496 0.150835,0l0.503106 -0.503106c0.0416496,-0.0416496 0.0416496,-0.109185 0,-0.150835 -0.0416496,-0.0416496 -0.109185,-0.0416496 -0.150835,0l-0.503106 0.503106z"/>
  <rect class="fil1" width="6.82666" height="6.82666"/>
 </g>
</svg>
