<?xml version="1.0" encoding="UTF-8"?>
<!DOCTYPE svg PUBLIC "-//W3C//DTD SVG 1.1//EN" "http://www.w3.org/Graphics/SVG/1.1/DTD/svg11.dtd">
<!-- Creator: CorelDRAW -->
<svg xmlns="http://www.w3.org/2000/svg" xml:space="preserve" width="6.82666in" height="6.82666in" style="shape-rendering:geometricPrecision; text-rendering:geometricPrecision; image-rendering:optimizeQuality; fill-rule:evenodd; clip-rule:evenodd"
viewBox="0 0 6.82666 6.82666"
 xmlns:xlink="http://www.w3.org/1999/xlink">
 <defs>
  <style type="text/css">
   <![CDATA[
    .fil1 {fill:none}
    .fil0 {fill:#212121;fill-rule:nonzero}
   ]]>
  </style>
 </defs>
 <g id="Layer_x0020_1">
  <metadata id="CorelCorpID_0Corel-Layer"/>
  <path class="fil0" d="M0.854134 5.03455c-0.00403543,-0.130035 0.0178898,-0.260606 0.0657953,-0.383209 0.0473583,-0.121209 0.119748,-0.234579 0.217138,-0.331965 0.144173,-0.144177 0.323205,-0.233386 0.510752,-0.267606 0.167945,-0.0306378 0.342339,-0.0167283 0.504146,0.0417126l0.97076 -0.97076 0.970756 -0.970752c-0.0584449,-0.161815 -0.0723504,-0.336213 -0.0417087,-0.504154 0.0342126,-0.187547 0.123429,-0.366579 0.267602,-0.510752 0.0973898,-0.0973898 0.21076,-0.169776 0.331969,-0.217138 0.12537,-0.0489843 0.259079,-0.0708071 0.39202,-0.0654843l-0.00416535 0.106252 0.00426772 -0.106583c0.0588622,0.00235433 0.104669,0.0519882 0.102315,0.11085 -0.00112992,0.0282835 -0.0131811,0.0535472 -0.0319252,0.0719094l-0.160425 0.160417 -0.194988 0.194996c0.00100394,0.00320472 0.00184646,0.00642126 0.00253543,0.00964567l0.0688346 0.256941 0.0711417 0.266425c0.00330709,0.00073622 0.00655118,0.00162598 0.00971654,0.00264961l0.257114 0.0688898 0.266528 0.0714213 0.195047 -0.195035 0.161185 -0.161193 -7.87402e-006 -7.87402e-006c0.0416535,-0.0416535 0.109197,-0.0416535 0.15085,0 0.0220079,0.0220079 0.0323819,0.051248 0.0311339,0.0800709 0.00403543,0.130035 -0.0178858,0.260602 -0.0657874,0.383213 -0.0473622,0.121213 -0.119752,0.234583 -0.217146,0.331976 -0.144173,0.144173 -0.323201,0.23339 -0.510748,0.267602 -0.167945,0.0306417 -0.342343,0.0167323 -0.50415,-0.0417126l-0.970756 0.97076 -0.970764 0.970756c0.0584488,0.161811 0.0723583,0.336201 0.0417165,0.504146 -0.0342126,0.187551 -0.123429,0.366579 -0.267602,0.510752 -0.0973898,0.0973937 -0.210772,0.169787 -0.331976,0.217146 -0.125378,0.0489843 -0.259083,0.0708071 -0.392028,0.0654803l0.00416535 -0.106252 -0.00427165 0.106583c-0.0588622,-0.00235827 -0.104669,-0.0519921 -0.102311,-0.110854 0.00113386,-0.0282835 0.013185,-0.0535472 0.0319291,-0.0719094l0.160429 -0.160421 0.194961 -0.194965 -0.000531496 -0.00234252 -0.070811 -0.264268 -0.0703346 -0.262504 -0.000133858 3.54331e-005c-0.000389764,-0.00145276 -0.00073622,-0.00290551 -0.00106299,-0.00435827l-0.266437 -0.0711378 -0.262283 -0.0702756 0.0275 -0.102917 -0.0276063 0.103031c-0.00140945,-0.000377953 -0.00280709,-0.000791339 -0.00418898,-0.00122047l-0.195 0.194992 -0.161181 0.161185 7.87402e-006 7.87402e-006c-0.0416535,0.0416535 -0.109197,0.0416535 -0.15085,0 -0.0220079,-0.0220079 -0.0323819,-0.051248 -0.0311339,-0.0800709zm0.264126 -0.305705l-0.00123228 0.00317717 0.126079 -0.126071 0.000590551 -0.000606299 7.87402e-006 7.87402e-006 1.1811e-005 -1.1811e-005 0.000208661 0.000208661c0.0287402,-0.0286693 0.0636535,-0.0472283 0.10035,-0.0556654 0.0331181,-0.00761024 0.0679803,-0.00685827 0.101236,0.00225197 0.00206299,0.000425197 0.00412205,0.000905512 0.0061811,0.00145669l-3.54331e-005 0.000133858 0.262213 0.0702559 0.26965 0.0719961c0.0389961,0.0104528 0.0725315,0.0314685 0.0983425,0.0591969 0.024378,0.0261811 0.0417323,0.0584252 0.0501417,0.0934055l0.000429134 0.00151969 -6.29921e-005 1.5748e-005 0.000405512 0.00180315 0.0698976 0.260862 0.0698268 0.260602c0.001,0.00278346 0.00190157,0.00563386 0.0026811,0.00854331l-0.000366142 9.84252e-005 1.9685e-005 6.69291e-005 -0.0953189 0.0254685 3.93701e-006 3.93701e-006 0.0955472 -0.0255315c0.00979134,0.0365472 0.00898031,0.073815 -0.000555118,0.108472 -0.0088189,0.0320433 -0.0250512,0.0614803 -0.0472047,0.0857362 -0.00217323,0.0026378 -0.00449213,0.00520079 -0.00695669,0.00766535l-7.87402e-006 -7.87402e-006 -0.125736 0.125736 0.00319685 -0.00123622c0.093937,-0.0367047 0.182244,-0.093248 0.258646,-0.16965 0.113047,-0.113047 0.182799,-0.252295 0.209272,-0.397421 0.0270118,-0.148075 0.00956693,-0.302811 -0.052315,-0.442776 -0.021063,-0.0402323 -0.0146969,-0.0910906 0.0191063,-0.124894l7.87402e-006 7.87402e-006 1.02058 -1.02057 1.01877 -1.01877c0.0303976,-0.0318898 0.078748,-0.0427598 0.121161,-0.0235827l-7.48031e-005 0.000165354c0.141429,0.0639094 0.298323,0.082185 0.448382,0.054811 0.145122,-0.0264724 0.28437,-0.0962244 0.397417,-0.209272 0.0764016,-0.0764016 0.132945,-0.164705 0.16965,-0.258646l0.00123622 -0.00319291 -0.12472 0.124713 -7.48031e-005 7.87402e-005 -0.000944882 0.000940945 -0.000200787 -0.000200787c-0.0255591,0.0258346 -0.0577835,0.044626 -0.093189,0.0543701 -0.0323504,0.00890157 -0.0669764,0.0102008 -0.101165,0.00237008 -0.00217323,-0.00042126 -0.00434646,-0.000901575 -0.00651575,-0.00146457 -0.0032126,-0.000830709 -0.00635039,-0.00180709 -0.00941339,-0.00290551l-0.26063 -0.0698386 -0.260862 -0.0698976c-0.0362638,-0.00808268 -0.0697244,-0.0257559 -0.0967441,-0.0509094 -0.0277205,-0.025815 -0.0487441,-0.0593465 -0.0591969,-0.0983425l-0.0720039 -0.26965 -0.0702677 -0.262287 0.000177165 -4.72441e-005c-0.0107362,-0.0350512 -0.0120709,-0.0721378 -0.004,-0.107264 0.00853543,-0.0371142 0.0270354,-0.0721378 0.0554567,-0.100559l0.126681 -0.126689 -0.00317717 0.00123228c-0.0939409,0.0367047 -0.18224,0.0932441 -0.258638,0.169642 -0.113047,0.113047 -0.182795,0.252295 -0.209272,0.397421 -0.0270157,0.148079 -0.0095748,0.302819 0.0523071,0.442783 0.021063,0.0402323 0.0146969,0.0910906 -0.0191063,0.124894l-7.87402e-006 -7.87402e-006 -1.02057 1.02057 -1.01877 1.01877c-0.0303976,0.0318898 -0.078748,0.0427598 -0.121161,0.0235827l7.48031e-005 -0.000165354c-0.141429,-0.0639055 -0.298323,-0.0821811 -0.448382,-0.0548071 -0.145122,0.0264764 -0.284374,0.0962244 -0.397421,0.209276 -0.0763976,0.0763937 -0.132941,0.164697 -0.169642,0.258634zm3.77869 -2.79902l-0.000212598 5.51181e-005 -0.0190315 0.0995236 0.0192441 -0.0995787zm7.87402e-005 -0.000413386l-0.000251969 0.000275591 -3.93701e-005 0.000192913 0.000212598 -5.51181e-005 7.87402e-005 -0.000413386zm0.000838583 -0.00433465l-0.000185039 -0.000125984 -0.000905512 0.00473622 0.000251969 -0.000275591 0.000838583 -0.00433465zm0.538268 0.147508l-0.000311024 0.00116535 0 3.93701e-006 0.000311024 -0.00116929zm-0.000311024 0.00116535l-6.69291e-005 0.000251969 -0.00330709 -0.00322441 -0.000153543 5.11811e-005 0.00341732 0.00332677 -0.026122 0.0977677 0.000677165 -0.0025315 0.0254488 -0.0952323 5.90551e-005 5.51181e-005 3.93701e-005 -0.000153543 -5.90551e-005 -5.90551e-005 -4.33071e-005 0.000153543 3.93701e-006 3.93701e-006 3.93701e-005 -0.00015748 6.69291e-005 -0.000248031 0 -3.93701e-006zm-4.11532 2.60838l-3.93701e-006 -1.1811e-005 -0.00136614 -0.00135827 0.00137008 0.00137008zm0.0706181 0.0702205l-9.84252e-005 0.000279528 0.00314173 0.0031378 0.000267717 -0.000125984 -0.00331102 -0.00329134z"/>
  <rect class="fil1" width="6.82666" height="6.82666"/>
 </g>
</svg>
