<?xml version="1.0" encoding="UTF-8"?>
<!DOCTYPE svg PUBLIC "-//W3C//DTD SVG 1.1//EN" "http://www.w3.org/Graphics/SVG/1.1/DTD/svg11.dtd">
<!-- Creator: CorelDRAW -->
<svg xmlns="http://www.w3.org/2000/svg" xml:space="preserve" width="6.82666in" height="6.82666in" style="shape-rendering:geometricPrecision; text-rendering:geometricPrecision; image-rendering:optimizeQuality; fill-rule:evenodd; clip-rule:evenodd"
viewBox="0 0 6.82666 6.82666"
 xmlns:xlink="http://www.w3.org/1999/xlink">
 <defs>
  <style type="text/css">
   <![CDATA[
    .fil1 {fill:none}
    .fil0 {fill:#212121;fill-rule:nonzero}
   ]]>
  </style>
 </defs>
 <g id="Layer_x0020_1">
  <metadata id="CorelCorpID_0Corel-Layer"/>
  <path class="fil0" d="M0.969618 3.11834l2.34667 0c0.0589094,0 0.106669,0.0477598 0.106669,0.106669l0 2.6581c0,0.0589094 -0.0477598,0.106669 -0.106669,0.106669l-2.34667 0c-0.0589094,0 -0.106669,-0.0477598 -0.106669,-0.106669l0 -2.6581c0,-0.0589094 0.0477598,-0.106669 0.106669,-0.106669zm2.24 0.213339l-2.13333 0 0 2.44476 2.13333 0 0 -2.44476z"/>
  <path class="fil0" d="M1.88641 4.70981c0,-0.0589094 -0.0477598,-0.106669 -0.106669,-0.106669 -0.0589094,0 -0.106669,0.0477598 -0.106669,0.106669l0 0.204874c0,0.0589094 0.0477598,0.106669 0.106669,0.106669 0.0589094,0 0.106669,-0.0477598 0.106669,-0.106669l0 -0.204874z"/>
  <path class="fil0" d="M2.60344 4.70981c0,-0.0589094 -0.0477598,-0.106669 -0.106669,-0.106669 -0.0589094,0 -0.106669,0.0477598 -0.106669,0.106669l0 0.204874c0,0.0589094 0.0477598,0.106669 0.106669,0.106669 0.0589094,0 0.106669,-0.0477598 0.106669,-0.106669l0 -0.204874z"/>
  <path class="fil0" d="M2.24493 4.174c0,-0.0589094 -0.0477598,-0.106669 -0.106669,-0.106669 -0.0589094,0 -0.106669,0.0477598 -0.106669,0.106669l0 0.204874c0,0.0589094 0.0477598,0.106669 0.106669,0.106669 0.0589094,0 0.106669,-0.0477598 0.106669,-0.106669l0 -0.204874z"/>
  <path class="fil0" d="M2.13826 3.62029c0.255161,0 0.486181,0.103437 0.653398,0.270654 0.167224,0.167224 0.270654,0.39824 0.270654,0.653402 0,0.255161 -0.103437,0.486181 -0.270654,0.653398 -0.167224,0.167224 -0.398236,0.270654 -0.653398,0.270654 -0.255161,0 -0.486177,-0.103429 -0.653402,-0.270654 -0.167217,-0.167217 -0.270654,-0.398236 -0.270654,-0.653398 0,-0.255161 0.103429,-0.486177 0.270654,-0.653402 0.167224,-0.167217 0.398236,-0.270654 0.653402,-0.270654zm0.57798 0.346071c-0.147909,-0.147909 -0.352264,-0.239402 -0.57798,-0.239402 -0.22572,0 -0.430071,0.0914921 -0.577984,0.239402 -0.147913,0.147913 -0.239402,0.352268 -0.239402,0.577984 0,0.225717 0.0914921,0.430071 0.239402,0.57798 0.147913,0.147913 0.352268,0.239402 0.577984,0.239402 0.225717,0 0.430067,-0.0914882 0.57798,-0.239402 0.147909,-0.147909 0.239402,-0.352264 0.239402,-0.57798 0,-0.225717 -0.0914882,-0.430071 -0.239402,-0.577984z"/>
  <path class="fil0" d="M3.02239 0.836882l0.452764 0c0.148795,0 0.286508,0.0509016 0.39661,0.136193 0.0905157,0.0701181 0.162193,0.16363 0.205823,0.271295l0.212551 0c0.0589094,0 0.106669,0.0477598 0.106669,0.106669l0 0.271661c0,0.0589094 -0.0477598,0.106669 -0.106669,0.106669l-0.212551 0c-0.0436299,0.107661 -0.115311,0.201173 -0.205827,0.271295 -0.110102,0.0852913 -0.247811,0.136193 -0.396606,0.136193l-0.452764 0c-0.0589094,0 -0.106669,-0.0477598 -0.106669,-0.106669l0 -1.08664c0,-0.0589094 0.0477598,-0.106669 0.106669,-0.106669zm0.452764 0.213339l-0.346094 0 0 0.873299 0.346094 0c0.100339,0 0.192894,-0.0340787 0.266606,-0.091185 0.0736811,-0.0570787 0.128815,-0.136972 0.154441,-0.228736 0.00900787,-0.0497953 0.0525709,-0.0875669 0.104961,-0.0875669l0.182307 0 0 -0.0583228 -0.180543 0c-0.048126,0.000830709 -0.0923701,-0.0312047 -0.105004,-0.0798465l0.10324 -0.0268228 -0.102917 0.0266654c-0.0246614,-0.0949291 -0.0807795,-0.177657 -0.15648,-0.236299 -0.0737126,-0.0571063 -0.166268,-0.091185 -0.26661,-0.091185z"/>
  <path class="fil0" d="M2.56962 1.63122c-0.0589094,0 -0.106669,0.0477598 -0.106669,0.106669 0,0.0589094 0.0477598,0.106669 0.106669,0.106669l0.415315 0c0.0589094,0 0.106669,-0.0477598 0.106669,-0.106669 0,-0.0589094 -0.0477598,-0.106669 -0.106669,-0.106669l-0.415315 0z"/>
  <path class="fil0" d="M2.56962 1.12919c-0.0589094,0 -0.106669,0.0477598 -0.106669,0.106669 0,0.0589094 0.0477598,0.106669 0.106669,0.106669l0.415315 0c0.0589094,0 0.106669,-0.0477598 0.106669,-0.106669 0,-0.0589094 -0.0477598,-0.106669 -0.106669,-0.106669l-0.415315 0z"/>
  <path class="fil0" d="M3.43118 1.38826c0.0272165,0 0.051874,0.0110394 0.0697205,0.0288858 0.0178465,0.0178465 0.0288858,0.0425 0.0288858,0.0697244 0,0.0272165 -0.0110394,0.051874 -0.0288858,0.0697205 -0.0178465,0.0178465 -0.0424921,0.0288858 -0.0697205,0.0288858 -0.0272244,0 -0.051878,-0.0110394 -0.0697244,-0.0288858 -0.0178465,-0.0178465 -0.0288858,-0.0424921 -0.0288858,-0.0697205 0,-0.0272244 0.0110394,-0.051878 0.0288858,-0.0697244 0.0178465,-0.0178465 0.0425,-0.0288858 0.0697244,-0.0288858zm0.00538976 0.0932165l-0.00538976 0.00538976 0 -0.00758661c-0.00104331,0.000708661 -0.00420472,0.00199213 -0.0053937,0.00219685l0.0053937 0.00538976 -3.93701e-006 3.93701e-006 -0.00758661 0c0.000708661,0.00104331 0.00199213,0.00420472 0.00219685,0.00538976l0.00538976 -0.00538976 3.93701e-006 0 0 -3.93701e-006 0.00538976 -0.00538976c-0.00118504,-0.000204724 -0.00434646,-0.00148819 -0.00538976,-0.00219685m-0.0053937 0.0129803c0.00118898,0.000204724 0.00435039,0.00149213 0.0053937,0.00220079l0 -3.93701e-006c0.00104724,-0.000708661 0.00420472,-0.00199213 0.00538976,-0.00219685l-0.00538976 -0.00538976 0 0.00758661 0 -0.00758661 0.00758661 0c-0.000708661,-0.00104331 -0.00199213,-0.00420472 -0.00219685,-0.0053937m-0.0129803 0.0053937l-3.93701e-006 0c0.000712598,-0.00104331 0.00199606,-0.00420472 0.00220079,-0.0053937l0.0053937 0.00538976m0.00538976 0.0053937c0.000204724,-0.00118898 0.00148819,-0.00434646 0.00219685,-0.00538976"/>
  <path class="fil0" d="M4.33635 1.3802c-0.0589094,0 -0.106669,0.0477598 -0.106669,0.106669 0,0.0589094 0.0477598,0.106669 0.106669,0.106669l0.343504 0c0.295031,0 0.563067,0.117776 0.757224,0.30752 0.193307,0.188909 0.313295,0.449528 0.313295,0.736232 0,0.286705 -0.119988,0.547323 -0.313295,0.736232 -0.194157,0.189744 -0.462193,0.30752 -0.757224,0.30752l-0.283909 0c-0.0589094,0 -0.106669,0.0477598 -0.106669,0.106669 0,0.0589094 0.0477598,0.106669 0.106669,0.106669l0.283909 0c0.352421,0 0.672988,-0.141075 0.905555,-0.368354 0.233421,-0.22811 0.378303,-0.542713 0.378303,-0.888736 0,-0.346024 -0.144882,-0.660626 -0.378303,-0.888736 -0.232567,-0.22728 -0.553134,-0.368354 -0.905555,-0.368354l-0.343504 0z"/>
  <path class="fil0" d="M5.84811 5.21567c0.0589094,0 0.106669,-0.0477598 0.106669,-0.106669 0,-0.0589094 -0.0477598,-0.106669 -0.106669,-0.106669l-1.45217 0c-0.157209,0 -0.299949,-0.0626772 -0.403268,-0.163646 -0.102469,-0.100138 -0.166075,-0.238311 -0.166075,-0.390327 0,-0.152016 0.0636063,-0.290189 0.166075,-0.390327 0.103315,-0.100969 0.246059,-0.163646 0.403268,-0.163646 0.0589094,0 0.106669,-0.0477598 0.106669,-0.106669 0,-0.0589094 -0.0477598,-0.106669 -0.106669,-0.106669 -0.214591,0 -0.409874,0.0859764 -0.551598,0.22448 -0.142583,0.139339 -0.231083,0.331496 -0.231083,0.542831 0,0.211335 0.0885,0.403492 0.231083,0.542831 0.141732,0.138508 0.337008,0.22448 0.551598,0.22448l1.45217 0z"/>
  <rect class="fil1" width="6.82666" height="6.82666"/>
 </g>
</svg>
