<?xml version="1.0" encoding="UTF-8"?>
<!DOCTYPE svg PUBLIC "-//W3C//DTD SVG 1.1//EN" "http://www.w3.org/Graphics/SVG/1.1/DTD/svg11.dtd">
<!-- Creator: CorelDRAW -->
<svg xmlns="http://www.w3.org/2000/svg" xml:space="preserve" width="6.82666in" height="6.82666in" style="shape-rendering:geometricPrecision; text-rendering:geometricPrecision; image-rendering:optimizeQuality; fill-rule:evenodd; clip-rule:evenodd"
viewBox="0 0 6.82666 6.82666"
 xmlns:xlink="http://www.w3.org/1999/xlink">
 <defs>
  <style type="text/css">
   <![CDATA[
    .fil1 {fill:none}
    .fil0 {fill:#212121;fill-rule:nonzero}
   ]]>
  </style>
 </defs>
 <g id="Layer_x0020_1">
  <metadata id="CorelCorpID_0Corel-Layer"/>
  <path class="fil0" d="M3.48344 2.29439l0.599579 0.445732 0.0849094 -0.221709 0.0995827 0.0379173 -0.0996102 -0.0381496c0.0210669,-0.0550118 0.082748,-0.0825276 0.13776,-0.0614606 0.0260118,0.00996063 0.0458701,0.0290079 0.0573583,0.0521299l0.367906 0.653673 0.167646 -0.167902 0.0754173 0.075 -0.0754843 -0.0753661c0.041622,-0.041685 0.109165,-0.0417402 0.15085,-0.00011811 0.0206457,0.0206181 0.0310787,0.0475906 0.0312913,0.0746339l0.0699094 0.743413 0.221941 -0.0853898 -0.000181102 -0.000468504c0.0549803,-0.0211535 0.116705,0.00627165 0.137858,0.061252 0.010378,0.0269724 0.00905906,0.055563 -0.00146457,0.0801969l-0.207898 0.616772 -0.000370079 0.00110236 -0.100835 -0.033752 0.101122 0.0339488c-0.0152323,0.045374 -0.0580118,0.0737362 -0.103476,0.0727205l-3.72893 0c-0.0589094,0 -0.106669,-0.0477598 -0.106669,-0.106669 0,-0.0222087 0.0067874,-0.0428307 0.0184016,-0.0599055l0.237949 -0.401898 -0.229445 -0.0612953 -3.54331e-005 0.000137795c-0.0569134,-0.0152047 -0.0907283,-0.0736732 -0.0755236,-0.130587 0.00742126,-0.0277835 0.0251535,-0.0500591 0.0479843,-0.063815l0.609598 -0.432772 -0.184567 -0.149224 0.0666654 -0.0829173 -0.067063 0.0829488c-0.045811,-0.0370354 -0.0529213,-0.104201 -0.0158858,-0.150012 0.0184567,-0.0228307 0.0443976,-0.0360472 0.0714488,-0.0389803l0.731134 -0.147055 -0.108087 -0.211728 -7.08661e-005 3.54331e-005c-0.0267835,-0.0524685 -0.00596457,-0.11672 0.0465039,-0.143504 0.0260512,-0.0132992 0.0550079,-0.0148583 0.0808425,-0.0066378l0.72822 0.16315 -0.012626 -0.237417 -0.000275591 1.5748e-005c-0.00312598,-0.0588268 0.0420236,-0.109055 0.10085,-0.112181 0.0288346,-0.0015315 0.0556024,0.00854331 0.0757717,0.0261339zm0.585457 0.700236l-0.537303 -0.399437 0.00762598 0.143335c0.00155512,0.0120079 0.00107087,0.0244882 -0.00172835,0.0369882 -0.012878,0.0574843 -0.0699213,0.0936457 -0.127406,0.0807677l9.05512e-005 -0.000405512 -0.653126 -0.146323 0.0667992 0.130846c0.00541732,0.0095748 0.00944488,0.0201575 0.0117323,0.0315315 0.0116142,0.057752 -0.0257913,0.113992 -0.0835433,0.125606l-0.0210315 -0.104575 0.0208346 0.104165 -0.656335 0.132012 0.111768 0.0903622c0.00994882,0.00687795 0.0188858,0.0155709 0.0262913,0.0260039 0.0341024,0.0480354 0.0228071,0.114622 -0.0252283,0.148724l-0.000173228 -0.000244094 -0.545756 0.387445 0.140543 0.0375472c0.0111969,0.00233071 0.0222047,0.00651575 0.0325945,0.0126654 0.050689,0.0300118 0.0674567,0.0954409 0.0374449,0.14613l-0.000169291 -9.84252e-005 -0.217614 0.367555 3.46814 0 0.11428 -0.339035 -0.131768 0.0506969c-0.0115472,0.0058189 -0.0243543,0.00962205 -0.0380039,0.0109055 -0.0586496,0.00551575 -0.110669,-0.0375591 -0.116185,-0.0962087l0.106197 -0.00998819 -0.105835 0.00958268 -0.0626575 -0.666287 -0.101228 0.101386c-0.00792913,0.00930709 -0.0176102,0.0174055 -0.0288898,0.0237559 -0.0513346,0.0288937 -0.116382,0.0106969 -0.145276,-0.0406378l0.0929567 -0.0523189 -0.0929173 0.0520827 -0.328102 -0.582953 -0.0521575 0.136181c-0.00349213,0.0106929 -0.00874016,0.0210118 -0.0158228,0.0305354 -0.0351457,0.0472756 -0.101965,0.0571102 -0.14924,0.0219646l0.00019685 -0.00026378z"/>
  <path class="fil0" d="M4.18 4.55856l-1.53333 0c-0.0589094,0 -0.106669,-0.0477598 -0.106669,-0.106669l0 -7.87402e-006c0,-0.24115 0.0977598,-0.459492 0.255803,-0.617535 0.158043,-0.158043 0.376382,-0.255803 0.617531,-0.255803 0.24115,0 0.459488,0.0977598 0.617531,0.255803 0.158043,0.158043 0.255803,0.376386 0.255803,0.617535l0 7.87402e-006c0,0.0589094 -0.0477598,0.106669 -0.106669,0.106669zm-1.41808 -0.213339l1.30283 0c-0.0226732,-0.139543 -0.0890866,-0.264409 -0.184717,-0.360039 -0.119425,-0.119425 -0.284433,-0.193299 -0.466697,-0.193299 -0.182264,0 -0.347272,0.073874 -0.466697,0.193299 -0.0956299,0.0956299 -0.162043,0.220496 -0.184717,0.360039z"/>
  <path class="fil0" d="M3.79198 4.55856l-0.757307 0c-0.0589094,0 -0.106669,-0.0477598 -0.106669,-0.106669l0 -3.93701e-006c0,-0.134004 0.0543268,-0.255339 0.142157,-0.343169 0.0878307,-0.0878307 0.209161,-0.142157 0.343165,-0.142157 0.134004,0 0.255335,0.0543268 0.343165,0.142157 0.0878307,0.0878307 0.142157,0.209165 0.142157,0.343169l0 3.93701e-006c0,0.0589094 -0.0477598,0.106669 -0.106669,0.106669zm-0.628929 -0.213339l0.500551 0c-0.013752,-0.0322283 -0.0335354,-0.0612598 -0.0579449,-0.0856693 -0.0492126,-0.0492126 -0.117213,-0.0796535 -0.192331,-0.0796535 -0.0751181,0 -0.143118,0.0304409 -0.192331,0.0796535 -0.0244094,0.0244094 -0.0441929,0.0534409 -0.0579449,0.0856693z"/>
  <path class="fil0" d="M5.86666 4.55856c0.0589094,0 0.106669,-0.0477598 0.106669,-0.106669 0,-0.0589094 -0.0477598,-0.106669 -0.106669,-0.106669l-4.90667 0c-0.0589094,0 -0.106669,0.0477598 -0.106669,0.106669 0,0.0589094 0.0477598,0.106669 0.106669,0.106669l4.90667 0z"/>
  <rect class="fil1" width="6.82666" height="6.82666"/>
 </g>
</svg>
