<?xml version="1.0" encoding="UTF-8"?>
<!DOCTYPE svg PUBLIC "-//W3C//DTD SVG 1.1//EN" "http://www.w3.org/Graphics/SVG/1.1/DTD/svg11.dtd">
<!-- Creator: CorelDRAW -->
<svg xmlns="http://www.w3.org/2000/svg" xml:space="preserve" width="6.82666in" height="6.82666in" style="shape-rendering:geometricPrecision; text-rendering:geometricPrecision; image-rendering:optimizeQuality; fill-rule:evenodd; clip-rule:evenodd"
viewBox="0 0 6.82666 6.82666"
 xmlns:xlink="http://www.w3.org/1999/xlink">
 <defs>
  <style type="text/css">
   <![CDATA[
    .fil1 {fill:none}
    .fil0 {fill:#212121;fill-rule:nonzero}
   ]]>
  </style>
 </defs>
 <g id="Layer_x0020_1">
  <metadata id="CorelCorpID_0Corel-Layer"/>
  <path class="fil0" d="M2.43463 3.07516l2.69398 2.68325c0.117496,0.117028 0.255764,0.124575 0.371165,0.071874 0.0556181,-0.0253976 0.106646,-0.0640669 0.148713,-0.11113 0.0418189,-0.0467835 0.0744213,-0.101717 0.0934882,-0.159949 0.0395157,-0.120717 0.016622,-0.257378 -0.112756,-0.361016l-3.13469 -2.51114 -0.000169291 0.000212598c-0.0459764,-0.0368307 -0.0533898,-0.103961 -0.0165591,-0.149937 0.00406693,-0.0050748 0.00850394,-0.00967717 0.0132402,-0.0138071 0.019374,-0.0210394 0.0389921,-0.0446378 0.0587874,-0.0708268 0.0210748,-0.027874 0.0403543,-0.0563701 0.0576378,-0.085378 0.131039,-0.21989 0.160453,-0.472433 0.102083,-0.702969 -0.0582717,-0.230154 -0.204366,-0.438094 -0.424457,-0.569248 -0.190791,-0.113697 -0.406244,-0.15087 -0.610598,-0.120571 -0.165264,0.0245039 -0.323091,0.0932913 -0.454516,0.201555l0.750535 0.44726 0.000173228 -0.000287402c0.0506024,0.0301575 0.0671811,0.0956339 0.0370236,0.146236 -0.00146457,0.00245669 -0.00301575,0.00482677 -0.0046378,0.00712205l-0.563689 0.945917 0.948539 0.321567 -0.0341654 0.100835 0.034248 -0.10102c0.0187638,0.0063622 0.0345866,0.0174331 0.046622,0.0314488zm2.54398 2.83409l-2.68223 -2.67155 -1.04329 -0.353689c-0.00927559,-0.00248819 -0.0183622,-0.00627559 -0.0270157,-0.0114331 -0.0506024,-0.0301575 -0.0671811,-0.0956339 -0.0370236,-0.146236l0.0916299 0.0546063 -0.091252 -0.0545827 0.580882 -0.974768 -0.771933 -0.460012c-0.00881496,-0.00432283 -0.0171732,-0.00994094 -0.0248031,-0.016874 -0.0435906,-0.039622 -0.046811,-0.107087 -0.00718898,-0.150677l0.0789331 0.0717441 -0.078752 -0.0716654c0.180382,-0.198465 0.421535,-0.322524 0.677098,-0.360417 0.250634,-0.0371614 0.515445,0.00876772 0.750598,0.148902 0.270634,0.161276 0.450291,0.417008 0.521961,0.700083 0.0715748,0.282685 0.0351496,0.592969 -0.126248,0.863803 -0.022252,0.0373425 -0.045689,0.0721969 -0.0701417,0.104543 -0.00216535,0.00286614 -0.00435827,0.00573228 -0.0065748,0.00859843l3.04929 2.44274c0.210622,0.16872 0.247177,0.393362 0.181929,0.592685 -0.0281654,0.0860197 -0.0761693,0.166988 -0.137661,0.235783 -0.0612362,0.0685118 -0.136256,0.125138 -0.218713,0.162791 -0.190917,0.087185 -0.418331,0.0760354 -0.609496,-0.11437z"/>
  <path class="fil0" d="M1.24246 2.72279c-0.165815,-0.111866 -0.282508,-0.271799 -0.342484,-0.45002 -0.061437,-0.182563 -0.0631299,-0.384335 0.00305512,-0.573173l0.100417 0.035 -0.100661 -0.0352835c0.0194843,-0.0555906 0.0803543,-0.0848622 0.135945,-0.065378 0.00973228,0.00340945 0.0186535,0.00809449 0.0266535,0.0137913l0.614354 0.366106 0.000173228 -0.000287402c0.0506024,0.0301575 0.0671811,0.0956339 0.0370236,0.146236 -0.00146457,0.00245669 -0.00301575,0.00482677 -0.0046378,0.00712205l-0.313358 0.525843 0.000287402 0.000173228c-0.0301575,0.0506024 -0.0956339,0.0671811 -0.146236,0.0370236 -0.00369685,-0.00220079 -0.00720472,-0.00459449 -0.0105315,-0.00715354zm-0.140815 -0.517524c0.0346181,0.102866 0.0943189,0.19776 0.176543,0.274693l0.201343 -0.337874 -0.406988 -0.242535c-0.0141496,0.103417 -0.00372835,0.20815 0.0291024,0.305717z"/>
  <path class="fil0" d="M2.36784 2.00818c0.0301417,-0.0503937 0.0137244,-0.115693 -0.0366693,-0.145835 -0.0503937,-0.0301417 -0.115693,-0.0137244 -0.145835,0.0366693l-0.740055 1.24186c-0.0301417,0.0503937 -0.0137244,0.115693 0.0366693,0.145835 0.0503937,0.0301417 0.115693,0.0137244 0.145835,-0.0366693l0.740055 -1.24186z"/>
  <rect class="fil1" width="6.82666" height="6.82666"/>
 </g>
</svg>
