<?xml version="1.0" encoding="UTF-8"?>
<!DOCTYPE svg PUBLIC "-//W3C//DTD SVG 1.1//EN" "http://www.w3.org/Graphics/SVG/1.1/DTD/svg11.dtd">
<!-- Creator: CorelDRAW -->
<svg xmlns="http://www.w3.org/2000/svg" xml:space="preserve" width="6.82666in" height="6.82666in" style="shape-rendering:geometricPrecision; text-rendering:geometricPrecision; image-rendering:optimizeQuality; fill-rule:evenodd; clip-rule:evenodd"
viewBox="0 0 6.82666 6.82666"
 xmlns:xlink="http://www.w3.org/1999/xlink">
 <defs>
  <style type="text/css">
   <![CDATA[
    .fil1 {fill:none}
    .fil0 {fill:#212121;fill-rule:nonzero}
   ]]>
  </style>
 </defs>
 <g id="Layer_x0020_1">
  <metadata id="CorelCorpID_0Corel-Layer"/>
  <path class="fil0" d="M5.70963 4.73203l-0.00123228 -0.0031811c-0.0367008,-0.093937 -0.0932441,-0.18224 -0.169642,-0.258638 -0.113047,-0.113047 -0.252295,-0.182795 -0.397421,-0.209272 -0.150063,-0.027374 -0.306953,-0.00909843 -0.44839,0.0548071l7.48031e-005 0.000165354c-0.0424134,0.0191732 -0.0907677,0.00830315 -0.121161,-0.0235866l-0.517862 -0.517862 -0.120417 0.120421 -0.159118 0.159114 0.519673 0.519673 7.87402e-006 -7.87402e-006c0.0338031,0.0338031 0.0401693,0.0846614 0.0191063,0.124894 -0.0618819,0.139965 -0.0793228,0.294697 -0.052311,0.44278 0.0264764,0.145126 0.0962244,0.284374 0.209272,0.397421 0.0763976,0.0763976 0.164705,0.132941 0.258646,0.169646l0.00318898 0.00123622 -0.125732 -0.125736 -7.87402e-006 7.87402e-006c-0.00247244,-0.00247244 -0.00479134,-0.00503543 -0.0069685,-0.00767717 -0.0221457,-0.0242559 -0.038378,-0.053689 -0.047189,-0.0857244 -0.00953543,-0.0346575 -0.0103465,-0.0719252 -0.000555118,-0.108472l0.000232283 6.29921e-005 1.9685e-005 -7.08661e-005 -0.000366142 -9.84252e-005c0.000779528,-0.00291732 0.00168504,-0.00576772 0.00268504,-0.00855512l0.0698268 -0.260591 0.069874 -0.260791 0.000429134 -0.00187402 -6.29921e-005 -1.5748e-005 0.000401575 -0.00142126c0.0083937,-0.0350197 0.0257598,-0.0672874 0.0501614,-0.0935039 0.025811,-0.0277283 0.0593465,-0.0487441 0.0983425,-0.0591969l0.269654 -0.072 0.262213 -0.0702559 -3.54331e-005 -0.000133858c0.00206299,-0.000551181 0.00412598,-0.0010315 0.00618898,-0.00145669 0.0332559,-0.00911024 0.0681142,-0.00986614 0.101232,-0.00224803 0.036689,0.00844094 0.0716102,0.027 0.100346,0.0556654l0.000208661 -0.000208661 1.1811e-005 1.1811e-005 7.87402e-006 -7.87402e-006 0.000590551 0.000606299 0.126079 0.126075zm0.197098 -0.080685c0.0479055,0.12261 0.0698307,0.253177 0.0657953,0.383209 0.00124803,0.0288228 -0.00912598,0.058063 -0.0311339,0.0800709 -0.0416535,0.0416535 -0.109197,0.0416535 -0.15085,0l7.87402e-006 -7.87402e-006 -0.161185 -0.161185 -0.195 -0.194996c-0.00137795,0.000429134 -0.00277559,0.00084252 -0.00418504,0.00122047l-0.0276063 -0.103031 0.0275 0.102917 -0.262283 0.0702756 -0.266433 0.0711417c-0.000322835,0.00145276 -0.000673228,0.00290551 -0.00106299,0.00435827l-0.000133858 -3.54331e-005 -0.0703346 0.262504 -0.0707756 0.264134 -0.000566929 0.00248425 0.194953 0.194957 0.160433 0.160429c0.0187402,0.0183583 0.0307913,0.043622 0.0319252,0.0719055 0.00235827,0.0588622 -0.0434488,0.108496 -0.102311,0.110854l-0.00427165 -0.106583 0.00416535 0.106252c-0.132945,0.00532677 -0.26665,-0.0165 -0.392024,-0.0654843 -0.121209,-0.0473583 -0.234587,-0.119752 -0.331976,-0.217142 -0.144173,-0.144173 -0.23339,-0.323205 -0.267602,-0.510752 -0.0306417,-0.167949 -0.0167323,-0.342339 0.0417126,-0.50415l-0.544677 -0.544677 -0.000606299 -0.000590551c-0.0416535,-0.0416535 -0.0416535,-0.109197 0,-0.15085l7.87402e-006 7.87402e-006 0.234535 -0.234531 0.195236 -0.19524 0.000590551 -0.000606299c0.0416535,-0.0416535 0.109197,-0.0416535 0.15085,0l-7.87402e-006 7.87402e-006 0.545276 0.545276c0.161811,-0.0584409 0.336201,-0.0723504 0.50415,-0.0417126 0.187547,0.0342126 0.366579,0.123429 0.510752,0.267602 0.0973898,0.0973898 0.169783,0.210764 0.217138,0.331969zm-0.400571 0.0307795l-3.93701e-006 7.87402e-006 0.00137008 -0.00137008 -0.00136614 0.0013622zm-0.0705236 0.0705039l-9.44882e-005 -0.000279528 -0.0033189 0.00329921 0.000271654 0.000122047 0.00314173 -0.00314173zm-2.49248 -2.089l-0.41063 -0.41063 -7.87402e-006 7.87402e-006c-0.0338031,-0.0338031 -0.0401693,-0.0846614 -0.0191063,-0.124894 0.061878,-0.139965 0.0793189,-0.294701 0.0523071,-0.442783 -0.0264764,-0.145126 -0.0962244,-0.284374 -0.209272,-0.397421 -0.0763976,-0.0763976 -0.164697,-0.132937 -0.258638,-0.169642l-0.0031811 -0.00123228 0.126685 0.126689c0.0284252,0.0284252 0.0469213,0.0634409 0.0554567,0.100555 0.00807874,0.0351339 0.00674409,0.0722165 -0.00399606,0.107272l0.000177165 4.72441e-005 -0.0702756 0.26228 -0.072 0.269654c-0.0104528,0.0389961 -0.0314685,0.0725315 -0.0591969,0.0983425 -0.0270354,0.0251772 -0.0605236,0.0428504 -0.096811,0.0509252l-0.260795 0.0698819 -0.260543 0.069811c-0.00322441,0.00116142 -0.00653543,0.0021811 -0.0099252,0.00304331 -0.00203937,0.000519685 -0.00408268,0.000968504 -0.00612205,0.0013622 -0.0341772,0.00782677 -0.0687835,0.00652362 -0.10113,-0.00237402 -0.0354055,-0.00974409 -0.0676299,-0.0285315 -0.0931929,-0.0543701l-0.000200787 0.000200787 -0.000940945 -0.000940945 -3.93701e-006 0 -7.48031e-005 -7.87402e-005 -0.12472 -0.124717 0.00123622 0.00319291c0.0367047,0.0939409 0.093248,0.182248 0.16965,0.25865 0.113047,0.113047 0.252299,0.182795 0.397421,0.209268 0.150059,0.027374 0.306949,0.00909843 0.448378,-0.054811l-7.48031e-005 -0.000165354c0.0424134,-0.0191772 0.0907638,-0.00830709 0.121161,0.0235827l0.408831 0.408831 0.279535 -0.279535zm-0.209984 -0.511654l0.435638 0.435638 0.000606299 0.000590551c0.0416535,0.0416535 0.0416535,0.109197 0,0.15085l-7.87402e-006 -7.87402e-006 -0.429772 0.429772 -0.000590551 0.000606299c-0.0416535,0.0416535 -0.109197,0.0416535 -0.15085,0l7.87402e-006 -7.87402e-006 -0.436236 -0.436236c-0.161811,0.0584449 -0.336201,0.0723543 -0.504146,0.0417126 -0.187543,-0.0342126 -0.366575,-0.123421 -0.510752,-0.267598 -0.0973937,-0.0973937 -0.169787,-0.210772 -0.217146,-0.33198 -0.0479016,-0.12261 -0.0698228,-0.253181 -0.0657874,-0.383213 -0.00124803,-0.0288228 0.00912598,-0.058063 0.0311339,-0.0800709 0.0416535,-0.0416535 0.109197,-0.0416535 0.15085,0l-7.87402e-006 7.87402e-006 0.161185 0.161193 0.195039 0.195031 0.266535 -0.0714173 0.257118 -0.0688937c0.00316535,-0.00102362 0.00640551,-0.00191339 0.0097126,-0.00264961l0.0711378 -0.266425 0.0688465 -0.256937c0.000685039,-0.00322047 0.00152756,-0.00644094 0.0025315,-0.00964173l-0.194992 -0.194996 -0.160429 -0.160429c-0.0187402,-0.0183622 -0.0307913,-0.043626 -0.0319213,-0.0719055 -0.00235433,-0.0588622 0.0434528,-0.108496 0.102315,-0.11085l0.00426772 0.106583 -0.00416535 -0.106252c0.132941,-0.00532283 0.26665,0.0165039 0.39202,0.0654882 0.121209,0.0473622 0.234579,0.119748 0.331969,0.217138 0.144173,0.144173 0.23339,0.323205 0.267602,0.510752 0.0306378,0.167949 0.0167283,0.342343 -0.0417126,0.50415zm-0.803252 -0.222087l-0.000212598 -5.90551e-005 0.0192441 0.0995748 -0.0190315 -0.0995157zm-3.54331e-005 -0.000192913l-0.000255906 -0.000271654 7.87402e-005 0.000405512 0.000212598 5.90551e-005 -3.54331e-005 -0.000192913zm0 0l-0.000909449 -0.00474409 -0.000185039 0.000122047 0.000838583 0.00435039 0.000255906 0.000271654zm-0.512823 0.242228l-0.026122 -0.0977598 0.00341732 -0.00332677 -0.00015748 -5.11811e-005 -0.00329921 0.00322441 -6.69291e-005 -0.000248031 -3.93701e-006 3.93701e-006 6.69291e-005 0.000244094 -5.51181e-005 5.51181e-005 3.93701e-005 0.000153543 5.51181e-005 -5.51181e-005 0.0250276 0.0936654 0.00109843 0.00409449zm-0.026122 -0.0977598l-3.93701e-005 -0.000153543 -3.93701e-006 0 3.93701e-005 0.000153543 3.93701e-006 0zm-0.000106299 -0.000401575l-0.000314961 -0.00116929 0.000311024 0.00117323 3.93701e-006 -3.93701e-006z"/>
  <path class="fil0" d="M5.82333 2.84501l-0.160701 -0.173717c-0.0466142,0.0166772 -0.0961024,0.022685 -0.144657,0.0181654 -0.0782756,-0.00729528 -0.154327,-0.0418386 -0.212303,-0.103004l-0.000322835 0.000322835 -3.93701e-006 -3.93701e-006 -7.87402e-006 7.87402e-006c-0.000984252,-0.000984252 -0.00193701,-0.00198425 -0.00287008,-0.00299606l-7.87402e-006 3.93701e-006 -0.000385827 -0.000425197 -0.00111811 -0.00124409 -0.000641732 -0.000724409 -0.0011378 -0.00132677 -0.000610236 -0.000732283 -0.0013189 -0.00162598 -0.000232283 -0.000287402 -0.00140945 -0.00182283 -0.000255906 -0.000338583 -0.00105512 -0.00142913c-0.0526457,-0.0614409 -0.0792756,-0.13726 -0.0804213,-0.213193 -0.000732283,-0.0488386 0.00905512,-0.0977283 0.0292165,-0.142874l-0.559283 -0.604583 -0.0113189 0.0104685 -0.0720827 -0.0779173 0.0724331 0.0783031c-0.0432441,0.04 -0.110736,0.037374 -0.150736,-0.00587008 -0.00351181,-0.00379528 -0.00668504,-0.00777953 -0.00953937,-0.0119134l-0.000417323 -0.000492126c-0.156701,-0.184185 -0.517047,-0.607543 -0.985173,-0.534583 0.082937,0.0367402 0.162701,0.0896575 0.238551,0.152969 0.214209,0.178799 0.394201,0.442972 0.519524,0.638839l0.000374016 -0.000240157c0.0302402,0.0472638 0.0185315,0.109354 -0.0255236,0.142583l-0.0193622 0.0179094 0.559413 0.604724c0.0466142,-0.0166772 0.0961063,-0.022685 0.144661,-0.0181654 0.0756102,0.00704724 0.149138,0.0395197 0.206315,0.0968504 0.00323622,0.00275591 0.00630315,0.00570079 0.00919291,0.00882283l3.93701e-006 -3.93701e-006 0.000177165 0.00019685 0.00151181 0.00167717 0.000212598 0.000240157 0.00149606 0.00174016 0.000311024 0.000370079c0.000551181,0.000661417 0.00109843,0.00133071 0.00162992,0.00200394l3.93701e-006 7.87402e-006 0.00152756 0.00197244 0.000153543 0.000200787 0.00106693 0.00145669c0.0526969,0.0614567 0.0793543,0.137311 0.0805,0.213283 0.000732283,0.0488386 -0.00905512,0.0977283 -0.0292165,0.142874l0.160571 0.173575 0.443268 -0.410055zm-0.0598622 -0.377331l0.280614 0.303339c0.00261024,0.0023189 0.00512992,0.00478346 0.00755118,0.00739764 0.04,0.0432441 0.037374,0.110736 -0.00587008,0.150736l-0.000354331 -0.00038189 -0.591354 0.547047c-0.0023189,0.0026063 -0.00478346,0.00512992 -0.00739764,0.00755118 -0.0432441,0.04 -0.110736,0.037374 -0.150736,-0.00587008l0.00038189 -0.000354331 -0.280673 -0.303406c-0.0437047,-0.0387835 -0.0480945,-0.10563 -0.00964567,-0.149799l3.93701e-005 3.54331e-005c0.0204803,-0.0235276 0.030626,-0.053252 0.0301811,-0.0828543 -0.000401575,-0.026748 -0.0094252,-0.0534094 -0.0272362,-0.0752992 -0.00187008,-0.00175197 -0.00368898,-0.00357874 -0.00545669,-0.00548819l0.00038189 -0.000354331c-0.0211654,-0.022878 -0.0493504,-0.0358031 -0.0784528,-0.0385118 -0.0277283,-0.00257874 -0.0561339,0.00398819 -0.0800433,0.0199094 -0.043315,0.0362244 -0.107906,0.0324685 -0.146673,-0.00944488l0.00038189 -0.000354331 -0.679327 -0.734346c-0.0026063,-0.0023189 -0.00512992,-0.00478346 -0.00755118,-0.00739764 -0.04,-0.0432441 -0.037374,-0.110736 0.00587008,-0.150736l0.000354331 0.00038189 0.0393661 -0.0364173c-0.112768,-0.171142 -0.261154,-0.375504 -0.428969,-0.515583 -0.168449,-0.140602 -0.358236,-0.213441 -0.547303,-0.098626 -0.0452953,0.0328583 -0.108929,0.0251496 -0.144945,-0.0186535 -0.0374134,-0.0455039 -0.0308543,-0.112724 0.0146496,-0.150138l0.000251969 0.000307087c0.772591,-0.635228 1.37909,-0.044937 1.65762,0.272701l0.000692913 -0.000637795c0.0023189,-0.00261024 0.00477953,-0.00513386 0.0073937,-0.00755118 0.0432441,-0.04 0.110736,-0.037374 0.150736,0.00587008l-0.00038189 0.000354331 0.679386 0.734413c0.0437047,0.0387835 0.0480945,0.10563 0.00964567,0.149799l-3.93701e-005 -3.54331e-005c-0.0204843,0.0235315 -0.030626,0.053252 -0.0301811,0.0828543 0.000401575,0.0267559 0.00942913,0.0534252 0.027248,0.075315l0.000440945 0.00042126 0.000346457 0.000330709 0.0014252 0.00138583 0.000350394 0.00034252 -3.93701e-006 3.93701e-006c0.000980315,0.000976378 0.00194094,0.00197244 0.00288976,0.00299606l-0.00038189 0.000354331c0.0211614,0.022874 0.0493465,0.0357913 0.0784488,0.0385039 0.0277205,0.00257874 0.056126,-0.00398819 0.0800394,-0.0199094 0.043315,-0.0362244 0.107906,-0.0324685 0.146673,0.00944488l-0.00038189 0.000354331z"/>
  <path class="fil0" d="M4.38728 2.51641l-0.0947362 -0.102409 -0.231535 0.214185 0.0947362 0.102409 0.231535 -0.214185zm-0.0109764 -0.324488l0.231728 0.250496c0.0026063,0.0023189 0.00512992,0.00478346 0.00755118,0.00739764 0.04,0.0432441 0.037374,0.110736 -0.00587008,0.150736l-0.000354331 -0.00038189 -0.379622 0.351177c-0.0023189,0.0026063 -0.00478346,0.00512992 -0.00739764,0.00755118 -0.0432441,0.04 -0.110736,0.037374 -0.150736,-0.00587008l0.00038189 -0.000354331 -0.231728 -0.250496c-0.0026063,-0.0023189 -0.00512992,-0.00478346 -0.00755118,-0.00739764 -0.04,-0.0432441 -0.037374,-0.110736 0.00587008,-0.150736l0.000354331 0.00038189 0.379622 -0.351177c0.0023189,-0.0026063 0.00478346,-0.00512992 0.00739764,-0.00755118 0.0432441,-0.04 0.110736,-0.037374 0.150736,0.00587008l-0.00038189 0.000354331z"/>
  <path class="fil0" d="M0.909654 4.9243l2.84387 -2.47689 -3.54331e-005 -3.93701e-005c0.0444213,-0.038689 0.111803,-0.0340394 0.150492,0.0103819 0.00161024,0.00185039 0.0031378,0.00374409 0.00459843,0.00566929l0.41489 0.448492 -0.0779173 0.0720827 0.0783031 -0.0724331c0.04,0.0432441 0.037374,0.110736 -0.00587008,0.150736 -0.00165748,0.00153543 -0.00335827,0.00299606 -0.00508268,0.00440551l-2.75683 2.56526c-0.136634,0.127138 -0.311307,0.110819 -0.461039,0.0217795 -0.0545118,-0.0324173 -0.105516,-0.0747126 -0.149189,-0.122768 -0.0440748,-0.0484961 -0.0812205,-0.103142 -0.107579,-0.15978 -0.0716535,-0.153949 -0.0691654,-0.323421 0.0690118,-0.444409l-0.000240157 -0.000275591c0.000862205,-0.000755906 0.00174016,-0.00148819 0.00262205,-0.0022126zm2.90624 -2.24845l-2.76612 2.40917c-0.000728346,0.000677165 -0.0014685,0.00134646 -0.00222047,0.00200394l-3.54331e-005 -3.93701e-005 -0.000228346 0.000200787 -0.000204724 -0.000232283c-0.0529764,0.0465866 -0.0491732,0.121898 -0.0155,0.194244 0.0175039,0.0376102 0.0422835,0.0740236 0.071752,0.106449 0.0298701,0.0328701 0.0640827,0.0614016 0.100016,0.0827677 0.0731654,0.0435079 0.153323,0.0563228 0.207709,0.00571654l2.6845 -2.49796 -0.279673 -0.302327z"/>
  <rect class="fil1" width="6.82666" height="6.82666"/>
 </g>
</svg>
