<?xml version="1.0" encoding="UTF-8"?>
<!DOCTYPE svg PUBLIC "-//W3C//DTD SVG 1.1//EN" "http://www.w3.org/Graphics/SVG/1.1/DTD/svg11.dtd">
<!-- Creator: CorelDRAW -->
<svg xmlns="http://www.w3.org/2000/svg" xml:space="preserve" width="6.82666in" height="6.82666in" style="shape-rendering:geometricPrecision; text-rendering:geometricPrecision; image-rendering:optimizeQuality; fill-rule:evenodd; clip-rule:evenodd"
viewBox="0 0 6.82666 6.82666"
 xmlns:xlink="http://www.w3.org/1999/xlink">
 <defs>
  <style type="text/css">
   <![CDATA[
    .fil1 {fill:none}
    .fil0 {fill:#212121;fill-rule:nonzero}
   ]]>
  </style>
 </defs>
 <g id="Layer_x0020_1">
  <metadata id="CorelCorpID_0Corel-Layer"/>
  <path class="fil0" d="M3.37509 2.80749l0.641709 0.641709c0.0428898,0.0428898 0.0643425,0.0992992 0.0643425,0.15563 0,0.0563228 -0.0214528,0.11274 -0.0643425,0.15563l-0.165728 0.165724 7.87402e-006 7.87402e-006c-0.0375472,0.0375472 -0.096126,0.0412402 -0.137819,0.0111024 -0.0427992,-0.0259803 -0.0926732,-0.0363898 -0.141209,-0.0312126 -0.0489764,0.00522441 -0.0966457,0.026626 -0.134209,0.064189 -0.037563,0.037563 -0.0589646,0.0852323 -0.064189,0.134209 -0.00537008,0.0503622 0.0060315,0.102161 0.0342087,0.146008l0.000181102 -0.00011811c0.0280748,0.0436378 0.0202953,0.100047 -0.015811,0.134654l-0.965114 0.965118c-0.131122,0.131122 -0.303846,0.196689 -0.47648,0.196689 -0.172634,0 -0.345362,-0.0655669 -0.476484,-0.196689l-3.93701e-006 -3.93701e-006c-0.131122,-0.131126 -0.196689,-0.30385 -0.196689,-0.476484 0,-0.172634 0.0655669,-0.345358 0.196689,-0.47648l0.966642 -0.966642 -7.87402e-006 -7.87402e-006c0.0375512,-0.0375512 0.0961417,-0.0412402 0.137839,-0.0110866 0.0427953,0.0259724 0.0926614,0.036374 0.141189,0.0312008 0.0489764,-0.00522441 0.0966417,-0.026626 0.134205,-0.064189l3.93701e-006 -3.93701e-006c0.037563,-0.037563 0.0589646,-0.0852283 0.064189,-0.134205 0.00537008,-0.0503622 -0.0060315,-0.102161 -0.0342087,-0.146008l-0.000181102 0.00011811c-0.0280748,-0.0436378 -0.0202953,-0.100047 0.015811,-0.134654l0.164201 -0.164205c0.0428898,-0.0428898 0.0993071,-0.0643425 0.15563,-0.0643425 0.0563307,0 0.11274,0.0214528 0.15563,0.0643425zm0.490874 0.792543l-0.641709 -0.641709c-0.00122441,-0.00122441 -0.00297638,-0.00183858 -0.00479528,-0.00183858 -0.00182283,0 -0.00357087,0.000614173 -0.00479528,0.00183858l-0.111591 0.111594c0.0252165,0.0654843 0.0341535,0.135902 0.0268031,0.204823 -0.0102598,0.096185 -0.0519449,0.189457 -0.125024,0.262535l-3.93701e-006 3.93701e-006c-0.0730787,0.0730787 -0.16635,0.114764 -0.262535,0.125024 -0.0689213,0.00735039 -0.139335,-0.00159055 -0.204823,-0.0268071l-0.912508 0.912508c-0.0894528,0.0894528 -0.134185,0.207512 -0.134185,0.325646 0,0.118134 0.0447323,0.236193 0.134185,0.32565l3.93701e-006 3.93701e-006c0.0894528,0.0894528 0.207516,0.134185 0.32565,0.134185 0.118134,0 0.236193,-0.0447323 0.325646,-0.134185l0.912504 -0.912508c-0.0252165,-0.0654882 -0.0341535,-0.135902 -0.0268031,-0.204823 0.0102598,-0.096185 0.0519449,-0.189461 0.125024,-0.262539 0.0730787,-0.0730787 0.166354,-0.114764 0.262539,-0.125024 0.0689213,-0.00735039 0.139339,0.00158661 0.204823,0.0268031l0.111594 -0.111591c0.00122441,-0.00122441 0.00183858,-0.00297244 0.00183858,-0.00479528 0,-0.0018189 -0.000614173,-0.00357087 -0.00183858,-0.00479528z"/>
  <path class="fil0" d="M5.05099 1.92413c0.0416496,-0.0416496 0.0416496,-0.109185 0,-0.150835 -0.0416496,-0.0416496 -0.109185,-0.0416496 -0.150835,0l-1.34679 1.34679c-0.0416496,0.0416496 -0.0416496,0.109185 0,0.150835 0.0416496,0.0416496 0.109185,0.0416496 0.150835,0l1.34679 -1.34679z"/>
  <path class="fil0" d="M5.1936 1.53256l0.0987165 0.0987205 7.87402e-006 -7.87402e-006c0.0416535,0.0416535 0.0416535,0.109197 0,0.15085l-0.000606299 0.000590551 -0.279929 0.279929 7.87402e-006 7.87402e-006c-0.0416535,0.0416535 -0.109197,0.0416535 -0.15085,0l-0.000590551 -0.000606299 -0.0987205 -0.0987205 -7.87402e-006 7.87402e-006c-0.0416535,-0.0416535 -0.0416535,-0.109197 0,-0.15085l0.000606299 -0.000590551 0.279933 -0.279929 -7.87402e-006 -7.87402e-006c0.0416535,-0.0416535 0.109197,-0.0416535 0.15085,0l0.000590551 0.000606299z"/>
  <path class="fil0" d="M1.59297 4.42919c-0.0416496,-0.0416496 -0.109185,-0.0416496 -0.150835,0 -0.0416496,0.0416496 -0.0416496,0.109185 0,0.150835l0.80213 0.80213c0.0416496,0.0416496 0.109185,0.0416496 0.150835,0 0.0416496,-0.0416496 0.0416496,-0.109185 0,-0.150835l-0.80213 -0.80213z"/>
  <path class="fil0" d="M2.64908 4.03187c0.0208228,-0.0208228 0.0208228,-0.0545945 0,-0.0754173 -0.0208228,-0.0208228 -0.0545945,-0.0208228 -0.0754173,0l-0.510449 0.510445c-0.0208228,0.0208228 -0.0208228,0.0545945 0,0.0754173 0.0208228,0.0208228 0.0545945,0.0208228 0.0754173,0l0.510449 -0.510445z"/>
  <path class="fil0" d="M2.86783 4.25063c0.0208228,-0.0208228 0.0208228,-0.0545945 0,-0.0754173 -0.0208228,-0.0208228 -0.0545945,-0.0208228 -0.0754173,0l-0.510449 0.510445c-0.0208228,0.0208228 -0.0208228,0.0545945 0,0.0754173 0.0208228,0.0208228 0.0545945,0.0208228 0.0754173,0l0.510449 -0.510445z"/>
  <path class="fil0" d="M5.70963 4.73203l-0.00123228 -0.0031811c-0.0367008,-0.093937 -0.0932441,-0.18224 -0.169642,-0.258638 -0.113047,-0.113047 -0.252295,-0.182795 -0.397421,-0.209272 -0.150063,-0.027374 -0.306953,-0.00909843 -0.44839,0.0548071l7.48031e-005 0.000165354c-0.0424134,0.0191732 -0.0907677,0.00830315 -0.121161,-0.0235866l-0.347004 -0.347004 -0.120417 0.120421 -0.159118 0.159114 0.348815 0.348815 7.87402e-006 -7.87402e-006c0.0338031,0.0338031 0.0401693,0.0846614 0.0191063,0.124894 -0.0618819,0.139965 -0.0793228,0.294697 -0.052311,0.44278 0.0264764,0.145126 0.0962244,0.284374 0.209272,0.397421 0.0763976,0.0763976 0.164705,0.132941 0.258646,0.169646l0.00318898 0.00123622 -0.125732 -0.125736 -7.87402e-006 7.87402e-006c-0.00247244,-0.00247244 -0.00479134,-0.00503543 -0.0069685,-0.00767717 -0.0221457,-0.0242559 -0.038378,-0.053689 -0.047189,-0.0857244 -0.00953543,-0.0346575 -0.0103465,-0.0719252 -0.000555118,-0.108472l0.000232283 6.29921e-005 1.9685e-005 -7.08661e-005 -0.000366142 -9.84252e-005c0.000779528,-0.00291732 0.00168504,-0.00576772 0.00268504,-0.00855512l0.0698268 -0.260591 0.069874 -0.260791 0.000429134 -0.00187402 -6.29921e-005 -1.5748e-005 0.000401575 -0.00142126c0.0083937,-0.0350197 0.0257598,-0.0672874 0.0501614,-0.0935039 0.025811,-0.0277283 0.0593465,-0.0487441 0.0983425,-0.0591969l0.269654 -0.072 0.262213 -0.0702559 -3.54331e-005 -0.000133858c0.00206299,-0.000551181 0.00412598,-0.0010315 0.00618898,-0.00145669 0.0332559,-0.00911024 0.0681142,-0.00986614 0.101232,-0.00224803 0.036689,0.00844094 0.0716102,0.027 0.100346,0.0556654l0.000208661 -0.000208661 1.1811e-005 1.1811e-005 7.87402e-006 -7.87402e-006 0.000590551 0.000606299 0.126079 0.126075zm0.197098 -0.080685c0.0479055,0.12261 0.0698307,0.253177 0.0657953,0.383209 0.00124803,0.0288228 -0.00912598,0.058063 -0.0311339,0.0800709 -0.0416535,0.0416535 -0.109197,0.0416535 -0.15085,0l7.87402e-006 -7.87402e-006 -0.161185 -0.161185 -0.195 -0.194996c-0.00137795,0.000429134 -0.00277559,0.00084252 -0.00418504,0.00122047l-0.0276063 -0.103031 0.0275 0.102917 -0.262283 0.0702756 -0.266433 0.0711417c-0.000322835,0.00145276 -0.000673228,0.00290551 -0.00106299,0.00435827l-0.000133858 -3.54331e-005 -0.0703346 0.262504 -0.0707756 0.264134 -0.000566929 0.00248425 0.194953 0.194957 0.160433 0.160429c0.0187402,0.0183583 0.0307913,0.043622 0.0319252,0.0719055 0.00235827,0.0588622 -0.0434488,0.108496 -0.102311,0.110854l-0.00427165 -0.106583 0.00416535 0.106252c-0.132945,0.00532677 -0.26665,-0.0165 -0.392024,-0.0654843 -0.121209,-0.0473583 -0.234587,-0.119752 -0.331976,-0.217142 -0.144173,-0.144173 -0.23339,-0.323205 -0.267602,-0.510752 -0.0306417,-0.167949 -0.0167323,-0.342339 0.0417126,-0.50415l-0.373819 -0.373819 -0.000606299 -0.000590551c-0.0416535,-0.0416535 -0.0416535,-0.109197 0,-0.15085l7.87402e-006 7.87402e-006 0.234535 -0.234531 0.195236 -0.19524 0.000590551 -0.000606299c0.0416535,-0.0416535 0.109197,-0.0416535 0.15085,0l-7.87402e-006 7.87402e-006 0.374417 0.374417c0.161811,-0.0584409 0.336201,-0.0723504 0.50415,-0.0417126 0.187547,0.0342126 0.366579,0.123429 0.510752,0.267602 0.0973898,0.0973898 0.169783,0.210764 0.217138,0.331969zm-0.400571 0.0307795l-3.93701e-006 7.87402e-006 0.00137008 -0.00137008 -0.00136614 0.0013622zm-0.0705236 0.0705039l-9.44882e-005 -0.000279528 -0.0033189 0.00329921 0.000271654 0.000122047 0.00314173 -0.00314173zm-2.5543 -2.15082l-0.348811 -0.348811 -7.87402e-006 7.87402e-006c-0.0338031,-0.0338031 -0.0401693,-0.0846614 -0.0191063,-0.124894 0.061878,-0.139965 0.0793189,-0.294701 0.0523071,-0.442783 -0.0264764,-0.145126 -0.0962244,-0.284374 -0.209272,-0.397421 -0.0763976,-0.0763976 -0.164697,-0.132937 -0.258638,-0.169642l-0.0031811 -0.00123228 0.126685 0.126689c0.0284252,0.0284252 0.0469213,0.0634409 0.0554567,0.100555 0.00807874,0.0351339 0.00674409,0.0722165 -0.00399606,0.107272l0.000177165 4.72441e-005 -0.0702756 0.26228 -0.072 0.269654c-0.0104528,0.0389961 -0.0314685,0.0725315 -0.0591969,0.0983425 -0.0270354,0.0251772 -0.0605236,0.0428504 -0.096811,0.0509252l-0.260795 0.0698819 -0.260543 0.069811c-0.00322441,0.00116142 -0.00653543,0.0021811 -0.0099252,0.00304331 -0.00203937,0.000519685 -0.00408268,0.000968504 -0.00612205,0.0013622 -0.0341772,0.00782677 -0.0687835,0.00652362 -0.10113,-0.00237402 -0.0354055,-0.00974409 -0.0676299,-0.0285315 -0.0931929,-0.0543701l-0.000200787 0.000200787 -0.000940945 -0.000940945 -3.93701e-006 0 -7.48031e-005 -7.87402e-005 -0.12472 -0.124717 0.00123622 0.00319291c0.0367047,0.0939409 0.093248,0.182248 0.16965,0.25865 0.113047,0.113047 0.252299,0.182795 0.397421,0.209268 0.150059,0.027374 0.306949,0.00909843 0.448378,-0.054811l-7.48031e-005 -0.000165354c0.0424134,-0.0191772 0.0907638,-0.00830709 0.121161,0.0235827l0.347012 0.347012 0.279535 -0.279535zm-0.148165 -0.449835l0.373819 0.373819 0.000606299 0.000590551c0.0416535,0.0416535 0.0416535,0.109197 0,0.15085l-7.87402e-006 -7.87402e-006 -0.429772 0.429772 -0.000590551 0.000606299c-0.0416535,0.0416535 -0.109197,0.0416535 -0.15085,0l7.87402e-006 -7.87402e-006 -0.374417 -0.374417c-0.161811,0.0584449 -0.336201,0.0723543 -0.504146,0.0417126 -0.187543,-0.0342126 -0.366575,-0.123421 -0.510752,-0.267598 -0.0973937,-0.0973937 -0.169787,-0.210772 -0.217146,-0.33198 -0.0479016,-0.12261 -0.0698228,-0.253181 -0.0657874,-0.383213 -0.00124803,-0.0288228 0.00912598,-0.058063 0.0311339,-0.0800709 0.0416535,-0.0416535 0.109197,-0.0416535 0.15085,0l-7.87402e-006 7.87402e-006 0.161185 0.161193 0.195039 0.195031 0.266535 -0.0714173 0.257118 -0.0688937c0.00316535,-0.00102362 0.00640551,-0.00191339 0.0097126,-0.00264961l0.0711378 -0.266425 0.0688465 -0.256937c0.000685039,-0.00322047 0.00152756,-0.00644094 0.0025315,-0.00964173l-0.194992 -0.194996 -0.160429 -0.160429c-0.0187402,-0.0183622 -0.0307913,-0.043626 -0.0319213,-0.0719055 -0.00235433,-0.0588622 0.0434528,-0.108496 0.102315,-0.11085l0.00426772 0.106583 -0.00416535 -0.106252c0.132941,-0.00532283 0.26665,0.0165039 0.39202,0.0654882 0.121209,0.0473622 0.234579,0.119748 0.331969,0.217138 0.144173,0.144173 0.23339,0.323205 0.267602,0.510752 0.0306378,0.167949 0.0167283,0.342343 -0.0417126,0.50415zm-0.803252 -0.222087l-0.000212598 -5.90551e-005 0.0192441 0.0995748 -0.0190315 -0.0995157zm-3.54331e-005 -0.000192913l-0.000255906 -0.000271654 7.87402e-005 0.000405512 0.000212598 5.90551e-005 -3.54331e-005 -0.000192913zm0 0l-0.000909449 -0.00474409 -0.000185039 0.000122047 0.000838583 0.00435039 0.000255906 0.000271654zm-0.512823 0.242228l-0.026122 -0.0977598 0.00341732 -0.00332677 -0.00015748 -5.11811e-005 -0.00329921 0.00322441 -6.69291e-005 -0.000248031 -3.93701e-006 3.93701e-006 6.69291e-005 0.000244094 -5.51181e-005 5.51181e-005 3.93701e-005 0.000153543 5.51181e-005 -5.51181e-005 0.0250276 0.0936654 0.00109843 0.00409449zm-0.026122 -0.0977598l-3.93701e-005 -0.000153543 -3.93701e-006 0 3.93701e-005 0.000153543 3.93701e-006 0zm-0.000106299 -0.000401575l-0.000314961 -0.00116929 0.000311024 0.00117323 3.93701e-006 -3.93701e-006z"/>
  <rect class="fil1" width="6.82666" height="6.82666"/>
 </g>
</svg>
