<svg id="Layer_1" data-name="Layer 1" xmlns="http://www.w3.org/2000/svg" viewBox="0 0 64 64"><defs><style>.cls-1{fill:none;stroke:#000;stroke-linecap:round;stroke-linejoin:round;stroke-width:4px;}</style></defs><title>5</title><polygon class="cls-1" points="36.66 22.04 41.61 17.09 53.63 29.11 56.59 25.77 56.46 20.62 43.73 7.89 38.59 7.76 30.3 15.67 36.66 22.04"/><path class="cls-1" d="M30.3,15.67,48,33.35l-2.82,2.83H39.49l-2.83-2.83L15.09,54.92a4.51,4.51,0,0,1-6.36,0h0a4.5,4.5,0,0,1,0-6.37L30.3,27l-5.66-5.66Z"/><path class="cls-1" d="M18.52,22.11h8a0,0,0,0,1,0,0v10a4,4,0,0,1-4,4h0a4,4,0,0,1-4-4v-10a0,0,0,0,1,0,0Z" transform="translate(27.18 -7.4) rotate(45)"/></svg>