<svg id="Layer_1" data-name="Layer 1" xmlns="http://www.w3.org/2000/svg" viewBox="0 0 64 64"><defs><style>.cls-1{fill:none;stroke:#000;stroke-linecap:round;stroke-linejoin:round;stroke-width:4px;}</style></defs><title>6</title><path class="cls-1" d="M44.25,25.59l-5.66-5.66L49.27,6.83a5.61,5.61,0,0,1,8.32-.42h0a5.61,5.61,0,0,1-.36,8.27Z"/><line class="cls-1" x1="43.45" y1="14.89" x2="49.11" y2="20.55"/><path class="cls-1" d="M43.08,27.42a8,8,0,0,0-6.5-6.5C30.13,19.83,19.5,19,14.22,24.32L4.76,33.78,17.49,46.51,30.22,59.24l9.46-9.46C45,44.5,44.17,33.87,43.08,27.42Z"/><rect class="cls-1" x="2.32" y="39.68" width="36" height="8" transform="translate(36.84 -1.57) rotate(45)"/></svg>