<svg id="Layer_1" data-name="Layer 1" xmlns="http://www.w3.org/2000/svg" viewBox="0 0 64 64"><defs><style>.cls-1{fill:none;stroke:#000;stroke-linecap:round;stroke-linejoin:round;stroke-width:4px;}</style></defs><title>7</title><polygon class="cls-1" points="20.69 31.29 51.09 10.79 53.21 12.91 54.63 18.57 52.51 19.27 51.8 21.39 49.68 22.1 48.97 24.22 46.85 24.93 46.14 27.05 44.02 27.76 43.31 29.88 41.19 30.59 39.78 33.41 37.66 34.12 36.95 36.24 34.83 36.95 33.41 39.78 31.29 40.48 30.59 42.61 28.46 43.31 24.22 44.73 26.34 36.95 20.69 31.29"/><polygon class="cls-1" points="20.69 31.29 9.37 38.36 14.32 53.21 22.81 50.38 26.34 36.95 20.69 31.29"/></svg>