<?xml version="1.0" encoding="UTF-8"?>
<!DOCTYPE svg PUBLIC "-//W3C//DTD SVG 1.1//EN" "http://www.w3.org/Graphics/SVG/1.1/DTD/svg11.dtd">
<!-- Creator: CorelDRAW -->
<svg xmlns="http://www.w3.org/2000/svg" xml:space="preserve" width="6.82666in" height="6.82666in" style="shape-rendering:geometricPrecision; text-rendering:geometricPrecision; image-rendering:optimizeQuality; fill-rule:evenodd; clip-rule:evenodd"
viewBox="0 0 6.82666 6.82666"
 xmlns:xlink="http://www.w3.org/1999/xlink">
 <defs>
  <style type="text/css">
   <![CDATA[
    .fil1 {fill:none}
    .fil0 {fill:#c45e04;fill-rule:nonzero}
   ]]>
  </style>
 </defs>
 <g id="Layer_x0020_1">
  <metadata id="CorelCorpID_0Corel-Layer"/>
  <path class="fil0" d="M2.12695 0.853331l0.533331 0c0.170965,0 0.329161,0.0584646 0.455618,0.156425 0.107315,0.0831339 0.191591,0.194886 0.241181,0.323575l0.263205 0c0.0589094,0 0.106669,0.0477598 0.106669,0.106669l0 0.32c0,0.0589094 -0.0477598,0.106669 -0.106669,0.106669l-0.263205 0c-0.0495906,0.128689 -0.133866,0.240441 -0.241185,0.323575 -0.126457,0.0979606 -0.28465,0.156425 -0.455614,0.156425l-0.533331 0c-0.0589094,0 -0.106669,-0.0477598 -0.106669,-0.106669l0 -1.28c0,-0.0589094 0.0477598,-0.106669 0.106669,-0.106669zm0.533331 0.213339l-0.426661 0 0 1.06666 0.426661 0c0.122508,0 0.235543,-0.0416457 0.325614,-0.111417 0.090374,-0.0700079 0.15789,-0.168157 0.189008,-0.280882 0.00895276,-0.0498622 0.0525512,-0.0877008 0.104988,-0.0877008l0.233724 0 0 -0.106661 -0.231961 0c-0.048126,0.000830709 -0.0923701,-0.0312047 -0.105004,-0.0798465l0.10324 -0.0268228 -0.102917 0.0266654c-0.030126,-0.115953 -0.0986496,-0.21698 -0.191075,-0.288579 -0.0900709,-0.0697717 -0.20311,-0.111417 -0.325618,-0.111417z"/>
  <path class="fil0" d="M1.59361 1.78902c-0.0589094,0 -0.106669,0.0477598 -0.106669,0.106669 0,0.0589094 0.0477598,0.106669 0.106669,0.106669l0.489217 0c0.0589094,0 0.106669,-0.0477598 0.106669,-0.106669 0,-0.0589094 -0.0477598,-0.106669 -0.106669,-0.106669l-0.489217 0z"/>
  <path class="fil0" d="M1.59361 1.19765c-0.0589094,0 -0.106669,0.0477598 -0.106669,0.106669 0,0.0589094 0.0477598,0.106669 0.106669,0.106669l0.489217 0c0.0589094,0 0.106669,-0.0477598 0.106669,-0.106669 0,-0.0589094 -0.0477598,-0.106669 -0.106669,-0.106669l-0.489217 0z"/>
  <path class="fil0" d="M2.60848 1.49333c0.0292047,0 0.0558031,0.0119291 0.0752087,0.031248l0.000102362 0.000106299 7.87402e-006 7.87402e-006 0.000110236 -0.000110236c0.00138976,0.0013937 0.00268898,0.00284252 0.0038937,0.00434252 0.0170039,0.0189685 0.0273425,0.0438819 0.0273425,0.0710709 0,0.0292047 -0.0119291,0.0558031 -0.031248,0.0752087l-0.000106299 0.000102362 -7.87402e-006 7.87402e-006 0.000110236 0.000110236c-0.0013937,0.0013937 -0.00285039,0.00269291 -0.00435433,0.00390157 -0.0189724,0.017 -0.0438819,0.0273346 -0.0710591,0.0273346 -0.0292126,0 -0.0558031,-0.0119331 -0.0752087,-0.031248l-0.000102362 -0.000106299 -7.87402e-006 -7.87402e-006 -0.000110236 0.000110236c-0.0013937,-0.0013937 -0.00269291,-0.00285039 -0.00390157,-0.00435433 -0.017,-0.0189724 -0.0273346,-0.0438819 -0.0273346,-0.0710591 0,-0.0292126 0.0119331,-0.0558031 0.031248,-0.0752087l0.000106299 -0.000102362 7.87402e-006 -7.87402e-006 -0.000110236 -0.000110236c0.0013937,-0.00138976 0.00284252,-0.00268898 0.00434252,-0.0038937 0.0189685,-0.0170039 0.0438819,-0.0273425 0.0710709,-0.0273425zm0.0377087 0.0689567l-0.0350551 0.0348583c-0.000555118,0.000641732 -0.00112598,0.00127165 -0.0017126,0.0018937l0.0367677 -0.036752zm-0.0377087 0.0375c-6.29921e-005,-6.29921e-005 -3.14961e-005,-1.1811e-005 0,5.11811e-005l0 -5.11811e-005zm0.00285039 0.0028622c-0.000641732,-0.000555118 -0.00127165,-0.00112598 -0.0018937,-0.0017126l0.036752 0.0367677 -0.0348583 -0.0350551zm-0.00264173 -0.00265354l-5.11811e-005 0c5.90551e-005,2.75591e-005 0.000110236,5.90551e-005 5.11811e-005,0zm0 0c6.29921e-005,-6.29921e-005 1.1811e-005,-3.14961e-005 -5.11811e-005,0l5.11811e-005 0zm-0.0028622 0.00285039c0.000555118,-0.000641732 0.00112598,-0.00127165 0.0017126,-0.0018937l-0.0367677 0.036752 0.0350551 -0.0348583zm0.00265354 -0.00264173l0 -5.11811e-005c-2.75591e-005,6.29921e-005 -5.90551e-005,0.000110236 0,5.11811e-005zm0 0c5.90551e-005,5.90551e-005 3.14961e-005,1.1811e-005 0,-5.11811e-005l0 5.11811e-005zm-0.00285039 -0.0028622c0.000641732,0.000555118 0.00127165,0.00112598 0.0018937,0.0017126l-0.036752 -0.0367677 0.0348583 0.0350551zm0.00264173 0.00265354l5.11811e-005 0c-6.29921e-005,-3.14961e-005 -0.000114173,-6.29921e-005 -5.11811e-005,0zm0 0c-5.90551e-005,5.90551e-005 -7.87402e-006,2.75591e-005 5.11811e-005,0l-5.11811e-005 0zm0.000208661 -0.000208661l0 5.11811e-005c3.14961e-005,-6.29921e-005 5.90551e-005,-0.000110236 0,-5.11811e-005z"/>
  <path class="fil0" d="M3.67472 1.49333c-0.0589094,0 -0.106669,0.0477598 -0.106669,0.106669 0,0.0589094 0.0477598,0.106669 0.106669,0.106669l0.40463 0c0.352638,0 0.673043,0.140807 0.905165,0.367654 0.231272,0.226012 0.374827,0.537807 0.374827,0.880811 0,0.343 -0.143555,0.654795 -0.374827,0.880811 -0.232122,0.226843 -0.552528,0.36765 -0.905165,0.36765l-1.38667 0c-0.0589094,0 -0.106669,0.0477598 -0.106669,0.106669 0,0.0589094 0.0477598,0.106669 0.106669,0.106669l1.38667 0c0.410024,0 0.782965,-0.164106 1.0535,-0.428484 0.271382,-0.265217 0.439835,-0.630996 0.439835,-1.03331 0,-0.402323 -0.168453,-0.768106 -0.439835,-1.03331 -0.270531,-0.264386 -0.643472,-0.428488 -1.0535,-0.428488l-0.40463 0z"/>
  <path class="fil0" d="M5.7266 5.97333c0.0589094,0 0.106669,-0.0477598 0.106669,-0.106669 0,-0.0589094 -0.0477598,-0.106669 -0.106669,-0.106669l-3.83024 0c-0.190291,0 -0.363106,-0.0759016 -0.488228,-0.198177 -0.124272,-0.121449 -0.201409,-0.289008 -0.201409,-0.473354 0,-0.184343 0.0771378,-0.351906 0.201409,-0.47335 0.125122,-0.122276 0.297937,-0.198177 0.488228,-0.198177l0.796311 0c0.0589094,0 0.106669,-0.0477598 0.106669,-0.106669 0,-0.0589094 -0.0477598,-0.106669 -0.106669,-0.106669l-0.796311 0c-0.247677,0 -0.473028,0.0992008 -0.636559,0.259012 -0.164382,0.160642 -0.266417,0.382193 -0.266417,0.625854 0,0.243661 0.102035,0.465209 0.266417,0.625858 0.163531,0.159811 0.388882,0.259012 0.636559,0.259012l3.83024 0z"/>
  <rect class="fil1" width="6.82666" height="6.82666"/>
 </g>
</svg>
