<?xml version="1.0" encoding="UTF-8"?>
<!DOCTYPE svg PUBLIC "-//W3C//DTD SVG 1.1//EN" "http://www.w3.org/Graphics/SVG/1.1/DTD/svg11.dtd">
<!-- Creator: CorelDRAW -->
<svg xmlns="http://www.w3.org/2000/svg" xml:space="preserve" width="6.82666in" height="6.82666in" style="shape-rendering:geometricPrecision; text-rendering:geometricPrecision; image-rendering:optimizeQuality; fill-rule:evenodd; clip-rule:evenodd"
viewBox="0 0 6.82666 6.82666"
 xmlns:xlink="http://www.w3.org/1999/xlink">
 <defs>
  <style type="text/css">
   <![CDATA[
    .fil1 {fill:none}
    .fil0 {fill:#c45e04;fill-rule:nonzero}
   ]]>
  </style>
 </defs>
 <g id="Layer_x0020_1">
  <metadata id="CorelCorpID_0Corel-Layer"/>
  <path class="fil0" d="M1.4113 5.61851l0.904878 0c0.163642,0 0.320059,-0.030752 0.463551,-0.0866339 0.149728,-0.058315 0.285937,-0.143791 0.402142,-0.250098 0.117083,-0.107114 0.213807,-0.235634 0.283594,-0.379138 0.067315,-0.138413 0.109343,-0.29065 0.120134,-0.450882 0.00616142,-0.0917126 0.00455512,-0.193185 0.00299213,-0.292165l-3.93701e-005 3.93701e-006c-3.54331e-005,0.0043937 -9.44882e-005,0.00840157 -0.000145669,0l-0.000216535 3.93701e-006 0 -0.00030315 -3.93701e-006 0c-4.33071e-005,-0.00272835 2.3622e-005,-0.00543307 0.000181102,-0.00811024 -5.11811e-005,-0.0152677 -8.66142e-005,-0.0462283 -8.66142e-005,-0.105382 0,-0.106614 0.0208661,-0.208618 0.0586024,-0.30189 0.0390551,-0.0965197 0.0964646,-0.183551 0.167744,-0.256488 0.0700984,-0.0717323 0.153748,-0.129583 0.246528,-0.169035 0.0900315,-0.0382874 0.188232,-0.0594528 0.290583,-0.0594528 0.102512,0 0.200343,0.0210827 0.28989,0.0590276 0.0932756,0.0395276 0.176618,0.0972165 0.246067,0.16828 0.0717441,0.0734094 0.129295,0.16089 0.168472,0.257374 0.0380866,0.0937992 0.0590276,0.196071 0.0590276,0.302185l-0.000417323 0 -0.00425591 1.24837 0.486559 0 0.00425984 -1.24837 -0.000417323 0c0,-0.170012 -0.0336654,-0.333713 -0.0948898,-0.483756 -0.0632913,-0.155091 -0.155909,-0.295646 -0.271126,-0.413543 -0.115283,-0.117969 -0.25298,-0.213547 -0.4065,-0.278799 -0.145949,-0.0620354 -0.306728,-0.0964961 -0.476669,-0.0964961 -0.16902,0 -0.330126,0.0345472 -0.476921,0.0970472 -0.153354,0.0652913 -0.291583,0.160917 -0.407402,0.279429 -0.114689,0.117354 -0.207264,0.257366 -0.270524,0.41265 -0.0607559,0.149134 -0.0943386,0.312476 -0.0943386,0.483469 0,0.0303976 0.00015748,0.0352795 0.000393701,0.0425394 0.000464567,0.014248 0.00108661,0.0332835 0.00179134,0.0772441l0.000393701 -1.1811e-005 2.3622e-005 0.00131102 3.93701e-006 0 0 0.000354331c4.33071e-005,0.00308268 -3.54331e-005,0.0061378 -0.000251969,0.00915748 0.00125984,0.0801417 0.00229921,0.162126 -0.0031378,0.243106 -0.0066063,0.0980945 -0.0322992,0.191126 -0.0734291,0.275524 -0.0421024,0.0863937 -0.101051,0.164386 -0.172815,0.230043 -0.0720984,0.0659567 -0.15663,0.118728 -0.249559,0.15437 -0.0897126,0.0344094 -0.1875,0.0533425 -0.289787,0.0533425l-0.904878 0 0 0.485724zm0.904878 0.213339l-1.01155 0c-0.0589094,0 -0.106669,-0.0477598 -0.106669,-0.106669l0 -0.699063c0,-0.0589094 0.0477598,-0.106669 0.106669,-0.106669l1.01155 0c0.0758976,0 0.148079,-0.0139055 0.213953,-0.0391693 0.0687323,-0.0263622 0.130382,-0.0645945 0.182063,-0.111874 0.0511102,-0.0467598 0.093563,-0.103268 0.124476,-0.166705 0.0295118,-0.0605551 0.0479134,-0.126878 0.0525945,-0.196358 0.00520472,-0.0775197 0.00427559,-0.152504 0.0031378,-0.225677 -0.000122047,-0.00120472 -0.000220472,-0.00241339 -0.00030315,-0.00362992l-3.54331e-005 -0.000503937 -0.000110236 -0.00205118 -3.54331e-005 -0.000870079 -3.14961e-005 -0.000755906 7.87402e-006 0 -4.33071e-005 -0.00157874 0.106654 -0.00169291 -0.106252 0.00166535c-0.000606299,-0.0384173 -0.00129921,-0.0594921 -0.00181102,-0.0752323 -0.00073622,-0.0226535 -0.00122835,-0.0376772 -0.00122835,-0.0492087 0,-0.198917 0.0392205,-0.389303 0.110173,-0.563469 0.0736339,-0.180756 0.181614,-0.343957 0.315524,-0.48098 0.135551,-0.138701 0.297248,-0.250583 0.476575,-0.326933 0.173268,-0.0737717 0.362579,-0.114551 0.560252,-0.114551 0.19863,0 0.387579,0.0407126 0.56,0.114 0.179575,0.0763268 0.340705,0.188193 0.475673,0.326303 0.134484,0.13761 0.242472,0.301386 0.316126,0.481874 0.0714409,0.175083 0.110724,0.365866 0.110724,0.563756l-0.000417323 0 -0.00447244 1.31082 0.000417323 0c0,0.00746457 -0.000374016,0.0170945 -0.00111024,0.0288386 -0.00030315,0.00482283 -0.000870079,0.0109016 -0.00169685,0.0181811 -0.00148425,0.0576142 -0.0486614,0.10387 -0.106634,0.10387l-0.693102 0c-0.0531969,0.000275591 -0.0994331,-0.0392323 -0.106248,-0.0933386l0.105831 -0.0133307 -0.105417 0.0129173c-0.00149606,-0.0119055 -0.00248031,-0.0213898 -0.00291339,-0.0282992 -0.00073622,-0.0117441 -0.00111024,-0.021374 -0.00111024,-0.0288386l0.000417323 0 0.0044685 -1.31082 -0.000417323 0c0,-0.0783661 -0.0153228,-0.153547 -0.0431929,-0.222185 -0.0289055,-0.071185 -0.0710827,-0.135437 -0.123472,-0.189043 -0.0500945,-0.0512559 -0.10974,-0.0926693 -0.176067,-0.120776 -0.0629921,-0.0266929 -0.132917,-0.0415236 -0.207386,-0.0415236 -0.0737244,0 -0.143728,0.014937 -0.207252,0.0419488 -0.0668268,0.0284173 -0.127008,0.0700118 -0.177354,0.121531 -0.0519409,0.0531496 -0.0939449,0.116984 -0.122744,0.188157 -0.0275394,0.0680669 -0.0427677,0.14302 -0.0427677,0.22189 0,0.00327165 -0.000362205,0.0749488 -0.000496063,0.102858 0.000200787,0.0024252 0.000330709,0.00487795 0.000370079,0.00735039l-3.93701e-006 0 7.87402e-006 0.000208661 -0.0435039 0.000688976 0.0026378 -3.14961e-005 0.0404646 -0.000633858c0.00167717,0.10598 0.0033937,0.214626 -0.00299213,0.309677 -0.0126693,0.188134 -0.0619882,0.366815 -0.140969,0.52922 -0.0814173,0.167413 -0.194634,0.317697 -0.331933,0.443303 -0.135724,0.124165 -0.294516,0.223882 -0.468803,0.29176 -0.16835,0.065563 -0.350693,0.101642 -0.54022,0.101642z"/>
  <path class="fil0" d="M4.79024 1.77783l0 0.930654c0,0.0589094 -0.0477598,0.106669 -0.106669,0.106669 -0.0125945,0 -0.0246772,-0.00218898 -0.0358937,-0.00619685 -0.0461024,-0.0114961 -0.0933819,-0.0203819 -0.141677,-0.0264882 -0.048311,-0.0061063 -0.099748,-0.00925984 -0.154264,-0.00925984 -0.0590669,0 -0.116142,0.00401575 -0.17102,0.0117717 -0.0573661,0.00811417 -0.113,0.0200669 -0.166626,0.0355669l-0.0295827 -0.102083 0.029626 0.102472c-0.0565906,0.0163583 -0.11574,-0.0162559 -0.132098,-0.0728465 -0.00307874,-0.0106496 -0.00442126,-0.0213937 -0.00419685,-0.0319213l0 -0.938339c0,-0.0589094 0.0477598,-0.106669 0.106669,-0.106669l0.699063 0c0.0589094,0 0.106669,0.0477598 0.106669,0.106669zm-0.213339 0.800102l0 -0.693433 -0.485724 0 0 0.699535c0.0200433,-0.00373228 0.0401732,-0.0070315 0.060374,-0.00988976 0.0665512,-0.00940551 0.133413,-0.0142756 0.200185,-0.0142756 0.0591299,0 0.119559,0.00400787 0.180933,0.0117638 0.014811,0.00187008 0.0295551,0.00397244 0.0442323,0.00629921z"/>
  <path class="fil0" d="M4.75896 5.76738l0 -0.367728c0,-0.0589094 0.0477598,-0.106669 0.106669,-0.106669l0.991264 0c0.0589094,0 0.106669,0.0477598 0.106669,0.106669l0 0.367728c0,0.0589094 -0.0477598,0.106669 -0.106669,0.106669l-0.991264 0c-0.0589094,0 -0.106669,-0.0477598 -0.106669,-0.106669zm0.213339 -0.261059l0 0.15439 0.777925 0 0 -0.15439 -0.777925 0z"/>
  <path class="fil0" d="M1.30463 5.98072l-0.367728 0c-0.0589094,0 -0.106669,-0.0477598 -0.106669,-0.106669l0 -0.991268c0,-0.0589094 0.0477598,-0.106669 0.106669,-0.106669l0.367728 0c0.0589094,0 0.106669,0.0477598 0.106669,0.106669l0 0.991268c0,0.0589094 -0.0477598,0.106669 -0.106669,0.106669zm-0.261059 -0.213339l0.15439 0 0 -0.777929 -0.15439 0 0 0.777929z"/>
  <path class="fil0" d="M2.07094 5.64508c0,0.0294528 0.0238819,0.0533346 0.0533346,0.0533346 0.0294528,0 0.0533346,-0.0238819 0.0533346,-0.0533346l0 -0.533335c0,-0.0294528 -0.0238819,-0.0533346 -0.0533346,-0.0533346 -0.0294528,0 -0.0533346,0.0238819 -0.0533346,0.0533346l0 0.533335z"/>
  <path class="fil0" d="M1.87487 5.64508c0,0.0294528 0.0238819,0.0533346 0.0533346,0.0533346 0.0294528,0 0.0533346,-0.0238819 0.0533346,-0.0533346l0 -0.533335c0,-0.0294528 -0.0238819,-0.0533346 -0.0533346,-0.0533346 -0.0294528,0 -0.0533346,0.0238819 -0.0533346,0.0533346l0 0.533335z"/>
  <path class="fil0" d="M5.11023 4.95013c-0.0294528,0 -0.0533346,0.0238819 -0.0533346,0.0533346 0,0.0294528 0.0238819,0.0533346 0.0533346,0.0533346l0.533335 0c0.0294528,0 0.0533346,-0.0238819 0.0533346,-0.0533346 0,-0.0294528 -0.0238819,-0.0533346 -0.0533346,-0.0533346l-0.533335 0z"/>
  <path class="fil0" d="M5.11023 4.75406c-0.0294528,0 -0.0533346,0.0238819 -0.0533346,0.0533346 0,0.0294528 0.0238819,0.0533346 0.0533346,0.0533346l0.533335 0c0.0294528,0 0.0533346,-0.0238819 0.0533346,-0.0533346 0,-0.0294528 -0.0238819,-0.0533346 -0.0533346,-0.0533346l-0.533335 0z"/>
  <path class="fil0" d="M3.72015 0.853327l1.22778 0c0.0589094,0 0.106669,0.0477598 0.106669,0.106669l0 0.447839c0,0.131189 -0.0535945,0.250386 -0.139937,0.336728 -0.0863425,0.0863386 -0.205535,0.139937 -0.336728,0.139937l-0.487783 0c-0.131189,0 -0.250382,-0.0535984 -0.336728,-0.139937 -0.0863386,-0.0863465 -0.139937,-0.205539 -0.139937,-0.336728l0 -0.447839c0,-0.0589094 0.0477598,-0.106669 0.106669,-0.106669zm1.12111 0.213339l-1.01444 0 0 0.341169c0,0.0723031 0.0296575,0.138118 0.0774331,0.185894 0.0477756,0.0477756 0.113591,0.0774331 0.185894,0.0774331l0.487783 0c0.0723031,0 0.138118,-0.0296575 0.185894,-0.0774331 0.0477756,-0.0477756 0.0774331,-0.113591 0.0774331,-0.185894l0 -0.341169z"/>
  <rect class="fil1" width="6.82666" height="6.82666"/>
 </g>
</svg>
